<?xml version="1.0" encoding="UTF-8"?><svg id="_イヤー_2" xmlns="http://www.w3.org/2000/svg" viewBox="0 0 674.56 49.34"><defs><style>.cls-1{fill:#fff;}</style></defs><g id="design"><g><g><path class="cls-1" d="M6.86,2.46c3.84,0,6.8,3.1,6.8,6.94s-2.96,7.02-6.8,7.02S0,13.3,0,9.42C0,4.94,3.66,2.46,6.86,2.46Zm-.02,13.08c3.4,.02,5.76-2.82,5.76-6.12S10.3,3.32,6.86,3.32C3.62,3.32,1.06,5.94,1.06,9.48s2.66,6.06,5.78,6.06Zm3.18-2.62c-.8,.54-1.84,.72-2.78,.72-2.62,0-4.14-1.8-4.14-4.1,0-2.62,2.04-4.22,4.3-4.22,1.18,0,2.18,.36,2.48,.6l-.24,.84c-.32-.16-1.1-.54-2.2-.54-2.18,0-3.24,1.44-3.24,3.26s1.14,3.26,3.26,3.26c.92,0,1.76-.28,2.3-.62l.26,.8Z"/><path class="cls-1" d="M22.24,11.38v4.6c1.4-.26,2.82-.5,4.22-.76l.1,1.2c-3.82,.74-7.94,1.52-10.46,1.98-.04,.16-.14,.26-.28,.3l-.58-1.54,1.88-.3V8.8l1.66,.1c-.02,.14-.14,.24-.4,.26v7.48l2.56-.44V6.7l1.7,.12c-.02,.12-.14,.22-.4,.26v3.08h3.6v1.22h-3.6Zm11.26-4.92h-5.38c.44,6.14,1.74,11,3.7,11,.56,0,.84-1.16,.94-3.88,.3,.3,.78,.6,1.14,.74-.24,3.5-.74,4.5-2.18,4.52-3.04-.02-4.44-5.54-4.96-12.38H15.46v-1.26h11.22c-.1-1.6-.14-3.24-.16-4.9l1.84,.1c0,.16-.14,.26-.42,.3-.02,1.5,.02,3.02,.1,4.5h5.46v1.26ZM24.94,1.48v1.24h-7.76V1.48h7.76Zm4.9-.94c1.22,.88,2.64,2.16,3.32,3.04l-1.02,.82c-.66-.88-2.04-2.22-3.26-3.14l.96-.72Z"/><path class="cls-1" d="M52.62,3.7v13.28c0,.94-.22,1.38-.9,1.62-.68,.22-1.92,.24-3.74,.24-.06-.4-.28-1-.48-1.38,.74,.02,1.46,.04,2.04,.04,1.66,0,1.74,0,1.74-.52V5.02h-6.26c-.04,.82-.14,1.68-.34,2.56,2.08,1.82,4.58,4.24,5.84,5.78l-1.1,.86c-1.1-1.38-3.2-3.56-5.14-5.34-.74,2.02-2.22,4.02-5.1,5.7-.2-.3-.64-.78-.96-1.02,4.56-2.46,5.32-5.84,5.44-8.54h-5.94v13.82h-1.34V3.7h7.3V.2l1.76,.12c-.02,.14-.12,.24-.4,.28V3.7h7.58Z"/><path class="cls-1" d="M60.4,5.14h3.18c.08-.54,.16-1.14,.24-1.76h-8.2v-1.26h8.34c.06-.7,.12-1.38,.14-1.96l1.84,.18c-.06,.14-.2,.24-.46,.28-.04,.46-.08,.96-.14,1.5h8.08v1.26h-8.24c-.08,.62-.16,1.22-.26,1.76h6.18V14.62h-10.7V5.14Zm13.16,11.32v1.26h-15.52v1.1h-1.34V5.72l1.74,.1c-.02,.14-.14,.24-.4,.28v10.36h15.52Zm-3.8-8.5v-1.76h-8.08v1.76h8.08Zm0,2.8v-1.8h-8.08v1.8h8.08Zm0,2.82v-1.82h-8.08v1.82h8.08Z"/><path class="cls-1" d="M93.68,9.32v1.34h-8.46v6.34c0,.96-.26,1.36-.98,1.6-.72,.22-2.02,.24-4,.24-.1-.4-.34-1-.58-1.4,1.06,.04,2.06,.06,2.76,.06,1.26,0,1.42,0,1.42-.52v-6.32h-8.5v-1.34h8.5v-3.28l.78,.04c1.58-.82,3.3-2,4.58-3.1h-11.78V1.66h13.28l.24-.1,1.2,.8c-.06,.1-.22,.14-.34,.18-1.64,1.56-4.3,3.44-6.58,4.62v2.16h8.46Z"/><path class="cls-1" d="M106.54,9.5c0,1.14-.92,2.06-2.06,2.06s-2.06-.92-2.06-2.06,.92-2.06,2.06-2.06,2.06,.96,2.06,2.06Z"/><path class="cls-1" d="M116.18,2.06c.88-.16,2.04-.3,3.46-.3,4.92,0,5.32,3.16,5.32,4.36,0,3.58-2.86,4.86-5.56,4.86-.58,0-1.1-.02-1.56-.14v6.26h-1.66V2.06Zm1.66,7.4c.42,.12,.96,.16,1.6,.16,2.4,0,3.86-1.2,3.86-3.38s-1.56-3.14-3.64-3.14c-.84,0-1.46,.08-1.82,.16v6.2Z"/><path class="cls-1" d="M138.34,17.1h-1.66l-4.86-8.02c-1.02-1.7-2-3.4-2.74-5.08l-.08,.02c.14,1.94,.16,3.72,.16,6.36v6.72h-1.56V1.86h1.74l4.92,8.02c1.08,1.82,1.96,3.4,2.66,4.98l.04-.02c-.16-2.12-.2-3.94-.2-6.34V1.86h1.58v15.24Z"/><path class="cls-1" d="M141.84,2.06c.88-.16,2.04-.3,3.46-.3,4.92,0,5.32,3.16,5.32,4.36,0,3.58-2.86,4.86-5.56,4.86-.58,0-1.1-.02-1.56-.14v6.26h-1.66V2.06Zm1.66,7.4c.42,.12,.96,.16,1.6,.16,2.4,0,3.86-1.2,3.86-3.38s-1.56-3.14-3.64-3.14c-.84,0-1.46,.08-1.82,.16v6.2Z"/><path class="cls-1" d="M152.26,18.22L170.28,.2l.58,.58-18.02,18.02-.58-.58Z"/><path class="cls-1" d="M174.94,4.92v4.36c0,2.86-.26,6.86-1.82,9.6-.22-.2-.76-.52-1.06-.64,1.5-2.64,1.66-6.28,1.66-8.96V3.88h3.96V.2l1.66,.1c-.02,.14-.12,.24-.38,.28v.98h4.66v1.04h-4.66v1.28h4.48l.68,.02s-.02,.16-.04,.22c-.2,.94-.52,2.08-.88,2.78l-1-.24c.2-.46,.38-1.1,.54-1.74h-3.86v.02h.28c-.02,.12-.12,.22-.36,.26v1.02l2.86-.3,.12,.86-2.98,.32v.66c0,.4,.12,.48,.8,.48h2.5c.5,0,.6-.14,.64-1.1,.24,.16,.62,.28,.92,.34-.1,1.24-.42,1.56-1.42,1.56h-2.74c-1.78,0-1.78-.36-1.78-1.82l-2.3,.26-.12-.88,2.42-.26v-1.42h-2.78Zm5.76,5.88c-.06,.04-.16,.06-.28,.06-.36,.32-.84,.66-1.4,.98,.52,.48,.9,1,1.2,1.54,.76-.62,1.6-1.46,2.12-2.06l1.1,.76c-.1,.1-.26,.14-.4,.1-.58,.56-1.48,1.34-2.28,1.9,1,.58,3.02,1.84,3.58,2.22l-.7,.98c-.52-.46-1.76-1.34-2.76-2.04,.04,.28,.06,.56,.06,.82,0,1.28-.48,2.74-2.36,2.74-.34,0-.8,0-1.26-.02-.02-.28-.12-.74-.32-1.02,.56,.06,1.06,.08,1.38,.08,.68,0,1.52-.18,1.52-1.82,0-.22-.02-.46-.06-.7-1.34,1.16-3.36,2.3-5.08,2.92-.12-.24-.38-.6-.58-.82,1.9-.54,4.2-1.8,5.42-3-.1-.28-.22-.56-.38-.84-1.02,.76-2.5,1.56-3.7,2.04-.12-.24-.36-.6-.58-.78,1.28-.38,2.92-1.16,3.84-1.9-.18-.22-.38-.44-.6-.64-.82,.4-1.7,.76-2.52,1.02-.1-.2-.32-.54-.48-.72,1.32-.4,2.88-1.06,3.88-1.8h-3.66v-.96h8.22v.96h-2.92Zm5.6-7.96c-.02,.14-.12,.22-.38,.26V14.18h-1.22V2.74l1.6,.1Zm2.34-1.98l1.66,.1c-.02,.14-.12,.24-.38,.26v15.74c0,1.7-.68,1.78-3.9,1.78-.06-.36-.26-.98-.44-1.36,.7,.02,1.36,.04,1.86,.04,1.12,0,1.2,0,1.2-.46V.86Z"/><path class="cls-1" d="M196.22,11.96l2.2-1c.04,.12,.08,.24,.28,1.18-2.06,1-4.26,2.06-5.66,2.7,0,.16-.1,.28-.22,.34l-.66-1.5c.76-.3,1.72-.7,2.78-1.16V5.9h-2.44v-1.3h2.44V.24l1.66,.12c-.02,.14-.12,.22-.38,.26v3.98h2.26v1.3h-2.26v6.06Zm14.62-2.2h-8.44c-.26,.52-.58,1.02-.92,1.52h7.9l.28-.02,.74,.12-.08,.4c-.34,4.34-.66,5.92-1.2,6.5-.48,.5-.98,.5-2.02,.5-.34,0-.74-.02-1.14-.04-.02-.34-.12-.82-.3-1.12,.78,.08,1.48,.08,1.78,.08s.46-.02,.62-.2c.36-.38,.66-1.72,.94-5.08h-1.8c-.76,2.48-2.28,5.16-3.94,6.52-.26-.26-.66-.6-1.02-.78,1.62-1.16,3.06-3.48,3.84-5.74h-2.12c-1.06,2.16-3.02,4.44-4.88,5.66-.22-.28-.6-.64-.92-.86,1.7-.96,3.5-2.88,4.58-4.8h-2.16c-.84,.98-1.82,1.84-2.82,2.48-.2-.22-.6-.6-.86-.8,1.58-.96,3.14-2.54,4.12-4.34h-2.98v-1.18h12.8v1.18Zm-1.46-8.92V7.36h-9.26V.84h9.26Zm-1.26,2.74V1.86h-6.78v1.72h6.78Zm0,2.74v-1.74h-6.78v1.74h6.78Z"/><path class="cls-1" d="M214.8,7.1v1.42c0,.52,0,1.08-.02,1.64h4.26v7.64h-1.22v-6.42h-3.08c-.14,2.56-.48,5.26-1.36,7.42-.28-.16-.82-.38-1.18-.48,1.2-2.86,1.38-6.84,1.38-9.8V.62l1.6,.1c-.02,.14-.12,.24-.38,.26V5.88h2.36V.18l1.62,.12c-.02,.12-.12,.22-.38,.26V5.88h2.3v1.22h-5.9Zm14.54-.92l.8,.3c-.02,.1-.08,.18-.16,.24-.48,3.12-1.44,5.68-2.76,7.72,1.04,1.42,2.3,2.54,3.74,3.26-.32,.26-.72,.76-.94,1.1-1.38-.76-2.58-1.88-3.6-3.22-1.08,1.38-2.34,2.44-3.72,3.22-.2-.32-.56-.82-.88-1.08,1.42-.7,2.72-1.82,3.82-3.3-1.1-1.8-1.94-3.92-2.52-6.24l1.18-.3c.48,1.94,1.2,3.78,2.14,5.36,.96-1.6,1.7-3.54,2.14-5.76h-6c-.02,3.4-.34,8.06-2.1,11.3-.24-.22-.8-.56-1.12-.66,1.8-3.3,1.96-7.9,1.96-11.18V1.12h9.44v1.26h-8.18v3.86h6.52l.24-.06Z"/><path class="cls-1" d="M244.4,14.68V0h6.66V1.04h-5.62V14.68h-1.04Z"/><path class="cls-1" d="M270.72,13.56h-7.72c1.32,2.42,3.98,3.62,7.98,4.02-.3,.3-.66,.86-.82,1.24-4.36-.58-7.12-2.12-8.54-5.26h-.22c-.98,2.62-3.12,4.36-8.5,5.24-.1-.36-.44-.92-.68-1.2,4.66-.68,6.72-1.98,7.72-4.04h-7.48v-1.22h7.92c.18-.6,.28-1.26,.38-1.98h-8.2v-1.24h8.28v-1.82h-6.3v-1.18h6.3v-1.76h-7.38v-1.24h4.34c-.3-.76-.98-1.74-1.62-2.44l1.12-.48c.78,.76,1.52,1.84,1.82,2.6l-.7,.32h5.84c-.2-.1-.4-.2-.54-.24,.62-.72,1.42-1.88,1.86-2.68l1.58,.62c-.06,.12-.2,.16-.4,.16-.44,.62-1.14,1.48-1.74,2.14h4.68v1.24h-7.5v1.76h6.48v1.18h-6.48v1.82h8.36v1.24h-8.04c-.04,.1-.2,.18-.4,.22-.1,.62-.2,1.2-.34,1.76h8.94v1.22Z"/><path class="cls-1" d="M278.16,3.26c-.04,.14-.2,.22-.44,.2-.88,2.14-2.5,4.98-4.3,6.84-.28-.26-.82-.62-1.18-.82,1.8-1.72,3.38-4.46,4.16-6.68l1.76,.46Zm10.24,6.04c-.06,.14-.18,.2-.42,.22-1.92,5.34-5.98,8.14-13.52,9.32-.14-.42-.46-.98-.72-1.32,7.26-.96,11.18-3.52,12.94-8.68l1.72,.46ZM280.86,.24l1.78,.1c-.04,.14-.14,.24-.4,.28V10.62c0,.88-.22,1.28-.86,1.52-.64,.22-1.74,.24-3.46,.24-.06-.4-.28-.98-.5-1.38,.82,.02,1.58,.04,2.14,.04,1.2,0,1.3,0,1.3-.44V.24Zm8.76,9.78c-.72-1.84-2.6-4.7-4.36-6.8l1.2-.6c1.78,2.04,3.7,4.82,4.48,6.68l-1.32,.72Z"/><path class="cls-1" d="M310.72,6.46h-3.22c-.68,3.22-1.72,5.72-3.44,7.64,2.44,1.18,4.66,2.44,6.16,3.56l-1,1.24c-1.48-1.16-3.74-2.5-6.24-3.74-2.18,1.86-5.26,3.02-9.66,3.68-.12-.4-.44-.94-.7-1.28,4-.54,6.86-1.52,8.9-3.1-1.64-.76-3.34-1.46-4.94-2.04l-.48,1.02-1.34-.5c.84-1.68,1.88-4.04,2.9-6.48h-5.2v-1.34h5.74c.7-1.72,1.38-3.42,1.92-4.9l1.78,.34c-.04,.14-.18,.22-.46,.22-.5,1.3-1.1,2.8-1.72,4.34h11v1.34Zm-11.56,0c-.7,1.66-1.4,3.3-2.04,4.76,1.78,.62,3.7,1.4,5.54,2.24,1.68-1.74,2.68-4.02,3.34-7h-6.84Z"/><path class="cls-1" d="M322.78,15.22h-4.6v3.58h-1.3v-3.58h-4.64v-1.22h4.64v-1.86h-3.78V5.04h9v7.1h-3.92v1.86h4.6v1.22Zm-9.4-14.52c.7,1.02,1.34,2.4,1.52,3.32l-1.18,.44c-.18-.92-.8-2.34-1.44-3.38l1.1-.38Zm.88,5.44v1.92h2.68v-1.92h-2.68Zm0,2.96v1.96h2.68v-1.96h-2.68Zm3-8.8c.48,1.1,.86,2.56,.92,3.46l-1.26,.32c-.04-.92-.4-2.4-.84-3.52l1.18-.26Zm3.62,7.76v-1.92h-2.76v1.92h2.76Zm0,3v-1.96h-2.76v1.96h2.76Zm2.18-10.12c-.08,.12-.22,.18-.44,.18-.48,1.04-1.3,2.58-1.96,3.54-.02,0-1.06-.46-1.06-.46,.62-1.02,1.44-2.7,1.86-3.86l1.6,.6Zm2.94,6.22c.18,1.92,.44,3.72,.78,5.26,.88-1.36,1.62-2.84,2.18-4.46l1.58,.48c-.04,.14-.2,.22-.44,.2-.74,1.98-1.72,3.8-2.92,5.4,.6,2.12,1.38,3.46,2.26,3.46,.5,0,.74-1.08,.84-3.58,.28,.3,.72,.62,1.06,.76-.26,3.18-.72,4.14-2.02,4.14s-2.36-1.38-3.12-3.56c-1.16,1.3-2.46,2.42-3.88,3.3-.2-.26-.6-.72-.88-.96,1.62-.94,3.08-2.24,4.32-3.78-.48-1.86-.82-4.1-1.04-6.5l-2.2,.28-.18-1.24,2.28-.28c-.14-1.9-.22-3.86-.24-5.82l1.76,.1c0,.16-.14,.26-.42,.28,0,1.78,.06,3.56,.18,5.28l4.9-.6,.16,1.22-4.96,.62Zm2.02-6.58c.98,1.02,2.06,2.42,2.5,3.38l-1.08,.66c-.42-.98-1.46-2.44-2.44-3.46l1.02-.58Z"/><path class="cls-1" d="M350.64,8.1h-8.42v8.4h7.34v1.34h-15.9v-1.34h7.16V8.1h-8.3v-1.34h8.3V.28l1.82,.12c-.02,.14-.14,.24-.42,.28V6.76h8.42v1.34Z"/><path class="cls-1" d="M369.8,5.34c-.06,.1-.18,.18-.32,.24-.9,2.16-2.48,4.88-4.18,6.52-.3-.22-.82-.52-1.2-.72,1.52-1.36,2.76-3.36,3.42-4.96l-7.66,2v5.18c0,1.96,1.18,2.62,2.78,2.62h3.26c.82,0,2.2-.12,2.98-.22,0,.44,.02,.98,.04,1.4-.8,.1-2.2,.16-2.96,.16h-3.34c-2.52,0-4.2-1.18-4.2-3.94v-4.84l-5.04,1.3-.34-1.34,5.38-1.34V1.32l1.94,.08c-.04,.24-.22,.36-.5,.4V7.02l8.46-2.18,.22-.16,1.26,.66Z"/><path class="cls-1" d="M373.1,8.44h16.7v1.42h-15.94c-.12,.2-.38,.34-.64,.38l-.12-1.8Z"/><path class="cls-1" d="M409.04,7.28c-.04,.08-.14,.16-.26,.2-1.64,6.04-4.98,8.98-10.96,10.64-.18-.36-.56-.86-.84-1.16,5.44-1.36,8.82-4.16,10.08-8.8h-13.24v-1.36h13.84l.2-.12,1.18,.6Zm-1.88-4.28h-11.4V1.68h11.4v1.32Z"/><path class="cls-1" d="M413.1,8.44h16.7v1.42h-15.94c-.12,.2-.38,.34-.64,.38l-.12-1.8Z"/><path class="cls-1" d="M448.96,17.68c-.3-.68-.66-1.4-1.06-2.12-4.16,.44-11,.86-14.06,1.02-.06,.2-.2,.36-.38,.4l-.54-1.8c.6-.02,1.32-.04,2.1-.08,1.32-3.84,3.22-9.82,4.32-13.82l1.94,.52c-.08,.18-.28,.28-.58,.28-1.1,3.68-2.82,9.04-4.2,12.96,3.32-.14,8.06-.48,10.7-.72-1.04-1.72-2.36-3.54-3.56-4.88l1.2-.68c2.1,2.3,4.5,6.1,5.52,8.28l-1.4,.64Z"/><path class="cls-1" d="M453.1,8.44h16.7v1.42h-15.94c-.12,.2-.38,.34-.64,.38l-.12-1.8Z"/><path class="cls-1" d="M474.66,2.4c2.08,.66,4.48,1.7,5.96,2.72l-.76,1.26c-1.44-1.02-3.8-2.08-5.84-2.78l.64-1.2Zm-.08,13.86c7.1-2.2,11.82-6.18,14.22-11.72,.42,.34,.88,.6,1.3,.82-2.5,5.48-7.38,9.74-14.16,12-.02,.18-.14,.38-.28,.46l-1.08-1.56Z"/><path class="cls-1" d="M502.42,17.1h-8.04V1.86h7.7v1.4h-6.04v5.16h5.68v1.38h-5.68v5.9h6.38v1.4Z"/><path class="cls-1" d="M505.16,4.22l1.64-.56v2.54h2.82v1.3h-2.82v6.3c0,1.38,.42,2.14,1.48,2.14,.5,0,.84-.06,1.12-.16l.1,1.28c-.36,.16-.92,.26-1.62,.26-2.64,0-2.72-2.4-2.72-3.56V7.5h-1.68v-1.3h1.68v-1.98Z"/><path class="cls-1" d="M519.42,16.64c-.62,.3-1.76,.68-3.42,.68-3.18,0-5.08-2.24-5.08-5.5,0-3.42,1.92-5.88,4.86-5.88,3.36,0,4.22,3.08,4.22,4.98,0,.38-.02,.66-.04,.92h-7.42c.02,3.02,1.74,4.16,3.7,4.16,1.36,0,2.18-.28,2.86-.56l.32,1.2Zm-1.06-6.04c.02-1.48-.6-3.4-2.74-3.4-2,0-2.88,1.9-3.04,3.4h5.78Z"/><path class="cls-1" d="M527.54,7.6c-.18-.02-.36-.04-.6-.04-1.8,0-2.72,1.78-2.72,3.62v5.92h-1.66v-7.64c0-1.16-.02-2.22-.08-3.26h1.46l.08,2.1h.06c.48-1.36,1.62-2.34,2.96-2.34,.18,0,.32,.04,.5,.06v1.58Z"/><path class="cls-1" d="M538.28,17.1h-1.66v-6.44c0-1.78-.64-3.34-2.54-3.34-1.42,0-2.86,1.2-2.86,3.1v6.68h-1.66V9c0-1.12-.04-1.94-.08-2.82h1.48l.1,1.78h.04c.54-1.06,1.8-2.02,3.5-2.02,1.36,0,3.68,.82,3.68,4.52v6.64Z"/><path class="cls-1" d="M548.52,14.5c0,.9,.02,1.84,.16,2.6h-1.52l-.16-1.4h-.06c-.56,.86-1.68,1.64-3.22,1.64-2.08,0-3.18-1.52-3.18-3.1,0-2.62,2.28-4.04,6.32-4.02,0-.92,0-3-2.48-3-.94,0-1.92,.26-2.66,.78l-.4-1.14c.88-.58,2.1-.92,3.32-.92,3.08,0,3.88,2.18,3.88,4.34v4.22Zm-1.64-3.06c-2.06,0-4.64,.3-4.64,2.6,0,1.4,.88,2.02,1.88,2.02,1.62,0,2.76-1.24,2.76-2.56v-2.06Z"/><path class="cls-1" d="M553.42,17.1h-1.66V1.1h1.66V17.1Z"/><path class="cls-1" d="M562.44,4.12v14.68h-6.66v-1.06h5.62V4.12h1.04Z"/><path class="cls-1" d="M586.28,12.46c.48,.94,1.12,1.76,1.9,2.46,1.3-.62,2.9-1.54,3.86-2.24l1.2,.88c-.08,.1-.26,.14-.44,.1-.98,.6-2.5,1.38-3.76,1.96,1.44,1.04,3.24,1.74,5.36,2.12-.28,.26-.6,.76-.78,1.1-4.12-.86-7.04-2.94-8.58-6.28-.82,.64-1.84,1.24-2.94,1.78l.3,.06c-.02,.12-.14,.22-.4,.24v2.44c1.56-.16,3.28-.36,4.96-.56l.04,1.04c-2.78,.38-5.72,.74-7.56,.96-.02,.16-.12,.26-.26,.3l-.6-1.38,2.12-.22v-2.28c-1.38,.56-2.84,1.02-4.18,1.32-.16-.3-.5-.78-.78-1.02,2.6-.5,5.62-1.52,7.62-2.78h-7.3v-1.12h8.3v-1.5l1.76,.12c-.02,.14-.14,.24-.4,.28v1.1h8.4v1.12h-7.84Zm-5.7-6.3v-1.14h-4.6v-1.02h4.6v-1.34h-2.46c-.26,.48-.52,.92-.78,1.28-.22-.14-.62-.36-.92-.48,.6-.78,1.14-2,1.5-3.18l1.34,.42c-.06,.14-.2,.18-.38,.16-.1,.26-.2,.54-.32,.82h2.02V.2l1.56,.1c-.02,.14-.12,.24-.38,.28V1.68h3.68v.98h-3.68v1.34h4.46v1.02h-4.46v1.14h3.8v2.52c0,1.12-.62,1.14-2.4,1.14-.06-.3-.26-.66-.38-.92h1.08c.46,0,.5,0,.5-.22v-1.58h-2.6v3.36h-1.18v-3.36h-2.46v2.82h-1.1v-3.76h3.56Zm8.34-4.92c-.02,.12-.12,.22-.38,.26v6.78h-1.24V1.12l1.62,.12Zm4.76-.74c-.02,.14-.12,.24-.38,.28V8.84c0,1.36-.38,1.48-3.62,1.48-.06-.34-.26-.82-.44-1.14,.66,.02,1.28,.04,1.74,.04,.96,0,1.08,0,1.08-.38V.42l1.62,.08Z"/><path class="cls-1" d="M598.74,7.32c-.8,1.3-1.68,2.46-2.58,3.42-.16-.32-.5-.96-.72-1.26,2.02-2.08,4-5.58,5.18-9.12l1.64,.54c-.08,.14-.22,.2-.46,.2-.54,1.44-1.18,2.86-1.9,4.22l.56,.16c-.02,.14-.14,.22-.38,.26v13.06h-1.34V7.32Zm15.74-2.4h-6.42v3.08h5.94v1.26h-5.94v3.22h6.22v1.28h-6.22v5.02h-1.36V4.92h-1.86c-.84,1.74-1.8,3.34-2.82,4.52-.24-.26-.72-.7-1.02-.92,1.62-1.84,3.18-5,4.12-8.04l1.72,.5c-.08,.14-.22,.22-.48,.22-.28,.8-.58,1.62-.92,2.42h9.04v1.3Z"/><path class="cls-1" d="M625.7,9.74h-1.32v-.06c-.08,.04-.16,.04-.3,.02-.32,.52-.7,1.08-1.08,1.68h11.26v1.18h-4.26c-.58,1.26-1.4,2.3-2.48,3.14,2.4,.64,4.54,1.32,6.16,1.96l-.82,1.12c-1.74-.74-4.08-1.48-6.7-2.18-2.26,1.22-5.34,1.9-9.44,2.22-.08-.4-.32-.9-.54-1.22,3.4-.2,6.06-.64,8.08-1.48-1.28-.3-2.62-.6-3.98-.86l-.48,.64-1.24-.46c.6-.78,1.34-1.8,2.1-2.88h-4.76v-1.18h5.56c.54-.8,1.04-1.6,1.48-2.3l1.44,.4v-3.9c-1.92,2.06-5.08,3.86-7.84,4.74-.18-.32-.56-.8-.84-1.06,2.46-.7,5.22-2.08,7.04-3.68h-6.68v-1.16h8.32V2.24c-2.18,.16-4.46,.28-6.54,.34-.02-.3-.18-.76-.3-1.06,4.58-.14,10.22-.58,13.16-1.28l1.06,1.04s-.12,.06-.2,.06c-.06,0-.12,0-.18-.02-1.48,.32-3.48,.6-5.68,.8v2.3h8.42v1.16h-6.74c1.84,1.52,4.58,2.82,7.06,3.46-.3,.28-.68,.78-.88,1.12-2.78-.84-5.92-2.58-7.84-4.58h-.02v4.16Zm-4.68,4.52c1.64,.3,3.28,.66,4.86,1.04,1.12-.72,1.98-1.62,2.58-2.74h-6.26l-1.18,1.7Z"/><path class="cls-1" d="M643.2,16.3c-.08,.08-.22,.12-.4,.14-1.3,.84-3.86,1.82-5.9,2.36-.22-.28-.66-.74-.98-1,2.08-.5,4.66-1.46,5.9-2.32l1.38,.82Zm-5.2-9.54h14.3V15.44h-14.3V6.76Zm1.14-5.74h12V5.52h-12V1.02Zm.2,6.76v1.54h11.58v-1.54h-11.58Zm0,2.52v1.56h11.58v-1.56h-11.58Zm0,2.54v1.58h11.58v-1.58h-11.58Zm1.14-10.7v2.24h9.26V2.14h-9.26Zm12.78,16.7c-1.5-.72-4.24-1.78-6.4-2.42l1.18-.88c2.08,.62,4.8,1.64,6.36,2.32l-1.14,.98Z"/><path class="cls-1" d="M666.26,.28c-.06,.16-.22,.26-.42,.3,1.96,2.72,5.58,5.4,8.72,6.76-.32,.32-.64,.8-.86,1.2-3.18-1.56-6.78-4.3-8.7-7-1.66,2.48-5,5.32-8.5,7.08-.16-.28-.5-.8-.78-1.08,3.52-1.7,6.98-4.7,8.56-7.38l1.98,.12Zm-9.5,11.42v-1.28h16.78v1.28h-9.62l.24,.08c-.06,.14-.22,.2-.48,.22-.6,1.36-1.5,3.16-2.36,4.64,2.66-.06,5.76-.16,8.8-.26-.9-1.04-1.94-2.12-2.94-3l1.14-.62c1.88,1.62,3.9,3.82,4.84,5.34l-1.2,.76c-.26-.42-.58-.9-.98-1.4-4.86,.26-10.02,.48-13.22,.58-.04,.18-.16,.26-.32,.28l-.5-1.6c.84,0,1.82-.02,2.92-.06,.82-1.44,1.76-3.4,2.38-4.96h-5.48Zm3.42-5.16h9.7v1.26h-9.7v-1.26Z"/><path class="cls-1" d="M6.86,34.46c3.84,0,6.8,3.1,6.8,6.94s-2.96,7.02-6.8,7.02-6.86-3.12-6.86-7c0-4.48,3.66-6.96,6.86-6.96Zm-.02,13.08c3.4,.02,5.76-2.82,5.76-6.12s-2.3-6.1-5.74-6.1c-3.24,0-5.8,2.62-5.8,6.16s2.66,6.06,5.78,6.06Zm3.18-2.62c-.8,.54-1.84,.72-2.78,.72-2.62,0-4.14-1.8-4.14-4.1,0-2.62,2.04-4.22,4.3-4.22,1.18,0,2.18,.36,2.48,.6l-.24,.84c-.32-.16-1.1-.54-2.2-.54-2.18,0-3.24,1.44-3.24,3.26s1.14,3.26,3.26,3.26c.92,0,1.76-.28,2.3-.62l.26,.8Z"/><path class="cls-1" d="M26.94,49.1h-1.66l-4.86-8.02c-1.02-1.7-2-3.4-2.74-5.08l-.08,.02c.14,1.94,.16,3.72,.16,6.36v6.72h-1.56v-15.24h1.74l4.92,8.02c1.08,1.82,1.96,3.4,2.66,4.98l.04-.02c-.16-2.12-.2-3.94-.2-6.34v-6.64h1.58v15.24Z"/><path class="cls-1" d="M37.44,46.5c0,.9,.02,1.84,.16,2.6h-1.52l-.16-1.4h-.06c-.56,.86-1.68,1.64-3.22,1.64-2.08,0-3.18-1.52-3.18-3.1,0-2.62,2.28-4.04,6.32-4.02,0-.92,0-3-2.48-3-.94,0-1.92,.26-2.66,.78l-.4-1.14c.88-.58,2.1-.92,3.32-.92,3.08,0,3.88,2.18,3.88,4.34v4.22Zm-1.64-3.06c-2.06,0-4.64,.3-4.64,2.6,0,1.4,.88,2.02,1.88,2.02,1.62,0,2.76-1.24,2.76-2.56v-2.06Z"/><path class="cls-1" d="M49.92,43.56c0,4.06-2.68,5.78-5.1,5.78-2.8,0-4.96-2.1-4.96-5.62,0-3.72,2.32-5.78,5.1-5.78,2.98,0,4.96,2.28,4.96,5.62Zm-5.02-4.32c-2.36,0-3.34,2.32-3.34,4.42,0,2.42,1.34,4.38,3.3,4.38s3.36-1.96,3.36-4.42c0-1.94-.94-4.38-3.32-4.38Z"/><path class="cls-1" d="M60.92,49.1h-2.04l-3.76-5.38-1,1.14v4.24h-1.66v-16h1.66v10.18h.04c.26-.38,.64-.86,.94-1.22l3.26-3.86h2l-4.1,4.5,4.66,6.4Z"/><path class="cls-1" d="M71.68,43.56c0,4.06-2.68,5.78-5.1,5.78-2.8,0-4.96-2.1-4.96-5.62,0-3.72,2.32-5.78,5.1-5.78,2.98,0,4.96,2.28,4.96,5.62Zm-5.02-4.32c-2.36,0-3.34,2.32-3.34,4.42,0,2.42,1.34,4.38,3.3,4.38s3.36-1.96,3.36-4.42c0-1.94-.94-4.38-3.32-4.38Z"/><path class="cls-1" d="M87.88,35.28h-4.5v13.82h-1.66v-13.82h-4.48v-1.4h10.64v1.4Z"/><path class="cls-1" d="M96.64,46.5c0,.9,.02,1.84,.16,2.6h-1.52l-.16-1.4h-.06c-.56,.86-1.68,1.64-3.22,1.64-2.08,0-3.18-1.52-3.18-3.1,0-2.62,2.28-4.04,6.32-4.02,0-.92,0-3-2.48-3-.94,0-1.92,.26-2.66,.78l-.4-1.14c.88-.58,2.1-.92,3.32-.92,3.08,0,3.88,2.18,3.88,4.34v4.22Zm-1.64-3.06c-2.06,0-4.64,.3-4.64,2.6,0,1.4,.88,2.02,1.88,2.02,1.62,0,2.76-1.24,2.76-2.56v-2.06Z"/><path class="cls-1" d="M108.32,49.1h-2.04l-3.76-5.38-1,1.14v4.24h-1.66v-16h1.66v10.18h.04c.26-.38,.64-.86,.94-1.22l3.26-3.86h2l-4.1,4.5,4.66,6.4Z"/><path class="cls-1" d="M117.54,48.64c-.62,.3-1.76,.68-3.42,.68-3.18,0-5.08-2.24-5.08-5.5,0-3.42,1.92-5.88,4.86-5.88,3.36,0,4.22,3.08,4.22,4.98,0,.38-.02,.66-.04,.92h-7.42c.02,3.02,1.74,4.16,3.7,4.16,1.36,0,2.18-.28,2.86-.56l.32,1.2Zm-1.06-6.04c.02-1.48-.6-3.4-2.74-3.4-2,0-2.88,1.9-3.04,3.4h5.78Z"/><path class="cls-1" d="M129.16,46.2c0,1.12,.06,2.06,.1,2.9h-1.5l-.08-1.72h-.06c-.5,.86-1.62,1.96-3.48,1.96-1.64,0-3.58-.94-3.58-4.7v-6.44h1.66v6.14c0,2.12,.62,3.6,2.44,3.6,1.3,0,2.84-1.04,2.84-2.96v-6.78h1.66v8Z"/><path class="cls-1" d="M139.82,48.7c-.48,.24-1.56,.62-2.96,.62-3.12,0-5.18-2.22-5.18-5.56s2.22-5.82,5.58-5.82c1.22,0,2.2,.36,2.62,.58l-.42,1.34c-.46-.26-1.18-.56-2.24-.56-2.52,0-3.84,2.02-3.84,4.36,0,2.64,1.58,4.3,3.78,4.3,1.08,0,1.82-.3,2.36-.54l.3,1.28Z"/><path class="cls-1" d="M150.88,49.1h-1.66v-6.44c0-1.78-.64-3.32-2.52-3.32-1.28,0-2.88,1.06-2.88,3.06v6.7h-1.66v-16h1.66v6.78h.04c.72-1.2,2.04-1.94,3.38-1.94s3.64,.82,3.64,4.52v6.64Z"/><path class="cls-1" d="M154.94,36.28c-.64,0-1.08-.5-1.08-1.14s.46-1.12,1.1-1.12,1.08,.5,1.08,1.12c0,.7-.46,1.14-1.1,1.14Zm.84,12.82h-1.66v-10.9h1.66v10.9Z"/></g><g><path class="cls-1" d="M6.86,2.46c3.84,0,6.8,3.1,6.8,6.94s-2.96,7.02-6.8,7.02S0,13.3,0,9.42C0,4.94,3.66,2.46,6.86,2.46Zm-.02,13.08c3.4,.02,5.76-2.82,5.76-6.12S10.3,3.32,6.86,3.32C3.62,3.32,1.06,5.94,1.06,9.48s2.66,6.06,5.78,6.06Zm3.18-2.62c-.8,.54-1.84,.72-2.78,.72-2.62,0-4.14-1.8-4.14-4.1,0-2.62,2.04-4.22,4.3-4.22,1.18,0,2.18,.36,2.48,.6l-.24,.84c-.32-.16-1.1-.54-2.2-.54-2.18,0-3.24,1.44-3.24,3.26s1.14,3.26,3.26,3.26c.92,0,1.76-.28,2.3-.62l.26,.8Z"/><path class="cls-1" d="M22.24,11.38v4.6c1.4-.26,2.82-.5,4.22-.76l.1,1.2c-3.82,.74-7.94,1.52-10.46,1.98-.04,.16-.14,.26-.28,.3l-.58-1.54,1.88-.3V8.8l1.66,.1c-.02,.14-.14,.24-.4,.26v7.48l2.56-.44V6.7l1.7,.12c-.02,.12-.14,.22-.4,.26v3.08h3.6v1.22h-3.6Zm11.26-4.92h-5.38c.44,6.14,1.74,11,3.7,11,.56,0,.84-1.16,.94-3.88,.3,.3,.78,.6,1.14,.74-.24,3.5-.74,4.5-2.18,4.52-3.04-.02-4.44-5.54-4.96-12.38H15.46v-1.26h11.22c-.1-1.6-.14-3.24-.16-4.9l1.84,.1c0,.16-.14,.26-.42,.3-.02,1.5,.02,3.02,.1,4.5h5.46v1.26ZM24.94,1.48v1.24h-7.76V1.48h7.76Zm4.9-.94c1.22,.88,2.64,2.16,3.32,3.04l-1.02,.82c-.66-.88-2.04-2.22-3.26-3.14l.96-.72Z"/><path class="cls-1" d="M52.62,3.7v13.28c0,.94-.22,1.38-.9,1.62-.68,.22-1.92,.24-3.74,.24-.06-.4-.28-1-.48-1.38,.74,.02,1.46,.04,2.04,.04,1.66,0,1.74,0,1.74-.52V5.02h-6.26c-.04,.82-.14,1.68-.34,2.56,2.08,1.82,4.58,4.24,5.84,5.78l-1.1,.86c-1.1-1.38-3.2-3.56-5.14-5.34-.74,2.02-2.22,4.02-5.1,5.7-.2-.3-.64-.78-.96-1.02,4.56-2.46,5.32-5.84,5.44-8.54h-5.94v13.82h-1.34V3.7h7.3V.2l1.76,.12c-.02,.14-.12,.24-.4,.28V3.7h7.58Z"/><path class="cls-1" d="M60.4,5.14h3.18c.08-.54,.16-1.14,.24-1.76h-8.2v-1.26h8.34c.06-.7,.12-1.38,.14-1.96l1.84,.18c-.06,.14-.2,.24-.46,.28-.04,.46-.08,.96-.14,1.5h8.08v1.26h-8.24c-.08,.62-.16,1.22-.26,1.76h6.18V14.62h-10.7V5.14Zm13.16,11.32v1.26h-15.52v1.1h-1.34V5.72l1.74,.1c-.02,.14-.14,.24-.4,.28v10.36h15.52Zm-3.8-8.5v-1.76h-8.08v1.76h8.08Zm0,2.8v-1.8h-8.08v1.8h8.08Zm0,2.82v-1.82h-8.08v1.82h8.08Z"/><path class="cls-1" d="M93.68,9.32v1.34h-8.46v6.34c0,.96-.26,1.36-.98,1.6-.72,.22-2.02,.24-4,.24-.1-.4-.34-1-.58-1.4,1.06,.04,2.06,.06,2.76,.06,1.26,0,1.42,0,1.42-.52v-6.32h-8.5v-1.34h8.5v-3.28l.78,.04c1.58-.82,3.3-2,4.58-3.1h-11.78V1.66h13.28l.24-.1,1.2,.8c-.06,.1-.22,.14-.34,.18-1.64,1.56-4.3,3.44-6.58,4.62v2.16h8.46Z"/><path class="cls-1" d="M106.54,9.5c0,1.14-.92,2.06-2.06,2.06s-2.06-.92-2.06-2.06,.92-2.06,2.06-2.06,2.06,.96,2.06,2.06Z"/><path class="cls-1" d="M116.18,2.06c.88-.16,2.04-.3,3.46-.3,4.92,0,5.32,3.16,5.32,4.36,0,3.58-2.86,4.86-5.56,4.86-.58,0-1.1-.02-1.56-.14v6.26h-1.66V2.06Zm1.66,7.4c.42,.12,.96,.16,1.6,.16,2.4,0,3.86-1.2,3.86-3.38s-1.56-3.14-3.64-3.14c-.84,0-1.46,.08-1.82,.16v6.2Z"/><path class="cls-1" d="M138.34,17.1h-1.66l-4.86-8.02c-1.02-1.7-2-3.4-2.74-5.08l-.08,.02c.14,1.94,.16,3.72,.16,6.36v6.72h-1.56V1.86h1.74l4.92,8.02c1.08,1.82,1.96,3.4,2.66,4.98l.04-.02c-.16-2.12-.2-3.94-.2-6.34V1.86h1.58v15.24Z"/><path class="cls-1" d="M141.84,2.06c.88-.16,2.04-.3,3.46-.3,4.92,0,5.32,3.16,5.32,4.36,0,3.58-2.86,4.86-5.56,4.86-.58,0-1.1-.02-1.56-.14v6.26h-1.66V2.06Zm1.66,7.4c.42,.12,.96,.16,1.6,.16,2.4,0,3.86-1.2,3.86-3.38s-1.56-3.14-3.64-3.14c-.84,0-1.46,.08-1.82,.16v6.2Z"/><path class="cls-1" d="M152.26,18.22L170.28,.2l.58,.58-18.02,18.02-.58-.58Z"/><path class="cls-1" d="M174.94,4.92v4.36c0,2.86-.26,6.86-1.82,9.6-.22-.2-.76-.52-1.06-.64,1.5-2.64,1.66-6.28,1.66-8.96V3.88h3.96V.2l1.66,.1c-.02,.14-.12,.24-.38,.28v.98h4.66v1.04h-4.66v1.28h4.48l.68,.02s-.02,.16-.04,.22c-.2,.94-.52,2.08-.88,2.78l-1-.24c.2-.46,.38-1.1,.54-1.74h-3.86v.02h.28c-.02,.12-.12,.22-.36,.26v1.02l2.86-.3,.12,.86-2.98,.32v.66c0,.4,.12,.48,.8,.48h2.5c.5,0,.6-.14,.64-1.1,.24,.16,.62,.28,.92,.34-.1,1.24-.42,1.56-1.42,1.56h-2.74c-1.78,0-1.78-.36-1.78-1.82l-2.3,.26-.12-.88,2.42-.26v-1.42h-2.78Zm5.76,5.88c-.06,.04-.16,.06-.28,.06-.36,.32-.84,.66-1.4,.98,.52,.48,.9,1,1.2,1.54,.76-.62,1.6-1.46,2.12-2.06l1.1,.76c-.1,.1-.26,.14-.4,.1-.58,.56-1.48,1.34-2.28,1.9,1,.58,3.02,1.84,3.58,2.22l-.7,.98c-.52-.46-1.76-1.34-2.76-2.04,.04,.28,.06,.56,.06,.82,0,1.28-.48,2.74-2.36,2.74-.34,0-.8,0-1.26-.02-.02-.28-.12-.74-.32-1.02,.56,.06,1.06,.08,1.38,.08,.68,0,1.52-.18,1.52-1.82,0-.22-.02-.46-.06-.7-1.34,1.16-3.36,2.3-5.08,2.92-.12-.24-.38-.6-.58-.82,1.9-.54,4.2-1.8,5.42-3-.1-.28-.22-.56-.38-.84-1.02,.76-2.5,1.56-3.7,2.04-.12-.24-.36-.6-.58-.78,1.28-.38,2.92-1.16,3.84-1.9-.18-.22-.38-.44-.6-.64-.82,.4-1.7,.76-2.52,1.02-.1-.2-.32-.54-.48-.72,1.32-.4,2.88-1.06,3.88-1.8h-3.66v-.96h8.22v.96h-2.92Zm5.6-7.96c-.02,.14-.12,.22-.38,.26V14.18h-1.22V2.74l1.6,.1Zm2.34-1.98l1.66,.1c-.02,.14-.12,.24-.38,.26v15.74c0,1.7-.68,1.78-3.9,1.78-.06-.36-.26-.98-.44-1.36,.7,.02,1.36,.04,1.86,.04,1.12,0,1.2,0,1.2-.46V.86Z"/><path class="cls-1" d="M196.22,11.96l2.2-1c.04,.12,.08,.24,.28,1.18-2.06,1-4.26,2.06-5.66,2.7,0,.16-.1,.28-.22,.34l-.66-1.5c.76-.3,1.72-.7,2.78-1.16V5.9h-2.44v-1.3h2.44V.24l1.66,.12c-.02,.14-.12,.22-.38,.26v3.98h2.26v1.3h-2.26v6.06Zm14.62-2.2h-8.44c-.26,.52-.58,1.02-.92,1.52h7.9l.28-.02,.74,.12-.08,.4c-.34,4.34-.66,5.92-1.2,6.5-.48,.5-.98,.5-2.02,.5-.34,0-.74-.02-1.14-.04-.02-.34-.12-.82-.3-1.12,.78,.08,1.48,.08,1.78,.08s.46-.02,.62-.2c.36-.38,.66-1.72,.94-5.08h-1.8c-.76,2.48-2.28,5.16-3.94,6.52-.26-.26-.66-.6-1.02-.78,1.62-1.16,3.06-3.48,3.84-5.74h-2.12c-1.06,2.16-3.02,4.44-4.88,5.66-.22-.28-.6-.64-.92-.86,1.7-.96,3.5-2.88,4.58-4.8h-2.16c-.84,.98-1.82,1.84-2.82,2.48-.2-.22-.6-.6-.86-.8,1.58-.96,3.14-2.54,4.12-4.34h-2.98v-1.18h12.8v1.18Zm-1.46-8.92V7.36h-9.26V.84h9.26Zm-1.26,2.74V1.86h-6.78v1.72h6.78Zm0,2.74v-1.74h-6.78v1.74h6.78Z"/><path class="cls-1" d="M214.8,7.1v1.42c0,.52,0,1.08-.02,1.64h4.26v7.64h-1.22v-6.42h-3.08c-.14,2.56-.48,5.26-1.36,7.42-.28-.16-.82-.38-1.18-.48,1.2-2.86,1.38-6.84,1.38-9.8V.62l1.6,.1c-.02,.14-.12,.24-.38,.26V5.88h2.36V.18l1.62,.12c-.02,.12-.12,.22-.38,.26V5.88h2.3v1.22h-5.9Zm14.54-.92l.8,.3c-.02,.1-.08,.18-.16,.24-.48,3.12-1.44,5.68-2.76,7.72,1.04,1.42,2.3,2.54,3.74,3.26-.32,.26-.72,.76-.94,1.1-1.38-.76-2.58-1.88-3.6-3.22-1.08,1.38-2.34,2.44-3.72,3.22-.2-.32-.56-.82-.88-1.08,1.42-.7,2.72-1.82,3.82-3.3-1.1-1.8-1.94-3.92-2.52-6.24l1.18-.3c.48,1.94,1.2,3.78,2.14,5.36,.96-1.6,1.7-3.54,2.14-5.76h-6c-.02,3.4-.34,8.06-2.1,11.3-.24-.22-.8-.56-1.12-.66,1.8-3.3,1.96-7.9,1.96-11.18V1.12h9.44v1.26h-8.18v3.86h6.52l.24-.06Z"/><path class="cls-1" d="M244.4,14.68V0h6.66V1.04h-5.62V14.68h-1.04Z"/><path class="cls-1" d="M270.72,13.56h-7.72c1.32,2.42,3.98,3.62,7.98,4.02-.3,.3-.66,.86-.82,1.24-4.36-.58-7.12-2.12-8.54-5.26h-.22c-.98,2.62-3.12,4.36-8.5,5.24-.1-.36-.44-.92-.68-1.2,4.66-.68,6.72-1.98,7.72-4.04h-7.48v-1.22h7.92c.18-.6,.28-1.26,.38-1.98h-8.2v-1.24h8.28v-1.82h-6.3v-1.18h6.3v-1.76h-7.38v-1.24h4.34c-.3-.76-.98-1.74-1.62-2.44l1.12-.48c.78,.76,1.52,1.84,1.82,2.6l-.7,.32h5.84c-.2-.1-.4-.2-.54-.24,.62-.72,1.42-1.88,1.86-2.68l1.58,.62c-.06,.12-.2,.16-.4,.16-.44,.62-1.14,1.48-1.74,2.14h4.68v1.24h-7.5v1.76h6.48v1.18h-6.48v1.82h8.36v1.24h-8.04c-.04,.1-.2,.18-.4,.22-.1,.62-.2,1.2-.34,1.76h8.94v1.22Z"/><path class="cls-1" d="M278.16,3.26c-.04,.14-.2,.22-.44,.2-.88,2.14-2.5,4.98-4.3,6.84-.28-.26-.82-.62-1.18-.82,1.8-1.72,3.38-4.46,4.16-6.68l1.76,.46Zm10.24,6.04c-.06,.14-.18,.2-.42,.22-1.92,5.34-5.98,8.14-13.52,9.32-.14-.42-.46-.98-.72-1.32,7.26-.96,11.18-3.52,12.94-8.68l1.72,.46ZM280.86,.24l1.78,.1c-.04,.14-.14,.24-.4,.28V10.62c0,.88-.22,1.28-.86,1.52-.64,.22-1.74,.24-3.46,.24-.06-.4-.28-.98-.5-1.38,.82,.02,1.58,.04,2.14,.04,1.2,0,1.3,0,1.3-.44V.24Zm8.76,9.78c-.72-1.84-2.6-4.7-4.36-6.8l1.2-.6c1.78,2.04,3.7,4.82,4.48,6.68l-1.32,.72Z"/><path class="cls-1" d="M310.72,6.46h-3.22c-.68,3.22-1.72,5.72-3.44,7.64,2.44,1.18,4.66,2.44,6.16,3.56l-1,1.24c-1.48-1.16-3.74-2.5-6.24-3.74-2.18,1.86-5.26,3.02-9.66,3.68-.12-.4-.44-.94-.7-1.28,4-.54,6.86-1.52,8.9-3.1-1.64-.76-3.34-1.46-4.94-2.04l-.48,1.02-1.34-.5c.84-1.68,1.88-4.04,2.9-6.48h-5.2v-1.34h5.74c.7-1.72,1.38-3.42,1.92-4.9l1.78,.34c-.04,.14-.18,.22-.46,.22-.5,1.3-1.1,2.8-1.72,4.34h11v1.34Zm-11.56,0c-.7,1.66-1.4,3.3-2.04,4.76,1.78,.62,3.7,1.4,5.54,2.24,1.68-1.74,2.68-4.02,3.34-7h-6.84Z"/><path class="cls-1" d="M322.78,15.22h-4.6v3.58h-1.3v-3.58h-4.64v-1.22h4.64v-1.86h-3.78V5.04h9v7.1h-3.92v1.86h4.6v1.22Zm-9.4-14.52c.7,1.02,1.34,2.4,1.52,3.32l-1.18,.44c-.18-.92-.8-2.34-1.44-3.38l1.1-.38Zm.88,5.44v1.92h2.68v-1.92h-2.68Zm0,2.96v1.96h2.68v-1.96h-2.68Zm3-8.8c.48,1.1,.86,2.56,.92,3.46l-1.26,.32c-.04-.92-.4-2.4-.84-3.52l1.18-.26Zm3.62,7.76v-1.92h-2.76v1.92h2.76Zm0,3v-1.96h-2.76v1.96h2.76Zm2.18-10.12c-.08,.12-.22,.18-.44,.18-.48,1.04-1.3,2.58-1.96,3.54-.02,0-1.06-.46-1.06-.46,.62-1.02,1.44-2.7,1.86-3.86l1.6,.6Zm2.94,6.22c.18,1.92,.44,3.72,.78,5.26,.88-1.36,1.62-2.84,2.18-4.46l1.58,.48c-.04,.14-.2,.22-.44,.2-.74,1.98-1.72,3.8-2.92,5.4,.6,2.12,1.38,3.46,2.26,3.46,.5,0,.74-1.08,.84-3.58,.28,.3,.72,.62,1.06,.76-.26,3.18-.72,4.14-2.02,4.14s-2.36-1.38-3.12-3.56c-1.16,1.3-2.46,2.42-3.88,3.3-.2-.26-.6-.72-.88-.96,1.62-.94,3.08-2.24,4.32-3.78-.48-1.86-.82-4.1-1.04-6.5l-2.2,.28-.18-1.24,2.28-.28c-.14-1.9-.22-3.86-.24-5.82l1.76,.1c0,.16-.14,.26-.42,.28,0,1.78,.06,3.56,.18,5.28l4.9-.6,.16,1.22-4.96,.62Zm2.02-6.58c.98,1.02,2.06,2.42,2.5,3.38l-1.08,.66c-.42-.98-1.46-2.44-2.44-3.46l1.02-.58Z"/><path class="cls-1" d="M350.64,8.1h-8.42v8.4h7.34v1.34h-15.9v-1.34h7.16V8.1h-8.3v-1.34h8.3V.28l1.82,.12c-.02,.14-.14,.24-.42,.28V6.76h8.42v1.34Z"/><path class="cls-1" d="M369.8,5.34c-.06,.1-.18,.18-.32,.24-.9,2.16-2.48,4.88-4.18,6.52-.3-.22-.82-.52-1.2-.72,1.52-1.36,2.76-3.36,3.42-4.96l-7.66,2v5.18c0,1.96,1.18,2.62,2.78,2.62h3.26c.82,0,2.2-.12,2.98-.22,0,.44,.02,.98,.04,1.4-.8,.1-2.2,.16-2.96,.16h-3.34c-2.52,0-4.2-1.18-4.2-3.94v-4.84l-5.04,1.3-.34-1.34,5.38-1.34V1.32l1.94,.08c-.04,.24-.22,.36-.5,.4V7.02l8.46-2.18,.22-.16,1.26,.66Z"/><path class="cls-1" d="M373.1,8.44h16.7v1.42h-15.94c-.12,.2-.38,.34-.64,.38l-.12-1.8Z"/><path class="cls-1" d="M409.04,7.28c-.04,.08-.14,.16-.26,.2-1.64,6.04-4.98,8.98-10.96,10.64-.18-.36-.56-.86-.84-1.16,5.44-1.36,8.82-4.16,10.08-8.8h-13.24v-1.36h13.84l.2-.12,1.18,.6Zm-1.88-4.28h-11.4V1.68h11.4v1.32Z"/><path class="cls-1" d="M413.1,8.44h16.7v1.42h-15.94c-.12,.2-.38,.34-.64,.38l-.12-1.8Z"/><path class="cls-1" d="M448.96,17.68c-.3-.68-.66-1.4-1.06-2.12-4.16,.44-11,.86-14.06,1.02-.06,.2-.2,.36-.38,.4l-.54-1.8c.6-.02,1.32-.04,2.1-.08,1.32-3.84,3.22-9.82,4.32-13.82l1.94,.52c-.08,.18-.28,.28-.58,.28-1.1,3.68-2.82,9.04-4.2,12.96,3.32-.14,8.06-.48,10.7-.72-1.04-1.72-2.36-3.54-3.56-4.88l1.2-.68c2.1,2.3,4.5,6.1,5.52,8.28l-1.4,.64Z"/><path class="cls-1" d="M453.1,8.44h16.7v1.42h-15.94c-.12,.2-.38,.34-.64,.38l-.12-1.8Z"/><path class="cls-1" d="M474.66,2.4c2.08,.66,4.48,1.7,5.96,2.72l-.76,1.26c-1.44-1.02-3.8-2.08-5.84-2.78l.64-1.2Zm-.08,13.86c7.1-2.2,11.82-6.18,14.22-11.72,.42,.34,.88,.6,1.3,.82-2.5,5.48-7.38,9.74-14.16,12-.02,.18-.14,.38-.28,.46l-1.08-1.56Z"/><path class="cls-1" d="M502.42,17.1h-8.04V1.86h7.7v1.4h-6.04v5.16h5.68v1.38h-5.68v5.9h6.38v1.4Z"/><path class="cls-1" d="M505.16,4.22l1.64-.56v2.54h2.82v1.3h-2.82v6.3c0,1.38,.42,2.14,1.48,2.14,.5,0,.84-.06,1.12-.16l.1,1.28c-.36,.16-.92,.26-1.62,.26-2.64,0-2.72-2.4-2.72-3.56V7.5h-1.68v-1.3h1.68v-1.98Z"/><path class="cls-1" d="M519.42,16.64c-.62,.3-1.76,.68-3.42,.68-3.18,0-5.08-2.24-5.08-5.5,0-3.42,1.92-5.88,4.86-5.88,3.36,0,4.22,3.08,4.22,4.98,0,.38-.02,.66-.04,.92h-7.42c.02,3.02,1.74,4.16,3.7,4.16,1.36,0,2.18-.28,2.86-.56l.32,1.2Zm-1.06-6.04c.02-1.48-.6-3.4-2.74-3.4-2,0-2.88,1.9-3.04,3.4h5.78Z"/><path class="cls-1" d="M527.54,7.6c-.18-.02-.36-.04-.6-.04-1.8,0-2.72,1.78-2.72,3.62v5.92h-1.66v-7.64c0-1.16-.02-2.22-.08-3.26h1.46l.08,2.1h.06c.48-1.36,1.62-2.34,2.96-2.34,.18,0,.32,.04,.5,.06v1.58Z"/><path class="cls-1" d="M538.28,17.1h-1.66v-6.44c0-1.78-.64-3.34-2.54-3.34-1.42,0-2.86,1.2-2.86,3.1v6.68h-1.66V9c0-1.12-.04-1.94-.08-2.82h1.48l.1,1.78h.04c.54-1.06,1.8-2.02,3.5-2.02,1.36,0,3.68,.82,3.68,4.52v6.64Z"/><path class="cls-1" d="M548.52,14.5c0,.9,.02,1.84,.16,2.6h-1.52l-.16-1.4h-.06c-.56,.86-1.68,1.64-3.22,1.64-2.08,0-3.18-1.52-3.18-3.1,0-2.62,2.28-4.04,6.32-4.02,0-.92,0-3-2.48-3-.94,0-1.92,.26-2.66,.78l-.4-1.14c.88-.58,2.1-.92,3.32-.92,3.08,0,3.88,2.18,3.88,4.34v4.22Zm-1.64-3.06c-2.06,0-4.64,.3-4.64,2.6,0,1.4,.88,2.02,1.88,2.02,1.62,0,2.76-1.24,2.76-2.56v-2.06Z"/><path class="cls-1" d="M553.42,17.1h-1.66V1.1h1.66V17.1Z"/><path class="cls-1" d="M562.44,4.12v14.68h-6.66v-1.06h5.62V4.12h1.04Z"/><path class="cls-1" d="M586.28,12.46c.48,.94,1.12,1.76,1.9,2.46,1.3-.62,2.9-1.54,3.86-2.24l1.2,.88c-.08,.1-.26,.14-.44,.1-.98,.6-2.5,1.38-3.76,1.96,1.44,1.04,3.24,1.74,5.36,2.12-.28,.26-.6,.76-.78,1.1-4.12-.86-7.04-2.94-8.58-6.28-.82,.64-1.84,1.24-2.94,1.78l.3,.06c-.02,.12-.14,.22-.4,.24v2.44c1.56-.16,3.28-.36,4.96-.56l.04,1.04c-2.78,.38-5.72,.74-7.56,.96-.02,.16-.12,.26-.26,.3l-.6-1.38,2.12-.22v-2.28c-1.38,.56-2.84,1.02-4.18,1.32-.16-.3-.5-.78-.78-1.02,2.6-.5,5.62-1.52,7.62-2.78h-7.3v-1.12h8.3v-1.5l1.76,.12c-.02,.14-.14,.24-.4,.28v1.1h8.4v1.12h-7.84Zm-5.7-6.3v-1.14h-4.6v-1.02h4.6v-1.34h-2.46c-.26,.48-.52,.92-.78,1.28-.22-.14-.62-.36-.92-.48,.6-.78,1.14-2,1.5-3.18l1.34,.42c-.06,.14-.2,.18-.38,.16-.1,.26-.2,.54-.32,.82h2.02V.2l1.56,.1c-.02,.14-.12,.24-.38,.28V1.68h3.68v.98h-3.68v1.34h4.46v1.02h-4.46v1.14h3.8v2.52c0,1.12-.62,1.14-2.4,1.14-.06-.3-.26-.66-.38-.92h1.08c.46,0,.5,0,.5-.22v-1.58h-2.6v3.36h-1.18v-3.36h-2.46v2.82h-1.1v-3.76h3.56Zm8.34-4.92c-.02,.12-.12,.22-.38,.26v6.78h-1.24V1.12l1.62,.12Zm4.76-.74c-.02,.14-.12,.24-.38,.28V8.84c0,1.36-.38,1.48-3.62,1.48-.06-.34-.26-.82-.44-1.14,.66,.02,1.28,.04,1.74,.04,.96,0,1.08,0,1.08-.38V.42l1.62,.08Z"/><path class="cls-1" d="M598.74,7.32c-.8,1.3-1.68,2.46-2.58,3.42-.16-.32-.5-.96-.72-1.26,2.02-2.08,4-5.58,5.18-9.12l1.64,.54c-.08,.14-.22,.2-.46,.2-.54,1.44-1.18,2.86-1.9,4.22l.56,.16c-.02,.14-.14,.22-.38,.26v13.06h-1.34V7.32Zm15.74-2.4h-6.42v3.08h5.94v1.26h-5.94v3.22h6.22v1.28h-6.22v5.02h-1.36V4.92h-1.86c-.84,1.74-1.8,3.34-2.82,4.52-.24-.26-.72-.7-1.02-.92,1.62-1.84,3.18-5,4.12-8.04l1.72,.5c-.08,.14-.22,.22-.48,.22-.28,.8-.58,1.62-.92,2.42h9.04v1.3Z"/><path class="cls-1" d="M625.7,9.74h-1.32v-.06c-.08,.04-.16,.04-.3,.02-.32,.52-.7,1.08-1.08,1.68h11.26v1.18h-4.26c-.58,1.26-1.4,2.3-2.48,3.14,2.4,.64,4.54,1.32,6.16,1.96l-.82,1.12c-1.74-.74-4.08-1.48-6.7-2.18-2.26,1.22-5.34,1.9-9.44,2.22-.08-.4-.32-.9-.54-1.22,3.4-.2,6.06-.64,8.08-1.48-1.28-.3-2.62-.6-3.98-.86l-.48,.64-1.24-.46c.6-.78,1.34-1.8,2.1-2.88h-4.76v-1.18h5.56c.54-.8,1.04-1.6,1.48-2.3l1.44,.4v-3.9c-1.92,2.06-5.08,3.86-7.84,4.74-.18-.32-.56-.8-.84-1.06,2.46-.7,5.22-2.08,7.04-3.68h-6.68v-1.16h8.32V2.24c-2.18,.16-4.46,.28-6.54,.34-.02-.3-.18-.76-.3-1.06,4.58-.14,10.22-.58,13.16-1.28l1.06,1.04s-.12,.06-.2,.06c-.06,0-.12,0-.18-.02-1.48,.32-3.48,.6-5.68,.8v2.3h8.42v1.16h-6.74c1.84,1.52,4.58,2.82,7.06,3.46-.3,.28-.68,.78-.88,1.12-2.78-.84-5.92-2.58-7.84-4.58h-.02v4.16Zm-4.68,4.52c1.64,.3,3.28,.66,4.86,1.04,1.12-.72,1.98-1.62,2.58-2.74h-6.26l-1.18,1.7Z"/><path class="cls-1" d="M643.2,16.3c-.08,.08-.22,.12-.4,.14-1.3,.84-3.86,1.82-5.9,2.36-.22-.28-.66-.74-.98-1,2.08-.5,4.66-1.46,5.9-2.32l1.38,.82Zm-5.2-9.54h14.3V15.44h-14.3V6.76Zm1.14-5.74h12V5.52h-12V1.02Zm.2,6.76v1.54h11.58v-1.54h-11.58Zm0,2.52v1.56h11.58v-1.56h-11.58Zm0,2.54v1.58h11.58v-1.58h-11.58Zm1.14-10.7v2.24h9.26V2.14h-9.26Zm12.78,16.7c-1.5-.72-4.24-1.78-6.4-2.42l1.18-.88c2.08,.62,4.8,1.64,6.36,2.32l-1.14,.98Z"/><path class="cls-1" d="M666.26,.28c-.06,.16-.22,.26-.42,.3,1.96,2.72,5.58,5.4,8.72,6.76-.32,.32-.64,.8-.86,1.2-3.18-1.56-6.78-4.3-8.7-7-1.66,2.48-5,5.32-8.5,7.08-.16-.28-.5-.8-.78-1.08,3.52-1.7,6.98-4.7,8.56-7.38l1.98,.12Zm-9.5,11.42v-1.28h16.78v1.28h-9.62l.24,.08c-.06,.14-.22,.2-.48,.22-.6,1.36-1.5,3.16-2.36,4.64,2.66-.06,5.76-.16,8.8-.26-.9-1.04-1.94-2.12-2.94-3l1.14-.62c1.88,1.62,3.9,3.82,4.84,5.34l-1.2,.76c-.26-.42-.58-.9-.98-1.4-4.86,.26-10.02,.48-13.22,.58-.04,.18-.16,.26-.32,.28l-.5-1.6c.84,0,1.82-.02,2.92-.06,.82-1.44,1.76-3.4,2.38-4.96h-5.48Zm3.42-5.16h9.7v1.26h-9.7v-1.26Z"/><path class="cls-1" d="M6.86,34.46c3.84,0,6.8,3.1,6.8,6.94s-2.96,7.02-6.8,7.02-6.86-3.12-6.86-7c0-4.48,3.66-6.96,6.86-6.96Zm-.02,13.08c3.4,.02,5.76-2.82,5.76-6.12s-2.3-6.1-5.74-6.1c-3.24,0-5.8,2.62-5.8,6.16s2.66,6.06,5.78,6.06Zm3.18-2.62c-.8,.54-1.84,.72-2.78,.72-2.62,0-4.14-1.8-4.14-4.1,0-2.62,2.04-4.22,4.3-4.22,1.18,0,2.18,.36,2.48,.6l-.24,.84c-.32-.16-1.1-.54-2.2-.54-2.18,0-3.24,1.44-3.24,3.26s1.14,3.26,3.26,3.26c.92,0,1.76-.28,2.3-.62l.26,.8Z"/><path class="cls-1" d="M26.94,49.1h-1.66l-4.86-8.02c-1.02-1.7-2-3.4-2.74-5.08l-.08,.02c.14,1.94,.16,3.72,.16,6.36v6.72h-1.56v-15.24h1.74l4.92,8.02c1.08,1.82,1.96,3.4,2.66,4.98l.04-.02c-.16-2.12-.2-3.94-.2-6.34v-6.64h1.58v15.24Z"/><path class="cls-1" d="M37.44,46.5c0,.9,.02,1.84,.16,2.6h-1.52l-.16-1.4h-.06c-.56,.86-1.68,1.64-3.22,1.64-2.08,0-3.18-1.52-3.18-3.1,0-2.62,2.28-4.04,6.32-4.02,0-.92,0-3-2.48-3-.94,0-1.92,.26-2.66,.78l-.4-1.14c.88-.58,2.1-.92,3.32-.92,3.08,0,3.88,2.18,3.88,4.34v4.22Zm-1.64-3.06c-2.06,0-4.64,.3-4.64,2.6,0,1.4,.88,2.02,1.88,2.02,1.62,0,2.76-1.24,2.76-2.56v-2.06Z"/><path class="cls-1" d="M49.92,43.56c0,4.06-2.68,5.78-5.1,5.78-2.8,0-4.96-2.1-4.96-5.62,0-3.72,2.32-5.78,5.1-5.78,2.98,0,4.96,2.28,4.96,5.62Zm-5.02-4.32c-2.36,0-3.34,2.32-3.34,4.42,0,2.42,1.34,4.38,3.3,4.38s3.36-1.96,3.36-4.42c0-1.94-.94-4.38-3.32-4.38Z"/><path class="cls-1" d="M60.92,49.1h-2.04l-3.76-5.38-1,1.14v4.24h-1.66v-16h1.66v10.18h.04c.26-.38,.64-.86,.94-1.22l3.26-3.86h2l-4.1,4.5,4.66,6.4Z"/><path class="cls-1" d="M71.68,43.56c0,4.06-2.68,5.78-5.1,5.78-2.8,0-4.96-2.1-4.96-5.62,0-3.72,2.32-5.78,5.1-5.78,2.98,0,4.96,2.28,4.96,5.62Zm-5.02-4.32c-2.36,0-3.34,2.32-3.34,4.42,0,2.42,1.34,4.38,3.3,4.38s3.36-1.96,3.36-4.42c0-1.94-.94-4.38-3.32-4.38Z"/><path class="cls-1" d="M87.88,35.28h-4.5v13.82h-1.66v-13.82h-4.48v-1.4h10.64v1.4Z"/><path class="cls-1" d="M96.64,46.5c0,.9,.02,1.84,.16,2.6h-1.52l-.16-1.4h-.06c-.56,.86-1.68,1.64-3.22,1.64-2.08,0-3.18-1.52-3.18-3.1,0-2.62,2.28-4.04,6.32-4.02,0-.92,0-3-2.48-3-.94,0-1.92,.26-2.66,.78l-.4-1.14c.88-.58,2.1-.92,3.32-.92,3.08,0,3.88,2.18,3.88,4.34v4.22Zm-1.64-3.06c-2.06,0-4.64,.3-4.64,2.6,0,1.4,.88,2.02,1.88,2.02,1.62,0,2.76-1.24,2.76-2.56v-2.06Z"/><path class="cls-1" d="M108.32,49.1h-2.04l-3.76-5.38-1,1.14v4.24h-1.66v-16h1.66v10.18h.04c.26-.38,.64-.86,.94-1.22l3.26-3.86h2l-4.1,4.5,4.66,6.4Z"/><path class="cls-1" d="M117.54,48.64c-.62,.3-1.76,.68-3.42,.68-3.18,0-5.08-2.24-5.08-5.5,0-3.42,1.92-5.88,4.86-5.88,3.36,0,4.22,3.08,4.22,4.98,0,.38-.02,.66-.04,.92h-7.42c.02,3.02,1.74,4.16,3.7,4.16,1.36,0,2.18-.28,2.86-.56l.32,1.2Zm-1.06-6.04c.02-1.48-.6-3.4-2.74-3.4-2,0-2.88,1.9-3.04,3.4h5.78Z"/><path class="cls-1" d="M129.16,46.2c0,1.12,.06,2.06,.1,2.9h-1.5l-.08-1.72h-.06c-.5,.86-1.62,1.96-3.48,1.96-1.64,0-3.58-.94-3.58-4.7v-6.44h1.66v6.14c0,2.12,.62,3.6,2.44,3.6,1.3,0,2.84-1.04,2.84-2.96v-6.78h1.66v8Z"/><path class="cls-1" d="M139.82,48.7c-.48,.24-1.56,.62-2.96,.62-3.12,0-5.18-2.22-5.18-5.56s2.22-5.82,5.58-5.82c1.22,0,2.2,.36,2.62,.58l-.42,1.34c-.46-.26-1.18-.56-2.24-.56-2.52,0-3.84,2.02-3.84,4.36,0,2.64,1.58,4.3,3.78,4.3,1.08,0,1.82-.3,2.36-.54l.3,1.28Z"/><path class="cls-1" d="M150.88,49.1h-1.66v-6.44c0-1.78-.64-3.32-2.52-3.32-1.28,0-2.88,1.06-2.88,3.06v6.7h-1.66v-16h1.66v6.78h.04c.72-1.2,2.04-1.94,3.38-1.94s3.64,.82,3.64,4.52v6.64Z"/><path class="cls-1" d="M154.94,36.28c-.64,0-1.08-.5-1.08-1.14s.46-1.12,1.1-1.12,1.08,.5,1.08,1.12c0,.7-.46,1.14-1.1,1.14Zm.84,12.82h-1.66v-10.9h1.66v10.9Z"/></g></g></g></svg>