<?xml version="1.0" encoding="UTF-8"?><svg id="_イヤー_2" xmlns="http://www.w3.org/2000/svg" viewBox="0 0 665.87 36.85"><defs><style>.cls-1{fill:#fff;}.cls-2{fill:#fff462;}</style></defs><g id="design"><g><g><polygon class="cls-1" points="19.9 16.63 27.07 8.35 18.79 15.52 17.11 1.2 15.42 15.52 7.15 8.35 14.32 16.63 0 18.31 14.32 20 7.15 28.28 15.42 21.1 17.11 35.42 18.79 21.1 27.07 28.28 19.9 20 34.22 18.31 19.9 16.63"/><polygon class="cls-1" points="651.55 16.63 658.72 8.35 650.45 15.52 648.76 1.2 647.08 15.52 638.8 8.35 645.97 16.63 631.65 18.31 645.97 20 638.8 28.28 647.08 21.1 648.76 35.42 650.45 21.1 658.72 28.28 651.55 20 665.87 18.31 651.55 16.63"/></g><g><path class="cls-2" d="M49.54,7.92c-.97,0-3.73,0-3.73-3.6,0-2.58,1.23-3.64,3.73-3.64h17.32c3.35,0,5.25,.51,5.25,4.15,0,2.58-.85,4.06-1.69,5.55l-12.96,22.53c-.93,1.61-1.48,2.63-3.6,2.63s-4.06-1.44-4.06-3.43c0-.8,.21-1.35,1.19-3.01L63.35,7.92h-13.8Z"/><path class="cls-2" d="M84.73,2.58c.72-1.61,1.19-2.58,2.62-2.58s3.35,1.1,3.35,2.63c0,.72-.34,1.35-.64,2.03l-12.62,28.29c-.72,1.61-1.19,2.58-2.63,2.58s-3.34-1.06-3.34-2.63c0-.72,.34-1.35,.63-2.03L84.73,2.58Z"/><path class="cls-2" d="M116.18,27.61c1.52,0,3.73,.34,3.73,3.6,0,2.46-1.14,3.64-3.73,3.64h-16.18c-3.13,0-6.18,0-6.18-4.11,0-2.58,.97-3.39,4.28-5.97,2.24-1.78,5.89-4.95,8.38-7.45,2.5-2.46,3.9-4.06,3.9-6.18,0-1.69-1.19-3.9-3.77-3.9-1.78,0-3.51,.72-4.7,1.61-1.69,1.31-1.99,1.52-2.96,1.52-2.37,0-3.81-2.03-3.81-3.81,0-2.5,5-6.56,11.47-6.56,6.94,0,11.64,4.53,11.64,10.88,0,5.12-2.75,8.43-12.7,16.73h10.63Z"/><path class="cls-2" d="M133.97,23.8c-6.27-.04-11.35-4.4-11.35-11.39S127.96,0,135.11,0c3.51,0,13.13,1.57,13.13,16.09,0,10.88-5.42,19.44-16.51,19.44-3.05,0-6.01-.38-6.01-3.77,0-3.18,2.46-3.6,3.26-3.6,.42,0,2.24,.13,2.58,.13,4.83,0,6.9-2.84,7.66-5.93-.8,.51-2.41,1.44-5.25,1.44Zm-3.43-11.56c0,2.75,1.95,4.83,4.7,4.83s5.04-1.95,5.04-4.87c0-2.75-2.07-4.95-5.17-4.95-2.07,0-4.57,1.78-4.57,5Z"/><path class="cls-2" d="M161.38,32.27c.64,1.12,.81,1.42,.81,1.96,0,.81-.68,1.86-1.93,1.86-.95,0-1.42-.51-2.13-1.46-3.39-4.54-4.84-9.82-4.84-14.87,0-7.69,3.29-12.91,5.05-15.14,.58-.71,1.05-1.19,1.93-1.19,1.25,0,1.93,1.05,1.93,1.86,0,.54-.17,.85-.81,1.96-3.02,5.18-3.25,10.3-3.25,12.5s.24,7.32,3.25,12.5Z"/><path class="cls-2" d="M175.82,16.96c-2.07,0-2.54-.95-2.64-2.03-2.07,.98-2.74,1.32-3.52,1.32-1.63,0-2.74-1.8-2.74-3.42,0-1.29,.68-2,1.86-2.47,3.76-1.52,5.59-2.27,8.91-4.74,2.54-1.86,3.08-2.27,5.49-2.27,2.24,0,2.64,.3,5.89,2.64,2.74,2,6.03,3.52,8.03,4.34,.91,.37,2,.81,2,2.41,0,1.42-.98,3.62-2.85,3.62-.88,0-1.76-.47-3.52-1.39-.14,.95-.47,2-2.68,2h-4.4v1.83h9.52c2.07,0,2.71,.95,2.71,2.85,0,2.37-1.86,2.47-2.71,2.47h-1.52c.81,.54,.81,1.25,.81,1.39,0,.68-1.12,3.49-1.59,4.2h3.01c2.1,0,2.74,.95,2.74,2.85,0,2.34-1.8,2.47-2.74,2.47h-26.08c-2.07,0-2.71-.95-2.71-2.85,0-2.37,1.86-2.47,2.71-2.47h3.12c-.07-.14-.17-.27-.27-.51-.14-.27-.64-1.56-.78-1.83-.54-1.25-.61-1.39-.61-1.76,0-.81,.54-1.25,.95-1.49h-1.56c-2.1,0-2.71-.95-2.71-2.85,0-2.37,1.83-2.47,2.71-2.47h9.48v-1.83h-4.3Zm.54,7.15c.61,.71,1.8,3.73,1.8,4.71,0,.47-.27,.71-.41,.88h2.37v-5.59h-3.76Zm11.38-12.23c-1.46-1.05-2.81-2.17-4.1-3.39-.3-.3-.37-.37-.61-.37s-.41,.14-.64,.37c-.71,.75-1.59,1.66-4.03,3.39h9.38Zm.41,17.82c-.44-.41-.61-.78-.61-1.19,0-.27,.1-.47,.81-2.13,.14-.34,.71-1.96,.98-2.27h-3.69v5.59h2.51Z"/><path class="cls-2" d="M204.55,7.27c-.64-1.12-.81-1.42-.81-1.96,0-.78,.64-1.86,1.93-1.86,.95,0,1.42,.51,2.13,1.46,3.39,4.57,4.84,9.79,4.84,14.87,0,5.49-1.69,10.84-5.05,15.14-.58,.71-1.05,1.19-1.93,1.19-1.29,0-1.93-1.08-1.93-1.86,0-.54,.17-.85,.81-1.96,2.95-5.08,3.25-10.06,3.25-12.5s-.3-7.42-3.25-12.5Z"/><path class="cls-2" d="M259.82,18.25c0,.89-.38,1.52-1.52,2.54-1.99,1.69-5.17,3.47-9.61,3.47-3.3,0-4.36-.51-9.74-3.26-3.22-1.65-4.32-2.12-6.39-2.12-2.58,0-4.66,.97-6.27,2.37-.76,.68-1.02,.89-1.82,.89-1.61,0-2.84-1.4-2.84-2.84,0-.97,.64-1.99,2.58-3.39,2.58-1.82,5.63-2.67,8.55-2.67,3.56,0,4.95,.72,10.25,3.47,2.54,1.31,3.68,1.91,5.84,1.91,2.03,0,4.23-.64,5.67-1.91,1.19-1.06,1.65-1.35,2.33-1.35,1.78,0,2.96,1.4,2.96,2.88Z"/><path class="cls-2" d="M264.91,9.36c0-5,4.15-9.36,11.01-9.36s11.01,4.45,11.01,9.36c0,2.12-.8,4.57-2.88,6.39,2.67,1.69,4.57,4.7,4.57,8.68,0,6.82-5.76,11.09-12.7,11.09s-12.7-4.32-12.7-11.09c0-3.68,1.65-6.86,4.57-8.68-2.12-1.86-2.88-4.32-2.88-6.39Zm15.84,14.78c0-2.37-2.07-4.06-4.83-4.06s-4.83,1.61-4.83,4.06,2.2,4.15,4.83,4.15,4.83-1.69,4.83-4.15Zm-1.27-14.52c0-2.12-1.69-3.3-3.56-3.3-1.99,0-3.56,1.27-3.56,3.3s1.57,3.26,3.56,3.26,3.56-1.23,3.56-3.26Z"/><path class="cls-2" d="M305.22,2.58c.72-1.61,1.19-2.58,2.63-2.58s3.35,1.1,3.35,2.63c0,.72-.34,1.35-.64,2.03l-12.62,28.29c-.72,1.61-1.19,2.58-2.63,2.58s-3.34-1.06-3.34-2.63c0-.72,.34-1.35,.63-2.03l12.62-28.29Z"/><path class="cls-2" d="M320.21,10.04c-.47,.34-1.4,.97-2.29,.97-1.74,0-3.26-2.16-3.26-3.73,0-1.27,1.02-1.95,1.95-2.58l5.04-3.43c.8-.55,1.91-1.27,3.68-1.27,4.23,0,4.23,3.3,4.23,4.53V31.88c0,1.61-.42,3.64-3.9,3.64-2.84,0-3.98-1.1-3.98-3.64V9.02l-1.48,1.02Z"/><path class="cls-2" d="M336.18,9.36c0-5,4.15-9.36,11.01-9.36s11.01,4.45,11.01,9.36c0,2.12-.8,4.57-2.88,6.39,2.67,1.69,4.57,4.7,4.57,8.68,0,6.82-5.76,11.09-12.7,11.09s-12.7-4.32-12.7-11.09c0-3.68,1.65-6.86,4.57-8.68-2.12-1.86-2.88-4.32-2.88-6.39Zm15.84,14.78c0-2.37-2.07-4.06-4.83-4.06s-4.83,1.61-4.83,4.06,2.2,4.15,4.83,4.15,4.83-1.69,4.83-4.15Zm-1.27-14.52c0-2.12-1.69-3.3-3.56-3.3-1.99,0-3.56,1.27-3.56,3.3s1.57,3.26,3.56,3.26,3.56-1.23,3.56-3.26Z"/><path class="cls-2" d="M374.81,32.27c.64,1.12,.81,1.42,.81,1.96,0,.81-.68,1.86-1.93,1.86-.95,0-1.42-.51-2.13-1.46-3.39-4.54-4.84-9.82-4.84-14.87,0-7.69,3.29-12.91,5.05-15.14,.58-.71,1.05-1.19,1.93-1.19,1.25,0,1.93,1.05,1.93,1.86,0,.54-.17,.85-.81,1.96-3.02,5.18-3.25,10.3-3.25,12.5s.24,7.32,3.25,12.5Z"/><path class="cls-2" d="M399.27,33.28c0,1.56-.54,2.71-2.74,2.71-1.93,0-3.05-.44-3.05-2.71v-11.65c-.98,1.56-3.35,5.05-6.47,8.06-2.1,2-2.61,2.2-3.42,2.2-1.9,0-3.29-2.03-3.29-3.49,0-1.22,.75-1.8,1.42-2.3,4.13-3.18,7.79-6.98,10.4-11.48h-9.18c-.64,0-2.74,0-2.74-2.47,0-1.96,.85-2.78,2.74-2.78h10.53v-3.01c0-1.56,.51-2.74,2.71-2.74,1.96,0,3.08,.47,3.08,2.74v3.01h10.57c.78,0,2.71,.07,2.71,2.47,0,1.86-.68,2.78-2.71,2.78h-9.01c2.54,4.4,5.96,8.23,10.13,11.14,.95,.68,1.56,1.19,1.56,2.37,0,1.8-1.52,3.76-3.32,3.76-.81,0-1.39-.24-3.42-2.07-3.56-3.29-5.79-6.94-6.5-8.06v11.52Z"/><path class="cls-2" d="M417.97,7.27c-.64-1.12-.81-1.42-.81-1.96,0-.78,.64-1.86,1.93-1.86,.95,0,1.42,.51,2.13,1.46,3.39,4.57,4.84,9.79,4.84,14.87,0,5.49-1.69,10.84-5.05,15.14-.58,.71-1.05,1.19-1.93,1.19-1.29,0-1.93-1.08-1.93-1.86,0-.54,.17-.85,.81-1.96,2.95-5.08,3.25-10.06,3.25-12.5s-.3-7.42-3.25-12.5Z"/><path class="cls-2" d="M450.33,29.06c1.22,0,2.98,.27,2.98,2.88,0,1.96-.91,2.91-2.98,2.91h-12.94c-2.51,0-4.95,0-4.95-3.29,0-2.07,.78-2.71,3.42-4.78,1.8-1.42,4.71-3.96,6.71-5.96,2-1.96,3.12-3.25,3.12-4.95,0-1.35-.95-3.12-3.02-3.12-1.42,0-2.81,.58-3.76,1.29-1.35,1.05-1.59,1.22-2.37,1.22-1.9,0-3.05-1.63-3.05-3.05,0-2,4-5.25,9.18-5.25,5.56,0,9.32,3.62,9.32,8.71,0,4.1-2.2,6.74-10.16,13.38h8.5Z"/><path class="cls-2" d="M463.98,23.09c-.68,0-2.64,0-2.64-2.54s1.29-2.51,3.39-2.61c2-.1,3.35-1.05,3.35-2.68,0-2.1-2.24-2.51-3.12-2.51-2.03,0-3.32,.61-4.47,1.22-.47,.24-.95,.47-1.49,.47-1.56,0-2.61-1.59-2.61-2.95,0-2.71,5.08-4.54,8.81-4.54,5.96,0,9.18,3.66,9.18,7.76,0,3.25-1.96,4.61-2.85,5.22,1.42,.81,4.3,2.41,4.3,6.88,0,4.1-3.08,8.57-11.45,8.57-3.42,0-5.56-.71-6.91-1.25-.78-.3-1.9-.88-1.9-2.47,0-1.22,.78-3.15,2.57-3.15,.47,0,.64,.07,2.07,.47,.68,.2,2,.61,4.1,.61,1.86,0,5.22-.47,5.22-3.52,0-2.61-2.98-2.98-4.67-2.98h-.88Z"/><path class="cls-2" d="M486.88,17.54c0,2.03-1.66,3.59-3.59,3.59s-3.59-1.63-3.59-3.59,1.63-3.59,3.59-3.59,3.59,1.52,3.59,3.59Zm0,14.26c0,2.03-1.66,3.59-3.59,3.59s-3.59-1.59-3.59-3.59,1.63-3.59,3.59-3.59,3.59,1.52,3.59,3.59Z"/><path class="cls-2" d="M492.5,12.42c0-2.1,.3-4.91,4.71-4.91h9.15c1.08,0,2.98,.2,2.98,2.85s-1.63,2.95-2.98,2.95h-7.05c-.78,0-1.02,.24-1.02,1.02v2.74c1.15-.27,1.96-.47,3.15-.47,4.74,0,9.52,3.01,9.52,9.15,0,4.95-3.32,9.65-11.11,9.65-1.76,0-4.71-.3-6.88-1.22-1.32-.54-1.83-1.29-1.83-2.51,0-1.73,1.12-3.12,2.51-3.12,.47,0,.91,.14,2.07,.47,.91,.27,2.03,.58,3.83,.58,.81,0,5.11,0,5.11-3.76,0-1.96-1.39-3.46-3.79-3.46-1.42,0-1.93,.37-3.25,1.35-.27,.2-1.12,.68-2.27,.68-2.85,0-2.85-2.1-2.85-3.18V12.42Z"/><path class="cls-2" d="M523.03,26.01c-5.01-.03-9.08-3.52-9.08-9.11s4.27-9.93,9.99-9.93c2.81,0,10.5,1.25,10.5,12.87,0,8.71-4.34,15.55-13.21,15.55-2.44,0-4.81-.3-4.81-3.01,0-2.54,1.96-2.88,2.61-2.88,.34,0,1.8,.1,2.07,.1,3.86,0,5.52-2.27,6.13-4.74-.64,.41-1.93,1.15-4.2,1.15Zm-2.74-9.25c0,2.2,1.56,3.86,3.76,3.86s4.03-1.56,4.03-3.9c0-2.2-1.66-3.96-4.13-3.96-1.66,0-3.66,1.42-3.66,4Z"/><path class="cls-1" d="M558.15,17.4c1.08,0,5.83-.27,6.81-.27,1.86,0,2.57,1.12,2.57,2.64,0,2.41-1.8,2.54-2.51,2.57-.61,.03-3.52,.17-6.84,.24l.03,2.74c1.25,.37,4.17,1.22,7.25,2.91,1.29,.71,2.2,1.22,2.2,2.98,0,1.19-.68,3.18-2.61,3.18-.71,0-1.05-.14-3.32-1.42-1.96-1.12-3.08-1.52-3.69-1.76-.24,1.69-.81,5.62-7.69,5.62-4.4,0-8.33-1.96-8.33-6.23,0-.75,0-6.71,10.33-6.13v-1.8c-1.19,0-7.05,.1-8.23-.07-1.42-.2-2.03-1.19-2.03-2.57,0-2.17,1.46-2.61,2.95-2.61,.54,0,5.22,.1,6.17,.1,.17,0,.95-.03,1.12-.03v-1.9c-.47,.03-7.76,.07-8.74,0-.98-.07-2.64-.14-2.64-2.68,0-2.68,2.13-2.68,3.22-2.68,1.22,0,6.54,.1,7.62,.1h.51l-.03-1.42c-.07-2.17,1.66-2.61,2.91-2.61,1.35,0,2.95,.47,2.95,2.54v1.46c1.29-.03,6.98-.24,8.13-.24s2.71,.41,2.71,2.64c0,1.39-.64,2.41-1.96,2.61-.64,.1-1.49,.1-8.84,.24v1.83Zm-7.62,11.92c-2.24,0-3.25,.64-3.25,1.32s.81,1.19,2.51,1.19c2.37,0,2.54-.95,2.57-2.37-.44-.07-1.02-.14-1.83-.14Z"/><path class="cls-1" d="M578.04,16.08c-.58,.07-.98,.14-1.39,.14-2.44,0-2.71-2.03-2.71-2.98,0-2.07,1.29-2.61,2.54-2.74,.91-.1,3.52-.24,4.13-.27l19.04-1.39c.41-.03,.98-.03,1.39-.03,1.32,0,2.88,.47,2.88,2.98s-1.52,2.61-3.29,2.81c-6.54,.71-11.96,4.98-11.96,9.82,0,3.93,3.49,5.52,5.93,6.1,2.41,.58,3.39,.78,3.39,2.78,0,1.8-1.02,3.42-3.08,3.42-2.71,0-12.43-2.27-12.43-11.82,0-4.54,2.1-7.11,3.46-8.5,.31-.3,1.39-1.19,2.03-1.59l-9.93,1.29Zm22.76,8.33c0,.95-1.12,1.69-1.96,1.69-.78,0-1.15-.51-1.59-1.39-.54-1.12-1.22-2.3-2-3.35-.37-.47-.54-.98-.54-1.25,0-.78,.78-1.69,2-1.69,.07,0,.17,0,.34,.07,1.08,.34,3.76,5.08,3.76,5.93Zm4.54-2.71c0,.98-1.08,1.73-1.96,1.73-.75,0-.85-.14-2-2.27-.17-.34-1.36-2.13-1.8-2.78-.17-.27-.34-.54-.34-.95,0-.81,.78-1.69,2-1.69,.07,0,.17-.03,.34,.03,1.02,.34,3.76,5.01,3.76,5.93Z"/><path class="cls-1" d="M618.28,31.87c0,2-1.63,3.52-3.52,3.52s-3.52-1.56-3.52-3.52,1.59-3.52,3.52-3.52,3.52,1.56,3.52,3.52Zm-6.71-21c-.07-1.49-.14-3.9,3.05-3.9,3.46,0,3.39,2.24,3.32,3.9l-.51,12.8c-.07,1.32-.14,3.01-2.64,3.01s-2.68-1.76-2.71-3.01l-.51-12.8Z"/></g></g></g></svg>