<?xml version="1.0" encoding="UTF-8"?><svg id="_イヤー_2" xmlns="http://www.w3.org/2000/svg" viewBox="0 0 1082.19 12.72"><defs><style>.cls-1,.cls-2{fill:#fcee21;}.cls-2{fill-rule:evenodd;}</style></defs><g id="design"><g><path class="cls-1" d="M549,2.2s0,.02,0,.03c0-.01,0-.02,0-.03Z"/><path class="cls-1" d="M544.51,2.49c-.89,.7-1.47,3.72,.17,3.8,1.55,.08,1.17-2.24-.32-1.54-.71-.6,.74-4.57,4.61-3.53-1.67-.43-1.79,1.12-1.38,1.58,.44,.5,1.54,.35,1.41-.56-.03,.14-.52,.37-.7-.05-.38-.88,2.08-1.24,3.96,2.3h511.69v-.41h-511.53c-.69-1.5-2.71-3.47-5.04-3.47-2.09,0-3.39,1.52-4.98,1.37,0,.38,.83,1.42,2.11,.51Z"/><path class="cls-1" d="M533.89,2.18c-.18,.42-.67,.19-.7,.05-.12,.91,.97,1.06,1.41,.56,.41-.47,.29-2.02-1.38-1.58,3.87-1.03,5.32,2.93,4.61,3.53-1.48-.69-1.87,1.62-.32,1.54,1.63-.08,1.06-3.1,.17-3.8,1.28,.91,2.11-.13,2.11-.51-1.59,.14-2.89-1.37-4.98-1.37-2.34,0-4.35,1.97-5.04,3.47H18.24v.41h511.68c1.88-3.54,4.34-3.18,3.96-2.3Z"/><path class="cls-1" d="M528.4,2.23s0-.02,0-.03c0,.01,0,.02,0,.03Z"/><rect class="cls-1" x="3.8" y="5.58" width="525.5" height=".56"/><path class="cls-1" d="M532.68,6.17c.04-1.69,2.31-1.54,2.18-.04-.05,.61-.92,.8-1.13,.25-.12,1.2,2.07,1.2,2.07-.5,0-2.72-4.18-2.48-4.18,.2,0,3.54,5.18,5.19,9.48-.18,4.3,5.37,9.48,3.72,9.48,.18,0-2.68-4.18-2.91-4.18-.2,0,1.7,2.19,1.7,2.07,.5-.21,.55-1.08,.35-1.13-.25-.13-1.49,2.15-1.64,2.18,.04,.06,2.92-4.92,3.65-8.17-.65,1.71-2.81,0-5.3-.24-5.52h0c-.23,.22-1.95,2.71-.24,5.52-3.26,4.3-8.23,3.57-8.17,.65ZM541.09,.02c.11,.3,1.3,2.72,0,5.1-1.3-2.38-.11-4.8,0-5.1Z"/><path class="cls-2" d="M4.52,5.85c1.51-.9,.63-2.71-1.02-2.71-1.11,0-1.9,.9-2.5,1.58-.62,.7-.75,.9-1,1.13,.25,.23,.4,.41,1,1.13,.58,.69,1.4,1.58,2.51,1.58,1.63,0,2.51-1.81,1-2.71Z"/><g><rect class="cls-1" x="552.89" y="5.57" width="525.5" height=".56"/><path class="cls-2" d="M1077.67,5.85c-1.51,.9-.63,2.71,1.02,2.71,1.11,0,1.9-.9,2.5-1.58,.62-.7,.75-.9,1-1.13-.25-.23-.4-.41-1-1.13-.58-.69-1.4-1.58-2.51-1.58-1.63,0-2.51,1.81-1,2.71Z"/></g><g><path class="cls-1" d="M540.82,7.49h0v.02l.03,.06s.05,.12,.1,.21c.05,.09,.11,.2,.19,.32,.01,.01,.02,.03,.03,.05l.03,.05s.05,.06,.07,.1l.02,.02,.02,.02,.04,.05,.04,.05s.03,.03,.05,.05l.05,.05s.03,.03,.05,.05l.03,.03,.03,.03,.05,.05,.06,.05,.03,.03,.03,.03,.03,.03,.03,.02s.04,.03,.06,.05c.09,.07,.18,.13,.27,.2,.1,.07,.2,.13,.3,.2,.1,.07,.21,.14,.31,.22,.11,.08,.21,.16,.31,.25,.1,.09,.2,.19,.29,.29,.09,.11,.17,.22,.24,.35,0,.02,.02,.03,.02,.05v.02h.02v.02l.03,.05v.02l.02,.03,.02,.05v.05l.02,.03v.03l.02,.05c.01,.07,.02,.14,.02,.21,0,.07,0,.14-.01,.2,0,.07-.02,.13-.04,.2-.02,.06-.04,.13-.07,.19-.03,.06-.06,.12-.09,.17-.02,.03-.03,.05-.05,.08l-.03,.04h0v.02l-.02,.02v.02l-.03,.02-.03,.04-.03,.03-.02,.02-.02,.02-.02,.02-.02,.02-.03,.03-.04,.03h-.02l-.02,.03s-.05,.03-.07,.05l-.04,.02h-.02l-.02,.02c-.05,.03-.1,.05-.16,.08l-.04,.02h-.04s-.05,.03-.08,.04h-.06v.02h-.02s-.05,.01-.08,.02h-.12l-.04,.02h-.04s-.02,0-.04,0h-.07c-.19-.01-.36-.05-.5-.11-.07-.03-.13-.06-.19-.09-.06-.03-.11-.06-.15-.09l-.03-.02s-.02-.01-.03-.02l-.03-.02h-.01v-.02l-.03-.02-.02-.02-.03-.03s-.03-.04-.04-.05h-.01v-.02h0v.02s.04,.02,.06,.04c.04,.04,.1,.09,.19,.15,.04,.03,.09,.06,.15,.09,.06,.03,.12,.06,.19,.08,.14,.05,.31,.08,.49,.09h.22l.04-.02h.04s.05-.02,.07-.02h.06l.02-.02s.05-.02,.07-.03h.04l.04-.03s.1-.05,.14-.08h.02l.02-.02,.03-.02s.05-.03,.07-.05h.02v-.02h.02l.03-.03,.03-.03h.02l.02-.03,.02-.02v-.02l.04-.03,.03-.03v-.02l.03-.02v-.02h.02v-.02l.03-.04s.03-.05,.05-.08c.03-.05,.06-.11,.08-.16,.02-.06,.04-.11,.06-.17,.02-.06,.03-.12,.04-.18,0-.06,.01-.13,0-.19,0-.06,0-.13-.02-.19v-.05l-.02-.02v-.05l-.02-.02-.02-.05v-.02l-.02-.02-.02-.05h0v-.02l-.02-.02s-.01-.03-.02-.05c-.06-.12-.14-.23-.23-.33-.09-.1-.18-.2-.28-.28-.1-.09-.2-.17-.3-.24-.1-.08-.21-.15-.31-.22-.1-.07-.2-.14-.29-.21-.09-.07-.19-.14-.27-.21-.02-.02-.04-.04-.06-.05l-.03-.03-.03-.03-.03-.03-.03-.03-.06-.05-.05-.05-.03-.03-.02-.03s-.03-.04-.05-.05l-.05-.05s-.03-.04-.04-.05l-.04-.05-.04-.05-.02-.03-.02-.03s-.05-.07-.07-.1l-.03-.05s-.02-.03-.03-.05c-.08-.12-.13-.24-.18-.33-.04-.09-.07-.17-.09-.22l-.02-.06h0v-.02Z"/><path class="cls-1" d="M540.82,7.21c.1,0,.2,.06,.24,.15h0s0,0,0,0h0s.03,.08,.03,.08c.02,.04,.05,.11,.09,.19,.04,.08,.1,.18,.17,.29l-.16,.25,.22-.16,.05,.07-.14,.2,.15-.11-.08,.1,.16-.07,.08,.09-.03,.05,.04,.05-.04,.06,.11-.07-.04,.08,.02-.02-.11,.19,.19-.2,.1,.1-.12,.24,.17-.2-.11,.24,.12-.14h0l.05-.05,.06,.04c.08,.07,.17,.13,.26,.19l.3,.2c.1,.07,.21,.14,.32,.22,.11,.08,.23,.17,.33,.26,.11,.1,.22,.2,.32,.32,.11,.13,.2,.26,.27,.4,0,0,.04,.08,.04,.09l.03,.08s.03,.06,.03,.07c0,0,.03,.08,.03,.08l-.1,.06v.04l.12-.03,.02,.09c.02,.08,.03,.17,.03,.25,0,.08,0,.17-.01,.25-.01,.08-.03,.16-.05,.23-.02,.08-.05,.15-.08,.22-.03,.07-.07,.14-.11,.2l-.05,.07-.05,.07-.05,.06s-.05,.06-.06,.07l-.05,.05s-.05,.05-.05,.05l-.06,.05-.07,.06-.07,.05s-.07,.05-.07,.05c-.11,.06-.17,.09-.23,.12,0,0-.07,.03-.07,.03l-.09,.03-.08,.02h-.07l-.07,.03h-.08l-.1,.02h-.17c-.21-.01-.41-.05-.6-.13-.08-.03-.16-.07-.22-.1-.07-.04-.12-.08-.17-.11l-.08-.06-.05-.05s-.05-.05-.06-.06h0v-.02l-.06-.04h0c-.09-.1-.11-.28-.01-.38,.09-.1,.24-.14,.35-.05,0,0,.02,.02,.03,.03h0s.02,.02,.03,.03c.06,.05,.1,.09,.17,.14,.04,.02,.08,.05,.12,.07,.05,.02,.1,.05,.16,.07,.13,.05,.27,.07,.41,.07l.07,.27v-.27l.02,.07h0l.05,.2v-.27l.03,.06h.05v0h.02l.05,.09v-.16l.07-.02,.07-.02c.09-.04,.13-.06,.16-.08l.2,.2-.14-.24,.06-.04,.07-.07,.07-.07,.14,.06-.04-.04,.02-.03-.07-.06,.07-.1s.05-.09,.07-.13c.02-.05,.04-.09,.05-.14,.01-.05,.02-.1,.03-.15,0-.05,0-.1,0-.15,0-.05,0-.1-.02-.15l.25-.12-.27,.05,.22-.13-.24,.06-.04-.09c-.08-.15-.14-.24-.22-.34-.08-.09-.16-.18-.25-.26-.09-.08-.19-.16-.28-.23-.1-.07-.2-.15-.3-.21l-.3-.21c-.1-.07-.19-.14-.28-.22l-.07-.06-.05-.05-.06-.05-.07-.07-.06-.06,.03-.05-.03-.03h0l-.04,.03-.16-.18-.05-.06-.05-.06-.05-.07-.06-.09-.04-.06c-.1-.17-.17-.29-.21-.39-.05-.11-.08-.19-.1-.24l-.02-.06c-.06-.14,.01-.3,.15-.36,.03-.01,.07-.02,.1-.02Z"/></g><g><path class="cls-1" d="M541.37,7.49h0v.02l-.03,.06c-.02,.05-.05,.12-.09,.22-.04,.09-.1,.2-.18,.33,0,.02-.02,.03-.03,.05l-.03,.05s-.04,.07-.07,.1l-.02,.03-.02,.03-.04,.05-.04,.05s-.03,.04-.04,.05l-.05,.05s-.03,.04-.05,.05l-.02,.03-.03,.03-.05,.05-.06,.05-.03,.03-.03,.03-.03,.03-.03,.03s-.04,.04-.06,.05c-.09,.07-.18,.14-.27,.21-.09,.07-.19,.14-.29,.21-.1,.07-.2,.14-.31,.22-.1,.08-.2,.16-.3,.24-.1,.09-.19,.18-.28,.28-.09,.1-.16,.21-.23,.33,0,.01-.01,.03-.02,.05v.02h-.02v.02l-.02,.05v.02l-.02,.02-.02,.05v.05l-.02,.02v.02l-.02,.05c-.01,.06-.02,.13-.02,.19,0,.06,0,.13,0,.19,0,.06,.02,.12,.04,.18,.02,.06,.04,.12,.06,.17,.02,.06,.05,.11,.08,.16,.01,.03,.03,.05,.05,.08l.03,.04h0v.02l.02,.02v.02l.03,.02,.03,.03,.03,.03v.02l.03,.02,.02,.02h.02l.03,.04,.03,.03h.02l.02,.03s.05,.03,.07,.05l.03,.02h.02l.02,.02s.1,.05,.14,.08l.04,.02h.04s.05,.03,.07,.04h.04l.02,.02h.02s.05,.02,.07,.02h.09l.02,.02h.18c.19,0,.35-.03,.49-.08,.07-.02,.13-.05,.19-.08,.06-.03,.11-.06,.15-.09,.09-.06,.15-.11,.19-.15,.02-.02,.03-.03,.04-.04h.01v-.02h0v.02s-.03,.03-.05,.05l-.03,.03-.02,.02-.02,.02h-.01v.02l-.04,.02s-.02,.01-.03,.02l-.03,.02s-.09,.06-.15,.09c-.06,.03-.12,.06-.19,.09-.14,.06-.31,.1-.5,.11h-.07s-.02,0-.04,0h-.15l-.04-.02s-.05,0-.08-.01h-.06l-.02-.02s-.05-.01-.08-.02h-.04l-.04-.03c-.05-.02-.11-.05-.16-.08h-.02l-.02-.02-.04-.02s-.05-.03-.07-.05h-.02v-.02h-.02l-.04-.04-.03-.03-.02-.02-.02-.02-.02-.02-.02-.02-.03-.03-.03-.04-.02-.02v-.02l-.03-.02h0v-.02l-.03-.04s-.04-.05-.05-.08c-.03-.05-.06-.11-.09-.17-.03-.06-.05-.12-.07-.19-.02-.06-.03-.13-.04-.2,0-.07-.01-.14-.01-.2,0-.07,0-.14,.02-.21v-.05l.02-.03v-.05l.02-.03,.02-.05v-.03l.02-.02,.02-.05h0v-.02l.02-.02s.02-.03,.02-.05c.07-.13,.15-.24,.24-.35,.09-.11,.19-.2,.29-.29,.1-.09,.21-.17,.31-.25,.11-.08,.21-.15,.31-.22,.1-.07,.2-.14,.3-.2,.1-.07,.19-.13,.27-.2,.02-.02,.04-.03,.06-.05l.03-.02,.03-.03,.03-.03,.03-.03,.06-.05,.05-.05,.03-.03,.03-.03s.03-.03,.05-.05l.05-.05s.03-.03,.05-.05l.04-.05,.04-.05,.02-.02,.02-.02s.05-.06,.07-.1l.03-.05s.02-.03,.03-.05c.08-.12,.14-.23,.19-.32,.05-.09,.08-.16,.1-.21l.02-.06h0v-.02Z"/><path class="cls-1" d="M541.37,7.22s.07,0,.1,.02c.14,.06,.2,.21,.15,.35h0v.03c-.04,.09-.07,.17-.12,.27-.05,.1-.11,.23-.19,.36l-.06,.1-.06,.09-.04,.06-.04,.06-.06,.08-.05,.07-.08,.09-.08,.08-.05,.05-.07,.06-.06,.06-.07,.06-.06-.04-.05,.04,.05,.06c-.09,.07-.18,.15-.28,.22l-.3,.21c-.11,.07-.2,.14-.3,.21-.1,.07-.19,.15-.28,.23-.09,.08-.17,.16-.25,.26-.08,.1-.14,.19-.2,.28l-.27-.06,.24,.12-.27-.05,.24,.12-.02,.07-.28-.02,.15,.05h0l.11,.03c-.02,.08-.02,.13-.02,.18,0,.05,0,.1,0,.15,0,.05,.02,.1,.03,.15,.01,.05,.03,.09,.05,.14,.02,.04,.04,.09,.06,.13l.04,.07-.14,.17,.1-.06-.02,.02,.1-.07-.12,.18,.09-.07-.03,.05,.12-.09-.12,.17,.09-.07-.02,.05,.11-.09-.15,.23,.2-.18,.07,.05-.1,.26,.11-.16h0l.05-.06c.05,.03,.09,.05,.13,.07v.07h.03v.05l.04-.1-.02,.21,.05-.13v.04l.04-.1,.02,.12v-.04l.03,.22,.05-.27,.03,.25,.04-.24,.05,.28,.02-.21v.02l.02-.08,.05,.17v-.11h.03v-.05c.14,0,.28-.03,.41-.07,.06-.02,.11-.04,.16-.07s.09-.05,.12-.07c.07-.05,.12-.09,.15-.12l.06-.06c.11-.1,.28-.09,.38,.02s.1,.27,0,.38l-.05,.06s-.06,.06-.06,.06c0,0-.05,.04-.05,.05h0s-.04,.02-.06,.04h0c-.09,.08-.15,.12-.22,.15-.07,.04-.14,.07-.22,.11-.19,.07-.39,.12-.59,.13h-.08s-.16,0-.17,0h-.09s-.09-.02-.09-.03c0,0-.07-.01-.07-.02l-.07-.02-.07-.02-.08-.03c-.08-.03-.14-.06-.2-.1l-.07-.04-.11-.08-.08-.07-.06-.05-.06-.06-.05-.06-.05-.06-.05-.07-.08-.12c-.04-.06-.07-.13-.1-.2-.03-.07-.06-.14-.08-.22-.02-.08-.04-.16-.05-.23-.01-.08-.02-.16-.01-.25,0-.08,0-.17,.03-.25l.02-.09,.02-.07,.03-.08s.02-.06,.03-.07c0,0,.03-.08,.04-.08l.11,.03,.02-.05-.09-.06c.07-.14,.17-.27,.27-.4,.1-.12,.21-.22,.32-.32,.11-.09,.22-.18,.33-.26,.11-.08,.22-.15,.32-.22l.3-.2c.09-.06,.18-.13,.26-.19l.06-.05,.06-.05,.11-.09,.05,.04,.03-.03,.03,.02-.06-.07,.08-.08,.05,.03,.03-.04h.01l-.05-.04,.24,.1-.02-.03-.15-.13,.08,.04-.02-.03,.1,.04-.12-.1,.19,.08-.12-.09,.02-.03-.03-.03,.06-.08,.24,.06-.17-.1v-.02l-.02-.02c.08-.12,.14-.22,.18-.3,.04-.08,.07-.15,.09-.19l.03-.07c.05-.1,.15-.16,.25-.16Z"/></g></g></g></svg>