<?xml version="1.0" encoding="UTF-8"?><svg id="_イヤー_2" xmlns="http://www.w3.org/2000/svg" viewBox="0 0 680 22.44"><defs><style>.cls-1{fill:#fcee21;}</style></defs><g id="design"><path class="cls-1" d="M327.28,3.86c-.31,.73-1.19,.33-1.24,.08-.21,1.61,1.72,1.87,2.5,.99,.68-.77,.54-3.22-1.9-2.9,6.43-1.33,8.83,5.31,7.61,6.34-2.62-1.22-3.3,2.86-.56,2.73,2.88-.14,1.87-5.47,.3-6.71,2.25,1.61,3.73-.23,3.72-.9-2.8,.25-5.1-2.42-8.79-2.42-4.12,0-7.69,3.47-8.9,6.12H32.2v.73H320.28c3.31-6.25,7.66-5.61,6.99-4.06ZM6.19,5.55c-1.96,0-3.36,1.59-4.41,2.79-1.1,1.24-1.33,1.59-1.77,1.99,.44,.4,.7,.73,1.77,1.99,1.03,1.21,2.47,2.79,4.43,2.79,2.6,0,4.11-2.6,2.42-4.28H319.17v-.98H8.6c1.73-1.68,.22-4.3-2.41-4.3Zm641.62,1.64H359.99c-1.21-2.65-4.78-6.12-8.9-6.12-3.7,0-5.99,2.68-8.79,2.42,0,.67,1.47,2.51,3.72,.9-1.57,1.23-2.59,6.56,.3,6.71,2.73,.14,2.06-3.95-.56-2.73-1.22-1.03,1.18-7.67,7.61-6.34-2.44-.32-2.59,2.13-1.9,2.9,.78,.88,2.71,.62,2.5-.99-.05,.25-.92,.65-1.24-.08-.67-1.56,3.68-2.19,6.99,4.06h288.09v-.73Zm-298.46,3.19c0,3,3.87,3,3.66,.88-.37,.97-1.9,.62-2-.45-.23-2.64,3.79-2.9,3.85,.08,.11,5.15-8.68,6.44-14.43-1.15,3.02-4.96-.01-9.35-.43-9.74h-.02c-.41,.39-3.45,4.78-.43,9.74-5.75,7.59-14.54,6.3-14.43,1.15,.06-2.98,4.09-2.71,3.85-.08-.1,1.07-1.63,1.42-2,.45-.21,2.12,3.66,2.12,3.66-.88,0-4.8-7.38-4.38-7.38,.35,0,6.25,9.14,9.17,16.73-.31,7.59,9.48,16.73,6.57,16.73,.31,0-4.73-7.38-5.14-7.38-.35ZM340,.04c.19,.53,2.3,4.79,0,9-2.3-4.21-.19-8.47,0-9Zm5.15,18.76l-.19,.05s-.01-.05-.02-.07l.18-.1s-.04-.13-.05-.14c0-.01-.04-.11-.05-.13l-.06-.14s-.07-.15-.08-.15c-.13-.24-.29-.48-.48-.7-.18-.21-.37-.4-.57-.57-.19-.17-.39-.32-.59-.46-.19-.14-.38-.27-.57-.39l-.52-.35c-.16-.11-.32-.22-.46-.34l-.1-.08-.08,.1h0l-.2,.25,.19-.43-.31,.35,.21-.43-.18-.17-.33,.35,.19-.34-.03,.03,.07-.14-.2,.13,.07-.11-.07-.08,.06-.08-.14-.15-.28,.13,.13-.17-.27,.2,.25-.35-.09-.12c.04-.08,.1-.18,.13-.25,.08-.18,.14-.32,.19-.49v-.03l.02-.02c.1-.24-.02-.52-.26-.62-.06-.03-.12-.04-.18-.04-.19,0-.37,.11-.44,.29l-.05,.12s-.04-.1-.05-.11h0v-.02h0s0,0,0,0h0c-.08-.17-.25-.27-.43-.27-.06,0-.12,.01-.18,.04-.25,.1-.37,.38-.27,.63,0,0,.04,.11,.04,.11,.03,.1,.09,.24,.18,.42,.03,.07,.08,.16,.12,.25l-.1,.13,.06,.05-.03,.05,.21,.16-.33-.14,.2,.17-.18-.06,.04,.06-.15-.07,.27,.24,.04,.06-.42-.18,.09,.08h-.02l-.06,.06-.09-.05-.14,.14,.11,.13-.06-.03-.06,.06-.09-.06-.19,.17-.11,.09-.1,.08c-.15,.11-.3,.22-.46,.33l-.52,.35c-.19,.12-.38,.25-.57,.39-.2,.14-.39,.3-.59,.46-.2,.17-.39,.36-.57,.57-.19,.22-.35,.46-.48,.7l.17,.11s-.03,.06-.04,.09l-.19-.05s-.06,.13-.06,.15c0,.01-.04,.11-.05,.12l-.05,.14s-.03,.12-.04,.13l-.03,.16c-.03,.15-.04,.3-.05,.45,0,.15,0,.3,.02,.44,.02,.14,.05,.28,.09,.41,.04,.13,.09,.26,.14,.39,.05,.13,.12,.25,.18,.36l.14,.21,.09,.12s.09,.11,.09,.11c0,0,.09,.1,.1,.1,0,0,.1,.1,.11,.11l.1,.09s.14,.11,.15,.12l.2,.14s.11,.07,.12,.07c.11,.06,.22,.12,.36,.17,0,0,.13,.05,.14,.05l.13,.04s.12,.03,.12,.03c0,0,.12,.03,.13,.03,0,0,.16,.03,.16,.03,0,0,.15,.02,.15,.02,.02,0,.25,.01,.3,.01,0,0,.14,0,.14,0,.36-.02,.71-.09,1.04-.22,.15-.06,.28-.12,.39-.19,.12-.07,.22-.13,.38-.25v-.02s.06-.05,.09-.08h.01s.08-.06,.09-.07l.04-.04s.07,.07,.08,.08c0,0,.08,.07,.09,.08l.14,.11c.09,.06,.19,.13,.31,.2,.12,.06,.25,.13,.39,.18,.33,.13,.68,.2,1.05,.22,0,0,.12,0,.13,0h.17s.16-.02,.17-.02c0,0,.14-.02,.14-.02l.13-.02,.12-.03s.13-.03,.14-.04l.16-.05s.12-.05,.13-.05c.11-.05,.22-.1,.41-.21,0,0,.12-.08,.13-.08l.12-.08s.12-.09,.12-.1c0,0,.1-.09,.11-.1,0,0,.09-.08,.09-.09,0,0,.08-.09,.09-.09,0,0,.1-.11,.1-.12l.08-.1s.08-.11,.08-.12l.08-.13c.07-.11,.13-.23,.19-.36,.05-.12,.1-.25,.14-.39,.04-.13,.07-.27,.09-.41,.02-.14,.03-.29,.02-.44,0-.15-.02-.3-.05-.45l-.03-.16Zm-1.1,.38c.02,.09,.02,.17,.03,.26,0,.09,0,.17-.01,.26,0,.09-.03,.17-.05,.26s-.05,.17-.09,.25c-.03,.08-.07,.15-.12,.23l-.12,.18,.12,.11s-.04,.05-.04,.05l.07,.07-.25-.11s-.12,.13-.12,.13c0,0-.13,.11-.13,.12l-.1,.08,.24,.42-.35-.35c-.06,.04-.13,.07-.29,.14,0,0-.11,.04-.12,.04l-.13,.03v.28l-.08-.15h-.02l-.03-.11v.11h-.08l-.04-.09v.48l-.1-.38v.02l-.03-.12v.48h0l-.12-.48c-.25,0-.49-.05-.72-.13-.1-.04-.2-.08-.28-.12-.08-.04-.15-.08-.22-.12-.12-.08-.21-.16-.31-.24-.01-.02-.03-.04-.05-.06-.02-.02-.03-.03-.05-.04-.13-.1-.29-.1-.44-.04-.17-.09-.38-.07-.53,.07,0,0-.11,.1-.11,.11-.06,.05-.14,.13-.26,.21-.06,.04-.14,.08-.22,.12-.08,.04-.18,.08-.28,.12-.23,.08-.48,.12-.72,.13v.09s-.03,0-.05,0v.2l-.09-.3-.02,.14v-.04l-.05,.38-.08-.49-.07,.42-.06-.44-.08,.47h0l-.04-.38-.02,.07-.04-.21-.07,.18v-.08l-.09,.23,.03-.38-.07,.18v-.06l-.06-.03,.02-.13c-.07-.03-.14-.06-.23-.12l-.08,.11h-.01l-.19,.28h0l.18-.46-.12-.1-.36,.33h0l.26-.41-.19,.16,.04-.08-.15,.13,.21-.3-.21,.16,.06-.09-.16,.12,.22-.31-.17,.13,.03-.04-.17,.11,.24-.3-.07-.12c-.04-.07-.08-.15-.11-.23-.03-.08-.06-.16-.09-.24-.02-.09-.04-.17-.05-.26,0-.08-.01-.17-.01-.26,0-.09,.01-.18,.04-.32l-.19-.06-.27-.08,.49,.03,.04-.12-.43-.21,.48,.09-.43-.22,.48,.11c.09-.17,.2-.33,.35-.5,.14-.16,.29-.31,.44-.45,.16-.15,.33-.28,.5-.41,.17-.13,.34-.25,.53-.38l.53-.37c.18-.13,.34-.26,.5-.38l-.08-.1,.08-.06,.11,.08s.12-.1,.12-.11l.11-.1s.11-.11,.12-.11l.09-.09s.13-.14,.14-.14l.14-.16,.1-.11s.06-.07,.09-.11h0l.08,.11,.27,.32,.08-.07h.01s.03,.04,.06,.07l-.06,.1s.1,.1,.11,.11l.13,.12,.11,.1,.1,.08s.12,.1,.13,.11c.16,.13,.33,.26,.5,.38l.53,.37c.18,.12,.35,.25,.53,.38,.17,.13,.34,.26,.5,.4,.16,.14,.31,.29,.44,.45,.14,.17,.26,.34,.4,.6l.07,.16,.43-.1-.39,.23,.48-.08-.44,.22Zm334.18-10.84c-1.03-1.21-2.47-2.79-4.43-2.79-2.6,0-4.11,2.6-2.42,4.28H360.83v.98h310.57c-1.73,1.68-.22,4.3,2.41,4.3,1.96,0,3.36-1.59,4.41-2.79,1.1-1.24,1.33-1.59,1.77-1.99-.44-.4-.7-.73-1.77-1.99Z"/></g></svg>