<?xml version="1.0" encoding="UTF-8"?><svg id="_イヤー_2" xmlns="http://www.w3.org/2000/svg" viewBox="0 0 38.09 38.09"><defs><style>.cls-1{fill:#fff;}</style></defs><g id="design"><g><path class="cls-1" d="M36.58,38.09c-.39,0-.77-.15-1.07-.44L.44,2.58C-.15,1.99-.15,1.03,.44,.44,1.03-.15,1.99-.15,2.58,.44L37.65,35.51c.59,.59,.59,1.55,0,2.14-.3,.3-.68,.44-1.07,.44Z"/><path class="cls-1" d="M1.51,38.09c-.39,0-.77-.15-1.07-.44-.59-.59-.59-1.55,0-2.14L35.51,.44c.59-.59,1.55-.59,2.14,0,.59,.59,.59,1.55,0,2.14L2.58,37.65c-.3,.3-.68,.44-1.07,.44Z"/></g></g></svg>