<?xml version="1.0" encoding="UTF-8"?><svg id="_イヤー_2" xmlns="http://www.w3.org/2000/svg" viewBox="0 0 536.19 83"><defs><style>.cls-1{fill:#e9528e;}.cls-2{fill:#fff;}.cls-3{fill:#ff0;}</style></defs><g id="design"><g><g><rect class="cls-1" x="33.94" width="468.31" height="58.53"/><polygon class="cls-1" points="68.41 78.35 68.41 64.07 42.08 64.07 68.41 78.35"/><polygon class="cls-1" points="494.11 64.07 467.78 64.07 467.78 78.35 494.11 64.07"/><path class="cls-1" d="M536.19,28.06h-28.4V61.3s-.02,.07-.02,.1c-.01,.3-.07,.58-.17,.85-.02,.04-.02,.09-.03,.14-.13,.3-.32,.57-.55,.82-.07,.08-.17,.13-.25,.2-.14,.11-.26,.24-.42,.33l-35.52,19.26h65.37l-17.01-28.24,17.01-26.7Z"/><path class="cls-1" d="M65.37,83L29.85,63.74c-.16-.09-.29-.22-.43-.34-.08-.07-.17-.11-.24-.19-.23-.24-.42-.52-.55-.82-.01-.03-.01-.07-.03-.11-.11-.28-.17-.58-.18-.88,0-.04-.02-.06-.02-.1V28.06H0l17.01,26.7L0,83H65.37Z"/></g><g><path class="cls-3" d="M68.25,40.89c0,3.91-.62,4.53-5.28,4.53-1.65,0-3.33,0-3.33-3.02,0-.41,0-2.92,2.16-2.92,.86,0,1.1-.03,1.1-.86v-4.26c-.72,.17-.96,.21-1.34,.21-1.72,0-2.27-1.82-2.27-3.05,0-1.92,1.06-2.2,3.6-2.81v-5.08h-1.06c-.72,0-2.44,0-2.44-2.68s1.65-2.75,2.44-2.75h1.06v-2.88c0-.65,0-2.81,2.64-2.81s2.71,1.96,2.71,2.81v2.88h.82c1.89,0,2.23,1.48,2.23,2.68,0,1.65-.62,2.75-2.23,2.75h-.82v3.6c.41-.1,.72-.17,1.03-.17,1.51,0,2.06,1.61,2.06,2.85,0,1.51-.72,1.92-3.09,2.85v8.13Zm10.33-23.47v-2.09c0-1.54,.55-2.81,2.92-2.81,2.64,0,2.64,2.16,2.64,2.81v2.09h2.75c2.71,0,4.29,.93,4.29,4.29v18.67c0,3.33-1.58,4.29-4.29,4.29h-11.12c-2.71,0-4.26-.93-4.26-4.29V21.71c0-3.33,1.54-4.29,4.26-4.29h2.81Zm-1.96,10.95h2.2v-5.49h-1.37c-.55,0-.82,.27-.82,.82v4.67Zm2.2,10.95v-6.04h-2.2v5.22c0,.55,.27,.82,.82,.82h1.37Zm7.27-10.95v-4.67c0-.55-.27-.82-.82-.82h-1.44v5.49h2.26Zm0,4.91h-2.26v6.04h1.44c.55,0,.82-.27,.82-.82v-5.22Z"/><path class="cls-3" d="M118,25.76c0-.51,.07-.62,.21-.89-1.89-.24-1.89-1.68-1.89-3.33v-.69c0-2.88,.48-3.4,3.36-3.4h2.16c.52,0,.55-.27,.55-.45,0-.14-.1-.38-.55-.38h-4.19c-.55,0-1.78,0-1.78-1.58s1.13-1.61,1.78-1.61h6.01c2.4,0,3.36,.21,3.36,3.05v.89c0,2.85-.96,3.05-3.36,3.05h-2.23c-.51,0-.51,.34-.51,1s.38,.69,1.54,.69c1,0,1.1,0,1.37-.65,.24-.58,.72-.79,1.44-.79,1.41,0,2.81,.51,2.81,1.68,0,.31-.31,2.26-2.09,2.51-.52,.07-2.37,.1-2.99,.1,.1,.24,.14,.31,.14,.79h2.13c.55,0,2.06,0,2.06,1.75s-1.51,1.72-2.06,1.72h-2.13v1.1h2.81c.65,0,2.23,0,2.23,1.92s-1.48,1.92-2.23,1.92h-4.56c1.75,.55,2.54,.69,4.43,1.03,1.27,.21,1.51,1.3,1.51,1.85,0,.69-.34,1.82-1.58,2.2,2.57,.14,2.57,2.33,2.57,2.68,0,.27,0,2.75-2.71,2.75h-15.68c-4.77,0-6.62-2.06-7.55-3.05-2.51,3.43-2.95,3.43-3.84,3.43-1.54,0-3.26-1.58-3.26-3.4,0-1.13,.62-1.68,1.44-2.33,.41-.34,2.3-1.72,2.68-2.02v-6.59c0-.31-.03-.45-.31-.45h-.96c-.82,0-2.68-.07-2.68-2.71,0-2.4,1.41-2.78,2.68-2.78h1.92c3.77,0,4.46,.65,4.46,4.5v6.42c0,.82,0,1.3,.69,2.13,.41,.48,.86,.79,1.48,1-.89-.65-.89-1.72-.89-1.92,0-1.48,.96-1.61,2.09-1.82,1.96-.31,2.16-.34,3.74-.89h-4.63c-.62,0-2.23,0-2.23-1.89s1.44-1.96,2.23-1.96h2.47v-1.1h-1.99c-.52,0-2.06,0-2.06-1.72s1.48-1.75,2.06-1.75h1.99c0-.38,.03-.48,.14-.79-4.05-.07-4.67-.07-4.67-3.4v-1.06c-.58,1.41-1.82,2.02-2.81,2.02s-1.13-.21-3.05-2.26c-.17-.21-1.99-2.02-2.44-2.44-.55-.55-.86-1.03-.86-1.82,0-1.3,1.3-2.92,2.88-2.92,.69,0,1.34,0,4.32,3.16,.89,.93,1.85,1.96,2.09,2.75,.34-1.54,1.75-1.54,3.23-1.54h2.13c.51,0,.55-.27,.55-.48,0-.07,0-.34-.55-.34h-3.98c-.55,0-1.82,0-1.82-1.58s1.17-1.61,1.82-1.61h5.8c2.4,0,3.4,.21,3.4,3.05v.89c0,2.85-.96,3.05-3.4,3.05h-2.09c-.55,0-.55,.34-.55,1,0,.62,.1,.69,1.03,.69,1,0,1.1,0,1.3-.45,.31-.62,.48-1,1.65-1,1.03,0,2.47,.45,2.47,1.58,0,.48-.34,2.13-1.65,2.57,.21,.31,.24,.38,.24,.93h3.36Zm-4.46,8.41c1.1,.55,1.37,1.44,1.37,2.06,0,.96-.45,1.27-2.09,1.92-1.17,.45-2.81,.93-3.84,1.06,.48,.03,.65,.03,1.3,.03h13.86c-1.34-.24-2.61-.65-3.12-.82-2.47-.79-3.16-1.03-3.16-2.23,0-.72,.38-1.58,1.34-2.02h-5.66Zm4.46-4.94h-3.36v1.1h3.36v-1.1Z"/><path class="cls-2" d="M134.84,26.97c-.46,.05-.79,.11-1.12,.11-1.96,0-2.18-1.63-2.18-2.4,0-1.66,1.04-2.1,2.04-2.21,.74-.08,2.83-.19,3.32-.22l15.31-1.12c.33-.03,.79-.03,1.12-.03,1.06,0,2.31,.38,2.31,2.4s-1.23,2.1-2.64,2.26c-5.26,.57-9.61,4-9.61,7.9,0,3.16,2.81,4.44,4.77,4.9,1.93,.46,2.72,.63,2.72,2.23,0,1.44-.82,2.75-2.48,2.75-2.18,0-10-1.82-10-9.51,0-3.65,1.69-5.72,2.78-6.84,.25-.25,1.12-.95,1.63-1.28l-7.98,1.04Zm18.3,6.7c0,.76-.9,1.36-1.58,1.36-.63,0-.93-.41-1.28-1.12-.44-.9-.98-1.85-1.61-2.7-.3-.38-.44-.79-.44-1.01,0-.63,.63-1.36,1.61-1.36,.05,0,.14,0,.27,.05,.87,.27,3.02,4.09,3.02,4.77Zm3.65-2.18c0,.79-.87,1.39-1.58,1.39-.6,0-.68-.11-1.61-1.82-.14-.27-1.09-1.72-1.44-2.23-.14-.22-.27-.44-.27-.76,0-.65,.63-1.36,1.61-1.36,.05,0,.14-.03,.27,.03,.82,.27,3.02,4.03,3.02,4.77Z"/><path class="cls-2" d="M165.18,21.15c-.43,.31-1.28,.89-2.1,.89-1.59,0-2.99-1.98-2.99-3.41,0-1.16,.93-1.78,1.79-2.37l4.62-3.14c.74-.5,1.75-1.16,3.38-1.16,3.88,0,3.88,3.03,3.88,4.15v25.07c0,1.47-.39,3.34-3.57,3.34-2.6,0-3.65-1.01-3.65-3.34V20.22l-1.36,.93Z"/><path class="cls-2" d="M182.95,39.62c-2.41-3.76-2.52-9.08-2.52-11.41,0-5.55,1.05-9.04,2.6-11.49,2.1-3.26,5.51-4.77,8.96-4.77s6.87,1.47,8.96,4.77c2.37,3.73,2.6,8.77,2.6,11.49,0,4.93-.81,8.69-2.56,11.45-2.68,4.15-6.64,4.85-9,4.85s-6.29-.62-9.04-4.89Zm13.39-11.41c0-5.67-1.12-9.62-4.35-9.62-3.45,0-4.35,4.5-4.35,9.66,0,5.55,1.09,9.62,4.35,9.62s4.35-4.42,4.35-9.66Z"/><path class="cls-2" d="M210.65,39.62c-2.41-3.76-2.52-9.08-2.52-11.41,0-5.55,1.05-9.04,2.6-11.49,2.1-3.26,5.51-4.77,8.96-4.77s6.87,1.47,8.96,4.77c2.37,3.73,2.6,8.77,2.6,11.49,0,4.93-.81,8.69-2.56,11.45-2.68,4.15-6.64,4.85-9,4.85s-6.29-.62-9.04-4.89Zm13.39-11.41c0-5.67-1.12-9.62-4.35-9.62-3.45,0-4.35,4.5-4.35,9.66,0,5.55,1.09,9.62,4.35,9.62s4.35-4.42,4.35-9.66Z"/><path class="cls-2" d="M256.73,20.43c.95,0,1.5,0,2.04,.41,.35,.27,.84,.84,.84,1.93,0,.65,0,1.85-2.91,4.85-2.15,2.23-4.25,3.6-5.34,4.3h6.29c2.15,0,3.4,.74,3.4,3.38v5.45c0,2.64-1.25,3.38-3.4,3.38h-12.42c-2.15,0-3.38-.74-3.38-3.38v-4.09c-2.34,.87-3.21,1.17-3.87,1.17-1.61,0-2.15-1.88-2.15-2.81,0-1.14,.54-1.63,1.77-1.99,5.01-1.47,5.42-1.58,7.05-2.34-.84-.9-1.88-1.88-3.05-2.78-2.15,1.25-2.56,1.25-2.89,1.25-1.42,0-2.26-1.55-2.26-2.72,0-1.04,.68-1.47,1.55-1.88,3.54-1.74,4.96-3.05,6.54-4.88,.68-.76,1.14-1.2,2.42-1.2,1.47,0,2.78,.63,2.59,1.93h7.16Zm-10.24,3.87c-.22,.22-.44,.41-1.17,1.01,1.17,.84,2.07,1.55,3.65,2.97,.98-.65,2.23-1.53,4.09-3.46,.19-.19,.22-.22,.22-.3,0-.03,0-.22-.25-.22h-6.54Zm9.97,12.47c0-.41-.25-.65-.65-.65h-8.77c-.41,0-.63,.25-.63,.65v2.37c0,.41,.22,.63,.63,.63h8.77c.41,0,.65-.22,.65-.63v-2.37Z"/><path class="cls-2" d="M284.51,32.2c.46,.54,.63,.95,.63,1.42,0,1.09-.84,2.1-1.85,2.1-.44,0-2.59-.76-3.02-.9-1.06-.3-2.04-.52-3.32-.71-1.12-.19-1.61-.6-1.61-1.63,0-.74,.44-1.88,1.5-1.88,.14,0,.22,0,.95,.14-.49-.65-.9-1.23-1.74-2.51-4.49,.63-8.42,.65-8.69,.65-1.33,0-3.16,0-3.16-2.34,0-2.02,1.23-2.23,2.59-2.23,2.83,0,4.22,0,6.67-.25-.95-1.66-1.2-2.18-1.2-2.81,0-1.58,1.8-2.07,2.67-2.07,.71,0,1.39,.33,1.74,.87,.33,.49,1.47,2.78,1.72,3.24,1.42-.33,3.16-.74,4.68-1.31,1.01-.38,1.39-.49,1.83-.49,1.47,0,2.07,1.53,2.07,2.59,0,1.2-.14,1.96-6.07,3.27,1.14,1.66,2.31,3.3,3.62,4.85Zm-7.9,6.84c1.06,0,2.56-.08,3.81-.25,.22-.03,2.31-.3,2.59-.3,1.36,0,1.96,1.03,1.96,2.23s-.57,1.77-1.25,2.07c-.9,.41-3.84,.74-6.95,.74-3.73,0-7.82-.46-9.94-3.38-.74-1.01-1.17-2.26-1.17-3.54,0-1.47,.71-4.06,2.61-4.06,1.23,0,2.59,.84,2.59,2.04,0,.25-.05,.49-.14,.71-.16,.38-.3,.76-.3,1.25,0,2.1,3.3,2.48,6.18,2.48Z"/><path class="cls-2" d="M305.14,28.03c.87,0,4.69-.22,5.47-.22,1.5,0,2.07,.9,2.07,2.12,0,1.93-1.44,2.04-2.02,2.07-.49,.03-2.83,.14-5.5,.19l.03,2.21c1.01,.3,3.35,.98,5.83,2.34,1.04,.57,1.77,.98,1.77,2.4,0,.95-.54,2.56-2.1,2.56-.57,0-.84-.11-2.67-1.14-1.58-.9-2.48-1.23-2.97-1.42-.19,1.36-.65,4.52-6.18,4.52-3.54,0-6.7-1.58-6.7-5.01,0-.6,0-5.39,8.31-4.93v-1.44c-.95,0-5.67,.08-6.62-.05-1.14-.16-1.63-.95-1.63-2.07,0-1.74,1.17-2.1,2.37-2.1,.44,0,4.19,.08,4.96,.08,.14,0,.76-.03,.9-.03v-1.53c-.38,.03-6.24,.05-7.03,0-.79-.05-2.12-.11-2.12-2.15,0-2.15,1.72-2.15,2.59-2.15,.98,0,5.26,.08,6.13,.08h.41l-.03-1.14c-.05-1.74,1.33-2.1,2.34-2.1,1.09,0,2.37,.38,2.37,2.04v1.17c1.03-.03,5.61-.19,6.54-.19s2.18,.33,2.18,2.12c0,1.12-.52,1.93-1.58,2.1-.52,.08-1.2,.08-7.11,.19v1.47Zm-6.13,9.59c-1.8,0-2.61,.52-2.61,1.06s.65,.95,2.02,.95c1.91,0,2.04-.76,2.07-1.91-.35-.05-.82-.11-1.47-.11Z"/><path class="cls-2" d="M319.05,21.17c.35-.57,.98-.84,1.85-.84,1.14,0,2.59,.49,2.59,1.85,0,.35-.08,.71-.25,1.55-.44,2.32-.93,5.42-.93,8.69,0,2.02,.19,4.41,.79,7.76,.16,.9,.19,1.2,.19,1.58,0,1.31-1.2,1.85-2.59,1.85-.93,0-1.55-.22-1.99-1.28-.49-1.23-1.12-5.58-1.12-9.42,0-3.57,.63-10.46,1.44-11.74Zm8.83,11.19c1.09,0,2.04,.52,2.04,1.47,0,.16-.03,.35-.11,.54-.33,.74-.52,1.12-.52,1.47,0,1.06,1.53,1.39,4.28,1.39,1.42,0,3.02-.14,3.65-.22,.74-.08,1.06-.11,1.25-.11,1.36,0,2.04,.9,2.04,2.26,0,2.18-1.09,2.75-6.75,2.75-3.16,0-8.77-.22-8.77-5.09,0-1.88,.68-4.47,2.89-4.47Zm9.12-5.42c-.46,0-2.48-.05-2.89-.05-1.66,0-3.62,.11-5.28,.25-.14,0-1.06,.11-1.42,.11-1.36,0-1.69-1.33-1.69-2.37,0-1.28,.54-1.96,1.66-2.21,1.42-.33,4.93-.44,6.65-.44,2.4,0,3.92,.08,4.47,.41,.6,.35,.93,1.12,.93,1.8,0,1.82-.76,2.51-2.42,2.51Z"/><path class="cls-2" d="M345.36,26.7c-.49,0-2.34,0-2.34-2.34s1.88-2.32,2.34-2.32h12.64c1.39,0,2.1,.08,3.95,2.56,1.52,2.04,1.74,2.37,1.74,3.54,0,.54-.74,5.96-5.97,11-2.12,2.04-5.67,4.55-7.71,4.55-1.74,0-2.51-1.55-2.51-2.61,0-1.2,.63-1.5,2.59-2.51,7.71-3.92,9.04-10.79,9.04-11.41,0-.41-.19-.46-.54-.46h-13.24Zm23.21-5.04c0,2.04-1.66,3.68-3.68,3.68s-3.68-1.63-3.68-3.68,1.66-3.68,3.68-3.68,3.68,1.63,3.68,3.68Zm-5.47,0c0,1.01,.79,1.8,1.8,1.8s1.8-.79,1.8-1.8-.84-1.8-1.8-1.8-1.8,.79-1.8,1.8Z"/><path class="cls-2" d="M377.03,37.05c0,.44,0,.57,.27,.57,.57,0,5.56-1.42,10.21-6.35,1.47-1.53,1.63-1.72,2.48-1.72,1.31,0,2.51,1.14,2.51,2.48,0,1.47-2.81,4.03-4.6,5.42-5.15,4.06-10.87,5.75-12.91,5.75-2.94,0-2.94-2.51-2.94-3.13V22.21c0-1.91,1.28-2.37,2.45-2.37,1.31,0,2.53,.52,2.53,2.37v14.84Z"/><path class="cls-2" d="M407.75,36.64c0,1.82,.38,1.93,3.08,1.93,1.61,0,3.76-.05,5.18-.16,1.33-.08,1.47-.11,1.85-.11,.49,0,2.1,0,2.1,2.23,0,1.42-.76,1.96-1.06,2.12-1.09,.54-5.67,.54-7.33,.54-4.88,0-8.66-.41-8.66-5.56v-7.27l-3.84,.27c-2.42,.16-2.59-1.58-2.59-2.37,0-1.8,1.14-2.21,2.29-2.26l4.14-.25v-4.33c0-1.12,.44-2.21,2.37-2.21,2.12,0,2.48,1.12,2.48,2.21v4.03l8.44-.52c.33-.03,1.14-.08,1.33-.08,.49,0,2.7,0,2.7,2.29,0,1.55-1.93,4.25-3.46,6.16-1.25,1.55-2.04,2.32-3.16,2.32s-2.37-.9-2.37-2.18c0-.65,.3-1.01,.65-1.39,1.06-1.17,1.82-2.02,1.82-2.32,0-.14-.08-.14-.3-.11l-5.67,.38v6.62Zm10.1-13.97c0,.65-.63,1.2-1.33,1.2s-1.01-.54-1.25-1.12c-.54-1.17-1.06-1.82-1.61-2.53-.14-.16-.35-.46-.35-.82,0-.9,1.12-1.33,1.69-1.17,.76,.25,2.86,3.7,2.86,4.44Zm4.33,.25c0,.93-1.01,1.2-1.44,1.2-.63,0-.82-.41-1.14-1.17-.65-1.44-1.06-2.07-1.63-2.94-.11-.16-.3-.46-.3-.76,0-.9,1.12-1.33,1.74-1.12,.79,.27,2.78,4.14,2.78,4.79Z"/><path class="cls-2" d="M448.09,28.77c0,1.61-3.9,6.56-8.55,9.83-4.58,3.21-9.64,4.66-11.06,4.66-1.66,0-2.53-1.42-2.53-2.78,0-1.72,1.09-1.99,2.53-2.34,5.75-1.39,10.79-4.85,14.27-9.64,1.31-1.8,1.61-2.21,2.61-2.21s2.72,1.04,2.72,2.48Zm-15.8-6.13c2.56,1.2,3.57,1.69,3.57,3.19,0,1.31-1.01,2.7-2.37,2.7-.49,0-1.2-.38-2.61-1.09-.63-.33-3.49-1.61-4-1.99-.54-.38-.84-.87-.84-1.58,0-1.14,.87-2.56,2.42-2.56,.95,0,3.6,1.23,3.84,1.33Z"/><path class="cls-2" d="M458.25,41.68c0,.65,0,2.45-2.45,2.45s-2.48-1.63-2.48-2.45V21.74c0-.74,.03-2.45,2.48-2.45s2.45,1.66,2.45,2.45v4.93c5.72,2.51,8.82,4.49,9.37,4.85,1.17,.76,1.63,1.39,1.63,2.26,0,1.31-1.01,2.67-2.37,2.67-.87,0-1.33-.3-2.83-1.28-.79-.49-2.81-1.74-5.8-3.13v9.64Z"/><path class="cls-2" d="M479.96,39.66c0,1.61-1.31,2.83-2.83,2.83s-2.83-1.25-2.83-2.83,1.28-2.83,2.83-2.83,2.83,1.25,2.83,2.83Zm-5.39-16.89c-.05-1.2-.11-3.13,2.45-3.13,2.78,0,2.72,1.8,2.67,3.13l-.41,10.3c-.05,1.06-.11,2.42-2.12,2.42s-2.15-1.42-2.18-2.42l-.41-10.3Z"/></g></g></g></svg>