<?xml version="1.0" encoding="UTF-8"?><svg id="_イヤー_2" xmlns="http://www.w3.org/2000/svg" viewBox="0 0 507.23 25.5"><defs><style>.cls-1{fill:#e9528e;}</style></defs><g id="design"><g><path class="cls-1" d="M17.94,19.26c.29-.05,.49-.08,.73-.08,1.61,0,1.64,1.48,1.64,1.77,0,.86-.34,1.46-1.17,1.74-1.77,.6-6.47,.68-7.9,.68-6.32,0-11.23-.96-11.23-5.51,0-1.56,.94-4.26,2.68-4.26,.81,0,1.56,.49,1.56,1.22,0,.29-.08,.47-.39,1.09-.36,.75-.39,1.17-.39,1.4,0,1.09,.47,2.55,7.72,2.55,2.78,0,3.72-.16,6.76-.6ZM2.86,4.02c.75-.18,3.46-.29,4.99-.29,1.98,0,5.72,.18,7.15,.62,.44,.13,1.14,.47,1.14,1.64,0,.23,0,1.79-1.69,1.79-.16,0-1.2-.13-1.43-.16-.47-.08-2.52-.34-4.94-.34-.75,0-4.29,.21-4.73,.21-1.25,0-1.69-.81-1.69-1.82,0-.34,.1-1.43,1.2-1.66Zm16.69,1.66c0,.65-.57,1.09-1.12,1.09-.65,0-.86-.49-1.12-1.2-.31-.86-.83-1.85-1.33-2.65-.34-.55-.42-.68-.42-.91,0-.42,.36-1.04,1.14-1.04,.13,0,.23,0,.34,.05,.75,.31,2.5,4.08,2.5,4.65Zm3.67-.94c0,.62-.55,1.07-1.12,1.07-.65,0-.81-.39-1.12-1.22-.29-.81-.78-1.85-1.27-2.65-.31-.55-.39-.68-.39-.91,0-.42,.34-1.01,1.12-1.01,.16,0,.26,0,.36,.05,.78,.31,2.42,4.08,2.42,4.68Z"/><path class="cls-1" d="M33.98,7.66h3.07c.44,0,1.59,.03,1.59,1.46,0,1.14-.6,1.53-1.59,1.53h-3.02c1.27,2.29,2.65,3.95,2.94,4.24,1.43,1.46,1.43,1.48,1.43,2,0,.83-.6,1.85-1.48,1.85-.47,0-.94-.36-1.59-1.27-.73-.99-1.01-1.51-1.35-2.21v8.81c0,.42,0,1.43-1.46,1.43s-1.61-.62-1.61-1.43v-7.75c-1.12,2.13-2.18,3.38-2.55,3.8-.47,.49-.78,.75-1.33,.75-.94,0-1.66-.96-1.66-1.82,0-.62,.21-.81,1.61-2.31,1.35-1.43,2.86-3.74,3.82-6.08h-3.69c-.55,0-1.61-.08-1.61-1.43,0-1.07,.47-1.56,1.61-1.56h3.8v-2.65c-1.35,.16-2.44,.29-3.33,.29-1.07,0-1.59-.57-1.59-1.53,0-1.27,.91-1.35,1.85-1.43,.39-.03,2.18-.16,2.52-.18,2.81-.31,3.85-.52,5.95-1.01,.23-.05,.44-.05,.6-.05,1.25,0,1.38,1.25,1.38,1.56,0,1.25-.73,1.35-4.32,1.95v3.07Zm8.87,10.63c0,.39,0,1.48-1.56,1.48-1.43,0-1.72-.62-1.72-1.48V4.2c0-.36,0-1.48,1.56-1.48,1.33,0,1.72,.52,1.72,1.48v14.09Zm6.27,3.72c0,.68-.03,2.29-1.4,2.91-.62,.29-1.59,.34-3.85,.34-1.87,0-2.03-.05-2.26-.13-.94-.31-.99-1.4-.99-1.74,0-1.64,1.07-1.64,1.64-1.64,.36,0,2.05,.1,2.39,.1,.88,0,1.22-.1,1.22-.94V2.3c0-.39,0-1.48,1.51-1.48,1.22,0,1.74,.42,1.74,1.48V22.01Z"/><path class="cls-1" d="M66.68,17.7v5.95c0,.65-.1,1.59-1.43,1.59-1.12,0-1.66-.34-1.66-1.59v-5.95h-5.43c-.21,2.05-.55,3.74-1.48,5.77-.78,1.66-1.25,1.92-2.03,1.92-1.09,0-2-.81-2-1.79,0-.36,.03-.39,1.09-2.44,.65-1.3,1.25-3.51,1.25-6.79V5.14c0-2.5,1.07-3.25,3.22-3.25h14.2c2.13,0,3.25,.73,3.25,3.25V22.27c0,3.04-1.61,3.04-4.42,3.04-1.46,0-2.7,0-2.7-1.74,0-.94,.39-1.61,1.48-1.61,.23,0,1.33,.03,1.56,.03,.57,0,.78-.29,.78-.99v-3.3h-5.67Zm-3.09-9.33v-3.41h-4.39c-.62,0-.88,.34-.88,.88v2.52h5.28Zm0,2.86h-5.28v3.56h5.28v-3.56Zm3.09-2.86h5.67v-2.52c0-.55-.29-.88-.88-.88h-4.78v3.41Zm5.67,2.86h-5.67v3.56h5.67v-3.56Z"/><path class="cls-1" d="M90.38,18.06c-.99,2.65-2.29,4.73-4.63,4.73-2.89,0-5.62-3.85-5.62-8.53,0-6.92,5.15-11.49,11.96-11.49,7.33,0,10.76,5.25,10.76,10.27,0,7.77-7.05,10.87-8.37,10.87-1.12,0-1.72-.96-1.72-1.82,0-.68,.29-1.04,.86-1.3,1.85-.83,5.72-2.63,5.72-7.77,0-2.03-.65-6.37-6.24-7.12-.42,3.59-1.09,7.85-2.73,12.17Zm-6.99-3.72c0,2.55,1.09,4.86,2.26,4.86,.81,0,1.33-1.43,1.74-2.55,1.25-3.41,1.95-7.02,2.42-10.63-4.55,1.17-6.42,4.84-6.42,8.32Z"/><path class="cls-1" d="M119.1,13.17c-.47,0-1.04-.03-1.3-.78-1.38,1.33-1.74,1.38-2.08,1.38-.81,0-1.4-.73-1.4-1.43,0-.49,.29-.78,.81-1.17,.42-.34,1.14-.91,1.74-1.53-.26-.21-.94-.75-1.53-1.17-.42,.39-.68,.55-1.04,.55-.23,0-.68-.1-.99-.52-.05,.13-.55,1.43-.55,1.51,0,.16,.03,.21,.47,.88,.96,1.51,1.33,3.87,1.46,4.78,.23-.78,.86-.83,1.33-.83h13.23c.42,0,1.46,.05,1.46,1.4s-1.14,1.38-1.46,1.38h-5.38v4.73c0,2.73-.73,2.94-3.56,2.94-1.4,0-2.5,0-2.5-1.53,0-.65,.26-1.38,1.17-1.4,.18,0,1.01,.05,1.12,.05,.68,0,.7-.39,.7-.81v-3.98h-4.78c-.47,0-.96-.03-1.25-.62-.16,2.68-1.33,3.59-3.09,3.59-1.12,0-1.61-.18-1.79-1.3v4.78c0,.94-.36,1.4-1.59,1.4-1.38,0-1.38-1.04-1.38-1.4V4.59c0-2.39,.55-2.91,2.91-2.91h1.79c1.3,0,2.89,0,2.89,2.11,0,.65-.08,1.33-.23,1.95,1.01-1.2,1.43-1.77,2.11-3.09,.78-1.53,.94-1.82,1.66-1.82,.65,0,1.35,.47,1.35,1.09,0,.13-.03,.26-.08,.39h1.77c.34,0,.47,.03,.65,.05-.13-1.35,1.14-1.35,1.35-1.35,.78,0,.99,.31,1.14,.73,.08,.21,.36,1.22,.44,1.46,.1-.99,.88-.99,1.14-.99h2.21c.62,0,2.47,0,2.47,1.9,0,1.74-1.3,3.61-2.5,4.99,.31,.34,.83,.86,1.98,1.74,.42,.31,.86,.65,.86,1.3s-.57,1.64-1.56,1.64c-.6,0-.99-.23-2.24-1.48-.23,.83-.83,.88-1.35,.88h-6.58Zm-9.26,5.3c.05-.31,.16-.91,.86-.99,.83-.08,1.2-.13,1.2-1.35,0-.34,0-2.21-.81-3.77-.81-1.53-.88-1.72-.88-2.05,0-.75,1.53-4.39,1.53-5.28,0-.18-.13-.42-.49-.42h-.78c-.36,0-.62,.18-.62,.62v13.23Zm9.05,1.35c0,.91-1.87,2.86-2.68,3.61-1.27,1.2-1.64,1.25-2,1.25-.83,0-1.48-.81-1.48-1.53,0-.6,.16-.68,1.43-1.72,1.01-.81,1.4-1.33,2.18-2.34,.44-.57,.68-.6,1.12-.6,.47,0,1.43,.49,1.43,1.33Zm-.86-11.52c.23-.29,.36-.47,.55-.73-.78-.55-.86-.6-1.61-1.04-.31,.42-.42,.55-.55,.7,.7,.44,1.04,.68,1.61,1.07Zm.16-3.67c-.21,.34-.26,.44-.39,.62,.83,.47,1.27,.75,1.59,.96,.16-.29,.49-.96,.49-1.14,0-.44-.36-.44-.55-.44h-1.14Zm7.23,5.77c-1.74-2.31-2.42-4.03-2.86-5.17-.6,2.11-2.34,4.45-2.94,5.17h5.8Zm.36-5.82c-.39,0-.47-.05-.73-.18,.29,.7,.57,1.43,1.33,2.63,.29-.36,1.22-1.64,1.22-2.03,0-.42-.42-.42-.55-.42h-1.27Zm2.6,15.29c.65,.94,.99,1.25,2,2.26,.29,.29,.47,.57,.47,.99,0,.91-.86,1.56-1.56,1.56-.47,0-1.12-.23-2.52-2.03-.57-.75-1.61-2.11-1.61-2.78,0-.91,1.04-1.35,1.53-1.35,.75,0,.94,.26,1.69,1.35Z"/><path class="cls-1" d="M136.55,3.24c.23-.42,.62-.73,1.4-.73,.86,0,1.82,.47,1.82,1.43,0,.34-.08,.62-.23,1.38-.65,3.02-.96,6.21-.96,8.87,0,3.02,.36,5.36,.75,7.31,.18,.91,.18,.99,.18,1.27,0,1.48-1.48,1.48-1.77,1.48-.86,0-1.25-.31-1.53-1.01-.44-1.09-1.04-4.86-1.04-8.81,0-3.69,.75-10.04,1.38-11.18Zm8.06,10.87c.65,0,1.51,.31,1.51,1.09,0,.29-.1,.49-.23,.73-.57,.99-.65,1.14-.65,1.53,0,1.64,2.29,1.85,4.91,1.85,1.27,0,2.44-.1,3.54-.23,1.04-.1,1.14-.13,1.38-.13,1.38,0,1.53,1.14,1.53,1.64,0,.73-.31,1.43-1.09,1.66-.81,.26-3.25,.47-5.2,.47-3.25,0-8.22-.29-8.22-4.58,0-.83,.55-4.03,2.52-4.03Zm9.07-6.19c-.49,0-2.63-.08-3.07-.08-.78,0-2.29,0-4.73,.21-.13,.03-1.46,.13-1.61,.13-1.04,0-1.38-.68-1.38-1.72,0-.73,.26-1.4,1.27-1.61,1.25-.26,4.84-.39,6.21-.39,4.06,0,5.1,.08,5.1,1.64,0,1.72-1.01,1.82-1.79,1.82Z"/><path class="cls-1" d="M162.11,3.11c.1-.29,.36-.99,1.56-.99,.62,0,1.74,.26,1.74,1.4,0,.34-.08,.86-.13,1.14-.42,2.11-1.01,5.38-1.01,9.8,0,2.76,.26,4.84,.65,6.84,.21,1.12,.23,1.25,.23,1.56,0,1.09-1.22,1.33-1.74,1.33-.99,0-1.38-.42-1.56-.88-.94-2.37-.94-8.42-.94-9.31,0-3.67,.68-9.46,1.2-10.89Zm15.99,12.92c2.34,.94,3.61,1.79,3.87,1.98,.68,.47,.83,.99,.83,1.48,0,.86-.6,1.77-1.46,1.77-.36,0-.52-.1-1.87-.94-.21-.13-1.17-.6-1.38-.73-.1,1.09-.18,1.9-.57,2.6-1.01,1.85-3.67,1.98-4.55,1.98-3.33,0-5.9-1.69-5.9-4.6,0-1.98,1.33-4.63,5.59-4.63,.81,0,1.56,.13,2.05,.26l-.13-5.15c-.7,.03-1.46,.05-2.55,.05-3.88,0-4.99,0-4.99-1.77s1.25-1.69,1.72-1.69c.57,0,3.02,.1,3.51,.1,1.14,0,1.69-.03,2.24-.05l-.05-3.15c-.03-1.69,1.2-1.77,1.72-1.77,1.38,0,1.66,.86,1.69,1.74l.05,2.96c.44-.05,2.63-.31,2.81-.31,1.38,0,1.46,1.33,1.46,1.69,0,1.64-.91,1.72-4.21,1.98l.13,6.19Zm-5.51,1.9c-1.22,0-2.44,.47-2.44,1.61,0,1.01,.99,1.66,2.44,1.66,2.21,0,2.21-1.14,2.21-2.94-1.09-.34-1.98-.34-2.21-.34Z"/><path class="cls-1" d="M199.3,10.21h7.28c.39,0,1.66,0,1.66,1.64s-1.25,1.69-1.66,1.69h-7.33c-.18,2.76-.88,5.23-2.96,7.57-1.27,1.46-3.72,3.41-4.99,3.41-1.01,0-1.79-.94-1.79-1.82,0-.81,.26-.99,1.48-1.77,2.78-1.77,4.45-3.87,4.86-7.38h-8.79c-.39,0-1.66,0-1.66-1.66s1.25-1.66,1.66-1.66h8.84v-3.12c-2.11,.42-5.49,.94-6.58,.94-1.61,0-1.66-1.59-1.66-1.82,0-1.27,.73-1.35,3.15-1.64,5.93-.73,8.58-1.61,10.22-2.21,1.09-.42,1.4-.52,1.85-.52,1.07,0,1.69,.99,1.69,1.77,0,.88-.21,1.33-5.25,2.7v3.9Z"/><path class="cls-1" d="M218.48,7.63c-.03-.13-.03-.29-.03-.47,0-1.25,1.38-1.33,1.66-1.33,1.17,0,1.33,.86,1.4,1.3l.55,3.22,6.47-.96c.18-.03,.88-.13,1.25-.13,.83,0,1.64,.52,1.64,1.64,0,.88-.99,2.68-1.9,4.37-1.2,2.16-1.69,3.04-2.65,3.04-.86,0-1.56-.57-1.56-1.33,0-.44,.08-.6,.94-1.9,.47-.73,1.25-2.13,1.25-2.37s-.18-.23-.52-.18l-4.45,.65,1.69,9.91c.03,.16,.03,.31,.03,.47,0,1.14-1.04,1.4-1.64,1.4-1.22,0-1.38-.96-1.46-1.38l-1.66-9.93-4.6,.68c-1.66,.23-1.79-1.04-1.79-1.48,0-.91,.55-1.3,1.35-1.4l4.58-.65-.55-3.17Z"/><path class="cls-1" d="M257.53,11.56c.55,0,1.79,0,1.79,1.72,0,1.59-1.3,1.59-1.79,1.59h-19.24c-.52,0-1.79,0-1.79-1.64s1.22-1.66,1.79-1.66h19.24Z"/><path class="cls-1" d="M264.49,8.23c.83,0,3.2,.99,4.19,1.4,2.11,.88,2.7,1.12,2.7,2.16s-.7,1.87-1.56,1.87c-.34,0-.36-.03-2.31-.86-.62-.26-3.69-1.43-3.9-1.56-.47-.29-.68-.81-.68-1.25,0-.86,.57-1.77,1.56-1.77Zm.03,14.04c0-1.14,.68-1.35,2.5-1.92,1.3-.42,6.21-2.18,10.89-7.1,1.25-1.33,2.37-2.76,3.43-4.19,.36-.52,.75-.96,1.43-.96,.96,0,1.95,.91,1.95,1.9,0,1.38-3.8,5.93-7.62,8.94-5.17,4.08-9.98,5.36-10.84,5.36-1.2,0-1.74-1.17-1.74-2.03Zm2.31-20.2c.78,0,3.46,1.09,4.42,1.51,1.64,.7,2.31,.99,2.31,2,0,.94-.68,1.82-1.53,1.82-.34,0-.52-.08-2.21-.81-.6-.26-3.8-1.51-3.87-1.56-.31-.18-.68-.6-.68-1.2,0-.83,.57-1.77,1.56-1.77Zm15.29,3.38c0,.62-.55,1.09-1.14,1.09-.65,0-.86-.44-1.17-1.14-.52-1.17-1.12-1.98-1.56-2.6-.13-.18-.31-.44-.31-.7,0-.91,1.01-1.2,1.48-1.04,.78,.26,2.7,3.74,2.7,4.39Zm4.03-.36c0,.73-.73,1.09-1.2,1.09-.62,0-.75-.31-1.12-1.17-.42-.96-.86-1.74-1.4-2.57-.39-.57-.44-.68-.44-.94,0-.31,.23-1.04,1.22-1.04,.1,0,.18,0,.29,.03,.78,.29,2.65,3.98,2.65,4.6Z"/><path class="cls-1" d="M294.78,7.48c.16-.78,.88-4.71,.96-4.89,.13-.36,.44-.88,1.56-.88,.88,0,1.79,.39,1.79,1.3,0,.7-.52,3.28-.75,4.19,5.1,.1,6.29,2.65,6.29,7.18,0,7.15-1.79,9.78-6.11,9.78-1.66,0-2.81-.21-2.81-1.77,0-.7,.29-1.66,1.14-1.66,.18,0,.94,.08,1.07,.08,.62,0,2-.39,2.37-1.04,.83-1.56,.86-5.07,.86-5.8,0-3.28-1.14-3.69-3.56-3.59-1.27,4.71-2.52,8.22-4.29,11.54-.86,1.64-1.27,2.24-2.13,2.24-.81,0-2-.55-2-1.66,0-.47,.1-.62,1.04-2.24,1.72-2.96,2.89-6.19,3.8-9.49-.65,.1-3.51,.62-4.08,.62-1.2,0-1.46-1.09-1.46-1.74,0-1.38,.99-1.51,2.08-1.64l4.24-.52Zm16.15,7.7c0,1.22-1.27,1.61-1.92,1.61-1.14,0-1.25-.6-1.53-1.85-.78-3.61-2.31-5.82-3.17-6.84q-1.09-1.33-1.09-1.74c0-.65,.65-1.38,1.53-1.38,2.05,0,6.19,7.38,6.19,10.19Zm-.47-8.97c0,.57-.52,1.07-1.09,1.07-.52,0-.75-.34-1.14-.99-.16-.23-.7-1.12-2.05-2.6-.34-.36-.34-.55-.34-.7,0-.81,.81-1.17,1.27-1.07,.81,.16,3.35,3.54,3.35,4.29Zm1.61-4.26c.47,.6,1.4,1.79,1.4,2.37s-.49,1.09-1.12,1.09c-.49,0-.62-.21-1.12-.99-.21-.34-.78-1.22-2.05-2.6-.34-.39-.34-.57-.34-.73,0-.75,.75-1.17,1.27-1.07,.55,.1,1.3,1.07,1.95,1.92Z"/><path class="cls-1" d="M319.7,10.36c0,1.07-.49,4.21-1.43,7.02-.81,2.47-1.25,2.78-2.05,2.78-.75,0-1.98-.52-1.98-1.53,0-.42-.03-.42,.78-2.26,.83-1.95,1.22-4.32,1.51-6.11,.08-.6,.36-1.3,1.48-1.3,.31,0,1.69,0,1.69,1.4Zm4.79,10.58c0,.91,.42,.91,2.31,.91,2.55,0,2.99,0,3.28-1.35,.08-.39,.31-2.08,.42-2.42,.18-.6,.73-.81,1.35-.81,.39,0,1.69,.03,1.69,1.38,0,.44-.36,3.98-.96,4.97-.34,.57-1.22,1.2-2.29,1.33-.7,.08-2.26,.1-3.04,.1s-3.74-.03-4.24-.16c-1.72-.42-1.72-2.16-1.72-3.02-2.63,1.74-4.68,2.7-5.33,2.7-.86,0-1.59-.99-1.59-1.9,0-.86,.6-1.14,.99-1.35,3.07-1.51,4.06-2.05,5.93-3.43V8.44c0-.42,0-1.59,1.51-1.59,1.2,0,1.69,.44,1.69,1.59v6.73c5.1-4.94,7.23-10.35,7.96-12.14,.26-.68,.6-1.4,1.48-1.4,.81,0,1.95,.52,1.95,1.48,0,.91-1.53,4.16-3.2,6.84-2.39,3.87-5.43,7.18-8.19,9.49v1.51Zm3.95-14.48c-.39,0-.49-.05-2.13-.83-1.4-.65-2.6-1.04-4.32-1.61-.73-.23-1.33-.44-1.33-1.35,0-.6,.39-1.66,1.48-1.66s4.81,1.4,5.41,1.64c2.26,.94,2.42,1.2,2.42,2.11,0,.75-.62,1.72-1.53,1.72Zm8.5,5.75c.91,3.02,1.77,7.02,1.77,8.14,0,1.59-1.69,1.59-1.92,1.59-1.43,0-1.56-1.01-1.64-1.53-.26-2-.44-3.43-1.14-6.19-.18-.65-1.12-3.43-1.12-4.03,0-.88,.88-1.43,1.85-1.43,1.04,0,1.3,.52,2.21,3.46Z"/><path class="cls-1" d="M364.73,14.6c.42,0,1.38,0,1.38,1.38s-.81,1.43-1.38,1.43h-3.35c-.29,.55-.96,1.85-2.34,3.2,1.98,.52,4,1.07,5.04,1.48,.36,.13,1.04,.39,1.04,1.22,0,.94-.75,1.98-1.77,1.98-.42,0-.83-.18-1.17-.31-2.96-1.17-3.69-1.43-6.06-2.16-3.87,2.16-10.82,2.52-12.4,2.52-.39,0-1.66,0-1.66-1.59,0-1.33,1.09-1.35,1.51-1.35,3.12-.08,5.62-.13,8.22-.83-.78-.18-4.19-.94-4.89-1.12-.57-.16-1.35-.39-1.35-1.33,0-.52,.42-1.09,.88-1.72h-3.59c-.39,0-1.4,0-1.4-1.4s1.01-1.4,1.4-1.4h5.67c.08-.16,.57-.88,.96-1.69h-3.9c-2.24,0-2.73-.47-2.73-2.7v-1.43c0-2.21,.47-2.7,2.73-2.7h3.61v-1.51h-6.16c-.39,0-1.4,0-1.4-1.38s.96-1.43,1.4-1.43h21.61c.47,0,1.38,.05,1.38,1.4,0,1.25-.7,1.4-1.38,1.4h-6.32v1.51h3.77c2.24,0,2.73,.49,2.73,2.7v1.43c0,2.21-.47,2.7-2.73,2.7h-8.76c-.34,.7-.49,.94-.99,1.69h12.4Zm-15.55-4v-2.24h-2.63c-.42,0-.6,.23-.6,.62v.99c0,.34,.16,.62,.6,.62h2.63Zm1.17,6.81c-.26,.34-.68,.88-.68,1.04,0,.31,.29,.34,.86,.42,1.33,.16,2.63,.42,4.94,.91,.68-.52,1.01-.88,2.21-2.37h-7.33Zm4.97-11.34v-1.51h-3.2v1.51h3.2Zm-3.2,2.29v2.24h3.2v-2.24h-3.2Zm6.19,2.24h2.7c.55,0,.62-.34,.62-.62v-.99c0-.39-.18-.62-.62-.62h-2.7v2.24Z"/><path class="cls-1" d="M371.53,3.24c.23-.42,.62-.73,1.4-.73,.86,0,1.82,.47,1.82,1.43,0,.34-.08,.62-.23,1.38-.65,3.02-.96,6.21-.96,8.87,0,3.02,.36,5.36,.75,7.31,.18,.91,.18,.99,.18,1.27,0,1.48-1.48,1.48-1.77,1.48-.86,0-1.25-.31-1.53-1.01-.44-1.09-1.04-4.86-1.04-8.81,0-3.69,.75-10.04,1.38-11.18Zm8.06,10.87c.65,0,1.51,.31,1.51,1.09,0,.29-.1,.49-.23,.73-.57,.99-.65,1.14-.65,1.53,0,1.64,2.29,1.85,4.91,1.85,1.27,0,2.44-.1,3.54-.23,1.04-.1,1.14-.13,1.38-.13,1.38,0,1.53,1.14,1.53,1.64,0,.73-.31,1.43-1.09,1.66-.81,.26-3.25,.47-5.2,.47-3.25,0-8.22-.29-8.22-4.58,0-.83,.55-4.03,2.52-4.03Zm9.07-6.19c-.49,0-2.63-.08-3.07-.08-.78,0-2.29,0-4.73,.21-.13,.03-1.46,.13-1.61,.13-1.04,0-1.38-.68-1.38-1.72,0-.73,.26-1.4,1.27-1.61,1.25-.26,4.84-.39,6.21-.39,4.06,0,5.1,.08,5.1,1.64,0,1.72-1.01,1.82-1.79,1.82Z"/><path class="cls-1" d="M399.46,18.27c-.62,1.17-1.01,1.9-2.05,1.9-.83,0-1.9-.55-1.9-1.64,0-.52,.08-.7,.96-2.24,.42-.75,2.03-4.06,3.28-7.41-2.81,.05-4.11,.1-4.11-1.72,0-1.64,1.35-1.64,1.9-1.64,.65,0,2.76,0,3.3-.03,.16-.49,.75-2.86,.94-3.22,.29-.57,.78-.83,1.43-.83,.78,0,1.95,.36,1.95,1.38,0,.42-.08,.65-.6,2.39,.36-.05,1.92-.29,2.26-.29,.91,0,1.35,.7,1.35,1.56,0,1.64-.78,1.74-4.73,2.13-1.17,3.28-2.37,6.55-3.98,9.65Zm9.62-6.86c0-1.48,1.14-1.56,1.53-1.56,1.64,0,1.72,1.2,1.74,1.66,.13,1.98,.18,3.72,.21,4.94,1.51,.55,3.33,1.48,4.16,2.05,.65,.44,.96,.78,.96,1.43,0,.83-.55,1.95-1.61,1.95-.34,0-.47-.08-1.61-.81-.65-.42-1.59-.88-1.79-.99,0,3.2-2.11,4.37-5.3,4.37-3.38,0-5.96-1.66-5.96-4.55,0-2.37,1.82-4.6,5.67-4.6,.91,0,1.85,.16,2.18,.21-.03-.57-.18-3.46-.18-4.11Zm-2.21,6.89c-1.72,0-2.44,.68-2.44,1.56,0,1.35,1.66,1.69,2.57,1.69,.29,0,2-.03,2.31-1.14,.08-.26,.05-.42,.05-1.72-.47-.16-1.51-.39-2.5-.39Zm8.74-11.34c1.51,.75,2.11,1.07,2.11,2,0,.88-.6,1.9-1.48,1.9-.49,0-.65-.1-2.24-1.01-1.12-.62-2.89-1.4-3.51-1.69-.39-.18-.94-.44-.94-1.25,0-1.07,.86-1.72,1.69-1.72s3.33,1.22,4.37,1.77Z"/><path class="cls-1" d="M427.36,10.86c.47-.86,.78-1.07,1.3-1.07,.7,0,1.35,.55,1.35,1.2,0,.34-.08,.52-.94,2.18-.7,1.4-1.64,3.72-1.82,4.42-.23,.83-.42,1.56-1.82,1.56-.99,0-1.4-.68-1.66-1.87-.13-.52-.65-2.91-.65-6.6,0-2.68,.31-5.67,.62-7.18,.13-.7,.36-1.51,1.64-1.51,.83,0,1.77,.36,1.77,1.3,0,.52-.44,2.73-.49,3.2-.36,2.94-.34,5.2-.31,6.5,.18-.44,.65-1.46,1.01-2.13Zm12.45-7.02c.16,1.53,.29,4.89,.29,6.97,0,5.46-1.01,9.28-5.3,12.43-.34,.23-2.18,1.59-3.15,1.59-.86,0-1.74-.83-1.74-1.82,0-.81,.26-.96,1.79-1.92,4.11-2.55,4.92-5.54,4.92-10.48,0-2.03-.1-4.16-.26-6.16-.05-.55-.08-.81-.08-1.07,0-.49,.08-1.61,2.03-1.56,1.3,.05,1.43,1.17,1.51,2.03Z"/><path class="cls-1" d="M458.2,10.08c.88,0,4.73-.16,5.51-.16,.6,0,1.92,0,1.92,1.61,0,1.46-1.09,1.53-1.53,1.56-.21,.03-1.59,.1-5.88,.18v3.02c2.29,.55,5.17,1.87,6.21,2.47,1.22,.73,1.35,1.27,1.35,1.77,0,.99-.68,1.87-1.61,1.87-.42,0-.57-.08-2.03-.94-1.07-.62-2.44-1.3-3.9-1.82-.03,1.66-.08,4.81-5.62,4.81-3.85,0-6.03-1.85-6.03-4.32,0-3.22,3.07-4.45,6.66-4.45,.78,0,1.2,.03,1.59,.08v-2.44c-1.77,.03-5.85,.05-6.63,0-.52-.05-1.48-.1-1.48-1.64s1.17-1.56,2.16-1.56h5.93v-2.03c-2.08,.03-5.3,.05-7.25,0-.55,0-1.74-.03-1.74-1.59s1.2-1.61,2.21-1.61c.68,0,3.72,.05,4.32,.05h2.44v-1.95c0-1.51,1.2-1.53,1.64-1.53,.55,0,1.74,.16,1.74,1.51v1.95c1.07-.03,5.77-.18,6.73-.18,.44,0,1.74,0,1.74,1.56s-1.07,1.61-1.92,1.64c-1.53,.05-4.78,.13-6.53,.13v2Zm-5.12,8.53c-.52,0-3.3,0-3.3,1.56,0,.86,.88,1.46,2.5,1.46,2.63,0,2.63-1.14,2.6-2.89-.39-.05-.94-.13-1.79-.13Z"/><path class="cls-1" d="M486.9,15.41c.03,1.33,.05,4.11-2.05,6.55-1.27,1.48-3.82,3.15-5.07,3.15-1.07,0-1.77-.99-1.77-1.85,0-.81,.65-1.09,1.35-1.4,1.53-.68,2.99-1.77,3.77-3.09-.47,.29-1.25,.75-2.63,.75-2.55,0-4.94-1.98-4.94-5.36s2.39-5.36,5.33-5.36c1.46,0,2.21,.42,2.76,.7l-.05-1.9-6.99,.18c-.62,.03-3.77,.1-3.93,.1-.49,0-1.77,0-1.77-1.61,0-.96,.55-1.43,1.53-1.48,.62-.03,3.38-.05,3.95-.05l7.15-.16-.05-1.74c-.03-.49-.03-1.69,1.64-1.72,1.64,0,1.64,1.22,1.64,1.69l.03,1.72,2-.05c.55-.03,2.94-.13,3.43-.13,.7,0,1.82,.08,1.82,1.56,0,1.38-.91,1.46-1.27,1.48-.52,.05-3.35,.05-3.98,.08l-1.98,.05,.08,7.88Zm-5.77-3.77c-1.33,0-2.37,.96-2.37,2.52,0,1.46,.94,2.52,2.34,2.52s2.37-1.04,2.37-2.55c0-1.77-1.2-2.5-2.34-2.5Z"/><path class="cls-1" d="M507.23,19.96c0,2.52-2.05,4.5-4.52,4.5s-4.5-1.98-4.5-4.5,2.11-4.52,4.5-4.52,4.52,1.92,4.52,4.52Zm-6.94,0c0,1.33,1.09,2.42,2.42,2.42s2.42-1.07,2.42-2.42-1.12-2.42-2.42-2.42-2.42,1.04-2.42,2.42Z"/></g></g></svg>