<?xml version="1.0" encoding="UTF-8"?><svg id="_イヤー_2" xmlns="http://www.w3.org/2000/svg" viewBox="0 0 213.16 21.23"><defs><style>.cls-1{fill:#e9528e;}</style></defs><g id="design"><g><path class="cls-1" d="M.71,18.59l-.71-.7,7.15-7.13L0,3.63l.71-.7,7.13,7.15L14.96,2.93l.7,.7-7.15,7.13,7.15,7.13-.7,.7-7.13-7.15L.71,18.59Zm2.97-7.83c0,.99-.81,1.83-1.83,1.83s-1.85-.81-1.85-1.83,.84-1.83,1.85-1.83,1.83,.84,1.83,1.83Zm5.99-5.98c0,.97-.79,1.83-1.83,1.83s-1.83-.84-1.83-1.83,.84-1.85,1.83-1.85,1.83,.84,1.83,1.85Zm0,11.97c0,.99-.79,1.85-1.83,1.85s-1.83-.84-1.83-1.85,.84-1.83,1.83-1.83,1.83,.84,1.83,1.83Zm6.01-5.98c0,.99-.81,1.83-1.85,1.83s-1.83-.81-1.83-1.83,.84-1.83,1.83-1.83,1.85,.84,1.85,1.83Z"/><path class="cls-1" d="M32.81,5.19c1.72,0,2.55,.59,2.55,2.53v6.45c0,1.94-.84,2.55-2.55,2.55h-6.29c-1.65,0-2.53-.55-2.53-2.55V7.72c0-1.98,.88-2.53,2.53-2.53h1.94v-1.63h-7.9c-.46,0-1.32-.07-1.32-1.14,0-.84,.24-1.32,1.32-1.32h18.26c.48,0,1.32,.07,1.32,1.14,0,.84-.24,1.32-1.32,1.32h-7.92v1.63h1.91Zm6.4,12.63c0,2.11-.9,2.75-2.73,2.75h-13.62c-1.8,0-2.73-.62-2.73-2.75V6.29c0-.55,.11-1.34,1.19-1.34,.88,0,1.41,.24,1.41,1.34v11.09c0,.51,.24,.77,.75,.77h12.37c.51,0,.75-.24,.75-.77V6.29c0-.57,.13-1.34,1.21-1.34,.92,0,1.41,.26,1.41,1.34v11.53Zm-10.76-8.01v-2.44h-1.56c-.55,0-.66,.31-.66,.64v1.8h2.22Zm0,2.16h-2.22v1.91c0,.4,.18,.64,.66,.64h1.56v-2.55Zm2.44-2.16h2.18v-1.8c0-.37-.13-.64-.64-.64h-1.54v2.44Zm0,2.16v2.55h1.54c.51,0,.64-.29,.64-.64v-1.91h-2.18Z"/><path class="cls-1" d="M55.6,10.1c-.33,.31-.53,.48-.75,.66,1.91,1.74,2.84,4.58,2.84,6.8,0,3.5-2.29,3.5-3.92,3.5-1.34,0-2.02,0-2.02-1.17,0-.99,.75-.99,1.56-.99,1.3,0,2.09,0,1.91-2.22-2.64,2.18-6.01,3.7-6.75,3.7-.62,0-.99-.68-.99-1.3,0-.66,.18-.73,1.83-1.32,1.43-.53,3.3-1.36,5.46-3.08-.07-.18-.11-.33-.26-.66-2.29,1.76-5.39,3.04-6.07,3.04-.62,0-.88-.62-.88-1.14,0-.64,.2-.7,1.25-1.06,1.78-.62,3.21-1.28,4.73-2.38-.13-.18-.22-.29-.4-.46-1.96,1.17-4.07,1.94-4.69,1.94-.68,0-.95-.7-.95-1.17,0-.73,.2-.77,2-1.32,1.47-.44,2.77-1.28,2.9-1.36h-1.41c-1.87,0-2.27-.42-2.27-2.31v-1.3c-.09,.02-.2,.04-.35,.04-.48,0-.95-.4-1.12-1.08-.11,.31-.18,.48-.24,.68v13.73c0,.33,0,1.36-1.28,1.36s-1.3-1.03-1.3-1.36V11c-.15,.2-.4,.51-.92,.51-.79,0-1.45-.75-1.45-1.65,0-.46,.11-.62,.97-2.05,1.32-2.16,1.61-3.19,2.42-6.01,.26-.95,.4-1.43,1.39-1.43,.48,0,1.41,.18,1.41,1.1,0,.75-.48,2.38-.64,2.93,.24-.22,1.45-1.12,1.67-1.34,.84-.75,1.12-1.1,1.8-1.96,.53-.66,.79-.88,1.32-.88s1.32,.29,1.32,.99c0,.15-.02,.26-.07,.35h4.14c.62,0,1.89,0,1.89,1.36,0,.57-.2,.92-1.01,1.67h1.56c1.85,0,2.27,.4,2.27,2.31v.88c0,1.87-.37,2.31-2.27,2.31h-2.2c.33,1.08,.62,1.78,.79,2.24,.09-.04,.95-.77,1.43-1.14,.15-.13,.46-.35,.86-.35,.68,0,1.28,.59,1.28,1.28,0,.44-.04,.77-2.53,2.33,1.08,1.76,1.8,2.53,2.97,3.72,.29,.31,.46,.57,.46,.97,0,.68-.57,1.45-1.32,1.45-1.78,0-5.06-6.4-6.14-10.5h-.24Zm-1.19-3.56h-2.73c-.35,0-.51,.18-.51,.51v.62c0,.26,.09,.51,.51,.51h2.73v-1.63Zm1.28-1.94c.26-.15,.86-.64,.86-.9,0-.29-.31-.29-.42-.29h-3.74s-.64,.75-1.14,1.19h4.44Zm1.08,1.94v1.63h2.77c.26,0,.51-.09,.51-.51v-.62c0-.35-.18-.51-.51-.51h-2.77Z"/><path class="cls-1" d="M67.63,2.24c.09-.24,.31-.84,1.32-.84,.53,0,1.47,.22,1.47,1.19,0,.29-.07,.73-.11,.97-.35,1.78-.86,4.55-.86,8.3,0,2.33,.22,4.09,.55,5.79,.18,.95,.2,1.06,.2,1.32,0,.92-1.03,1.12-1.47,1.12-.84,0-1.17-.35-1.32-.75-.79-2-.79-7.13-.79-7.88,0-3.1,.57-8.01,1.01-9.22Zm13.53,10.94c1.98,.79,3.06,1.52,3.28,1.67,.57,.4,.7,.84,.7,1.25,0,.73-.51,1.5-1.23,1.5-.31,0-.44-.09-1.58-.79-.18-.11-.99-.51-1.17-.62-.09,.92-.15,1.61-.48,2.2-.86,1.56-3.1,1.67-3.85,1.67-2.82,0-4.99-1.43-4.99-3.89,0-1.67,1.12-3.92,4.73-3.92,.68,0,1.32,.11,1.74,.22l-.11-4.36c-.59,.02-1.23,.04-2.16,.04-3.28,0-4.22,0-4.22-1.5s1.06-1.43,1.45-1.43c.48,0,2.55,.09,2.97,.09,.97,0,1.43-.02,1.89-.04l-.04-2.66c-.02-1.43,1.01-1.5,1.45-1.5,1.17,0,1.41,.73,1.43,1.47l.04,2.51c.37-.04,2.22-.26,2.38-.26,1.17,0,1.23,1.12,1.23,1.43,0,1.39-.77,1.45-3.56,1.67l.11,5.24Zm-4.67,1.61c-1.03,0-2.07,.4-2.07,1.36,0,.86,.84,1.41,2.07,1.41,1.87,0,1.87-.97,1.87-2.49-.92-.29-1.67-.29-1.87-.29Z"/><path class="cls-1" d="M98.48,19.3c0,.42-.04,1.39-1.5,1.39-1.06,0-1.52-.46-1.52-1.39V9.73c-1.85,1.01-6.03,2.88-7.04,2.88-.81,0-1.45-.75-1.45-1.61s.4-.99,1.78-1.52c4.2-1.63,8.27-3.67,12.52-7.24,1.21-1.01,1.34-1.12,1.76-1.12,.81,0,1.61,.68,1.61,1.52,0,.53-.29,.9-1.1,1.58-2.38,2.02-4,3.06-5.06,3.74v11.33Z"/><path class="cls-1" d="M107.99,20.09c-.81,0-1.63-.81-1.63-1.65,0-.66,.53-.99,1.14-1.34,2.82-1.67,4.99-3.37,7.26-6.34-1.45-1.1-3.01-2.07-4.58-3.01-.51-.31-.88-.59-.88-1.17,0-.75,.62-1.5,1.43-1.5,.95,0,4.2,2.27,5.61,3.26,1.41-2.42,1.98-4.27,2.44-5.79,.22-.7,.46-1.39,1.36-1.39s1.72,.46,1.72,1.32c0,.48-1.17,4.27-3.17,7.64,1.25,1.06,1.94,1.65,3.04,2.75,.9,.9,1.17,1.21,1.17,1.78,0,.9-.81,1.61-1.61,1.61-.59,0-.77-.18-1.8-1.3-1.03-1.1-2.07-2.02-2.46-2.35-3.34,4.4-7.99,7.48-9.04,7.48Z"/><path class="cls-1" d="M144.05,9.4c.46,0,1.52,0,1.52,1.45,0,1.34-1.1,1.34-1.52,1.34h-16.28c-.44,0-1.52,0-1.52-1.39s1.03-1.41,1.52-1.41h16.28Z"/><path class="cls-1" d="M149.98,6.58c.7,0,2.71,.84,3.54,1.19,1.78,.75,2.29,.95,2.29,1.83s-.59,1.58-1.32,1.58c-.29,0-.31-.02-1.96-.73-.53-.22-3.12-1.21-3.3-1.32-.4-.24-.57-.68-.57-1.06,0-.73,.48-1.5,1.32-1.5Zm.02,11.88c0-.97,.57-1.14,2.11-1.63,1.1-.35,5.26-1.85,9.22-6.01,1.06-1.12,2-2.33,2.9-3.54,.31-.44,.64-.81,1.21-.81,.81,0,1.65,.77,1.65,1.61,0,1.17-3.21,5.02-6.45,7.57-4.38,3.45-8.45,4.53-9.17,4.53-1.01,0-1.47-.99-1.47-1.72Zm1.96-17.1c.66,0,2.93,.92,3.74,1.28,1.39,.59,1.96,.84,1.96,1.69,0,.79-.57,1.54-1.3,1.54-.29,0-.44-.07-1.87-.68-.51-.22-3.21-1.28-3.28-1.32-.26-.15-.57-.51-.57-1.01,0-.7,.48-1.5,1.32-1.5Zm12.94,2.86c0,.53-.46,.92-.97,.92-.55,0-.73-.37-.99-.97-.44-.99-.95-1.67-1.32-2.2-.11-.15-.26-.37-.26-.59,0-.77,.86-1.01,1.25-.88,.66,.22,2.29,3.17,2.29,3.72Zm3.41-.31c0,.62-.62,.92-1.01,.92-.53,0-.64-.26-.95-.99-.35-.81-.73-1.47-1.19-2.18-.33-.48-.37-.57-.37-.79,0-.26,.2-.88,1.03-.88,.09,0,.15,0,.24,.02,.66,.24,2.24,3.37,2.24,3.89Z"/><path class="cls-1" d="M173.18,6.27c-.55,.07-.62,.09-.79,.09-1.19,0-1.39-.9-1.39-1.52,0-.33,.11-1.19,1.19-1.36,.4-.07,2.22-.15,2.57-.18l13.25-.95c.09,0,.57-.04,.86-.04,.35,0,1.45,0,1.45,1.5,0,1.21-.68,1.3-2.05,1.45-4.14,.48-8.45,3.43-8.45,7.13s3.7,4.44,5.1,4.75c.79,.18,1.45,.33,1.45,1.32,0,.44-.24,1.67-1.54,1.67-1.03,0-8.08-1.12-8.08-7.53,0-3.06,1.58-5.04,3.17-6.25,.26-.22,1.56-.92,1.83-1.08l-8.58,.99Zm14.96,5.81c0,.57-.59,1.01-1.1,1.01s-.68-.33-.97-.92c-.44-.9-.77-1.34-1.45-2.31-.11-.15-.26-.37-.26-.66,0-.42,.44-.97,1.12-.97,.07,0,.13,0,.22,.02,.66,.22,2.44,3.28,2.44,3.83Zm2.97-1.8c0,.55-.55,1.01-1.1,1.01s-.68-.33-.97-.92c-.46-.92-.73-1.3-1.45-2.31-.11-.15-.26-.37-.26-.66,0-.62,.77-1.12,1.34-.95,.68,.22,2.44,3.28,2.44,3.83Z"/><path class="cls-1" d="M207.11,12.65c.02,1.12,.04,3.48-1.74,5.54-1.08,1.25-3.23,2.66-4.29,2.66-.9,0-1.5-.84-1.5-1.56,0-.68,.55-.92,1.14-1.19,1.3-.57,2.53-1.5,3.19-2.62-.4,.24-1.06,.64-2.22,.64-2.16,0-4.18-1.67-4.18-4.53s2.02-4.53,4.51-4.53c1.23,0,1.87,.35,2.33,.59l-.04-1.61-5.92,.15c-.53,.02-3.19,.09-3.32,.09-.42,0-1.5,0-1.5-1.36,0-.81,.46-1.21,1.3-1.25,.53-.02,2.86-.04,3.34-.04l6.05-.13-.04-1.47c-.02-.42-.02-1.43,1.39-1.45,1.39,0,1.39,1.03,1.39,1.43l.02,1.45,1.69-.04c.46-.02,2.49-.11,2.9-.11,.59,0,1.54,.07,1.54,1.32,0,1.17-.77,1.23-1.08,1.25-.44,.04-2.84,.04-3.37,.07l-1.67,.04,.07,6.67Zm-4.88-3.19c-1.12,0-2,.81-2,2.13,0,1.23,.79,2.13,1.98,2.13s2-.88,2-2.16c0-1.5-1.01-2.11-1.98-2.11Z"/></g></g></svg>