<?xml version="1.0" encoding="utf-8"?>
<!-- Generator: Adobe Illustrator 26.3.1, SVG Export Plug-In . SVG Version: 6.00 Build 0)  -->
<svg version="1.1" id="_イヤー_2" xmlns="http://www.w3.org/2000/svg" xmlns:xlink="http://www.w3.org/1999/xlink" x="0px"
	 y="0px" viewBox="0 0 1000 120" style="enable-background:new 0 0 1000 120;" xml:space="preserve">
<style type="text/css">
	.st0{clip-path:url(#SVGID_00000018927001002004633570000008578233637878908078_);}
	.st1{fill:#FFFFFF;}
</style>
<g id="bg">
	<g>
		<g>
			<defs>
				<rect id="SVGID_1_" x="-100" y="0" width="1200" height="120"/>
			</defs>
			<clipPath id="SVGID_00000088838723419164789800000015180196539248241333_">
				<use xlink:href="#SVGID_1_"  style="overflow:visible;"/>
			</clipPath>
			<g style="clip-path:url(#SVGID_00000088838723419164789800000015180196539248241333_);">
				<g>
					<g>
						<polygon class="st1" points="336.6,73.6 341,75.2 344.7,72.6 344.5,77.2 348.2,79.9 343.8,81.2 342.3,85.5 339.8,81.7 
							335.2,81.7 338,78 						"/>
						<g>
							<path class="st1" d="M341.5,41.2c-0.6,0.1-1,0.6-1,1.2c0.1,0.6,0.6,1.1,1.2,1s1-0.6,1-1.2C342.6,41.5,342.1,41.1,341.5,41.2z
								"/>
							<path class="st1" d="M341.5,67.6c-0.6,0.1-1,0.6-1,1.2c0.1,0.6,0.6,1.1,1.2,1s1-0.6,1-1.2C342.6,68,342.1,67.5,341.5,67.6z"
								/>
							<path class="st1" d="M341.5,59.8c-0.6,0.1-1,0.6-1,1.2c0.1,0.6,0.6,1.1,1.2,1s1-0.6,1-1.2C342.6,60.2,342.1,59.8,341.5,59.8z
								"/>
							<polygon class="st1" points="338.8,36.2 340.3,35.2 340.4,33.4 341.8,34.6 343.5,34.1 342.8,35.8 343.8,37.3 342,37.2 
								340.9,38.6 340.5,36.8 							"/>
							<polygon class="st1" points="338.8,56.1 340.3,55.1 340.4,53.3 341.8,54.5 343.5,54 342.8,55.7 343.8,57.2 342,57 
								340.9,58.5 340.5,56.7 							"/>
							<path class="st1" d="M341.5,24.1c-0.6,0.1-1,0.6-1,1.2c0.1,0.6,0.6,1.1,1.2,1s1-0.6,1-1.2C342.6,24.5,342.1,24.1,341.5,24.1z
								"/>
							<path class="st1" d="M341.4,30.9c-0.2,0-0.5-0.1-0.5-0.4c0-0.2,0.1-0.5,0.4-0.6h0.1c0.3-0.1,0.5,0.1,0.5,0.4
								s-0.1,0.5-0.4,0.6H341.4C341.5,30.9,341.5,30.9,341.4,30.9L341.4,30.9z"/>
							<path class="st1" d="M341.4,47.5c-0.2,0-0.5-0.1-0.5-0.4c0-0.2,0.1-0.5,0.4-0.6h0.1c0.3-0.1,0.5,0.1,0.5,0.4
								s-0.1,0.5-0.4,0.6H341.4C341.5,47.5,341.5,47.5,341.4,47.5L341.4,47.5z"/>
							<path class="st1" d="M341.4,51c-0.2,0-0.5-0.1-0.5-0.4c0-0.2,0.1-0.5,0.4-0.6h0.1c0.3-0.1,0.5,0.1,0.5,0.4s-0.1,0.5-0.4,0.6
								H341.4C341.5,50.9,341.5,50.9,341.4,51L341.4,51z"/>
							<path class="st1" d="M341.4,64.5c-0.2,0-0.5-0.1-0.5-0.4c0-0.2,0.1-0.5,0.4-0.6h0.1c0.3-0.1,0.5,0.1,0.5,0.4
								s-0.1,0.5-0.4,0.6H341.4C341.5,64.5,341.5,64.5,341.4,64.5L341.4,64.5z"/>
						</g>
					</g>
					<g>
						<polygon class="st1" points="22.7,94.8 27,96.4 30.7,93.8 30.6,98.4 34.2,101.1 29.8,102.4 28.3,106.7 25.8,102.9 21.2,102.9 
							24,99.2 						"/>
						<g>
							<path class="st1" d="M27.5,33.3c-0.6,0.1-1.1,0.6-1,1.2c0.1,0.6,0.6,1.1,1.2,1c0.6-0.1,1.1-0.6,1-1.2
								C28.6,33.7,28.1,33.3,27.5,33.3z"/>
							<path class="st1" d="M27.5,39.4c-0.6,0.1-1.1,0.6-1,1.2c0.1,0.6,0.6,1.1,1.2,1c0.6-0.1,1.1-0.6,1-1.2
								C28.6,39.8,28.1,39.4,27.5,39.4z"/>
							<path class="st1" d="M27.5,45c-0.6,0.1-1.1,0.6-1,1.2c0.1,0.6,0.6,1.1,1.2,1c0.6-0.1,1.1-0.6,1-1.2
								C28.6,45.3,28.1,44.9,27.5,45z"/>
							<path class="st1" d="M27.5,62.4c-0.6,0.1-1.1,0.6-1,1.2s0.6,1.1,1.2,1c0.6-0.1,1.1-0.6,1-1.2C28.6,62.8,28.1,62.3,27.5,62.4z
								"/>
							<path class="st1" d="M27.5,88.8c-0.6,0.1-1.1,0.6-1,1.2s0.6,1.1,1.2,1c0.6-0.1,1.1-0.6,1-1.2C28.6,89.2,28.1,88.8,27.5,88.8z
								"/>
							<path class="st1" d="M27.5,81.1c-0.6,0.1-1.1,0.6-1,1.2s0.6,1.1,1.2,1c0.6-0.1,1.1-0.6,1-1.2C28.6,81.4,28.1,81,27.5,81.1z"
								/>
							<polygon class="st1" points="24.8,57.4 26.3,56.5 26.4,54.7 27.8,55.8 29.5,55.3 28.9,57 29.8,58.5 28.1,58.4 26.9,59.8 
								26.5,58 							"/>
							<polygon class="st1" points="24.8,77.3 26.3,76.3 26.4,74.5 27.8,75.7 29.5,75.2 28.9,76.9 29.8,78.4 28.1,78.3 26.9,79.7 
								26.5,77.9 							"/>
							<path class="st1" d="M27.5,51.7c-0.2,0-0.5-0.1-0.5-0.4c-0.1-0.2,0.1-0.5,0.4-0.6h0.1c0.3-0.1,0.5,0.1,0.6,0.4
								s-0.1,0.5-0.4,0.6H27.5L27.5,51.7L27.5,51.7z"/>
							<path class="st1" d="M27.5,15.8c-0.6,0.1-1.1,0.6-1,1.2s0.6,1.1,1.2,1c0.6-0.1,1.1-0.6,1-1.2C28.6,16.2,28.1,15.7,27.5,15.8z
								"/>
							<path class="st1" d="M27.5,21.3c-0.6,0.1-1.1,0.6-1,1.2s0.6,1.1,1.2,1c0.6-0.1,1.1-0.6,1-1.2C28.6,21.7,28.1,21.3,27.5,21.3z
								"/>
							<path class="st1" d="M27.5,28.1c-0.2,0-0.5-0.1-0.5-0.4c-0.1-0.2,0.1-0.5,0.4-0.6h0.1c0.3-0.1,0.5,0.1,0.6,0.4
								S28,28,27.7,28.1H27.5L27.5,28.1L27.5,28.1z"/>
							<path class="st1" d="M27.5,68.7c-0.2,0-0.5-0.1-0.5-0.4c-0.1-0.2,0.1-0.5,0.4-0.6h0.1c0.3-0.1,0.5,0.1,0.6,0.4
								s-0.1,0.5-0.4,0.6H27.5L27.5,68.7L27.5,68.7z"/>
							<path class="st1" d="M27.5,72.2c-0.2,0-0.5-0.1-0.5-0.4c-0.1-0.2,0.1-0.5,0.4-0.6h0.1c0.3-0.1,0.5,0.1,0.6,0.4
								s-0.1,0.5-0.4,0.6H27.5C27.5,72.1,27.5,72.1,27.5,72.2L27.5,72.2z"/>
							<path class="st1" d="M27.5,85.7c-0.2,0-0.5-0.1-0.5-0.4c-0.1-0.2,0.1-0.5,0.4-0.6h0.1c0.3-0.1,0.5,0.1,0.6,0.4
								s-0.1,0.5-0.4,0.6H27.5L27.5,85.7L27.5,85.7z"/>
						</g>
					</g>
					<g>
						<polygon class="st1" points="719,81.9 723.3,83.5 727,80.9 726.9,85.5 730.5,88.2 726.1,89.5 724.6,93.8 722.1,90 717.5,89.9 
							720.3,86.3 						"/>
						<g>
							<path class="st1" d="M723.8,54.5c-0.6,0.1-1,0.6-1,1.2c0.1,0.6,0.6,1.1,1.2,1s1-0.6,1-1.2C724.9,54.8,724.4,54.4,723.8,54.5z
								"/>
							<path class="st1" d="M723.8,74.2c-0.6,0.1-1,0.6-1,1.2c0.1,0.6,0.6,1.1,1.2,1s1-0.6,1-1.2C724.9,74.5,724.4,74.1,723.8,74.2z
								"/>
							<polygon class="st1" points="721.1,49.5 722.6,48.5 722.7,46.7 724.1,47.9 725.8,47.4 725.2,49.1 726.2,50.6 724.4,50.5 
								723.2,51.9 722.8,50.1 							"/>
							<polygon class="st1" points="721.1,69.4 722.6,68.4 722.7,66.6 724.1,67.8 725.8,67.3 725.2,69 726.2,70.5 724.4,70.3 
								723.2,71.8 722.8,70 							"/>
							<path class="st1" d="M723.8,25.5c-0.6,0.1-1,0.6-1,1.2c0.1,0.6,0.6,1.1,1.2,1s1-0.6,1-1.2C724.9,25.9,724.4,25.5,723.8,25.5z
								"/>
							<path class="st1" d="M723.8,31.6c-0.6,0.1-1,0.6-1,1.2c0.1,0.6,0.6,1.1,1.2,1s1-0.6,1-1.2C724.9,32,724.4,31.6,723.8,31.6z"
								/>
							<path class="st1" d="M723.8,37.2c-0.6,0.1-1,0.6-1,1.2c0.1,0.6,0.6,1.1,1.2,1s1-0.6,1-1.2C724.9,37.6,724.4,37.1,723.8,37.2z
								"/>
							<path class="st1" d="M723.8,43.9c-0.2,0-0.5-0.1-0.5-0.4c0-0.2,0.1-0.5,0.4-0.6h0.1c0.3-0.1,0.5,0.1,0.5,0.4
								S724.2,43.8,723.8,43.9L723.8,43.9L723.8,43.9L723.8,43.9z"/>
							<path class="st1" d="M723.8,60.8c-0.2,0-0.5-0.1-0.5-0.4c0-0.2,0.1-0.5,0.4-0.6h0.1c0.3-0.1,0.5,0.1,0.5,0.4
								S724.2,60.7,723.8,60.8L723.8,60.8L723.8,60.8L723.8,60.8z"/>
							<path class="st1" d="M723.8,64.2c-0.2,0-0.5-0.1-0.5-0.4c0-0.2,0.1-0.5,0.4-0.6h0.1c0.3-0.1,0.5,0.1,0.5,0.4
								S724.2,64.1,723.8,64.2L723.8,64.2L723.8,64.2L723.8,64.2z"/>
							<path class="st1" d="M723.8,79.8c-0.2,0-0.5-0.1-0.5-0.4c0-0.2,0.1-0.5,0.4-0.6h0.1c0.3-0.1,0.5,0.1,0.5,0.4
								S724.2,79.7,723.8,79.8L723.8,79.8L723.8,79.8L723.8,79.8z"/>
						</g>
					</g>
					<g>
						<polygon class="st1" points="961.5,108.2 965.8,109.8 969.5,107.1 969.4,111.7 973,114.5 968.6,115.7 967.1,120.1 
							964.6,116.2 960,116.2 962.8,112.6 						"/>
						<g>
							<path class="st1" d="M966.3,46.7c-0.6,0.1-1.1,0.6-1,1.2c0.1,0.6,0.6,1.1,1.2,1s1.1-0.6,1-1.2
								C967.4,47,966.9,46.6,966.3,46.7z"/>
							<path class="st1" d="M966.3,52.7c-0.6,0.1-1.1,0.6-1,1.2c0.1,0.6,0.6,1.1,1.2,1s1.1-0.6,1-1.2S966.9,52.7,966.3,52.7z"/>
							<path class="st1" d="M966.3,58.3c-0.6,0.1-1.1,0.6-1,1.2c0.1,0.6,0.6,1.1,1.2,1s1.1-0.6,1-1.2
								C967.4,58.7,966.9,58.2,966.3,58.3z"/>
							<path class="st1" d="M966.3,75.7c-0.6,0.1-1.1,0.6-1,1.2s0.6,1.1,1.2,1s1.1-0.6,1-1.2S966.9,75.7,966.3,75.7z"/>
							<path class="st1" d="M966.3,102.1c-0.6,0.1-1.1,0.6-1,1.2s0.6,1.1,1.2,1s1.1-0.6,1-1.2S966.9,102.1,966.3,102.1z"/>
							<path class="st1" d="M966.3,94.4c-0.6,0.1-1.1,0.6-1,1.2s0.6,1.1,1.2,1s1.1-0.6,1-1.2S966.9,94.3,966.3,94.4z"/>
							<polygon class="st1" points="963.6,70.7 965.1,69.8 965.2,68 966.6,69.2 968.3,68.7 967.7,70.3 968.7,71.8 966.9,71.7 
								965.7,73.1 965.3,71.4 							"/>
							<polygon class="st1" points="963.6,90.6 965.1,89.7 965.2,87.9 966.6,89 968.3,88.5 967.7,90.2 968.7,91.7 966.9,91.6 
								965.7,93 965.3,91.3 							"/>
							<path class="st1" d="M966.3,65c-0.2,0-0.5-0.1-0.5-0.4c-0.1-0.2,0.1-0.5,0.4-0.6h0.1c0.3-0.1,0.5,0.1,0.6,0.4
								s-0.1,0.5-0.4,0.6H966.3L966.3,65L966.3,65z"/>
							<path class="st1" d="M966.3,23c-0.6,0.1-1.1,0.6-1,1.2s0.6,1.1,1.2,1s1.1-0.6,1-1.2S966.9,23,966.3,23z"/>
							<path class="st1" d="M966.3,29.1c-0.6,0.1-1.1,0.6-1,1.2s0.6,1.1,1.2,1s1.1-0.6,1-1.2S966.9,29.1,966.3,29.1z"/>
							<path class="st1" d="M966.3,34.7c-0.6,0.1-1.1,0.6-1,1.2c0.1,0.6,0.6,1.1,1.2,1s1.1-0.6,1-1.2S966.9,34.6,966.3,34.7z"/>
							<path class="st1" d="M966.3,41.4c-0.2,0-0.5-0.1-0.5-0.4c-0.1-0.2,0.1-0.5,0.4-0.6h0.1c0.3-0.1,0.5,0.1,0.6,0.4
								s-0.1,0.5-0.4,0.6H966.3L966.3,41.4L966.3,41.4z"/>
							<path class="st1" d="M966.3,82c-0.2,0-0.5-0.1-0.5-0.4c-0.1-0.2,0.1-0.5,0.4-0.6h0.1c0.3-0.1,0.5,0.1,0.6,0.4
								s-0.1,0.5-0.4,0.6H966.3L966.3,82L966.3,82z"/>
							<path class="st1" d="M966.3,85.5c-0.2,0-0.5-0.1-0.5-0.4c-0.1-0.2,0.1-0.5,0.4-0.6h0.1c0.3-0.1,0.5,0.1,0.6,0.4
								s-0.1,0.5-0.4,0.6H966.3L966.3,85.5L966.3,85.5z"/>
							<path class="st1" d="M966.3,99.1c-0.2,0-0.5-0.1-0.5-0.4c-0.1-0.2,0.1-0.5,0.4-0.6h0.1c0.3-0.1,0.5,0.1,0.6,0.4
								s-0.1,0.5-0.4,0.6H966.3L966.3,99.1L966.3,99.1z"/>
						</g>
					</g>
					<g>
						<polygon class="st1" points="638.9,60.9 643.2,62.5 647,59.8 646.8,64.4 650.5,67.2 646.1,68.4 644.6,72.8 642,68.9 
							637.4,68.9 640.3,65.3 						"/>
						<g>
							<path class="st1" d="M643.7,37.3c-0.6,0.1-1,0.6-1,1.2c0.1,0.6,0.6,1.1,1.2,1s1-0.6,1-1.2C644.9,37.7,644.3,37.3,643.7,37.3
								L643.7,37.3z"/>
							<path class="st1" d="M643.7,56c-0.6,0.1-1,0.6-1,1.2c0.1,0.6,0.6,1.1,1.2,1s1-0.6,1-1.2C644.9,56.4,644.3,56,643.7,56
								L643.7,56z"/>
							<polygon class="st1" points="641.1,32.4 642.6,31.4 642.7,29.6 644.1,30.8 645.8,30.3 645.1,32 646.1,33.5 644.3,33.3 
								643.2,34.7 642.8,33 							"/>
							<polygon class="st1" points="641.1,52.2 642.6,51.3 642.7,49.5 644.1,50.6 645.8,50.2 645.1,51.8 646.1,53.3 644.3,53.2 
								643.2,54.6 642.8,52.9 							"/>
							<path class="st1" d="M643.7,43.6c-0.2,0-0.5-0.1-0.5-0.4c0-0.2,0.1-0.5,0.4-0.6h0.1c0.3-0.1,0.5,0.1,0.5,0.4
								S644.1,43.5,643.7,43.6L643.7,43.6C643.8,43.6,643.7,43.6,643.7,43.6L643.7,43.6z"/>
							<path class="st1" d="M643.7,47.1c-0.2,0-0.5-0.1-0.5-0.4c0-0.2,0.1-0.5,0.4-0.6h0.1c0.3-0.1,0.5,0.1,0.5,0.4
								S644.1,47,643.7,47.1L643.7,47.1C643.8,47.1,643.7,47.1,643.7,47.1L643.7,47.1z"/>
							<path class="st1" d="M643.7,60.7c-0.2,0-0.5-0.1-0.5-0.4c0-0.2,0.1-0.5,0.4-0.6h0.1c0.3-0.1,0.5,0.1,0.5,0.4
								S644.1,60.6,643.7,60.7L643.7,60.7C643.8,60.7,643.7,60.7,643.7,60.7L643.7,60.7z"/>
						</g>
					</g>
					<g>
						<polygon class="st1" points="513.5,42 517.8,43.6 521.6,41 521.4,45.6 525.1,48.3 520.7,49.6 519.2,53.9 516.7,50.1 512.1,50 
							514.9,46.4 						"/>
						<g>
							<path class="st1" d="M518.3,19.9c-0.6,0.1-1,0.6-1,1.2c0.1,0.6,0.6,1.1,1.2,1s1-0.6,1-1.2C519.5,20.2,519,19.8,518.3,19.9
								L518.3,19.9z"/>
							<path class="st1" d="M518.3,36c-0.6,0.1-1,0.6-1,1.2c0.1,0.6,0.6,1.1,1.2,1c0.6-0.1,1-0.6,1-1.2
								C519.5,36.4,519,35.9,518.3,36L518.3,36z"/>
							<path class="st1" d="M518.3,26.2c-0.2,0-0.5-0.1-0.5-0.4c0-0.2,0.1-0.5,0.4-0.6h0.1c0.3-0.1,0.5,0.1,0.5,0.4
								S518.7,26.1,518.3,26.2L518.3,26.2C518.4,26.2,518.4,26.2,518.3,26.2L518.3,26.2z"/>
							<path class="st1" d="M518.3,29.7c-0.2,0-0.5-0.1-0.5-0.4c0-0.2,0.1-0.5,0.4-0.6h0.1c0.3-0.1,0.5,0.1,0.5,0.4
								S518.7,29.6,518.3,29.7L518.3,29.7C518.4,29.6,518.4,29.6,518.3,29.7L518.3,29.7z"/>
							<path class="st1" d="M518.3,32.9c-0.2,0-0.5-0.1-0.5-0.4c0-0.2,0.1-0.5,0.4-0.6h0.1c0.3-0.1,0.5,0.1,0.5,0.4
								S518.7,32.8,518.3,32.9L518.3,32.9C518.4,32.9,518.4,32.9,518.3,32.9L518.3,32.9z"/>
						</g>
					</g>
					<g>
						<polygon class="st1" points="272.7,54 277,55.6 280.8,53 280.6,57.5 284.3,60.3 279.9,61.5 278.4,65.9 275.8,62.1 271.2,62 
							274.1,58.4 						"/>
						<g>
							<path class="st1" d="M277.5,31.8c-0.6,0.1-1,0.6-1,1.2c0.1,0.6,0.6,1.1,1.2,1s1-0.6,1-1.2C278.7,32.2,278.1,31.8,277.5,31.8
								L277.5,31.8z"/>
							<path class="st1" d="M277.5,48c-0.6,0.1-1,0.6-1,1.2c0.1,0.6,0.6,1.1,1.2,1s1-0.6,1-1.2C278.7,48.3,278.1,47.9,277.5,48
								L277.5,48z"/>
							<path class="st1" d="M277.5,38.2c-0.2,0-0.5-0.1-0.5-0.4c0-0.2,0.1-0.5,0.4-0.6h0.1c0.3-0.1,0.5,0.1,0.5,0.4
								s-0.1,0.5-0.4,0.6H277.5C277.6,38.1,277.5,38.1,277.5,38.2L277.5,38.2z"/>
							<path class="st1" d="M277.5,41.6c-0.2,0-0.5-0.1-0.5-0.4c0-0.2,0.1-0.5,0.4-0.6h0.1c0.3-0.1,0.5,0.1,0.5,0.4
								s-0.1,0.5-0.4,0.6H277.5C277.6,41.6,277.5,41.6,277.5,41.6L277.5,41.6z"/>
							<path class="st1" d="M277.5,44.9c-0.2,0-0.5-0.1-0.5-0.4c0-0.2,0.1-0.5,0.4-0.6h0.1c0.3-0.1,0.5,0.1,0.5,0.4
								s-0.1,0.5-0.4,0.6H277.5C277.6,44.9,277.5,44.9,277.5,44.9L277.5,44.9z"/>
						</g>
					</g>
					<g>
						<polygon class="st1" points="56,49 60.3,50.6 64.1,48 63.9,52.5 67.6,55.3 63.2,56.5 61.7,60.9 59.2,57.1 54.6,57 57.4,53.4 
													"/>
						<g>
							<path class="st1" d="M60.8,26.8c-0.6,0.1-1.1,0.6-1,1.2s0.6,1.1,1.2,1s1.1-0.6,1-1.2C62,27.2,61.5,26.8,60.8,26.8L60.8,26.8z
								"/>
							<path class="st1" d="M60.8,43c-0.6,0.1-1.1,0.6-1,1.2c0.1,0.6,0.6,1.1,1.2,1c0.6-0.1,1.1-0.6,1-1.2
								C62,43.3,61.5,42.9,60.8,43L60.8,43z"/>
							<path class="st1" d="M60.8,33.2c-0.2,0-0.5-0.1-0.5-0.4c-0.1-0.2,0.1-0.5,0.4-0.6h0.1c0.3-0.1,0.5,0.1,0.6,0.4
								s-0.1,0.5-0.4,0.6H60.8C60.9,33.1,60.9,33.1,60.8,33.2L60.8,33.2z"/>
							<path class="st1" d="M60.8,36.6c-0.2,0-0.5-0.1-0.5-0.4c-0.1-0.2,0.1-0.5,0.4-0.6h0.1c0.3-0.1,0.5,0.1,0.6,0.4
								s-0.1,0.5-0.4,0.6H60.8C60.9,36.6,60.9,36.6,60.8,36.6L60.8,36.6z"/>
							<path class="st1" d="M60.8,39.9c-0.2,0-0.5-0.1-0.5-0.4c-0.1-0.2,0.1-0.5,0.4-0.6h0.1c0.3-0.1,0.5,0.1,0.6,0.4
								s-0.1,0.5-0.4,0.6H60.8C60.9,39.9,60.9,39.9,60.8,39.9L60.8,39.9z"/>
						</g>
					</g>
					<g>
						<polygon class="st1" points="781.6,55.7 785.9,57.3 789.7,54.6 789.5,59.2 793.2,62 788.8,63.2 787.3,67.6 784.8,63.7 
							780.2,63.7 783,60.1 						"/>
						<g>
							<path class="st1" d="M786.4,49.6c-0.6,0.1-1,0.6-1,1.2s0.6,1.1,1.2,1s1-0.6,1-1.2C787.6,50,787.1,49.6,786.4,49.6z"/>
							<path class="st1" d="M786.4,41.9c-0.6,0.1-1,0.6-1,1.2s0.6,1.1,1.2,1s1-0.6,1-1.2C787.6,42.3,787.1,41.8,786.4,41.9z"/>
							<path class="st1" d="M786.4,46.6c-0.2,0-0.5-0.1-0.5-0.4c0-0.2,0.1-0.5,0.4-0.6h0.1c0.3-0.1,0.5,0.1,0.5,0.4
								S786.8,46.5,786.4,46.6L786.4,46.6L786.4,46.6L786.4,46.6z"/>
						</g>
					</g>
					<g>
						<g>
							<g>
								<g>
									<path class="st1" d="M507.8,17.5c-0.3,0-0.6-0.1-0.6-0.4c-0.1-0.3,0.1-0.6,0.4-0.7h0.1c0.3-0.1,0.6,0.1,0.7,0.4
										c0.1,0.3-0.1,0.6-0.4,0.7H507.8L507.8,17.5L507.8,17.5z"/>
									<path class="st1" d="M428.7,26.6c-0.3,0-0.5-0.2-0.6-0.5c0-0.3,0.2-0.6,0.5-0.7h0.1c0.3-0.1,0.6,0.1,0.7,0.4
										s-0.1,0.6-0.5,0.7L428.7,26.6C428.8,26.6,428.7,26.6,428.7,26.6L428.7,26.6z"/>
									<path class="st1" d="M529.4,11.6c-0.3,0.1-0.6-0.1-0.7-0.4c-0.1-0.3,0.1-0.6,0.4-0.7h0.1c0.3-0.1,0.6,0.1,0.7,0.4
										C530,11.2,529.8,11.5,529.4,11.6L529.4,11.6C529.5,11.6,529.4,11.6,529.4,11.6L529.4,11.6z"/>
									<path class="st1" d="M592.6-14.8c-0.2,0.1-0.5-0.1-0.6-0.3c-0.1-0.3,0-0.6,0.2-0.8l0.1-0.1c0.3-0.1,0.6,0,0.8,0.3
										c0.2,0.3,0,0.6-0.3,0.8l-0.1,0.1C592.8-14.8,592.7-14.8,592.6-14.8L592.6-14.8z"/>
									<path class="st1" d="M601.2-19.1c-0.2,0.1-0.5-0.1-0.6-0.3c-0.1-0.3,0-0.6,0.2-0.8l0.1-0.1c0.3-0.2,0.6,0,0.8,0.2
										c0.1,0.3,0,0.6-0.2,0.8l-0.1,0.1C601.3-19.2,601.2-19.1,601.2-19.1L601.2-19.1z"/>
									<g>
										<path class="st1" d="M466.8,22c-0.7,0.1-1.2,0.8-1.2,1.5c0.1,0.7,0.8,1.2,1.5,1.2c0.7-0.1,1.2-0.8,1.2-1.5
											C468.2,22.5,467.6,21.9,466.8,22L466.8,22z"/>
										<path class="st1" d="M354.3,18.1c-0.7,0.1-1.2,0.8-1.2,1.5c0.1,0.7,0.8,1.2,1.5,1.2c0.7-0.1,1.2-0.8,1.2-1.5
											C355.7,18.6,355,18,354.3,18.1L354.3,18.1z"/>
										<path class="st1" d="M449.1,23.6c-0.7,0.1-1.2,0.8-1.2,1.5c0.1,0.7,0.8,1.2,1.5,1.2c0.7-0.1,1.2-0.8,1.2-1.5
											C450.5,24,449.8,23.5,449.1,23.6L449.1,23.6z"/>
										<path class="st1" d="M414.1,24.3c-0.7,0.1-1.3,0.7-1.2,1.5c0.1,0.7,0.7,1.3,1.5,1.2c0.7-0.1,1.3-0.7,1.2-1.5
											C415.5,24.8,414.9,24.3,414.1,24.3z"/>
										<path class="st1" d="M501,16.7c-0.7,0.1-1.2,0.8-1.2,1.5c0.1,0.7,0.8,1.2,1.5,1.2c0.7-0.1,1.2-0.8,1.2-1.5
											C502.4,17.1,501.8,16.6,501,16.7L501,16.7z"/>
										<path class="st1" d="M561.7-2.8c-0.7,0.2-1.2,0.9-1,1.6s0.9,1.2,1.6,1.1c0.7-0.2,1.2-0.9,1-1.6
											C563.2-2.5,562.5-3,561.7-2.8L561.7-2.8z"/>
										<path class="st1" d="M596.7-18.7c-0.7,0.2-1.2,0.9-1,1.6s0.9,1.2,1.6,1.1c0.7-0.2,1.2-0.9,1-1.6
											C598.1-18.3,597.4-18.8,596.7-18.7L596.7-18.7z"/>
										<path class="st1" d="M617.7-30.3c-0.7,0.2-1.2,0.9-1,1.6s0.9,1.2,1.6,1.1c0.7-0.2,1.2-0.9,1-1.6
											C619.2-30,618.5-30.4,617.7-30.3L617.7-30.3z"/>
										
											<rect x="543.2" y="4.8" transform="matrix(0.5509 -0.8346 0.8346 0.5509 239.5926 456.6715)" class="st1" width="1.8" height="1.8"/>
									</g>
								</g>
								<g>
									<path class="st1" d="M474.6,21.1L474.6,21.1c-0.6,0.1-1,0.6-0.9,1.1c0.1,0.5,0.5,0.9,1.1,0.9h0.1l0,0
										c0.5-0.1,0.9-0.6,0.8-1.1C475.6,21.5,475.1,21.1,474.6,21.1L474.6,21.1z"/>
									<path class="st1" d="M479.3,20.5L479.3,20.5c-0.4,0-0.6,0.2-0.7,0.4c-0.2,0.2-0.2,0.5-0.2,0.7c0.1,0.5,0.6,0.9,1.1,0.8l0,0
										h0.1c0.2,0,0.5-0.2,0.6-0.4c0.2-0.2,0.2-0.5,0.2-0.7C480.3,20.8,479.8,20.4,479.3,20.5L479.3,20.5z"/>
									<path class="st1" d="M494.1,18.2L494.1,18.2c-0.4,0-0.6,0.2-0.7,0.4s-0.2,0.5-0.2,0.7c0.1,0.5,0.6,0.9,1.1,0.8l0,0h0.1
										c0.3,0,0.5-0.2,0.6-0.4c0.2-0.2,0.2-0.5,0.2-0.7C495.1,18.5,494.6,18.1,494.1,18.2L494.1,18.2z"/>
									<path class="st1" d="M460.3,22.8h-0.2c-0.5,0.1-0.9,0.5-0.8,1.1c0,0.3,0.2,0.5,0.3,0.7c0.2,0.2,0.5,0.2,0.7,0.2h0.2l0,0
										l0,0c0.5-0.1,0.9-0.5,0.8-1.1c0-0.3-0.2-0.5-0.3-0.7S460.6,22.7,460.3,22.8L460.3,22.8z"/>
									<path class="st1" d="M455.6,23.2h-0.2c-0.5,0.1-0.9,0.5-0.8,1.1c0,0.3,0.2,0.5,0.3,0.7c0.2,0.2,0.5,0.2,0.7,0.2h0.2l0,0
										l0,0c0.5-0.1,0.9-0.5,0.8-1.1C456.6,23.5,456.1,23.2,455.6,23.2L455.6,23.2z"/>
									<path class="st1" d="M442.6,24.3h-0.2c-0.5,0.1-0.9,0.5-0.8,1c0,0.3,0.1,0.5,0.3,0.7s0.4,0.3,0.7,0.2h0.2
										c0.5-0.1,0.9-0.5,0.8-1c0-0.3-0.1-0.5-0.3-0.7S442.9,24.3,442.6,24.3L442.6,24.3z"/>
									<path class="st1" d="M512.3,14.8L512.3,14.8L512.3,14.8c-0.4,0.1-0.6,0.2-0.7,0.4s-0.2,0.5-0.1,0.7
										c0.1,0.5,0.6,0.8,1.1,0.8l0,0h0.2c0.3-0.1,0.5-0.2,0.6-0.4s0.2-0.5,0.1-0.7C513.3,15.1,512.9,14.7,512.3,14.8L512.3,14.8z"
										/>
									<path class="st1" d="M423.8,25h-0.2c-0.5,0-0.9,0.4-1,0.9c0,0.5,0.4,1,0.9,1h0.2l0,0l0,0c0.5-0.1,0.9-0.4,0.9-0.9
										c0-0.3-0.1-0.5-0.3-0.7C424.3,25.2,424,25,423.8,25L423.8,25z"/>
									<path class="st1" d="M419,24.9h-0.2c-0.5,0-0.9,0.4-1,0.9c0,0.3,0.1,0.5,0.3,0.7s0.4,0.3,0.7,0.3h0.2l0,0l0,0
										c0.5-0.1,0.9-0.4,0.9-0.9c0-0.3-0.1-0.5-0.2-0.7C419.5,25,419.3,24.9,419,24.9L419,24.9z"/>
									<path class="st1" d="M537.8,6.9C537.8,6.9,537.7,6.9,537.8,6.9L537.6,7c-0.5,0.2-0.8,0.7-0.6,1.2s0.6,0.7,1.1,0.6
										c0,0,0,0,0.1,0l0.2-0.1c0.2-0.1,0.4-0.3,0.6-0.5c0.1-0.2,0.1-0.5,0-0.7C538.8,7,538.3,6.8,537.8,6.9L537.8,6.9z"/>
									<path class="st1" d="M524.7,11.7L524.7,11.7l-0.2,0.1c-0.5,0.2-0.8,0.7-0.6,1.2s0.6,0.7,1.1,0.6c0,0,0,0,0.1,0l0.2-0.1
										c0.2-0.1,0.4-0.3,0.6-0.5c0.1-0.2,0.1-0.5,0-0.7C525.7,11.8,525.2,11.6,524.7,11.7L524.7,11.7z"/>
									<path class="st1" d="M409.1,24.3h-0.2c-0.5,0-0.9,0.4-1,0.9c0,0.3,0.1,0.5,0.2,0.7c0.2,0.2,0.4,0.3,0.7,0.3h0.1
										c0,0,0.1,0,0.2,0c0.5,0,0.8-0.4,0.9-0.9c0-0.3-0.1-0.5-0.2-0.7C409.6,24.5,409.4,24.3,409.1,24.3L409.1,24.3z"/>
									<path class="st1" d="M548.5,2.8L548.5,2.8l-0.2,0.1c-0.2,0.1-0.4,0.3-0.5,0.5s-0.1,0.5,0,0.7c0.2,0.4,0.6,0.7,1.1,0.6l0,0
										l0.2-0.1c0.2-0.1,0.4-0.3,0.5-0.5s0.1-0.5,0-0.8C549.5,2.9,549,2.6,548.5,2.8L548.5,2.8z"/>
									<path class="st1" d="M566.3-4.3c-0.1,0-0.1,0-0.2,0.1l-0.1,0c-0.5,0.2-0.7,0.8-0.5,1.3c0.2,0.4,0.6,0.7,1.1,0.6
										c0.1,0,0.1,0,0.2-0.1l0.1-0.1c0.2-0.1,0.4-0.3,0.5-0.5s0.1-0.5,0-0.7C567.2-4.2,566.8-4.4,566.3-4.3L566.3-4.3z"/>
									<path class="st1" d="M388.1,23.7H388c-0.5-0.1-1,0.3-1.1,0.9c0,0.3,0,0.5,0.2,0.7s0.4,0.3,0.7,0.4h0.1c0.1,0,0.2,0,0.2,0
										c0.5-0.1,0.8-0.4,0.8-0.9c0-0.3,0-0.5-0.2-0.7C388.6,23.8,388.4,23.7,388.1,23.7L388.1,23.7z"/>
									<path class="st1" d="M393.3,25.9c0.3,0.1,0.6-0.1,0.7-0.4s0-0.6-0.3-0.7h-0.1c-0.3-0.1-0.6,0.1-0.7,0.3
										c-0.1,0.3,0,0.6,0.3,0.7L393.3,25.9L393.3,25.9L393.3,25.9z"/>
									<path class="st1" d="M382.8,23h-0.1c-0.5-0.1-1,0.3-1.1,0.9c0,0.3,0,0.5,0.2,0.7s0.4,0.3,0.6,0.4h0.1c0.1,0,0.1,0,0.2,0
										c0.5-0.1,0.8-0.4,0.8-0.9c0-0.3,0-0.5-0.2-0.7C383.3,23.2,383.1,23.1,382.8,23L382.8,23z"/>
									<path class="st1" d="M575.1-8.2c-0.1,0-0.2,0-0.2,0.1L574.8-8c-0.2,0.1-0.4,0.3-0.5,0.5s-0.1,0.5,0,0.7
										c0.2,0.4,0.6,0.7,1.1,0.6c0.1,0,0.1,0,0.2-0.1l0.1-0.1c0.2-0.1,0.4-0.3,0.5-0.5s0.1-0.5,0-0.7C576-8,575.6-8.2,575.1-8.2z"
										/>
									<path class="st1" d="M579.3-10.1l-0.1,0.1c-0.2,0.1-0.4,0.3-0.5,0.6s-0.1,0.5,0,0.7c0.2,0.4,0.6,0.6,1.1,0.6
										c0.1,0,0.1,0,0.2-0.1l0.1-0.1c0.2-0.1,0.4-0.3,0.5-0.6c0.1-0.2,0.1-0.5,0-0.8C580.3-10.1,579.8-10.3,579.3-10.1L579.3-10.1
										z"/>
									<path class="st1" d="M368.1,21.1H368c-0.5-0.1-1,0.3-1.1,0.8c0,0.3,0,0.5,0.2,0.7c0.1,0.2,0.4,0.4,0.6,0.4h0.1
										c0.1,0,0.2,0,0.3,0c0.4-0.1,0.8-0.4,0.8-0.8c0-0.3,0-0.5-0.2-0.7C368.6,21.3,368.3,21.2,368.1,21.1L368.1,21.1z"/>
									<path class="st1" d="M362.2,20.2h-0.1c-0.5-0.1-1,0.3-1.1,0.8s0.3,1,0.8,1.1h0.1c0.1,0,0.2,0,0.3,0
										c0.4-0.1,0.8-0.4,0.8-0.8c0-0.3,0-0.5-0.2-0.7C362.7,20.4,362.5,20.2,362.2,20.2L362.2,20.2z"/>
									<path class="st1" d="M348.5,17.3L348.5,17.3c-0.6-0.1-1.1,0.2-1.2,0.7c-0.1,0.2,0,0.5,0.1,0.7s0.4,0.4,0.7,0.4l0,0
										c0.1,0,0.2,0,0.3,0c0.4-0.1,0.7-0.4,0.8-0.8C349.4,17.9,349,17.4,348.5,17.3L348.5,17.3z"/>
									<path class="st1" d="M604.9-22.8l-0.1,0.1c-0.2,0.1-0.4,0.3-0.5,0.6c-0.1,0.2,0,0.5,0.1,0.7c0.2,0.4,0.6,0.6,1,0.5
										c0.1,0,0.2-0.1,0.3-0.1l0.1-0.1c0.2-0.1,0.4-0.3,0.5-0.6c0.1-0.2,0-0.5-0.1-0.7C606-22.9,605.4-23.1,604.9-22.8L604.9-22.8
										z"/>
									<path class="st1" d="M609.1-25.1L609-25c-0.2,0.1-0.4,0.3-0.5,0.6s0,0.5,0.1,0.7c0.2,0.4,0.6,0.6,1,0.5
										c0.1,0,0.2-0.1,0.3-0.1l0.1-0.1c0.2-0.1,0.4-0.3,0.5-0.6c0.1-0.2,0-0.5-0.1-0.7C610.2-25.2,609.7-25.4,609.1-25.1
										L609.1-25.1z"/>
									<path class="st1" d="M341.8,15.8h-0.1c-0.5-0.1-1.1,0.2-1.2,0.7c-0.1,0.5,0.2,1.1,0.7,1.2h0.1c0.1,0,0.2,0,0.4,0
										c0.4-0.1,0.7-0.3,0.8-0.7c0.1-0.2,0-0.5-0.1-0.7C342.2,16,342,15.9,341.8,15.8L341.8,15.8z"/>
									<path class="st1" d="M630.1-37.3c-0.1,0-0.2,0.1-0.3,0.1l-0.1,0.1c-0.2,0.1-0.4,0.3-0.4,0.6c-0.1,0.2,0,0.5,0.1,0.7
										c0.2,0.3,0.6,0.5,1,0.4c0.1,0,0.2-0.1,0.3-0.1l0.1-0.1c0.2-0.1,0.4-0.3,0.4-0.6s0-0.5-0.1-0.7
										C630.9-37.2,630.5-37.3,630.1-37.3L630.1-37.3z"/>
									<path class="st1" d="M634.1-39.8c-0.1,0-0.2,0.1-0.3,0.1l-0.1,0.1c-0.5,0.3-0.6,0.9-0.3,1.3c0.2,0.3,0.6,0.5,1,0.4
										c0.1,0,0.2-0.1,0.3-0.1l0.1-0.1c0.2-0.1,0.4-0.4,0.4-0.6c0.1-0.2,0-0.5-0.1-0.7C634.9-39.7,634.5-39.9,634.1-39.8
										L634.1-39.8z"/>
									<path class="st1" d="M640-43.9L640-43.9c-0.3,0.2-0.5,0.5-0.5,0.7s0,0.5,0.1,0.7c0.2,0.3,0.6,0.5,1,0.4
										c0.1,0,0.2-0.1,0.3-0.1l0.1-0.1c0.5-0.3,0.6-0.9,0.3-1.3C641.1-44.1,640.5-44.2,640-43.9L640-43.9z"/>
									<path class="st1" d="M645.8-47.6L645.8-47.6c-0.3,0.3-0.5,0.5-0.5,0.7c0,0.2,0,0.5,0.2,0.7c0.2,0.3,0.6,0.5,1,0.4
										c0.1,0,0.2-0.1,0.4-0.2l0.1-0.1c0.4-0.3,0.6-0.9,0.3-1.3C646.8-47.8,646.2-47.9,645.8-47.6L645.8-47.6z"/>
									<path class="st1" d="M661.2-59L661.2-59c-0.3,0.2-0.4,0.5-0.5,0.7c0,0.3,0,0.5,0.2,0.7c0.2,0.3,0.6,0.5,1,0.4
										c0.1,0,0.3-0.1,0.4-0.2l0.1-0.1c0.2-0.2,0.3-0.4,0.4-0.6c0-0.3,0-0.5-0.2-0.7C662.3-59.2,661.7-59.3,661.2-59L661.2-59z"/>
									<path class="st1" d="M657.4-55.9L657.4-55.9c-0.5,0.4-0.6,1-0.3,1.4c0.2,0.3,0.6,0.4,1,0.4c0.1,0,0.3-0.1,0.4-0.2l0.1-0.1
										c0.2-0.2,0.3-0.4,0.4-0.6c0-0.2,0-0.5-0.2-0.7C658.4-56.2,657.8-56.3,657.4-55.9L657.4-55.9z"/>
									<path class="st1" d="M664.9-61.8L664.9-61.8c-0.3,0.2-0.4,0.5-0.5,0.7c0,0.3,0,0.5,0.2,0.7c0.2,0.3,0.6,0.4,1,0.3
										c0.2,0,0.3-0.1,0.4-0.2l0.1-0.1c0.2-0.2,0.3-0.4,0.4-0.7c0-0.3,0-0.5-0.2-0.7C666-62,665.4-62.1,664.9-61.8L664.9-61.8z"/>
									<path class="st1" d="M668.7-64.8L668.7-64.8c-0.3,0.2-0.4,0.5-0.5,0.7c0,0.3,0,0.5,0.2,0.7c0.2,0.3,0.6,0.4,1,0.3
										c0.2,0,0.3-0.1,0.4-0.2l0.1-0.1c0.4-0.3,0.5-1,0.1-1.4C669.7-65.1,669.1-65.1,668.7-64.8L668.7-64.8z"/>
								</g>
							</g>
							<polygon class="st1" points="398,23.5 400.2,23.7 401.5,22 402.1,24.1 404.1,24.8 402.2,26 402.1,28.2 400.5,26.7 
								398.4,27.3 399.2,25.3 							"/>
							<polygon class="st1" points="432.2,26 434,24.9 434.2,22.7 435.8,24.1 437.9,23.6 437.1,25.6 438.3,27.4 436.1,27.3 
								434.7,28.9 434.2,26.8 							"/>
							<polygon class="st1" points="483.3,20.6 485.1,19.4 485.2,17.2 486.9,18.6 489,18 488.2,20 489.4,21.8 487.3,21.7 486,23.4 
								485.4,21.3 							"/>
							<polygon class="st1" points="583.6,-14.1 585.8,-13.7 587.3,-15.2 587.6,-13 589.5,-12 587.5,-11.1 587.2,-8.9 585.7,-10.5 
								583.5,-10.2 584.6,-12.1 							"/>
							<polygon class="st1" points="649.8,-53.2 651.9,-52.8 653.5,-54.3 653.7,-52.2 655.6,-51.1 653.7,-50.2 653.3,-48.1 
								651.8,-49.7 649.7,-49.3 650.7,-51.3 							"/>
							<polygon class="st1" points="551.8,1.7 553.6,0.4 553.5,-1.8 555.3,-0.6 557.3,-1.3 556.7,0.8 558,2.4 555.9,2.5 554.7,4.3 
								554,2.3 							"/>
							<polygon class="st1" points="515.7,12.7 517.9,12.6 519.1,10.8 519.8,12.9 521.9,13.5 520.2,14.8 520.3,17 518.5,15.7 
								516.4,16.5 517.1,14.4 							"/>
							<polygon class="st1" points="373,22.4 375,21.9 375.6,20 376.7,21.7 378.7,21.8 377.4,23.3 378,25.2 376.1,24.5 374.5,25.6 
								374.6,23.6 							"/>
							<polygon class="st1" points="621.2,-33 623.1,-33.6 623.7,-35.6 624.8,-33.9 626.8,-34 625.7,-32.4 626.3,-30.5 624.4,-31.1 
								622.9,-29.9 622.9,-31.9 							"/>
						</g>
						<g>
							<g>
								<g>
									<path class="st1" d="M290.2-2c0.3,0.1,0.6-0.1,0.7-0.3c0.1-0.3,0-0.6-0.3-0.7l-0.1-0.1c-0.3-0.1-0.6,0-0.7,0.3
										s0,0.6,0.3,0.7L290.2-2L290.2-2z"/>
									<path class="st1" d="M233.4-33.3c0.2,0.1,0.5,0,0.6-0.2c0.2-0.3,0.1-0.6-0.2-0.8l-0.1-0.1c-0.3-0.2-0.6-0.1-0.8,0.2
										c-0.2,0.3-0.1,0.6,0.2,0.8l0.1,0.1C233.3-33.4,233.4-33.3,233.4-33.3L233.4-33.3z"/>
									<path class="st1" d="M225.4-38.5c0.2,0.1,0.5,0,0.6-0.2c0.2-0.3,0.1-0.6-0.2-0.8l-0.1-0.1c-0.3-0.2-0.6-0.1-0.8,0.2
										s-0.1,0.6,0.2,0.8l0.1,0.1C225.2-38.6,225.3-38.5,225.4-38.5L225.4-38.5z"/>
									<g>
										<path class="st1" d="M295.3-2.2c0.7,0.2,1.1,1,0.9,1.7s-1,1.1-1.7,0.9s-1.1-1-0.9-1.7C293.8-2.1,294.6-2.4,295.3-2.2
											L295.3-2.2z"/>
										<path class="st1" d="M320.4,8.7c0.7,0.2,1.1,1,0.9,1.7s-1,1.1-1.7,0.9s-1.1-1-0.9-1.7S319.6,8.5,320.4,8.7L320.4,8.7z"/>
										<path class="st1" d="M262.9-18.3c0.7,0.2,1.1,1,0.9,1.7c-0.2,0.7-1,1.1-1.7,0.9c-0.7-0.2-1.1-1-0.9-1.7
											S262.2-18.5,262.9-18.3L262.9-18.3z"/>
										<path class="st1" d="M229.8-37.6c0.7,0.2,1.1,1,0.9,1.7s-1,1.1-1.7,0.9c-0.7-0.2-1.1-1-0.9-1.7
											C228.3-37.5,229.1-37.9,229.8-37.6z"/>
										<path class="st1" d="M210-51.4c0.7,0.2,1.1,1,0.9,1.7s-1,1.1-1.7,0.9s-1.1-1-0.9-1.7S209.3-51.6,210-51.4L210-51.4z"/>
									</g>
								</g>
								<g>
									<path class="st1" d="M330.9,9.8h0.1c0.2,0.1,0.5,0.2,0.6,0.5c0.1,0.2,0.2,0.5,0.1,0.7c-0.1,0.5-0.7,0.8-1.2,0.7l0,0h-0.1
										c-0.2-0.1-0.5-0.2-0.6-0.4s-0.2-0.5-0.1-0.7C329.9,10,330.4,9.7,330.9,9.8L330.9,9.8z"/>
									<path class="st1" d="M308.4,3.6L308.4,3.6l0.1,0.1c0.2,0.1,0.4,0.3,0.5,0.5s0.1,0.5,0,0.8c-0.2,0.5-0.7,0.7-1.2,0.6l0,0
										l0,0l-0.2-0.1c-0.2-0.1-0.4-0.3-0.5-0.5s-0.1-0.5,0-0.7C307.3,3.7,307.9,3.5,308.4,3.6L308.4,3.6z"/>
									<path class="st1" d="M286.4-5.8L286.4-5.8l0.2,0.1c0.5,0.2,0.7,0.8,0.5,1.3c-0.2,0.4-0.7,0.7-1.2,0.5c0,0,0,0-0.1,0
										L285.7-4c-0.2-0.1-0.4-0.3-0.5-0.6c-0.1-0.2-0.1-0.5,0-0.7C285.4-5.8,285.9-6,286.4-5.8z"/>
									<path class="st1" d="M314,6.2L314,6.2l0.2,0.1c0.5,0.2,0.7,0.8,0.5,1.3c-0.2,0.4-0.7,0.7-1.2,0.5c0,0,0,0-0.1,0L313.3,8
										c-0.2-0.1-0.4-0.3-0.5-0.6c-0.1-0.2-0.1-0.5,0-0.8C313,6.3,313.5,6.1,314,6.2L314,6.2z"/>
									<path class="st1" d="M282.1-7.8L282.1-7.8l0.2,0.1c0.2,0.1,0.4,0.3,0.5,0.6c0.1,0.2,0.1,0.5,0,0.7
										c-0.2,0.4-0.7,0.7-1.2,0.5l0,0h-0.1L281.3-6c-0.2-0.1-0.4-0.3-0.5-0.6c-0.1-0.2-0.1-0.5,0-0.7C281.1-7.8,281.6-8,282.1-7.8
										L282.1-7.8z"/>
									<path class="st1" d="M275.5-11.4C275.5-11.4,275.5-11.3,275.5-11.4l0.2,0.1c0.2,0.1,0.4,0.3,0.5,0.6
										c0.1,0.2,0.1,0.5-0.1,0.7c-0.2,0.4-0.7,0.6-1.2,0.5l0,0l-0.2-0.1c-0.2-0.1-0.4-0.3-0.5-0.6c-0.1-0.2-0.1-0.5,0-0.7
										C274.5-11.3,275-11.5,275.5-11.4L275.5-11.4z"/>
									<path class="st1" d="M258.5-20.3c0.1,0,0.1,0.1,0.2,0.1l0.1,0.1c0.5,0.3,0.6,0.8,0.4,1.3c-0.2,0.4-0.7,0.6-1.1,0.5
										c-0.1,0-0.1-0.1-0.2-0.1l-0.1-0.1c-0.2-0.1-0.4-0.3-0.5-0.6c-0.1-0.2,0-0.5,0.1-0.7C257.5-20.2,258-20.4,258.5-20.3
										L258.5-20.3z"/>
									<path class="st1" d="M250.1-25c0.1,0,0.1,0.1,0.2,0.1l0.1,0.1c0.2,0.1,0.4,0.3,0.5,0.6c0.1,0.2,0,0.5-0.1,0.7
										c-0.2,0.4-0.7,0.6-1.1,0.4c-0.1,0-0.1-0.1-0.2-0.1l-0.1-0.1c-0.2-0.1-0.4-0.3-0.5-0.6s0-0.5,0.1-0.7
										C249.2-24.9,249.7-25.1,250.1-25L250.1-25z"/>
									<path class="st1" d="M246.2-27.3l0.1,0.1c0.2,0.1,0.4,0.3,0.5,0.6c0.1,0.2,0,0.5-0.1,0.7c-0.2,0.4-0.7,0.6-1.1,0.4
										c-0.1,0-0.1-0.1-0.2-0.1l-0.1-0.1c-0.2-0.1-0.4-0.3-0.5-0.6c-0.1-0.2,0-0.5,0.1-0.7C245.1-27.4,245.7-27.6,246.2-27.3z"/>
									<path class="st1" d="M222-42.6l0.1,0.1c0.2,0.1,0.4,0.4,0.4,0.6c0,0.3,0,0.5-0.1,0.7c-0.2,0.3-0.7,0.5-1.1,0.4
										c-0.1,0-0.2-0.1-0.2-0.1L221-41c-0.2-0.1-0.4-0.4-0.4-0.6c0-0.3,0-0.5,0.1-0.7C220.9-42.8,221.5-42.9,222-42.6z"/>
									<path class="st1" d="M218-45.3l0.1,0.1c0.2,0.2,0.4,0.4,0.4,0.6c0,0.3,0,0.5-0.2,0.7c-0.2,0.3-0.7,0.5-1.1,0.4
										c-0.1,0-0.2-0.1-0.3-0.1l-0.1-0.1c-0.2-0.2-0.4-0.4-0.4-0.6c0-0.3,0-0.5,0.2-0.7C217-45.5,217.6-45.6,218-45.3L218-45.3z"
										/>
									<path class="st1" d="M198.5-59.6c0.1,0,0.2,0.1,0.3,0.2l0.1,0.1c0.2,0.2,0.3,0.4,0.4,0.7c0,0.3,0,0.5-0.2,0.7
										c-0.2,0.3-0.7,0.4-1.1,0.3c-0.1,0-0.2-0.1-0.3-0.2l-0.1-0.1c-0.2-0.2-0.3-0.4-0.4-0.7c0-0.3,0-0.5,0.2-0.7
										C197.6-59.6,198.1-59.7,198.5-59.6L198.5-59.6z"/>
									<path class="st1" d="M194.7-62.6c0.1,0,0.2,0.1,0.3,0.2l0.1,0.1c0.4,0.3,0.5,1,0.2,1.4c-0.2,0.3-0.7,0.5-1.1,0.3
										c-0.1,0-0.2-0.1-0.3-0.2l-0.1-0.1c-0.2-0.2-0.3-0.4-0.4-0.7c0-0.3,0-0.5,0.2-0.7C193.9-62.5,194.3-62.7,194.7-62.6
										L194.7-62.6z"/>
								</g>
							</g>
							<polygon class="st1" points="337.9,14.9 336.2,13.5 336.4,11.3 334.6,12.5 332.6,11.6 333.1,13.7 331.6,15.3 333.8,15.5 
								334.9,17.4 335.7,15.4 							"/>
							<polygon class="st1" points="242.3,-31.7 240.1,-31.5 238.7,-33.2 238.2,-31.1 236.2,-30.3 238.1,-29.2 238.2,-27 
								239.9,-28.4 242,-27.9 241.1,-29.9 							"/>
							<polygon class="st1" points="272.2,-12.7 270.7,-14.2 271,-16.4 269.1,-15.3 267.1,-16.3 267.5,-14.2 266,-12.7 268.2,-12.4 
								269.2,-10.4 270.1,-12.4 							"/>
							<polygon class="st1" points="305.4,0.9 303.2,0.5 302.3,-1.5 301.3,0.4 299.1,0.7 300.6,2.2 300.2,4.4 302.1,3.4 304,4.6 
								303.7,2.4 							"/>
							<polygon class="st1" points="206.9,-54.5 205,-55.3 204.7,-57.2 203.3,-55.8 201.4,-56 202.4,-54.3 201.5,-52.5 203.4,-52.9 
								204.9,-51.5 205.1,-53.5 							"/>
						</g>
					</g>
					<g>
						<g>
							<g>
								<g>
									<path class="st1" d="M732.9,16.5c-0.3,0-0.6-0.1-0.6-0.4c-0.1-0.3,0.1-0.6,0.4-0.7h0.1c0.3-0.1,0.6,0.1,0.7,0.4
										c0.1,0.3-0.1,0.6-0.4,0.7H732.9L732.9,16.5L732.9,16.5z"/>
									<path class="st1" d="M652.5,27c-0.3,0-0.6-0.2-0.6-0.4c-0.1-0.3,0.1-0.6,0.5-0.7h0.1c0.3-0.1,0.6,0.1,0.7,0.4
										c0.1,0.3-0.1,0.6-0.4,0.7H652.5L652.5,27L652.5,27z"/>
									<path class="st1" d="M756.2,11c-0.3,0-0.6-0.1-0.6-0.4c-0.1-0.3,0.1-0.6,0.4-0.7h0.1c0.3-0.1,0.6,0.1,0.7,0.4
										c0.1,0.3-0.1,0.6-0.4,0.7H756.2C756.3,11,756.2,11,756.2,11L756.2,11z"/>
									<path class="st1" d="M819.3-11.2c-0.2,0-0.5-0.1-0.6-0.3c-0.1-0.3,0-0.6,0.3-0.7l0.1-0.1c0.3-0.1,0.6,0,0.7,0.3
										c0.1,0.3,0,0.6-0.3,0.7l-0.1,0.1C819.5-11.3,819.4-11.2,819.3-11.2L819.3-11.2z"/>
									<path class="st1" d="M828.1-15.1c-0.2,0-0.5-0.1-0.6-0.3c-0.1-0.3,0-0.6,0.3-0.8l0.1-0.1c0.3-0.1,0.6,0,0.8,0.3
										c0.2,0.3,0,0.6-0.3,0.8l-0.1,0.1C828.2-15.1,828.2-15.1,828.1-15.1L828.1-15.1z"/>
									<g>
										<path class="st1" d="M751.3,10c-0.7,0.1-1.2,0.8-1.1,1.5c0.1,0.7,0.8,1.2,1.5,1.1c0.7-0.1,1.2-0.8,1.1-1.5
											C752.7,10.5,752,9.9,751.3,10L751.3,10z"/>
										<path class="st1" d="M692.1,21.7c-0.7,0.1-1.2,0.8-1.1,1.5c0.1,0.7,0.8,1.2,1.5,1.1s1.2-0.8,1.1-1.5
											C693.5,22.1,692.8,21.6,692.1,21.7z"/>
										<path class="st1" d="M579.5,20.1c-0.7,0.1-1.2,0.8-1.1,1.5c0.1,0.7,0.8,1.2,1.5,1.1s1.2-0.8,1.1-1.5
											C580.9,20.5,580.2,20,579.5,20.1L579.5,20.1z"/>
										<path class="st1" d="M673,23.6c-0.7,0.1-1.2,0.8-1.1,1.5c0.1,0.7,0.8,1.2,1.5,1.1s1.2-0.8,1.1-1.5
											C674.4,24,673.8,23.5,673,23.6L673,23.6z"/>
										<path class="st1" d="M637.9,24.9c-0.7,0.1-1.3,0.7-1.2,1.5c0.1,0.7,0.7,1.3,1.5,1.2s1.3-0.7,1.2-1.5
											C639.3,25.4,638.6,24.8,637.9,24.9z"/>
										<path class="st1" d="M726.2,15.9c-0.7,0.1-1.2,0.8-1.1,1.5c0.1,0.7,0.8,1.2,1.5,1.1s1.2-0.8,1.1-1.5
											S726.9,15.7,726.2,15.9L726.2,15.9z"/>
										<path class="st1" d="M787.8-1c-0.7,0.1-1.2,0.8-1.1,1.5c0.1,0.7,0.8,1.2,1.5,1.1s1.2-0.8,1.1-1.5
											C789.3-0.6,788.6-1.1,787.8-1z"/>
										<path class="st1" d="M823.6-14.9c-0.7,0.1-1.2,0.8-1.1,1.5c0.1,0.7,0.8,1.2,1.5,1.1c0.7-0.1,1.2-0.8,1.1-1.5
											C825-14.5,824.3-15,823.6-14.9L823.6-14.9z"/>
										<path class="st1" d="M845.2-25.4c-0.7,0.1-1.2,0.8-1.1,1.5c0.1,0.7,0.8,1.2,1.5,1.1s1.2-0.8,1.1-1.5
											C846.7-25,846-25.5,845.2-25.4L845.2-25.4z"/>
										
											<rect x="768.9" y="5.6" transform="matrix(0.5958 -0.8031 0.8031 0.5958 305.9106 620.8412)" class="st1" width="1.8" height="1.8"/>
									</g>
								</g>
								<g>
									
										<rect x="923.5" y="-78.3" transform="matrix(0.5951 -0.8036 0.8036 0.5951 436.4529 711.561)" class="st1" width="1.8" height="1.8"/>
									<g>
										<path class="st1" d="M699.8,20.7L699.8,20.7c-0.6,0.1-1,0.6-0.9,1.1s0.6,0.9,1.1,0.8h0.1l0,0c0.5-0.1,0.9-0.6,0.8-1.1
											S700.3,20.6,699.8,20.7z"/>
										<path class="st1" d="M704.5,20L704.5,20c-0.4,0-0.6,0.2-0.7,0.4c-0.2,0.2-0.2,0.5-0.2,0.7c0.1,0.5,0.6,0.9,1.1,0.8l0,0
											h0.1c0.2,0,0.5-0.2,0.6-0.4s0.2-0.5,0.2-0.7C705.5,20.3,705,19.9,704.5,20L704.5,20z"/>
										<path class="st1" d="M719.2,17.5L719.2,17.5c-0.4,0-0.6,0.2-0.7,0.4c-0.2,0.2-0.2,0.5-0.2,0.7c0.1,0.5,0.6,0.9,1.1,0.8
											l0,0h0.1c0.3,0,0.5-0.2,0.6-0.4s0.2-0.5,0.2-0.7C720.3,17.7,719.8,17.4,719.2,17.5z"/>
										<path class="st1" d="M685.6,22.6h-0.2c-0.5,0.1-0.9,0.6-0.8,1.1c0,0.3,0.2,0.5,0.4,0.6c0.2,0.2,0.5,0.2,0.7,0.2h0.2l0,0
											c0.5-0.1,0.9-0.6,0.8-1.1c0-0.3-0.2-0.5-0.4-0.6C686.1,22.6,685.8,22.6,685.6,22.6L685.6,22.6z"/>
										<path class="st1" d="M680.8,23.1h-0.2c-0.5,0.1-0.9,0.5-0.8,1.1c0,0.3,0.2,0.5,0.4,0.7s0.5,0.2,0.7,0.2h0.2l0,0
											c0.5-0.1,0.9-0.6,0.8-1.1C681.8,23.4,681.4,23,680.8,23.1L680.8,23.1z"/>
										<path class="st1" d="M666.5,24.4h-0.2c-0.5,0.1-0.9,0.5-0.8,1c0,0.3,0.1,0.5,0.3,0.7s0.5,0.2,0.7,0.2h0.2l0,0l0,0
											c0.5-0.1,0.9-0.5,0.8-1c0-0.3-0.1-0.5-0.3-0.7S666.8,24.3,666.5,24.4L666.5,24.4z"/>
										<path class="st1" d="M737.4,13.7L737.4,13.7L737.4,13.7c-0.3,0.1-0.6,0.2-0.7,0.4s-0.2,0.5-0.1,0.7
											c0.1,0.5,0.6,0.8,1.1,0.8l0,0l0,0h0.2c0.2-0.1,0.5-0.2,0.6-0.4s0.2-0.5,0.1-0.7C738.4,14,737.9,13.7,737.4,13.7
											L737.4,13.7z"/>
										<path class="st1" d="M647.5,25.5h-0.2c-0.5,0-0.9,0.4-0.9,1c0,0.5,0.4,1,1,1h0.3c0.5-0.1,0.9-0.5,0.9-1
											c0-0.3-0.1-0.5-0.3-0.7C648,25.6,647.8,25.5,647.5,25.5L647.5,25.5z"/>
										<path class="st1" d="M642.8,25.4h-0.2c-0.5,0-0.9,0.4-0.9,0.9c0,0.3,0.1,0.5,0.3,0.7s0.4,0.3,0.7,0.3h0.2l0,0l0,0
											c0.5-0.1,0.8-0.5,0.9-0.9c0-0.3-0.1-0.5-0.3-0.7C643.3,25.5,643,25.4,642.8,25.4L642.8,25.4z"/>
										<path class="st1" d="M760.6,7.9L760.6,7.9L760.4,8c-0.5,0.1-0.8,0.7-0.7,1.2s0.6,0.8,1.1,0.7c0,0,0,0,0.1,0l0.2-0.1
											c0.2-0.1,0.5-0.2,0.6-0.5c0.1-0.2,0.2-0.5,0.1-0.7C761.6,8.1,761.1,7.8,760.6,7.9L760.6,7.9z"/>
										<path class="st1" d="M633.4,25h-0.2c-0.5,0-0.9,0.4-1,0.9c0,0.3,0.1,0.5,0.2,0.7s0.4,0.3,0.7,0.3h0.1c0,0,0.1,0,0.2,0
											c0.5-0.1,0.8-0.4,0.9-0.9c0-0.3-0.1-0.5-0.2-0.7C634,25.2,633.7,25,633.4,25L633.4,25z"/>
										<path class="st1" d="M774.3,3.8C774.3,3.8,774.3,3.9,774.3,3.8l-0.2,0.1c-0.2,0.1-0.5,0.2-0.6,0.5s-0.1,0.5-0.1,0.7
											c0.1,0.5,0.6,0.7,1.1,0.7l0,0l0.2-0.1c0.2-0.1,0.5-0.2,0.6-0.5s0.1-0.5,0.1-0.7C775.3,4,774.9,3.8,774.3,3.8L774.3,3.8z"
											/>
										<path class="st1" d="M792.5-2.3c-0.1,0-0.1,0-0.2,0.1h-0.1c-0.5,0.2-0.8,0.7-0.6,1.2c0.2,0.4,0.6,0.7,1.1,0.6
											c0.1,0,0.1,0,0.2-0.1l0.1-0.1c0.2-0.1,0.4-0.3,0.5-0.5s0.1-0.5,0-0.7C793.4-2.1,793-2.3,792.5-2.3z"/>
										<path class="st1" d="M611.9,24.5L611.9,24.5c-0.6-0.1-1.1,0.4-1.1,0.9c0,0.3,0.1,0.5,0.2,0.7c0.2,0.2,0.4,0.3,0.7,0.3h0.1
											c0.1,0,0.2,0,0.2,0c0.5-0.1,0.8-0.4,0.8-0.9c0-0.3-0.1-0.5-0.2-0.7C612.4,24.7,612.1,24.5,611.9,24.5L611.9,24.5z"/>
										<path class="st1" d="M617.7,26.8c0.3,0.1,0.6-0.1,0.7-0.4c0.1-0.3-0.1-0.6-0.4-0.7h-0.1c-0.3-0.1-0.6,0.1-0.7,0.4
											C617.1,26.4,617.3,26.7,617.7,26.8L617.7,26.8L617.7,26.8L617.7,26.8z"/>
										<path class="st1" d="M607.1,24.1L607.1,24.1c-0.6-0.1-1.1,0.3-1.1,0.9c0,0.3,0,0.5,0.2,0.7s0.4,0.3,0.7,0.4h0.1
											c0.1,0,0.2,0,0.2,0c0.5-0.1,0.8-0.4,0.8-0.9c0-0.3,0-0.5-0.2-0.7S607.4,24.1,607.1,24.1L607.1,24.1z"/>
										<path class="st1" d="M801.5-5.6c-0.1,0-0.2,0-0.2,0.1l-0.1,0.1c-0.2,0.1-0.4,0.3-0.5,0.5s-0.1,0.5,0,0.7
											c0.2,0.4,0.6,0.7,1.1,0.6c0.1,0,0.1,0,0.2-0.1l0.1-0.1c0.2-0.1,0.4-0.3,0.5-0.5s0.1-0.5,0-0.8
											C802.4-5.4,801.9-5.7,801.5-5.6L801.5-5.6z"/>
										<path class="st1" d="M805.7-7.3L805.7-7.3c-0.3,0.2-0.5,0.4-0.6,0.6s-0.1,0.5,0,0.8c0.2,0.4,0.6,0.7,1,0.6
											c0.1,0,0.1,0,0.2-0.1l0.1-0.1c0.2-0.1,0.4-0.3,0.5-0.5s0.1-0.5,0-0.7C806.8-7.2,806.2-7.5,805.7-7.3L805.7-7.3z"/>
										<path class="st1" d="M592.3,22.5L592.3,22.5c-0.6-0.1-1.1,0.3-1.2,0.8c0,0.3,0,0.5,0.2,0.7s0.4,0.3,0.6,0.4h0.1
											c0.1,0,0.2,0,0.3,0c0.4-0.1,0.8-0.4,0.8-0.8c0-0.3,0-0.5-0.2-0.7C592.8,22.7,592.6,22.5,592.3,22.5L592.3,22.5z"/>
										<path class="st1" d="M586.5,21.6L586.5,21.6c-0.6-0.1-1.1,0.3-1.2,0.8s0.3,1,0.8,1.1h0.1c0.1,0,0.2,0,0.3,0
											c0.4-0.1,0.8-0.4,0.8-0.8c0-0.3,0-0.5-0.2-0.7C587,21.8,586.7,21.7,586.5,21.6L586.5,21.6z"/>
										<path class="st1" d="M575,19.5L575,19.5c-0.6-0.1-1.1,0.2-1.2,0.8c0,0.2,0,0.5,0.2,0.7s0.4,0.4,0.7,0.4l0,0
											c0.1,0,0.2,0,0.3,0c0.4-0.1,0.7-0.4,0.8-0.8C575.9,20.1,575.6,19.6,575,19.5z"/>
										<path class="st1" d="M832.1-18.6l-0.1,0.1c-0.2,0.1-0.4,0.3-0.5,0.6c-0.1,0.2-0.1,0.5,0,0.7c0.2,0.4,0.6,0.6,1,0.6
											c0.1,0,0.2,0,0.3-0.1l0.1-0.1c0.2-0.1,0.4-0.3,0.5-0.6c0.1-0.2,0.1-0.5,0-0.7C833.1-18.6,832.5-18.8,832.1-18.6z"/>
										<path class="st1" d="M836.4-20.6l-0.1,0.1c-0.2,0.1-0.4,0.3-0.5,0.6c-0.1,0.2-0.1,0.5,0,0.8c0.2,0.4,0.6,0.6,1,0.5
											c0.1,0,0.2,0,0.3-0.1l0.1-0.1c0.2-0.1,0.4-0.3,0.5-0.6s0.1-0.5,0-0.7C837.5-20.6,836.9-20.9,836.4-20.6L836.4-20.6z"/>
										<path class="st1" d="M566.9,18L566.9,18c-0.6-0.1-1.1,0.2-1.3,0.7c-0.1,0.5,0.2,1.1,0.7,1.2h0.1c0.1,0,0.2,0,0.4,0
											c0.4-0.1,0.7-0.3,0.8-0.7c0.1-0.2,0-0.5-0.1-0.7S567.2,18,566.9,18L566.9,18z"/>
										<path class="st1" d="M858-31.7c-0.1,0-0.2,0.1-0.3,0.1l-0.1,0.1c-0.2,0.1-0.4,0.3-0.5,0.6s0,0.5,0.1,0.7
											c0.2,0.3,0.6,0.6,1,0.5c0.1,0,0.2-0.1,0.3-0.1l0.1-0.1c0.2-0.1,0.4-0.3,0.5-0.6c0.1-0.2,0-0.5-0.1-0.7
											C858.8-31.5,858.3-31.7,858-31.7L858-31.7z"/>
										<path class="st1" d="M862.1-34c-0.1,0-0.2,0.1-0.3,0.1l-0.1,0.1c-0.5,0.3-0.6,0.9-0.4,1.3c0.2,0.3,0.6,0.6,1,0.5
											c0.1,0,0.2-0.1,0.3-0.1l0.1-0.1c0.2-0.1,0.4-0.3,0.5-0.6s0-0.5-0.1-0.7C862.9-33.9,862.5-34.1,862.1-34L862.1-34z"/>
										<path class="st1" d="M868.3-37.8L868.3-37.8c-0.3,0.2-0.5,0.4-0.6,0.7c-0.1,0.2,0,0.5,0.1,0.7c0.2,0.3,0.6,0.5,1,0.5
											c0.1,0,0.2-0.1,0.3-0.1l0.1-0.1c0.5-0.3,0.6-0.9,0.4-1.3C869.4-37.9,868.8-38.1,868.3-37.8L868.3-37.8z"/>
										<path class="st1" d="M874.2-41.1L874.2-41.1c-0.3,0.2-0.5,0.4-0.5,0.7s0,0.5,0.1,0.7c0.2,0.3,0.6,0.5,1,0.4
											c0.1,0,0.3-0.1,0.4-0.1l0.1-0.1c0.5-0.3,0.6-0.9,0.3-1.3C875.2-41.3,874.6-41.4,874.2-41.1L874.2-41.1z"/>
										<path class="st1" d="M890.3-51.7L890.3-51.7c-0.3,0.2-0.5,0.4-0.5,0.7s0,0.5,0.1,0.7c0.2,0.3,0.6,0.5,1,0.4
											c0.1,0,0.3-0.1,0.4-0.1l0.1-0.1c0.2-0.1,0.4-0.4,0.4-0.6c0-0.2,0-0.5-0.1-0.7C891.3-51.8,890.7-52,890.3-51.7L890.3-51.7z
											"/>
										<path class="st1" d="M886.2-48.8L886.2-48.8c-0.5,0.4-0.7,1-0.4,1.4c0.2,0.3,0.6,0.5,1,0.4c0.1,0,0.3-0.1,0.4-0.2l0.1-0.1
											c0.2-0.1,0.4-0.4,0.4-0.6c0-0.2,0-0.5-0.2-0.7C887.3-49,886.7-49.1,886.2-48.8L886.2-48.8z"/>
										<path class="st1" d="M894.1-54.3L894.1-54.3c-0.3,0.2-0.5,0.4-0.5,0.7s0,0.5,0.2,0.7c0.2,0.3,0.6,0.5,0.9,0.4
											c0.2,0,0.3-0.1,0.4-0.2l0.1-0.1c0.2-0.2,0.4-0.4,0.4-0.6c0-0.3,0-0.5-0.2-0.7C895.2-54.4,894.6-54.6,894.1-54.3z"/>
										<path class="st1" d="M898-57.1L898-57.1c-0.3,0.2-0.4,0.4-0.5,0.7c0,0.3,0,0.5,0.2,0.7c0.2,0.3,0.6,0.4,0.9,0.4
											c0.2,0,0.3-0.1,0.4-0.2l0.1-0.1c0.4-0.3,0.5-0.9,0.2-1.4C899-57.3,898.4-57.4,898-57.1L898-57.1z"/>
										<path class="st1" d="M905.6-62.8L905.6-62.8c-0.3,0.3-0.4,0.5-0.5,0.8c0,0.3,0,0.5,0.2,0.7c0.2,0.3,0.6,0.4,0.9,0.4
											c0.2,0,0.3-0.1,0.5-0.2l0.1-0.1c0.2-0.2,0.3-0.4,0.4-0.7c0-0.3,0-0.5-0.2-0.7C906.7-63.1,906-63.1,905.6-62.8z"/>
										<path class="st1" d="M909.3-65.8L909.3-65.8c-0.3,0.3-0.4,0.5-0.4,0.8s0.1,0.5,0.2,0.7c0.2,0.3,0.6,0.4,0.9,0.3
											c0.2,0,0.3-0.1,0.5-0.2l0.1-0.1c0.2-0.2,0.3-0.4,0.3-0.6c0-0.3,0-0.5-0.2-0.7C910.4-66,909.7-66.1,909.3-65.8L909.3-65.8z
											"/>
										<path class="st1" d="M913-68.8L913-68.8c-0.3,0.2-0.4,0.5-0.4,0.7s0.1,0.5,0.2,0.7c0.2,0.3,0.6,0.4,0.9,0.3
											c0.2,0,0.3-0.1,0.5-0.2l0.1-0.1c0.2-0.2,0.3-0.4,0.3-0.7c0-0.3-0.1-0.5-0.2-0.7C914-69.1,913.4-69.2,913-68.8L913-68.8z"
											/>
										<path class="st1" d="M930.4-85.1L930.4-85.1c-0.3,0.3-0.4,0.5-0.4,0.8s0.1,0.5,0.3,0.7c0.2,0.2,0.5,0.3,0.8,0.2
											c0.2,0,0.4-0.1,0.6-0.3l0.1-0.1c0.2-0.2,0.3-0.4,0.3-0.7c0-0.3-0.1-0.5-0.3-0.7C931.4-85.5,930.8-85.5,930.4-85.1
											L930.4-85.1z"/>
										<path class="st1" d="M933.6-88.6L933.6-88.6c-0.3,0.3-0.3,0.5-0.3,0.8s0.1,0.5,0.3,0.7c0.2,0.2,0.5,0.3,0.8,0.2
											c0.2,0,0.4-0.1,0.6-0.3l0.1-0.1c0.2-0.2,0.3-0.4,0.2-0.7c0-0.3-0.1-0.5-0.3-0.7C934.6-89,933.9-89,933.6-88.6L933.6-88.6z
											"/>
										<path class="st1" d="M936.7-92.2L936.7-92.2c-0.3,0.3-0.3,0.5-0.3,0.8c0,0.3,0.2,0.5,0.4,0.7c0.2,0.2,0.5,0.2,0.8,0.2
											c0.2,0,0.5-0.2,0.6-0.3l0.1-0.1c0.3-0.4,0.3-1-0.1-1.4C937.7-92.7,937-92.6,936.7-92.2L936.7-92.2z"/>
										<path class="st1" d="M939.7-96L939.7-96c-0.2,0.3-0.3,0.6-0.3,0.8c0,0.3,0.2,0.5,0.4,0.6c0.2,0.2,0.5,0.2,0.7,0.2
											s0.5-0.2,0.6-0.4l0.1-0.1c0.2-0.2,0.2-0.5,0.2-0.7c0-0.3-0.2-0.5-0.4-0.7C940.6-96.5,940-96.4,939.7-96L939.7-96z"/>
										<path class="st1" d="M943.8-100c-0.4-0.3-1.1-0.2-1.4,0.2l-0.1,0.1c-0.2,0.2-0.2,0.5-0.2,0.7c0.1,0.2,0.2,0.5,0.4,0.6
											c0.2,0.1,0.4,0.2,0.7,0.2c0.3,0,0.5-0.2,0.7-0.4l0.1-0.1c0.2-0.2,0.2-0.5,0.2-0.7C944.2-99.7,944-99.9,943.8-100
											L943.8-100z"/>
									</g>
								</g>
							</g>
							<polygon class="st1" points="621.9,25.1 624.1,25.2 625.5,23.5 626,25.6 628.1,26.4 626.2,27.6 626.1,29.7 624.5,28.3 
								622.4,29 623.2,26.9 							"/>
							<polygon class="st1" points="656.1,26.3 658,25.2 658.1,23 659.8,24.4 661.9,23.8 661,25.8 662.2,27.6 660.1,27.5 
								658.7,29.2 658.2,27.1 							"/>
							<polygon class="st1" points="708.5,20.1 710.3,18.8 710.3,16.7 712.1,18 714.1,17.3 713.4,19.4 714.7,21.1 712.5,21.1 
								711.2,22.8 710.6,20.7 							"/>
							<polygon class="st1" points="810.3,-11 812.4,-10.5 814.1,-11.9 814.2,-9.8 816.1,-8.7 814,-7.8 813.6,-5.7 812.2,-7.4 
								810,-7.2 811.2,-9 							"/>
							<polygon class="st1" points="878.5,-46.5 880.6,-46 882.2,-47.4 882.4,-45.2 884.2,-44.1 882.2,-43.3 881.7,-41.2 
								880.3,-42.9 878.2,-42.7 879.3,-44.5 							"/>
							<polygon class="st1" points="916.6,-75.3 918.7,-74.8 920.3,-76.2 920.5,-74 922.3,-72.9 920.3,-72.1 919.8,-70 918.4,-71.7 
								916.2,-71.5 917.4,-73.3 							"/>
							<polygon class="st1" points="777.7,3 779.5,1.8 779.5,-0.4 781.3,0.9 783.3,0.2 782.6,2.3 783.9,4.1 781.7,4 780.4,5.8 
								779.8,3.7 							"/>
							<polygon class="st1" points="740.8,11.6 743,11.5 744.2,9.7 744.9,11.7 747,12.3 745.3,13.6 745.4,15.8 743.6,14.6 
								741.6,15.4 742.2,13.3 							"/>
							<polygon class="st1" points="597.3,23.7 599.2,23.1 599.9,21.2 601,22.9 603,23 601.7,24.5 602.3,26.4 600.4,25.7 
								598.8,26.8 598.9,24.9 							"/>
							<polygon class="st1" points="848.9,-27.9 850.8,-28.4 851.5,-30.3 852.5,-28.6 854.5,-28.6 853.3,-27 853.9,-25.1 852,-25.8 
								850.4,-24.7 850.5,-26.7 							"/>
						</g>
						<g>
							<g>
								<g>
									<path class="st1" d="M515.6,4.2c0.3,0.1,0.6-0.1,0.7-0.4c0.1-0.3-0.1-0.6-0.4-0.7h-0.1c-0.3-0.1-0.6,0.1-0.7,0.3
										c-0.1,0.3,0.1,0.6,0.4,0.7L515.6,4.2C515.5,4.2,515.5,4.2,515.6,4.2z"/>
									<path class="st1" d="M456.5-22.8c0.2,0.1,0.5-0.1,0.6-0.3c0.1-0.3,0-0.6-0.2-0.8l-0.1-0.1c-0.3-0.1-0.6,0-0.8,0.2
										c-0.2,0.3,0,0.6,0.2,0.8l0.1,0.1C456.4-22.8,456.5-22.8,456.5-22.8L456.5-22.8z"/>
									<path class="st1" d="M448.1-27.3c0.2,0.1,0.5-0.1,0.6-0.3c0.2-0.3,0-0.6-0.2-0.8l-0.1-0.1c-0.3-0.2-0.6-0.1-0.8,0.2
										c-0.2,0.3-0.1,0.6,0.2,0.8l0.1,0.1C448-27.4,448.1-27.3,448.1-27.3L448.1-27.3z"/>
									<g>
										<path class="st1" d="M520.5,3.6c0.7,0.2,1.2,0.9,1,1.6s-0.9,1.2-1.6,1c-0.7-0.2-1.2-0.9-1-1.6S519.8,3.4,520.5,3.6z"/>
										<path class="st1" d="M546,11.9c0.7,0.2,1.2,0.9,1,1.6s-0.9,1.2-1.6,1c-0.7-0.2-1.2-0.9-1-1.6S545.2,11.7,546,11.9z"/>
										<path class="st1" d="M487-9.9c0.7,0.2,1.2,0.9,1,1.6s-0.9,1.2-1.6,1s-1.2-0.9-1-1.6S486.3-10.1,487-9.9z"/>
										<path class="st1" d="M452.6-26.8c0.7,0.2,1.2,0.9,1,1.6s-0.9,1.2-1.6,1s-1.2-0.9-1-1.6S451.8-26.9,452.6-26.8z"/>
										<path class="st1" d="M431.9-39c0.7,0.2,1.2,0.9,1,1.6s-0.9,1.2-1.6,1s-1.2-0.9-1-1.6S431.2-39.2,431.9-39z"/>
									</g>
								</g>
								<g>
									
										<rect x="356.4" y="-98.3" transform="matrix(0.8502 -0.5265 0.5265 0.8502 104.8097 173.5375)" class="st1" width="1.8" height="1.8"/>
									<g>
										<path class="st1" d="M551.9,13.7L551.9,13.7c0.3,0.1,0.6,0.2,0.7,0.4s0.2,0.5,0.1,0.7c-0.1,0.5-0.7,0.8-1.2,0.7l0,0h-0.1
											c-0.2-0.1-0.5-0.2-0.6-0.4s-0.2-0.5-0.1-0.7C550.8,13.9,551.3,13.5,551.9,13.7L551.9,13.7z"/>
										<path class="st1" d="M534.1,8.5L534.1,8.5L534.1,8.5c0.3,0.1,0.6,0.2,0.7,0.5s0.2,0.5,0.1,0.7c-0.2,0.5-0.7,0.8-1.1,0.7
											l0,0l0,0l-0.2-0.1c-0.2-0.1-0.5-0.2-0.6-0.5s-0.1-0.5-0.1-0.7C533,8.6,533.5,8.3,534.1,8.5L534.1,8.5z"/>
										<path class="st1" d="M511.4,0.7C511.4,0.7,511.5,0.7,511.4,0.7l0.2,0.1c0.5,0.2,0.8,0.8,0.6,1.2c-0.2,0.5-0.7,0.7-1.1,0.6
											c0,0,0,0-0.1,0l-0.2-0.1c-0.2-0.1-0.4-0.3-0.5-0.5s-0.1-0.5,0-0.8C510.4,0.8,510.9,0.6,511.4,0.7L511.4,0.7z"/>
										<path class="st1" d="M539.4,9.9C539.4,9.9,539.5,9.9,539.4,9.9l0.2,0.1c0.5,0.2,0.8,0.8,0.6,1.2c-0.2,0.5-0.7,0.7-1.1,0.6
											c0,0,0,0-0.1,0l-0.2-0.1c-0.2-0.1-0.4-0.3-0.5-0.5s-0.1-0.5,0-0.8C538.4,10,538.9,9.8,539.4,9.9L539.4,9.9z"/>
										<path class="st1" d="M506.9-1C506.9-1,507-1,506.9-1l0.2,0.1c0.2,0.1,0.4,0.3,0.5,0.5s0.1,0.5,0,0.7
											c-0.2,0.4-0.7,0.7-1.1,0.6l0,0h-0.1l-0.1-0.1c-0.2-0.1-0.4-0.3-0.5-0.5s-0.1-0.5,0-0.7C505.9-0.9,506.4-1.1,506.9-1z"/>
										<path class="st1" d="M500.1-4C500.2-4,500.2-4,500.1-4l0.2,0.1c0.2,0.1,0.4,0.3,0.5,0.5s0.1,0.5,0,0.8
											c-0.2,0.4-0.7,0.7-1.1,0.6l0,0l-0.2-0.1c-0.2-0.1-0.4-0.3-0.5-0.5s-0.1-0.5,0-0.8C499.1-3.9,499.6-4.1,500.1-4L500.1-4z"
											/>
										<path class="st1" d="M482.5-11.6c0.1,0,0.1,0,0.2,0.1l0.1,0.1c0.5,0.2,0.7,0.8,0.5,1.3c-0.2,0.4-0.7,0.7-1.1,0.6
											c-0.1,0-0.1,0-0.2-0.1l-0.1-0.1c-0.2-0.1-0.4-0.3-0.5-0.6c-0.1-0.2-0.1-0.5,0-0.7C481.6-11.5,482-11.7,482.5-11.6
											L482.5-11.6z"/>
										<path class="st1" d="M473.8-15.7c0.1,0,0.2,0,0.2,0.1l0.1,0.1c0.2,0.1,0.4,0.3,0.5,0.6c0.1,0.2,0.1,0.5,0,0.7
											c-0.2,0.4-0.7,0.6-1.1,0.5c-0.1,0-0.1,0-0.2-0.1l-0.1-0.1c-0.2-0.1-0.4-0.3-0.5-0.6s-0.1-0.5,0-0.7
											C472.9-15.6,473.4-15.8,473.8-15.7z"/>
										<path class="st1" d="M469.7-17.7l0.1,0.1c0.2,0.1,0.4,0.3,0.5,0.6c0.1,0.2,0.1,0.5,0,0.7c-0.2,0.4-0.7,0.6-1.1,0.5
											c-0.1,0-0.1,0-0.2-0.1l-0.1-0.1c-0.2-0.1-0.4-0.3-0.5-0.6c-0.1-0.2-0.1-0.5,0-0.7C468.7-17.7,469.2-17.9,469.7-17.7
											L469.7-17.7z"/>
										<path class="st1" d="M444.4-31.2l0.1,0.1c0.2,0.1,0.4,0.3,0.5,0.6s0,0.5-0.1,0.7c-0.2,0.4-0.7,0.6-1.1,0.5
											c-0.1,0-0.2-0.1-0.3-0.1l-0.1-0.1c-0.2-0.1-0.4-0.3-0.5-0.6s0-0.5,0.1-0.7C443.4-31.2,444-31.4,444.4-31.2L444.4-31.2z"/>
										<path class="st1" d="M440.3-33.6L440.3-33.6c0.3,0.2,0.5,0.4,0.6,0.7c0.1,0.2,0,0.5-0.1,0.7c-0.2,0.4-0.6,0.6-1.1,0.4
											c-0.1,0-0.2-0.1-0.3-0.1l-0.1-0.1c-0.2-0.1-0.4-0.3-0.5-0.6c-0.1-0.2,0-0.5,0.1-0.7C439.2-33.7,439.8-33.9,440.3-33.6
											L440.3-33.6z"/>
										<path class="st1" d="M419.7-46.3c0.1,0,0.2,0.1,0.3,0.1l0.1,0.1c0.2,0.2,0.4,0.4,0.4,0.6s0,0.5-0.2,0.7
											c-0.2,0.3-0.6,0.5-1,0.4c-0.1,0-0.2-0.1-0.3-0.1l-0.1-0.1c-0.2-0.1-0.4-0.4-0.4-0.6c0-0.2,0-0.5,0.1-0.7
											C418.9-46.2,419.3-46.4,419.7-46.3L419.7-46.3z"/>
										<path class="st1" d="M415.7-49c0.1,0,0.2,0.1,0.3,0.1l0.1,0.1c0.4,0.3,0.6,0.9,0.3,1.3c-0.2,0.3-0.6,0.5-1,0.4
											c-0.1,0-0.2-0.1-0.3-0.1l-0.1-0.1c-0.2-0.2-0.4-0.4-0.4-0.6c0-0.2,0-0.5,0.2-0.7C414.9-48.9,415.3-49.1,415.7-49L415.7-49
											z"/>
										<path class="st1" d="M412.1-51.6L412.1-51.6c0.3,0.3,0.5,0.5,0.5,0.7c0,0.3,0,0.5-0.2,0.7c-0.2,0.3-0.6,0.5-1,0.4
											c-0.1,0-0.2-0.1-0.3-0.2H411c-0.4-0.3-0.5-0.9-0.2-1.3C411.1-51.7,411.7-51.9,412.1-51.6z"/>
										<path class="st1" d="M404.4-57.1l0.1,0.1c0.2,0.2,0.3,0.4,0.4,0.6c0,0.3,0,0.5-0.2,0.7c-0.2,0.3-0.6,0.5-1,0.4
											c-0.1,0-0.2-0.1-0.4-0.2l-0.1-0.1c-0.4-0.3-0.5-0.9-0.2-1.4C403.3-57.3,403.9-57.4,404.4-57.1L404.4-57.1z"/>
										<path class="st1" d="M389.2-68.9L389.2-68.9c0.3,0.2,0.4,0.5,0.5,0.7c0,0.3,0,0.5-0.2,0.7c-0.2,0.3-0.6,0.4-1,0.4
											c-0.1,0-0.3-0.1-0.4-0.2l-0.1-0.1c-0.2-0.2-0.3-0.4-0.4-0.7c0-0.3,0-0.5,0.2-0.7C388.2-69.2,388.8-69.2,389.2-68.9
											L389.2-68.9z"/>
										<path class="st1" d="M385.6-71.8L385.6-71.8c0.3,0.2,0.4,0.5,0.4,0.7c0,0.3,0,0.5-0.2,0.7c-0.2,0.3-0.6,0.4-1,0.3
											c-0.1,0-0.3-0.1-0.4-0.2l-0.1-0.1c-0.2-0.2-0.3-0.4-0.3-0.7c0-0.3,0-0.5,0.2-0.7C384.5-72.1,385.1-72.2,385.6-71.8
											L385.6-71.8z"/>
										<path class="st1" d="M381.9-74.9L381.9-74.9c0.3,0.2,0.4,0.5,0.4,0.7c0,0.3-0.1,0.5-0.2,0.7c-0.2,0.3-0.6,0.4-1,0.3
											c-0.1,0-0.3-0.1-0.4-0.2l-0.1-0.1c-0.4-0.3-0.4-1-0.1-1.4C380.9-75.2,381.5-75.3,381.9-74.9L381.9-74.9z"/>
										<path class="st1" d="M374.8-81.3l0.1,0.1c0.2,0.2,0.3,0.4,0.3,0.7c0,0.3-0.1,0.5-0.3,0.7c-0.2,0.3-0.6,0.4-0.9,0.3
											c-0.2,0-0.3-0.1-0.4-0.2l-0.1-0.1c-0.2-0.2-0.3-0.4-0.3-0.7c0-0.3,0.1-0.5,0.3-0.7C373.8-81.6,374.4-81.7,374.8-81.3
											L374.8-81.3z"/>
										<path class="st1" d="M371.3-84.6l0.1,0.1c0.2,0.2,0.3,0.4,0.3,0.7c0,0.3-0.1,0.5-0.3,0.7c-0.2,0.2-0.6,0.3-0.9,0.3
											c-0.2,0-0.3-0.1-0.5-0.2l-0.1-0.1c-0.2-0.2-0.3-0.4-0.3-0.7c0-0.3,0.1-0.5,0.3-0.7C370.3-84.9,370.9-84.9,371.3-84.6
											L371.3-84.6z"/>
										<path class="st1" d="M367.9-87.9L367.9-87.9c0.3,0.3,0.4,0.5,0.4,0.8s-0.1,0.5-0.3,0.7c-0.2,0.2-0.6,0.3-0.9,0.3
											c-0.2,0-0.3-0.1-0.5-0.3l-0.1-0.1c-0.2-0.2-0.3-0.4-0.3-0.7s0.1-0.5,0.3-0.7C366.9-88.3,367.6-88.3,367.9-87.9L367.9-87.9
											z"/>
										<path class="st1" d="M352-105.6l0.1,0.1c0.2,0.2,0.2,0.5,0.2,0.7c0,0.3-0.2,0.5-0.4,0.7c-0.2,0.2-0.5,0.2-0.8,0.2
											c-0.2,0-0.4-0.2-0.5-0.3l-0.1-0.1c-0.2-0.2-0.2-0.5-0.2-0.7s0.2-0.5,0.4-0.7C351-106.1,351.7-106,352-105.6L352-105.6z"/>
										<path class="st1" d="M349.1-109.3L349.1-109.3c0.2,0.3,0.3,0.6,0.3,0.8c0,0.3-0.2,0.5-0.4,0.7c-0.2,0.2-0.5,0.2-0.8,0.2
											c-0.2-0.1-0.4-0.2-0.5-0.4l-0.1-0.1c-0.2-0.2-0.2-0.5-0.2-0.7c0-0.3,0.2-0.5,0.4-0.6C348.1-109.9,348.7-109.8,349.1-109.3
											L349.1-109.3z"/>
										<path class="st1" d="M346.3-113.2l0.1,0.1c0.1,0.2,0.2,0.5,0.1,0.7c0,0.3-0.2,0.5-0.4,0.6c-0.2,0.1-0.5,0.2-0.8,0.1
											c-0.2-0.1-0.4-0.2-0.6-0.4l-0.1-0.1c-0.3-0.4-0.2-1.1,0.2-1.3C345.3-113.8,346-113.6,346.3-113.2L346.3-113.2z"/>
										<path class="st1" d="M343.6-117.2l0.1,0.1c0.1,0.2,0.2,0.5,0.1,0.7c0,0.3-0.2,0.5-0.4,0.6c-0.2,0.1-0.5,0.2-0.8,0.1
											c-0.2-0.1-0.5-0.2-0.6-0.4l-0.1-0.1c-0.1-0.2-0.2-0.5-0.1-0.7c0-0.2,0.2-0.5,0.4-0.6C342.7-117.7,343.4-117.6,343.6-117.2
											L343.6-117.2z"/>
										<path class="st1" d="M339.8-121.6c0.5-0.3,1.1-0.1,1.3,0.3l0.1,0.1c0.1,0.2,0.2,0.5,0.1,0.7s-0.2,0.5-0.5,0.6
											c-0.2,0.1-0.5,0.2-0.7,0.1c-0.3-0.1-0.5-0.2-0.6-0.5l-0.1-0.1c-0.1-0.2-0.2-0.5-0.1-0.7
											C339.5-121.2,339.6-121.4,339.8-121.6L339.8-121.6z"/>
									</g>
								</g>
							</g>
							<polygon class="st1" points="562.3,17.1 560.6,15.8 560.8,13.6 559,14.8 557,13.9 557.5,16 556.1,17.7 558.3,17.8 
								559.4,19.7 560.2,17.7 							"/>
							<polygon class="st1" points="465.5,-21.8 463.3,-21.5 461.8,-23 461.5,-20.9 459.5,-19.9 461.5,-18.9 461.8,-16.8 
								463.3,-18.3 465.5,-18 464.5,-19.9 							"/>
							<polygon class="st1" points="400.5,-62.8 398.4,-62.5 396.8,-64 396.5,-61.9 394.6,-60.9 396.5,-59.9 396.8,-57.8 
								398.3,-59.3 400.5,-59 399.5,-60.9 							"/>
							<polygon class="st1" points="364.9,-94.7 362.8,-94.3 361.3,-95.9 361,-93.7 359,-92.8 360.9,-91.8 361.2,-89.6 362.8,-91.2 
								364.9,-90.8 363.9,-92.8 							"/>
							<polygon class="st1" points="496.8,-5.1 495.1,-6.5 495.3,-8.7 493.5,-7.5 491.4,-8.3 492,-6.2 490.6,-4.6 492.8,-4.5 
								493.9,-2.6 494.7,-4.6 							"/>
							<polygon class="st1" points="530.8,6 528.7,5.8 527.7,3.8 526.8,5.8 524.6,6.2 526.2,7.7 525.9,9.8 527.8,8.8 529.8,9.7 
								529.3,7.6 							"/>
							<polygon class="st1" points="428.5,-41.8 426.6,-42.5 426.1,-44.4 424.9,-42.9 422.9,-43 424,-41.3 423.3,-39.5 425.2,-40 
								426.7,-38.8 426.8,-40.8 							"/>
						</g>
					</g>
					<g>
						<g>
							<g>
								<g>
									<path class="st1" d="M918.3,31.2c-0.3,0-0.6-0.1-0.6-0.4c-0.1-0.3,0.1-0.6,0.4-0.7h0.1c0.3-0.1,0.6,0.1,0.7,0.4
										c0.1,0.3-0.1,0.6-0.4,0.7H918.3C918.4,31.2,918.4,31.2,918.3,31.2L918.3,31.2z"/>
									<path class="st1" d="M839.3,40.3c-0.3,0-0.5-0.2-0.6-0.5s0.2-0.6,0.5-0.7h0.1c0.3-0.1,0.6,0.1,0.7,0.4s-0.2,0.6-0.5,0.7
										L839.3,40.3L839.3,40.3L839.3,40.3z"/>
									<path class="st1" d="M941.4,24.7c-0.3,0.1-0.6-0.1-0.7-0.4s0.1-0.6,0.4-0.7h0.1c0.3-0.1,0.6,0.1,0.7,0.4
										S941.8,24.6,941.4,24.7L941.4,24.7C941.4,24.6,941.4,24.6,941.4,24.7L941.4,24.7z"/>
									<path class="st1" d="M1003.2-1c-0.2,0.1-0.5-0.1-0.6-0.3c-0.1-0.3,0-0.6,0.2-0.8l0.1-0.1c0.3-0.1,0.6,0,0.8,0.3
										s0,0.6-0.2,0.8l-0.1,0.1C1003.3-1.1,1003.2-1,1003.2-1L1003.2-1z"/>
									<path class="st1" d="M1011.7-5.4c-0.2,0.1-0.5-0.1-0.6-0.3c-0.1-0.3,0-0.6,0.2-0.8l0.1-0.1c0.3-0.2,0.6,0,0.8,0.2
										c0.1,0.3,0,0.6-0.2,0.8l-0.1,0.1C1011.9-5.4,1011.8-5.4,1011.7-5.4L1011.7-5.4z"/>
									<g>
										<path class="st1" d="M936.4,23.9c-0.7,0.1-1.2,0.9-1.1,1.6c0.2,0.7,0.9,1.2,1.6,1.1s1.2-0.9,1.1-1.6
											C937.8,24.3,937.1,23.8,936.4,23.9L936.4,23.9z"/>
										<path class="st1" d="M877.4,35.7c-0.7,0.1-1.2,0.8-1.2,1.5c0.1,0.7,0.8,1.2,1.5,1.2c0.7-0.1,1.2-0.8,1.2-1.5
											C878.8,36.2,878.1,35.7,877.4,35.7L877.4,35.7z"/>
										<path class="st1" d="M764.8,31.9c-0.7,0.1-1.2,0.8-1.2,1.5c0.1,0.7,0.8,1.2,1.5,1.2c0.7-0.1,1.2-0.8,1.2-1.5
											C766.2,32.3,765.6,31.8,764.8,31.9L764.8,31.9z"/>
										<path class="st1" d="M859.6,37.3c-0.7,0.1-1.2,0.8-1.2,1.5c0.1,0.7,0.8,1.2,1.5,1.2c0.7-0.1,1.2-0.8,1.2-1.5
											C861.1,37.7,860.4,37.2,859.6,37.3L859.6,37.3z"/>
										<path class="st1" d="M824.7,38c-0.7,0.1-1.3,0.7-1.2,1.5c0.1,0.7,0.7,1.3,1.5,1.2c0.7-0.1,1.3-0.7,1.2-1.5
											C826.1,38.5,825.4,38,824.7,38z"/>
										<path class="st1" d="M911.6,30.4c-0.7,0.1-1.2,0.8-1.2,1.5c0.1,0.7,0.8,1.2,1.5,1.2c0.7-0.1,1.2-0.8,1.2-1.5
											C913,30.9,912.3,30.3,911.6,30.4z"/>
										<path class="st1" d="M972.3,10.9c-0.7,0.1-1.2,0.9-1.1,1.6c0.2,0.7,0.9,1.2,1.6,1.1c0.7-0.1,1.2-0.9,1.1-1.6
											C973.7,11.2,973,10.8,972.3,10.9L972.3,10.9z"/>
										<path class="st1" d="M1007.3-4.9c-0.7,0.2-1.2,0.9-1.1,1.6c0.2,0.7,0.9,1.2,1.6,1.1c0.7-0.2,1.2-0.9,1.1-1.6
											C1008.7-4.6,1008-5.1,1007.3-4.9z"/>
										<path class="st1" d="M1028.3-16.6c-0.7,0.2-1.2,0.9-1.1,1.6c0.2,0.7,0.9,1.2,1.6,1.1c0.7-0.2,1.2-0.9,1.1-1.6
											C1029.7-16.2,1029-16.7,1028.3-16.6L1028.3-16.6z"/>
										
											<rect x="953.7" y="18.5" transform="matrix(0.5506 -0.8348 0.8348 0.5506 412.8507 805.629)" class="st1" width="1.8" height="1.8"/>
									</g>
								</g>
								<g>
									<path class="st1" d="M885.1,34.9L885.1,34.9c-0.6,0.1-1,0.6-0.9,1.1c0.1,0.5,0.5,0.9,1.1,0.9h0.1l0,0
										c0.5-0.1,0.9-0.6,0.8-1.1C886.2,35.2,885.7,34.8,885.1,34.9L885.1,34.9z"/>
									<path class="st1" d="M889.9,34.2L889.9,34.2c-0.4,0-0.6,0.2-0.7,0.4c-0.2,0.2-0.2,0.5-0.2,0.7c0.1,0.5,0.6,0.9,1.1,0.8l0,0
										h0.1c0.2,0,0.5-0.2,0.6-0.4c0.2-0.2,0.2-0.5,0.2-0.7C890.9,34.5,890.4,34.2,889.9,34.2L889.9,34.2z"/>
									<path class="st1" d="M904.7,31.9L904.7,31.9c-0.4,0-0.6,0.2-0.7,0.4s-0.2,0.5-0.2,0.7c0.1,0.5,0.6,0.9,1.1,0.8l0,0h0.1
										c0.3,0,0.5-0.2,0.6-0.4c0.2-0.2,0.2-0.5,0.2-0.7C905.7,32.2,905.2,31.9,904.7,31.9L904.7,31.9z"/>
									<path class="st1" d="M870.9,36.5h-0.2c-0.5,0.1-0.9,0.5-0.8,1.1c0,0.3,0.2,0.5,0.3,0.7c0.2,0.2,0.5,0.2,0.7,0.2h0.2l0,0
										l0,0c0.5-0.1,0.9-0.5,0.8-1.1c0-0.3-0.2-0.5-0.3-0.7C871.4,36.5,871.2,36.5,870.9,36.5L870.9,36.5z"/>
									<path class="st1" d="M866.1,36.9h-0.2c-0.5,0.1-0.9,0.5-0.8,1.1c0,0.3,0.2,0.5,0.3,0.7c0.2,0.2,0.5,0.2,0.7,0.2h0.2l0,0
										l0,0c0.5-0.1,0.9-0.5,0.8-1.1C867.2,37.3,866.7,36.9,866.1,36.9L866.1,36.9z"/>
									<path class="st1" d="M853.2,38H853c-0.5,0.1-0.9,0.5-0.8,1c0,0.3,0.1,0.5,0.3,0.7s0.4,0.3,0.7,0.2h0.2
										c0.5-0.1,0.9-0.5,0.8-1c0-0.3-0.1-0.5-0.3-0.7C853.7,38.1,853.4,38,853.2,38L853.2,38z"/>
									<path class="st1" d="M922.8,28.5L922.8,28.5L922.8,28.5c-0.4,0.1-0.6,0.2-0.7,0.4s-0.2,0.5-0.1,0.7
										c0.1,0.5,0.6,0.8,1.1,0.8h0.1h0.2c0.2-0.1,0.5-0.2,0.6-0.4s0.2-0.5,0.1-0.7C923.9,28.8,923.4,28.5,922.8,28.5L922.8,28.5z"
										/>
									<path class="st1" d="M834.3,38.8h-0.2c-0.5,0-0.9,0.4-1,0.9c0,0.5,0.4,1,0.9,1h0.2l0,0l0,0c0.5-0.1,0.9-0.4,0.9-0.9
										c0-0.3-0.1-0.5-0.3-0.7C834.9,38.9,834.6,38.8,834.3,38.8L834.3,38.8z"/>
									<path class="st1" d="M829.6,38.6h-0.2c-0.5,0-0.9,0.4-1,0.9c0,0.3,0.1,0.5,0.3,0.7s0.4,0.3,0.7,0.3h0.2l0,0l0,0
										c0.5-0.1,0.9-0.4,0.9-0.9c0-0.3-0.1-0.5-0.3-0.7S829.8,38.6,829.6,38.6L829.6,38.6z"/>
									<path class="st1" d="M945.6,21.3C945.6,21.3,945.5,21.3,945.6,21.3l-0.2,0.1c-0.5,0.2-0.8,0.7-0.6,1.2
										c0.2,0.5,0.6,0.7,1.1,0.6c0,0,0,0,0.1,0l0.2-0.1c0.2-0.1,0.4-0.3,0.6-0.5c0.1-0.2,0.1-0.5,0.1-0.7
										C946.6,21.4,946.1,21.2,945.6,21.3L945.6,21.3z"/>
									<path class="st1" d="M819.7,38.1h-0.2c-0.5,0-0.9,0.4-1,0.9c0,0.3,0.1,0.5,0.2,0.7c0.2,0.2,0.4,0.3,0.7,0.3h0.1
										c0,0,0.1,0,0.2,0c0.5,0,0.8-0.4,0.9-0.9c0-0.3-0.1-0.5-0.2-0.7C820.2,38.2,820,38.1,819.7,38.1L819.7,38.1z"/>
									<path class="st1" d="M959.1,16.5C959,16.5,959,16.5,959.1,16.5l-0.2,0.1c-0.2,0.1-0.4,0.3-0.5,0.5s-0.1,0.5,0,0.7
										c0.2,0.4,0.6,0.7,1.1,0.6c0,0,0,0,0.1,0l0.2-0.1c0.2-0.1,0.4-0.3,0.5-0.5s0.1-0.5,0-0.8C960.1,16.6,959.6,16.4,959.1,16.5
										L959.1,16.5z"/>
									<path class="st1" d="M976.9,9.4c-0.1,0-0.1,0-0.2,0.1l-0.1,0.1c-0.5,0.2-0.7,0.8-0.5,1.3c0.2,0.4,0.6,0.7,1.1,0.6
										c0.1,0,0.1,0,0.2-0.1l0.1-0.1c0.2-0.1,0.4-0.3,0.5-0.5s0.1-0.5,0-0.7C977.8,9.5,977.3,9.3,976.9,9.4L976.9,9.4z"/>
									<path class="st1" d="M798.7,37.4L798.7,37.4c-0.6-0.1-1.1,0.3-1.2,0.9c0,0.3,0,0.5,0.2,0.7s0.4,0.3,0.7,0.4h0.1
										c0.1,0,0.2,0,0.2,0c0.5-0.1,0.8-0.4,0.8-0.9c0-0.3,0-0.5-0.2-0.7C799.2,37.5,799,37.4,798.7,37.4L798.7,37.4z"/>
									<path class="st1" d="M803.9,39.6c0.3,0.1,0.6-0.1,0.7-0.4c0.1-0.3,0-0.6-0.3-0.7h-0.1c-0.3-0.1-0.6,0.1-0.7,0.3
										s0,0.6,0.3,0.7L803.9,39.6C803.8,39.6,803.9,39.6,803.9,39.6L803.9,39.6z"/>
									<path class="st1" d="M793.4,36.7L793.4,36.7c-0.6-0.1-1.1,0.3-1.2,0.9c0,0.3,0,0.5,0.2,0.7s0.4,0.3,0.7,0.4h0.2
										c0.1,0,0.2,0,0.2,0c0.5-0.1,0.8-0.4,0.8-0.9c0-0.3,0-0.5-0.2-0.7C793.9,36.9,793.7,36.8,793.4,36.7L793.4,36.7z"/>
									<path class="st1" d="M985.7,5.6c-0.1,0-0.2,0-0.2,0.1l-0.1,0.1c-0.2,0.1-0.4,0.3-0.5,0.5s-0.1,0.5,0,0.7
										c0.2,0.4,0.6,0.6,1.1,0.6c0.1,0,0.1,0,0.2-0.1l0.1-0.1c0.2-0.1,0.4-0.3,0.5-0.5s0.1-0.5,0-0.7
										C986.6,5.7,986.1,5.5,985.7,5.6L985.7,5.6z"/>
									<path class="st1" d="M989.8,3.7L989.8,3.7c-0.3,0.2-0.5,0.4-0.6,0.7s-0.1,0.5,0,0.7c0.2,0.4,0.6,0.6,1.1,0.6
										c0.1,0,0.1,0,0.2-0.1l0.1-0.1c0.2-0.1,0.4-0.3,0.5-0.6c0.1-0.2,0.1-0.5,0-0.8C990.9,3.7,990.3,3.4,989.8,3.7L989.8,3.7z"/>
									<path class="st1" d="M778.6,34.8L778.6,34.8c-0.6-0.1-1.1,0.3-1.2,0.8c0,0.3,0,0.5,0.2,0.7s0.4,0.4,0.6,0.4h0.1
										c0.1,0,0.2,0,0.3,0c0.4-0.1,0.8-0.4,0.8-0.8c0-0.3,0-0.5-0.2-0.7C779.1,35,778.9,34.9,778.6,34.8L778.6,34.8z"/>
									<path class="st1" d="M772.8,33.9L772.8,33.9c-0.6-0.1-1.1,0.3-1.2,0.8s0.3,1,0.8,1.1h0.1c0.1,0,0.2,0,0.3,0
										c0.4-0.1,0.8-0.4,0.8-0.8c0-0.3,0-0.5-0.2-0.7C773.2,34.1,773,33.9,772.8,33.9L772.8,33.9z"/>
									<path class="st1" d="M759.1,31L759.1,31c-0.6-0.1-1.1,0.2-1.2,0.7c0,0.2,0,0.5,0.1,0.7s0.4,0.4,0.7,0.4l0,0
										c0.1,0,0.2,0,0.3,0c0.4-0.1,0.7-0.4,0.8-0.8C760,31.6,759.6,31.1,759.1,31L759.1,31z"/>
									<path class="st1" d="M1015.5-9.1l-0.1,0.1c-0.2,0.1-0.4,0.3-0.5,0.6s-0.1,0.5,0.1,0.7c0.2,0.4,0.6,0.6,1.1,0.5
										c0.1,0,0.2-0.1,0.3-0.1l0.1-0.1c0.2-0.1,0.4-0.3,0.5-0.6c0.1-0.2,0.1-0.5-0.1-0.7C1016.6-9.1,1016-9.3,1015.5-9.1
										L1015.5-9.1z"/>
									<path class="st1" d="M1019.7-11.4l-0.1,0.1c-0.2,0.1-0.4,0.3-0.5,0.6s0,0.5,0.1,0.7c0.2,0.4,0.6,0.6,1.1,0.5
										c0.1,0,0.2-0.1,0.3-0.1l0.1-0.1c0.2-0.1,0.4-0.3,0.5-0.6c0.1-0.2,0-0.5-0.1-0.7C1020.8-11.4,1020.2-11.6,1019.7-11.4
										L1019.7-11.4z"/>
									<path class="st1" d="M752.3,29.5L752.3,29.5c-0.6-0.1-1.2,0.2-1.3,0.7c-0.1,0.5,0.2,1.1,0.7,1.2h0.1c0.1,0,0.2,0,0.4,0
										c0.4-0.1,0.7-0.3,0.8-0.7c0.1-0.2,0-0.5-0.1-0.7C752.8,29.8,752.6,29.6,752.3,29.5L752.3,29.5z"/>
									<path class="st1" d="M1040.7-23.5c-0.1,0-0.2,0.1-0.3,0.1l-0.1,0.1c-0.2,0.1-0.4,0.3-0.4,0.6c-0.1,0.2,0,0.5,0.1,0.7
										c0.2,0.3,0.6,0.5,1,0.4c0.1,0,0.2-0.1,0.3-0.1l0.1-0.1c0.2-0.1,0.4-0.3,0.4-0.6s0-0.5-0.1-0.7
										C1041.5-23.4,1041-23.6,1040.7-23.5L1040.7-23.5z"/>
									<path class="st1" d="M1044.7-26.1c-0.1,0-0.2,0.1-0.3,0.1l-0.1,0.1c-0.4,0.3-0.6,0.9-0.3,1.3c0.2,0.3,0.6,0.5,1,0.4
										c0.1,0,0.2-0.1,0.3-0.1l0.1-0.1c0.2-0.1,0.4-0.4,0.4-0.6s0-0.5-0.1-0.7C1045.5-26,1045.1-26.2,1044.7-26.1z"/>
									<path class="st1" d="M1050.6-30.2l-0.1,0.1c-0.2,0.1-0.4,0.4-0.4,0.6s0,0.5,0.1,0.7c0.2,0.3,0.6,0.5,1,0.4
										c0.1,0,0.2-0.1,0.3-0.1l0.1-0.1c0.4-0.3,0.6-0.9,0.3-1.3C1051.7-30.4,1051.1-30.5,1050.6-30.2z"/>
									<path class="st1" d="M1056.3-33.9L1056.3-33.9c-0.3,0.3-0.5,0.5-0.5,0.7c-0.1,0.2,0,0.5,0.2,0.7c0.2,0.3,0.6,0.5,1,0.4
										c0.1,0,0.2-0.1,0.4-0.2l0.1-0.1c0.4-0.3,0.6-0.9,0.2-1.3C1057.4-34,1056.8-34.2,1056.3-33.9L1056.3-33.9z"/>
									<path class="st1" d="M1071.8-45.3L1071.8-45.3c-0.3,0.2-0.4,0.4-0.5,0.7s0,0.5,0.2,0.7c0.2,0.3,0.6,0.5,1,0.4
										c0.1,0,0.3-0.1,0.4-0.2l0.1-0.1c0.2-0.2,0.3-0.4,0.4-0.6s0-0.5-0.2-0.7C1072.9-45.5,1072.2-45.6,1071.8-45.3L1071.8-45.3z"
										/>
									<path class="st1" d="M1067.9-42.2L1067.9-42.2c-0.5,0.4-0.6,1-0.3,1.4c0.2,0.3,0.6,0.4,1,0.4c0.1,0,0.3-0.1,0.4-0.2
										l0.1-0.1c0.2-0.2,0.3-0.4,0.4-0.6c0-0.2,0-0.5-0.2-0.7C1069-42.5,1068.4-42.5,1067.9-42.2L1067.9-42.2z"/>
									<path class="st1" d="M1075.5-48.1L1075.5-48.1c-0.3,0.2-0.4,0.5-0.5,0.7c0,0.3,0,0.5,0.2,0.7c0.2,0.3,0.6,0.4,1,0.3
										c0.2,0,0.3-0.1,0.4-0.2l0.1-0.1c0.2-0.2,0.3-0.4,0.4-0.7c0-0.3,0-0.5-0.2-0.7C1076.6-48.3,1075.9-48.4,1075.5-48.1
										L1075.5-48.1z"/>
									<path class="st1" d="M1079.2-51.1L1079.2-51.1c-0.3,0.2-0.4,0.5-0.4,0.7s0.1,0.5,0.2,0.7c0.2,0.3,0.6,0.4,1,0.3
										c0.2,0,0.3-0.1,0.4-0.2l0.1-0.1c0.4-0.3,0.5-1,0.1-1.4C1080.3-51.3,1079.7-51.4,1079.2-51.1L1079.2-51.1z"/>
								</g>
							</g>
							<polygon class="st1" points="808.6,37.2 810.7,37.4 812.1,35.7 812.6,37.8 814.6,38.6 812.8,39.7 812.7,41.9 811,40.5 
								808.9,41 809.8,39 							"/>
							<polygon class="st1" points="842.8,39.7 844.6,38.6 844.7,36.4 846.4,37.9 848.5,37.3 847.6,39.3 848.8,41.2 846.6,41 
								845.3,42.7 844.8,40.5 							"/>
							<polygon class="st1" points="893.9,34.3 895.7,33.2 895.8,31 897.5,32.3 899.5,31.7 898.8,33.7 900,35.5 897.8,35.4 
								896.5,37.2 895.9,35.1 							"/>
							<polygon class="st1" points="994.2,-0.3 996.3,0.1 997.9,-1.4 998.2,0.7 1000.1,1.7 998.1,2.6 997.7,4.8 996.3,3.2 
								994.1,3.5 995.2,1.6 							"/>
							<polygon class="st1" points="1060.3,-39.5 1062.5,-39.1 1064,-40.6 1064.3,-38.4 1066.2,-37.4 1064.2,-36.5 1063.9,-34.3 
								1062.4,-35.9 1060.2,-35.6 1061.3,-37.5 							"/>
							<polygon class="st1" points="962.4,15.4 964.2,14.1 964,11.9 965.8,13.2 967.9,12.4 967.2,14.5 968.6,16.2 966.4,16.2 
								965.2,18.1 964.5,16 							"/>
							<polygon class="st1" points="926.3,26.4 928.5,26.4 929.7,24.6 930.4,26.6 932.5,27.2 930.8,28.5 930.8,30.7 929.1,29.4 
								927,30.2 927.7,28.1 							"/>
							<polygon class="st1" points="783.6,36.1 785.5,35.6 786.2,33.7 787.3,35.4 789.3,35.5 788,37 788.5,39 786.7,38.2 785,39.3 
								785.1,37.3 							"/>
							<polygon class="st1" points="1031.8,-19.3 1033.7,-19.9 1034.2,-21.8 1035.4,-20.2 1037.4,-20.3 1036.2,-18.7 1036.9,-16.8 
								1035,-17.4 1033.4,-16.2 1033.4,-18.2 							"/>
						</g>
						<g>
							<g>
								<g>
									<path class="st1" d="M711.1,15.8c0.3,0.1,0.6-0.1,0.7-0.3c0.1-0.3,0-0.6-0.3-0.7l-0.1-0.1c-0.3-0.1-0.6,0-0.7,0.3
										c-0.1,0.3,0,0.6,0.3,0.7L711.1,15.8L711.1,15.8z"/>
									<path class="st1" d="M644-19.6c0.2,0.1,0.5,0,0.7-0.2c0.2-0.3,0.1-0.6-0.2-0.8l-0.1-0.1c-0.3-0.2-0.6-0.1-0.8,0.2
										c-0.2,0.3-0.1,0.6,0.2,0.8L644-19.6C643.8-19.7,643.9-19.6,644-19.6L644-19.6z"/>
									<path class="st1" d="M635.9-24.8c0.2,0.1,0.5,0,0.6-0.2c0.2-0.3,0.1-0.6-0.2-0.8l-0.1-0.1c-0.3-0.2-0.6-0.1-0.8,0.2
										c-0.2,0.3-0.1,0.6,0.2,0.8l0.1,0.1C635.8-24.9,635.9-24.8,635.9-24.8L635.9-24.8z"/>
									<g>
										<path class="st1" d="M705.8,11.5c0.7,0.2,1.1,1,0.9,1.7c-0.2,0.7-1,1.1-1.7,0.9c-0.7-0.2-1.1-1-0.9-1.7
											C704.4,11.7,705.1,11.3,705.8,11.5L705.8,11.5z"/>
										<path class="st1" d="M730.9,22.5c0.7,0.2,1.1,1,0.9,1.7c-0.2,0.7-1,1.1-1.7,0.9s-1.1-1-0.9-1.7
											C729.5,22.6,730.2,22.2,730.9,22.5z"/>
										<path class="st1" d="M673.4-4.5c0.7,0.2,1.1,1,0.9,1.7s-1,1.1-1.7,0.9c-0.7-0.2-1.1-1-0.9-1.7
											C672-4.4,672.7-4.8,673.4-4.5L673.4-4.5z"/>
										<path class="st1" d="M640.3-23.9c0.7,0.2,1.1,1,0.9,1.7s-1,1.1-1.7,0.9s-1.1-1-0.9-1.7C638.8-23.7,639.6-24.1,640.3-23.9z
											"/>
										<path class="st1" d="M620.6-37.6c0.7,0.2,1.1,1,0.9,1.7c-0.2,0.7-1,1.1-1.7,0.9c-0.7-0.2-1.1-1-0.9-1.7
											C619.1-37.5,619.9-37.9,620.6-37.6z"/>
									</g>
								</g>
								<g>
									<path class="st1" d="M737.3,25.4L737.3,25.4c0.3,0.1,0.6,0.2,0.7,0.5c0.1,0.2,0.2,0.5,0.1,0.7c-0.1,0.5-0.7,0.8-1.2,0.7
										l0,0h-0.1c-0.2-0.1-0.5-0.2-0.6-0.4c-0.1-0.2-0.2-0.5-0.1-0.7C736.3,25.5,736.8,25.2,737.3,25.4L737.3,25.4z"/>
									<path class="st1" d="M692.1,5.9C692.1,5.9,692.2,5.9,692.1,5.9l0.2,0.1c0.5,0.2,0.7,0.8,0.5,1.3c-0.2,0.4-0.7,0.7-1.2,0.5
										c0,0,0,0-0.1,0l-0.2-0.1c-0.2-0.1-0.4-0.3-0.5-0.6c-0.1-0.2-0.1-0.5,0-0.7C691.1,5.9,691.6,5.7,692.1,5.9L692.1,5.9z"/>
									<path class="st1" d="M724.6,20L724.6,20l0.2,0.1c0.5,0.2,0.7,0.8,0.5,1.3c-0.2,0.4-0.7,0.7-1.2,0.5c0,0,0,0-0.1,0l-0.2-0.1
										c-0.2-0.1-0.4-0.3-0.5-0.6c-0.1-0.2-0.1-0.5,0-0.8C723.6,20,724.1,19.8,724.6,20L724.6,20z"/>
									<path class="st1" d="M688.5,3.8C688.5,3.8,688.5,3.9,688.5,3.8l0.2,0.1c0.2,0.1,0.4,0.3,0.5,0.6c0.1,0.2,0.1,0.5,0,0.7
										c-0.2,0.4-0.7,0.7-1.2,0.5l0,0h-0.1l-0.1-0.1c-0.2-0.1-0.4-0.3-0.5-0.6c-0.1-0.2-0.1-0.5,0-0.7
										C687.5,3.9,688,3.7,688.5,3.8L688.5,3.8z"/>
									<path class="st1" d="M683.3,1L683.3,1l0.2,0.1c0.2,0.1,0.4,0.3,0.5,0.6c0.1,0.2,0.1,0.5-0.1,0.7c-0.2,0.4-0.7,0.6-1.2,0.5
										l0,0l-0.2-0.1c-0.2-0.1-0.4-0.3-0.5-0.6c-0.1-0.2-0.1-0.5,0-0.7C682.3,1,682.8,0.8,683.3,1L683.3,1z"/>
									<path class="st1" d="M669-6.5c0.1,0,0.1,0.1,0.2,0.1l0.1,0.1c0.5,0.3,0.7,0.8,0.4,1.3c-0.2,0.4-0.7,0.6-1.2,0.5
										c-0.1,0-0.1-0.1-0.2-0.1l-0.1-0.1c-0.2-0.1-0.4-0.3-0.5-0.6s0-0.5,0.1-0.7C668.1-6.5,668.6-6.7,669-6.5L669-6.5z"/>
									<path class="st1" d="M660.7-11.2c0.1,0,0.1,0.1,0.2,0.1L661-11c0.2,0.1,0.4,0.3,0.5,0.6s0,0.5-0.1,0.7
										c-0.2,0.4-0.7,0.6-1.1,0.4c-0.1,0-0.1-0.1-0.2-0.1L660-9.5c-0.2-0.1-0.4-0.3-0.5-0.6s0-0.5,0.1-0.7
										C659.8-11.2,660.3-11.4,660.7-11.2L660.7-11.2z"/>
									<path class="st1" d="M656.8-13.6l0.1,0.1c0.2,0.1,0.4,0.3,0.5,0.6c0.1,0.2,0,0.5-0.1,0.7c-0.2,0.4-0.7,0.6-1.1,0.4
										c-0.1,0-0.1-0.1-0.2-0.1l-0.1-0.1c-0.2-0.1-0.4-0.3-0.5-0.6c-0.1-0.2,0-0.5,0.1-0.7C655.7-13.7,656.3-13.8,656.8-13.6z"/>
									<path class="st1" d="M632.5-28.9l0.1,0.1c0.2,0.1,0.4,0.4,0.4,0.6c0,0.3,0,0.5-0.2,0.7c-0.2,0.3-0.7,0.5-1.1,0.4
										c-0.1,0-0.2-0.1-0.2-0.1l-0.1-0.1c-0.2-0.1-0.4-0.4-0.4-0.6c0-0.3,0-0.5,0.2-0.7C631.5-29.1,632.1-29.2,632.5-28.9z"/>
									<path class="st1" d="M628.6-31.6l0.1,0.1c0.2,0.2,0.4,0.4,0.4,0.6c0,0.3,0,0.5-0.2,0.7c-0.2,0.3-0.7,0.5-1.1,0.4
										c-0.1,0-0.2-0.1-0.3-0.1l-0.1-0.1c-0.2-0.2-0.4-0.4-0.4-0.6c0-0.3,0-0.5,0.2-0.7C627.6-31.8,628.1-31.9,628.6-31.6
										L628.6-31.6z"/>
									<path class="st1" d="M609-45.9c0.1,0,0.2,0.1,0.3,0.2l0.1,0.1c0.2,0.2,0.3,0.4,0.4,0.7c0,0.3,0,0.5-0.2,0.7
										c-0.2,0.3-0.7,0.4-1.1,0.3c-0.1,0-0.2-0.1-0.3-0.2l-0.1-0.1c-0.2-0.2-0.3-0.4-0.4-0.7c0-0.3,0-0.5,0.2-0.7
										C608.2-45.9,608.6-46,609-45.9L609-45.9z"/>
									<path class="st1" d="M605.3-48.8c0.1,0,0.2,0.1,0.3,0.2l0.1,0.1c0.4,0.3,0.5,0.9,0.2,1.4c-0.2,0.3-0.7,0.4-1.1,0.3
										c-0.1,0-0.2-0.1-0.3-0.2l-0.1-0.1c-0.2-0.2-0.3-0.4-0.4-0.7c0-0.3,0-0.5,0.2-0.7C604.5-48.8,604.9-48.9,605.3-48.8
										L605.3-48.8z"/>
								</g>
							</g>
							<polygon class="st1" points="747.8,28.6 746.1,27.2 746.3,25 744.4,26.2 742.4,25.3 743,27.5 741.5,29.1 743.7,29.2 
								744.8,31.1 745.6,29.1 							"/>
							<polygon class="st1" points="652.8,-18 650.7,-17.8 649.3,-19.5 648.8,-17.4 646.8,-16.6 648.6,-15.4 648.8,-13.3 
								650.4,-14.7 652.5,-14.2 651.7,-16.2 							"/>
							<polygon class="st1" points="682.1,-5.2 680.5,-6.7 680.9,-8.8 679,-7.8 677,-8.8 677.4,-6.7 675.9,-5.1 678,-4.8 679,-2.9 
								680,-4.8 							"/>
							<polygon class="st1" points="700.8,8.5 698.7,8.1 697.8,6.1 696.8,8 694.6,8.2 696.1,9.8 695.6,11.9 697.6,11 699.5,12.1 
								699.2,9.9 							"/>
							<polygon class="st1" points="617.4,-40.7 615.6,-41.6 615.2,-43.5 613.9,-42 611.9,-42.3 612.9,-40.6 612.1,-38.8 614,-39.2 
								615.4,-37.8 615.7,-39.8 							"/>
						</g>
					</g>
					<g>
						<g>
							<g>
								<g>
									<path class="st1" d="M266.6,30.3c-0.3,0-0.6-0.1-0.6-0.4c-0.1-0.3,0.1-0.6,0.4-0.7h0.1c0.3-0.1,0.6,0.1,0.7,0.4
										s-0.1,0.6-0.4,0.7H266.6L266.6,30.3L266.6,30.3z"/>
									<path class="st1" d="M186.1,40.7c-0.3,0-0.6-0.2-0.6-0.4c-0.1-0.3,0.1-0.6,0.5-0.7h0.1c0.3-0.1,0.6,0.1,0.7,0.4
										c0.1,0.3-0.1,0.6-0.4,0.7H186.1C186.2,40.8,186.2,40.8,186.1,40.7L186.1,40.7z"/>
									<path class="st1" d="M289.8,24.8c-0.3,0-0.6-0.1-0.6-0.4c-0.1-0.3,0.1-0.6,0.4-0.7h0.1c0.3-0.1,0.6,0.1,0.7,0.4
										s-0.1,0.6-0.4,0.7H289.8C289.9,24.8,289.9,24.8,289.8,24.8L289.8,24.8z"/>
									<path class="st1" d="M353,2.6c-0.2,0-0.5-0.1-0.6-0.3c-0.1-0.3,0-0.6,0.3-0.7l0.1-0.1c0.3-0.1,0.6,0,0.7,0.3s0,0.6-0.3,0.7
										l-0.1,0.1C353.1,2.5,353,2.6,353,2.6L353,2.6z"/>
									<path class="st1" d="M361.7-1.3c-0.2,0-0.5-0.1-0.6-0.3c-0.1-0.3,0-0.6,0.3-0.8l0.1-0.1c0.3-0.1,0.6,0,0.8,0.3
										s0,0.6-0.3,0.8l-0.1,0.1C361.9-1.4,361.8-1.3,361.7-1.3L361.7-1.3z"/>
									<g>
										<path class="st1" d="M284.9,23.8c-0.7,0.1-1.2,0.8-1.1,1.5s0.8,1.2,1.5,1.1s1.2-0.8,1.1-1.5
											C286.3,24.2,285.7,23.7,284.9,23.8L284.9,23.8z"/>
										<path class="st1" d="M225.7,35.5c-0.7,0.1-1.2,0.8-1.1,1.5s0.8,1.2,1.5,1.1c0.7-0.1,1.2-0.8,1.1-1.5
											C227.1,35.9,226.4,35.4,225.7,35.5L225.7,35.5z"/>
										<path class="st1" d="M113.1,33.9c-0.7,0.1-1.2,0.8-1.1,1.5c0.1,0.7,0.8,1.2,1.5,1.1c0.7-0.1,1.2-0.8,1.1-1.5
											C114.5,34.3,113.8,33.8,113.1,33.9z"/>
										<path class="st1" d="M206.7,37.4c-0.7,0.1-1.2,0.8-1.1,1.5s0.8,1.2,1.5,1.1c0.7-0.1,1.2-0.8,1.1-1.5
											S207.4,37.3,206.7,37.4L206.7,37.4z"/>
										<path class="st1" d="M171.5,38.7c-0.7,0.1-1.3,0.7-1.2,1.5c0.1,0.7,0.7,1.3,1.5,1.2c0.7-0.1,1.3-0.7,1.2-1.5
											C172.9,39.2,172.3,38.6,171.5,38.7z"/>
										<path class="st1" d="M259.8,29.7c-0.7,0.1-1.2,0.8-1.1,1.5s0.8,1.2,1.5,1.1c0.7-0.1,1.2-0.8,1.1-1.5
											C261.2,30,260.6,29.5,259.8,29.7L259.8,29.7z"/>
										<path class="st1" d="M321.5,12.8c-0.7,0.1-1.2,0.8-1.1,1.5s0.8,1.2,1.5,1.1c0.7-0.1,1.2-0.8,1.1-1.5
											C322.9,13.2,322.2,12.7,321.5,12.8L321.5,12.8z"/>
										<path class="st1" d="M357.2-1.1c-0.7,0.1-1.2,0.8-1.1,1.5s0.8,1.2,1.5,1.1s1.2-0.8,1.1-1.5C358.7-0.7,358-1.2,357.2-1.1
											L357.2-1.1z"/>
										<path class="st1" d="M378.9-11.6c-0.7,0.1-1.2,0.8-1.1,1.5s0.8,1.2,1.5,1.1c0.7-0.1,1.2-0.8,1.1-1.5
											S379.6-11.7,378.9-11.6z"/>
										
											<rect x="302.6" y="19.5" transform="matrix(0.5957 -0.8032 0.8032 0.5957 106.3566 252.0331)" class="st1" width="1.8" height="1.8"/>
									</g>
								</g>
								<g>
									
										<rect x="457.1" y="-64.5" transform="matrix(0.5959 -0.803 0.803 0.5959 236.1248 342.114)" class="st1" width="1.8" height="1.8"/>
									<g>
										<path class="st1" d="M233.4,34.5h-0.1c-0.5,0.1-0.9,0.6-0.8,1.1s0.6,0.9,1.1,0.8h0.1l0,0c0.5-0.1,0.9-0.6,0.8-1.1
											S234,34.4,233.4,34.5L233.4,34.5z"/>
										<path class="st1" d="M238.2,33.8h-0.1c-0.3,0-0.5,0.2-0.6,0.4s-0.2,0.5-0.2,0.7c0.1,0.5,0.6,0.9,1.1,0.8l0,0h0.1
											c0.2,0,0.5-0.2,0.6-0.4s0.2-0.5,0.2-0.7C239.2,34.1,238.7,33.7,238.2,33.8L238.2,33.8z"/>
										<path class="st1" d="M252.9,31.3h-0.1c-0.3,0-0.5,0.2-0.6,0.4c-0.1,0.2-0.2,0.5-0.2,0.7c0.1,0.5,0.6,0.9,1.1,0.8l0,0h0.1
											c0.3,0,0.5-0.2,0.6-0.4s0.2-0.5,0.2-0.7C253.9,31.5,253.4,31.2,252.9,31.3L252.9,31.3z"/>
										<path class="st1" d="M219.2,36.4h-0.1c-0.5,0.1-0.9,0.6-0.8,1.1c0,0.3,0.2,0.5,0.4,0.6c0.2,0.2,0.5,0.2,0.7,0.2h0.1l0,0
											c0.5-0.1,0.9-0.6,0.8-1.1c0-0.3-0.2-0.5-0.4-0.6C219.7,36.4,219.5,36.3,219.2,36.4L219.2,36.4z"/>
										<path class="st1" d="M214.5,36.9h-0.2c-0.5,0.1-0.9,0.5-0.8,1.1c0,0.3,0.1,0.5,0.4,0.7c0.2,0.2,0.5,0.2,0.7,0.2h0.1l0,0
											c0.5-0.1,0.9-0.6,0.8-1.1C215.5,37.2,215,36.8,214.5,36.9L214.5,36.9z"/>
										<path class="st1" d="M200.2,38.2H200c-0.5,0.1-0.9,0.5-0.8,1c0,0.3,0.1,0.5,0.3,0.7c0.2,0.2,0.5,0.2,0.7,0.2h0.2l0,0l0,0
											c0.5-0.1,0.9-0.5,0.8-1c0-0.3-0.1-0.5-0.3-0.7C200.7,38.2,200.4,38.1,200.2,38.2L200.2,38.2z"/>
										<path class="st1" d="M271,27.5L271,27.5h-0.1c-0.3,0.1-0.5,0.2-0.6,0.4c-0.1,0.2-0.2,0.5-0.1,0.7c0.1,0.5,0.6,0.8,1.1,0.8
											l0,0l0,0h0.2c0.3-0.1,0.5-0.2,0.6-0.4c0.1-0.2,0.2-0.5,0.1-0.7C272.1,27.8,271.6,27.5,271,27.5L271,27.5z"/>
										<path class="st1" d="M181.2,39.3H181c-0.5,0-0.9,0.4-0.9,1c0,0.5,0.4,1,1,1h0.2l0,0l0,0c0.5-0.1,0.9-0.5,0.9-0.9
											c0-0.3-0.1-0.5-0.3-0.7C181.7,39.4,181.5,39.3,181.2,39.3L181.2,39.3z"/>
										<path class="st1" d="M176.4,39.2h-0.2c-0.5,0-0.9,0.4-0.9,0.9c0,0.3,0.1,0.5,0.3,0.7s0.4,0.3,0.7,0.3h0.2l0,0l0,0
											c0.5-0.1,0.9-0.5,0.9-0.9c0-0.3-0.1-0.5-0.3-0.7S176.7,39.2,176.4,39.2L176.4,39.2z"/>
										<path class="st1" d="M294.3,21.7C294.3,21.7,294.2,21.7,294.3,21.7l-0.2,0.1c-0.5,0.1-0.8,0.7-0.7,1.2
											c0.1,0.5,0.6,0.8,1.1,0.7c0,0,0,0,0.1,0l0.2-0.1c0.2-0.1,0.5-0.2,0.6-0.5c0.1-0.2,0.2-0.5,0.1-0.7
											C295.2,21.9,294.8,21.6,294.3,21.7L294.3,21.7z"/>
										<path class="st1" d="M167.1,38.8h-0.2c-0.5,0-0.9,0.4-1,0.9c0,0.3,0.1,0.5,0.2,0.7s0.4,0.3,0.7,0.3h0.1c0,0,0.1,0,0.2,0
											c0.5-0.1,0.9-0.4,0.9-0.9c0-0.3-0.1-0.5-0.2-0.7C167.6,38.9,167.4,38.8,167.1,38.8L167.1,38.8z"/>
										<path class="st1" d="M308,17.6C307.9,17.6,307.9,17.6,308,17.6l-0.2,0.1c-0.2,0.1-0.5,0.2-0.6,0.5s-0.1,0.5-0.1,0.7
											c0.1,0.5,0.6,0.7,1.1,0.7l0,0l0.2-0.1c0.2-0.1,0.5-0.2,0.6-0.5s0.1-0.5,0.1-0.7C309,17.8,308.5,17.5,308,17.6L308,17.6z"
											/>
										<path class="st1" d="M326.2,11.5c-0.1,0-0.1,0-0.2,0.1h-0.1c-0.5,0.2-0.8,0.7-0.6,1.2c0.1,0.4,0.6,0.7,1.1,0.6
											c0.1,0,0.1,0,0.2-0.1l0.1-0.1c0.2-0.1,0.4-0.3,0.5-0.5s0.1-0.5,0-0.7C327.1,11.7,326.6,11.5,326.2,11.5L326.2,11.5z"/>
										<path class="st1" d="M145.5,38.3h-0.1c-0.5-0.1-1,0.4-1,0.9c0,0.3,0.1,0.5,0.2,0.7c0.2,0.2,0.4,0.3,0.7,0.3h0.1
											c0.1,0,0.1,0,0.2,0c0.5-0.1,0.8-0.4,0.8-0.9c0-0.3-0.1-0.5-0.2-0.7C146,38.4,145.8,38.3,145.5,38.3L145.5,38.3z"/>
										<path class="st1" d="M151.3,40.6c0.3,0.1,0.6-0.1,0.7-0.4c0.1-0.3-0.1-0.6-0.4-0.7h-0.1c-0.3-0.1-0.6,0.1-0.7,0.4
											c-0.1,0.3,0.1,0.6,0.4,0.7H151.3L151.3,40.6z"/>
										<path class="st1" d="M140.8,37.9h-0.1c-0.5-0.1-1,0.3-1,0.9c0,0.3,0,0.5,0.2,0.7s0.4,0.3,0.7,0.4h0.1c0.1,0,0.1,0,0.2,0
											c0.5-0.1,0.8-0.4,0.8-0.9c0-0.3-0.1-0.5-0.2-0.7C141.3,38.1,141,37.9,140.8,37.9L140.8,37.9z"/>
										<path class="st1" d="M335.1,8.2c-0.1,0-0.1,0-0.2,0.1l-0.1,0.1c-0.2,0.1-0.4,0.3-0.5,0.5s-0.1,0.5,0,0.7
											c0.2,0.4,0.6,0.7,1,0.6c0.1,0,0.1,0,0.2-0.1l0.1-0.1c0.2-0.1,0.4-0.3,0.5-0.5s0.1-0.5,0-0.7C336,8.4,335.6,8.1,335.1,8.2
											L335.1,8.2z"/>
										<path class="st1" d="M339.4,6.5l-0.1,0.1c-0.2,0.1-0.4,0.3-0.5,0.5s-0.1,0.5,0,0.8c0.2,0.4,0.6,0.7,1,0.6
											c0.1,0,0.1,0,0.2-0.1l0.1-0.1c0.2-0.1,0.4-0.3,0.5-0.5s0.1-0.5,0-0.7C340.4,6.6,339.9,6.3,339.4,6.5L339.4,6.5z"/>
										<path class="st1" d="M126,36.3h-0.1c-0.5-0.1-1,0.3-1.1,0.8c0,0.3,0,0.5,0.2,0.7s0.4,0.3,0.6,0.4h0.1c0.1,0,0.2,0,0.3,0
											c0.4-0.1,0.8-0.4,0.8-0.8c0-0.3,0-0.5-0.2-0.7C126.5,36.4,126.3,36.3,126,36.3L126,36.3z"/>
										<path class="st1" d="M120.1,35.4H120c-0.5-0.1-1,0.3-1.1,0.8s0.3,1,0.8,1.1h0.1c0.1,0,0.2,0,0.3,0
											c0.4-0.1,0.8-0.4,0.8-0.8c0-0.3,0-0.5-0.2-0.7C120.6,35.6,120.4,35.5,120.1,35.4L120.1,35.4z"/>
										<path class="st1" d="M108.7,33.3L108.7,33.3c-0.6-0.1-1.1,0.2-1.2,0.8c-0.1,0.2,0,0.5,0.1,0.7s0.4,0.4,0.7,0.4h0.1
											c0.1,0,0.2,0,0.3,0c0.4-0.1,0.7-0.4,0.8-0.8C109.5,33.9,109.2,33.4,108.7,33.3L108.7,33.3z"/>
										<path class="st1" d="M365.7-4.8l-0.1,0.1c-0.2,0.1-0.4,0.3-0.5,0.6s-0.1,0.5,0,0.7c0.2,0.4,0.6,0.6,1,0.6
											c0.1,0,0.2,0,0.3-0.1l0.1-0.1c0.2-0.1,0.4-0.3,0.5-0.6c0.1-0.2,0.1-0.5,0-0.8C366.8-4.8,366.2-5,365.7-4.8L365.7-4.8z"/>
										<path class="st1" d="M370-6.9l-0.1,0.1c-0.2,0.1-0.4,0.3-0.5,0.6s-0.1,0.5,0,0.8c0.2,0.4,0.6,0.6,1,0.5
											c0.1,0,0.2,0,0.3-0.1l0.1-0.1c0.2-0.1,0.4-0.3,0.5-0.6s0.1-0.5,0-0.7C371.1-6.9,370.5-7.1,370-6.9z"/>
										<path class="st1" d="M100.6,31.7h-0.1c-0.5-0.1-1.1,0.2-1.2,0.7c-0.1,0.5,0.2,1.1,0.7,1.2h0.1c0.1,0,0.2,0,0.4,0
											c0.4-0.1,0.7-0.3,0.8-0.7c0.1-0.2,0-0.5-0.1-0.7S100.8,31.8,100.6,31.7L100.6,31.7z"/>
										<path class="st1" d="M391.6-17.9c-0.1,0-0.2,0.1-0.3,0.1l-0.1,0.1c-0.2,0.1-0.4,0.3-0.5,0.6s0,0.5,0.1,0.7
											c0.2,0.3,0.6,0.6,1,0.5c0.1,0,0.2-0.1,0.3-0.1l0.1-0.1c0.2-0.1,0.4-0.3,0.5-0.6c0.1-0.2,0-0.5-0.1-0.7
											C392.4-17.7,392-17.9,391.6-17.9L391.6-17.9z"/>
										<path class="st1" d="M395.8-20.2c-0.1,0-0.2,0.1-0.3,0.1l-0.1,0.1c-0.5,0.3-0.6,0.9-0.4,1.3c0.2,0.3,0.6,0.6,1,0.5
											c0.1,0,0.2-0.1,0.3-0.1l0.1-0.1c0.2-0.1,0.4-0.3,0.5-0.6s0-0.5-0.1-0.7C396.6-20.1,396.2-20.3,395.8-20.2L395.8-20.2z"/>
										<path class="st1" d="M401.9-24l-0.1,0.1c-0.2,0.1-0.4,0.3-0.5,0.6c-0.1,0.2,0,0.5,0.1,0.7c0.2,0.3,0.6,0.5,1,0.5
											c0.1,0,0.2-0.1,0.3-0.1l0.1-0.1c0.5-0.3,0.6-0.9,0.4-1.3C403-24.1,402.4-24.3,401.9-24L401.9-24z"/>
										<path class="st1" d="M407.8-27.4l-0.1,0.1c-0.2,0.1-0.4,0.3-0.4,0.6s0,0.5,0.1,0.7c0.2,0.3,0.6,0.5,1,0.4
											c0.1,0,0.3-0.1,0.4-0.1l0.1-0.1c0.5-0.3,0.6-0.9,0.3-1.3C408.9-27.5,408.3-27.7,407.8-27.4L407.8-27.4z"/>
										<path class="st1" d="M423.9-37.9L423.9-37.9c-0.3,0.2-0.5,0.4-0.5,0.7c0,0.2,0,0.5,0.1,0.7c0.2,0.3,0.6,0.5,1,0.4
											c0.1,0,0.3-0.1,0.4-0.1l0.1-0.1c0.2-0.1,0.4-0.4,0.4-0.6c0-0.2,0-0.5-0.1-0.7C425-38,424.3-38.2,423.9-37.9L423.9-37.9z"
											/>
										<path class="st1" d="M419.9-35.1L419.9-35.1c-0.5,0.4-0.7,1-0.4,1.4c0.2,0.3,0.6,0.5,1,0.4c0.2,0,0.3-0.1,0.4-0.2l0.1-0.1
											c0.2-0.1,0.4-0.4,0.4-0.6c0-0.2,0-0.5-0.2-0.7C420.9-35.2,420.3-35.3,419.9-35.1L419.9-35.1z"/>
										<path class="st1" d="M427.8-40.5L427.8-40.5c-0.3,0.2-0.5,0.4-0.5,0.7s0,0.5,0.2,0.7c0.2,0.3,0.6,0.5,0.9,0.4
											c0.2,0,0.3-0.1,0.4-0.2l0.1-0.1c0.2-0.2,0.4-0.4,0.4-0.6c0-0.3,0-0.5-0.2-0.7C428.8-40.7,428.2-40.8,427.8-40.5z"/>
										<path class="st1" d="M431.6-43.3L431.6-43.3c-0.3,0.2-0.4,0.4-0.5,0.7c0,0.3,0,0.5,0.2,0.7c0.2,0.3,0.6,0.4,0.9,0.4
											c0.2,0,0.3-0.1,0.4-0.2l0.1-0.1c0.4-0.3,0.5-0.9,0.2-1.4C432.7-43.5,432.1-43.6,431.6-43.3L431.6-43.3z"/>
										<path class="st1" d="M439.2-49L439.2-49c-0.3,0.3-0.4,0.5-0.5,0.8c0,0.3,0,0.5,0.2,0.7c0.2,0.3,0.6,0.4,0.9,0.4
											c0.2,0,0.3-0.1,0.5-0.2l0.1-0.1c0.2-0.2,0.3-0.4,0.4-0.7c0-0.3,0-0.5-0.2-0.7C440.3-49.3,439.7-49.3,439.2-49L439.2-49z"
											/>
										<path class="st1" d="M443-52L443-52c-0.3,0.3-0.4,0.5-0.4,0.8s0,0.5,0.2,0.7c0.2,0.3,0.5,0.4,0.9,0.3
											c0.2,0,0.3-0.1,0.5-0.2l0.1-0.1c0.2-0.2,0.3-0.4,0.3-0.7s0-0.5-0.2-0.7C444-52.3,443.4-52.3,443-52L443-52z"/>
										<path class="st1" d="M446.7-55L446.7-55c-0.3,0.2-0.4,0.5-0.4,0.7c0,0.3,0,0.5,0.2,0.7c0.2,0.3,0.5,0.4,0.9,0.3
											c0.2,0,0.3-0.1,0.5-0.2l0.1-0.1c0.2-0.2,0.3-0.4,0.3-0.7s-0.1-0.5-0.2-0.7C447.7-55.3,447-55.4,446.7-55L446.7-55z"/>
										<path class="st1" d="M464-71.3L464-71.3c-0.3,0.3-0.4,0.5-0.4,0.8s0.1,0.5,0.3,0.7s0.5,0.3,0.8,0.2c0.2,0,0.4-0.1,0.6-0.3
											l0.1-0.1c0.2-0.2,0.3-0.4,0.3-0.7c0-0.3-0.1-0.5-0.3-0.7C465-71.7,464.4-71.7,464-71.3L464-71.3z"/>
										<path class="st1" d="M467.2-74.8L467.2-74.8c-0.3,0.3-0.3,0.5-0.3,0.8s0.1,0.5,0.3,0.7s0.5,0.3,0.8,0.2
											c0.2,0,0.4-0.1,0.6-0.3l0.1-0.1c0.2-0.2,0.3-0.5,0.2-0.7c0-0.3-0.1-0.5-0.3-0.7C468.2-75.3,467.6-75.2,467.2-74.8
											L467.2-74.8z"/>
										<path class="st1" d="M470.3-78.4L470.3-78.4c-0.3,0.3-0.3,0.5-0.3,0.8c0,0.3,0.2,0.5,0.4,0.7s0.5,0.2,0.8,0.2
											c0.2,0,0.5-0.2,0.6-0.3l0.1-0.1c0.3-0.4,0.3-1-0.1-1.4C471.3-78.9,470.7-78.8,470.3-78.4L470.3-78.4z"/>
										<path class="st1" d="M473.3-82.2L473.3-82.2c-0.2,0.3-0.3,0.6-0.3,0.8c0,0.3,0.2,0.5,0.4,0.7s0.5,0.2,0.7,0.2
											s0.5-0.2,0.6-0.4l0.1-0.1c0.2-0.2,0.2-0.5,0.2-0.7c0-0.3-0.2-0.5-0.4-0.6C474.2-82.7,473.6-82.6,473.3-82.2L473.3-82.2z"
											/>
										<path class="st1" d="M477.5-86.2c-0.4-0.3-1.1-0.2-1.4,0.2l-0.1,0.1c-0.2,0.2-0.2,0.5-0.2,0.7s0.2,0.5,0.4,0.6
											s0.5,0.2,0.7,0.2c0.3,0,0.5-0.2,0.7-0.4l0.1-0.1c0.2-0.2,0.2-0.5,0.2-0.7C477.8-85.9,477.7-86.1,477.5-86.2L477.5-86.2z"
											/>
									</g>
								</g>
							</g>
							<polygon class="st1" points="155.6,38.9 157.8,39 159.1,37.3 159.7,39.4 161.7,40.2 159.9,41.3 159.8,43.5 158.1,42.1 
								156,42.7 156.8,40.7 							"/>
							<polygon class="st1" points="189.8,40.1 191.6,38.9 191.7,36.8 193.4,38.2 195.5,37.6 194.7,39.6 195.9,41.4 193.7,41.3 
								192.4,43 191.8,40.9 							"/>
							<polygon class="st1" points="242.2,33.8 244,32.6 244,30.4 245.7,31.8 247.8,31.1 247,33.2 248.3,34.9 246.1,34.9 
								244.9,36.6 244.2,34.5 							"/>
							<polygon class="st1" points="344,2.7 346.1,3.3 347.7,1.8 347.9,4 349.7,5.1 347.7,5.9 347.2,8.1 345.8,6.4 343.7,6.6 
								344.8,4.8 							"/>
							<polygon class="st1" points="412.1,-32.7 414.2,-32.2 415.9,-33.6 416,-31.4 417.9,-30.3 415.9,-29.5 415.4,-27.4 414,-29.1 
								411.8,-28.9 413,-30.7 							"/>
							<polygon class="st1" points="450.2,-61.5 452.3,-61 453.9,-62.4 454.1,-60.3 456,-59.1 453.9,-58.3 453.5,-56.2 452.1,-57.9 
								449.9,-57.7 451.1,-59.5 							"/>
							<polygon class="st1" points="311.4,16.8 313.2,15.5 313.2,13.4 314.9,14.7 317,14 316.2,16.1 317.5,17.8 315.3,17.8 
								314.1,19.5 313.4,17.5 							"/>
							<polygon class="st1" points="274.5,25.4 276.6,25.3 277.8,23.5 278.6,25.5 280.7,26.1 278.9,27.4 279.1,29.6 277.2,28.4 
								275.2,29.2 275.8,27.1 							"/>
							<polygon class="st1" points="131,37.4 132.9,36.9 133.5,35 134.6,36.7 136.6,36.7 135.4,38.3 135.9,40.2 134.1,39.5 
								132.4,40.6 132.5,38.6 							"/>
							<polygon class="st1" points="382.5,-14.1 384.5,-14.6 385.1,-16.5 386.2,-14.8 388.2,-14.8 386.9,-13.2 387.5,-11.3 
								385.6,-12.1 384,-10.9 384.1,-12.9 							"/>
						</g>
						<g>
							<g>
								<g>
									<path class="st1" d="M49.2,18c0.3,0.1,0.6-0.1,0.7-0.4c0.1-0.3-0.1-0.6-0.4-0.7h-0.1c-0.3-0.1-0.6,0.1-0.7,0.4
										c-0.1,0.3,0.1,0.6,0.4,0.7H49.2C49.1,18,49.2,18,49.2,18L49.2,18z"/>
									<path class="st1" d="M-9.8-9c0.2,0.1,0.5-0.1,0.6-0.3c0.2-0.3,0-0.6-0.2-0.8l-0.1-0.1c-0.3-0.1-0.6,0-0.8,0.2
										c-0.2,0.3,0,0.6,0.2,0.8L-10-9C-10-9-9.9-9-9.8-9L-9.8-9z"/>
									<path class="st1" d="M-18.2-13.6c0.2,0.1,0.5-0.1,0.6-0.3c0.2-0.3,0.1-0.6-0.2-0.8l-0.2,0c-0.3-0.2-0.6-0.1-0.8,0.2
										c-0.2,0.3-0.1,0.6,0.2,0.8l0.1,0.1C-18.4-13.6-18.3-13.6-18.2-13.6L-18.2-13.6z"/>
									<g>
										<path class="st1" d="M54.2,17.4c0.7,0.2,1.2,0.9,1,1.6s-0.9,1.2-1.6,1s-1.2-0.9-1-1.6S53.5,17.2,54.2,17.4z"/>
										<path class="st1" d="M79.6,25.7c0.7,0.2,1.2,0.9,1,1.6s-0.9,1.2-1.6,1s-1.2-0.9-1-1.6S78.9,25.5,79.6,25.7z"/>
										<path class="st1" d="M20.7,3.8c0.7,0.2,1.2,0.9,1,1.6s-0.9,1.2-1.6,1s-1.2-0.9-1-1.6S20,3.7,20.7,3.8z"/>
										<path class="st1" d="M-13.8-13c0.7,0.2,1.2,0.9,1,1.6s-0.9,1.2-1.6,1s-1.2-0.9-1-1.6S-14.5-13.2-13.8-13z"/>
										<path class="st1" d="M-34.5-25.2c0.7,0.2,1.2,0.9,1,1.6s-0.9,1.2-1.6,1s-1.2-0.9-1-1.6C-35.9-24.9-35.2-25.4-34.5-25.2z"
											/>
									</g>
								</g>
								<g>
									
										<rect x="-109.9" y="-84.5" transform="matrix(0.8501 -0.5267 0.5267 0.8501 27.7043 -69.9424)" class="st1" width="1.8" height="1.8"/>
									<g>
										<path class="st1" d="M85.5,27.5h0.1c0.2,0.1,0.5,0.2,0.6,0.4c0.1,0.2,0.2,0.5,0.1,0.7c-0.1,0.5-0.6,0.8-1.2,0.7l0,0H85
											c-0.2-0.1-0.5-0.2-0.6-0.4s-0.2-0.5-0.1-0.7C84.4,27.6,85,27.3,85.5,27.5L85.5,27.5z"/>
										<path class="st1" d="M67.7,22.2L67.7,22.2h0.1c0.2,0.1,0.4,0.2,0.6,0.5c0.1,0.2,0.1,0.5,0.1,0.7c-0.1,0.5-0.6,0.8-1.1,0.7
											l0,0L67.2,24c-0.2-0.1-0.4-0.2-0.6-0.5c-0.1-0.2-0.1-0.5-0.1-0.7C66.7,22.4,67.2,22.1,67.7,22.2L67.7,22.2z"/>
										<path class="st1" d="M45.1,14.5L45.1,14.5l0.2,0.1c0.5,0.2,0.8,0.8,0.6,1.2c-0.2,0.5-0.7,0.7-1.1,0.6c0,0,0,0-0.1,0
											l-0.2-0.1c-0.2-0.1-0.4-0.3-0.6-0.5c-0.1-0.2-0.1-0.5,0-0.8C44,14.6,44.5,14.4,45.1,14.5L45.1,14.5z"/>
										<path class="st1" d="M73.1,23.7L73.1,23.7l0.2,0.1c0.5,0.2,0.8,0.8,0.6,1.2c-0.2,0.5-0.7,0.7-1.1,0.6c0,0,0,0-0.1,0
											l-0.2-0.1c-0.2-0.1-0.4-0.3-0.6-0.5c-0.1-0.2-0.1-0.5,0-0.8C72.1,23.8,72.6,23.6,73.1,23.7L73.1,23.7z"/>
										<path class="st1" d="M40.6,12.8L40.6,12.8l0.2,0.1c0.2,0.1,0.4,0.3,0.5,0.5s0.1,0.5,0,0.8c-0.2,0.4-0.7,0.7-1.1,0.6l0,0
											h-0.1L40,14.7c-0.2-0.1-0.4-0.3-0.5-0.5s-0.1-0.5,0-0.7C39.6,13,40.1,12.7,40.6,12.8L40.6,12.8z"/>
										<path class="st1" d="M33.8,9.8L33.8,9.8L34,9.9c0.2,0.1,0.4,0.3,0.5,0.5s0.1,0.5,0,0.8c-0.2,0.4-0.7,0.7-1.1,0.6
											c0,0,0,0-0.1,0l-0.2-0.1c-0.2-0.1-0.4-0.3-0.5-0.5s-0.1-0.5,0-0.8C32.8,9.9,33.2,9.7,33.8,9.8L33.8,9.8z"/>
										<path class="st1" d="M16.1,2.2c0.1,0,0.1,0,0.2,0.1l0.1,0.1c0.5,0.2,0.7,0.8,0.5,1.3c-0.2,0.4-0.7,0.7-1.1,0.6
											c-0.1,0-0.1,0-0.2-0.1L15.5,4c-0.2-0.1-0.4-0.3-0.5-0.6c-0.1-0.2-0.1-0.5,0-0.7C15.2,2.3,15.7,2.1,16.1,2.2z"/>
										<path class="st1" d="M7.5-1.9c0.1,0,0.1,0,0.2,0.1l0.1,0.1C8-1.6,8.2-1.4,8.3-1.1c0.1,0.2,0.1,0.5,0,0.7
											C8.1,0,7.6,0.2,7.2,0.1C7.1,0.1,7.1,0.1,7,0L6.9-0.1C6.7-0.2,6.5-0.4,6.4-0.7c-0.1-0.2-0.1-0.5,0-0.7C6.6-1.8,7-2,7.5-1.9
											L7.5-1.9z"/>
										<path class="st1" d="M3.4-3.9L3.4-3.9C3.7-3.7,3.9-3.5,4-3.2C4.1-3,4.1-2.7,3.9-2.5C3.7-2.1,3.3-1.9,2.8-2
											C2.7-2,2.7-2,2.6-2.1L2.5-2.2C2.3-2.3,2.1-2.5,2-2.8C1.9-3,1.9-3.3,2.1-3.5C2.3-3.9,2.9-4.1,3.4-3.9z"/>
										<path class="st1" d="M-21.9-17.4l0.1,0.1c0.2,0.1,0.4,0.3,0.5,0.6c0.1,0.2,0,0.5-0.1,0.7c-0.2,0.4-0.6,0.6-1.1,0.5
											c-0.1,0-0.2-0.1-0.3-0.1l-0.1-0.1c-0.2-0.1-0.4-0.3-0.5-0.6c-0.1-0.2,0-0.5,0.1-0.7C-23-17.5-22.4-17.6-21.9-17.4z"/>
										<path class="st1" d="M-26.1-19.8l0.1,0.1c0.2,0.1,0.4,0.3,0.4,0.6c0.1,0.2,0,0.5-0.1,0.7c-0.2,0.4-0.6,0.6-1.1,0.4
											c-0.1,0-0.2-0.1-0.3-0.1l0.1,0c-0.2-0.1-0.4-0.3-0.4-0.6c-0.1-0.2,0-0.5,0.1-0.7C-27.1-19.9-26.6-20.1-26.1-19.8
											L-26.1-19.8z"/>
										<path class="st1" d="M-46.6-32.5c0.1,0,0.2,0.1,0.3,0.1l0.1,0.1c0.2,0.2,0.4,0.4,0.4,0.6c0.1,0.2,0,0.5-0.2,0.7
											c-0.2,0.3-0.6,0.5-1,0.4c-0.1,0-0.2-0.1-0.3-0.1l-0.1-0.1c-0.2-0.1-0.4-0.4-0.4-0.6c-0.1-0.2,0-0.5,0.1-0.7
											C-47.5-32.5-47-32.6-46.6-32.5L-46.6-32.5z"/>
										<path class="st1" d="M-50.6-35.2c0.1,0,0.2,0.1,0.3,0.1l0.1,0.1c0.4,0.3,0.6,0.9,0.3,1.3c-0.2,0.3-0.6,0.5-1,0.4
											c-0.1,0-0.2-0.1-0.3-0.1l-0.1-0.1c-0.2-0.2-0.4-0.4-0.4-0.6c-0.1-0.3,0-0.5,0.2-0.7C-51.4-35.2-51-35.3-50.6-35.2
											L-50.6-35.2z"/>
										<path class="st1" d="M-54.2-37.8L-54.2-37.8c0.3,0.3,0.5,0.5,0.5,0.7c0,0.3,0,0.5-0.2,0.7c-0.2,0.3-0.6,0.5-1,0.4
											c-0.1,0-0.2-0.1-0.3-0.2l-0.1-0.1c-0.4-0.3-0.6-0.9-0.2-1.3C-55.3-37.9-54.7-38.1-54.2-37.8z"/>
										<path class="st1" d="M-62-43.3L-62-43.3c0.3,0.3,0.4,0.5,0.5,0.7s0,0.5-0.2,0.7c-0.2,0.3-0.6,0.5-1,0.4
											c-0.1,0-0.2-0.1-0.3-0.2l-0.1-0.1c-0.4-0.3-0.5-0.9-0.2-1.4C-63.1-43.5-62.5-43.7-62-43.3z"/>
										<path class="st1" d="M-77.2-55.1L-77.2-55.1c0.3,0.2,0.4,0.5,0.5,0.7c0,0.3,0,0.5-0.2,0.7c-0.2,0.3-0.6,0.4-1,0.4
											c-0.1,0-0.3-0.1-0.4-0.2l-0.1-0.1c-0.2-0.2-0.3-0.4-0.4-0.7c-0.1-0.3,0-0.5,0.2-0.7C-78.2-55.4-77.6-55.4-77.2-55.1
											L-77.2-55.1z"/>
										<path class="st1" d="M-80.8-58L-80.8-58c0.3,0.2,0.4,0.5,0.4,0.7s0,0.5-0.2,0.7c-0.2,0.3-0.6,0.4-1,0.3
											c-0.2,0-0.3-0.1-0.4-0.2l-0.1-0.1c-0.2-0.2-0.3-0.4-0.3-0.7s0-0.5,0.2-0.7C-81.8-58.3-81.2-58.4-80.8-58L-80.8-58z"/>
										<path class="st1" d="M-84.4-61.1L-84.4-61.1c0.3,0.2,0.4,0.5,0.4,0.7s-0.1,0.5-0.2,0.7c-0.2,0.3-0.6,0.4-1,0.3
											c-0.2,0-0.3-0.1-0.4-0.2l-0.1-0.1c-0.4-0.3-0.4-1-0.1-1.4C-85.5-61.4-84.8-61.5-84.4-61.1L-84.4-61.1z"/>
										<path class="st1" d="M-91.5-67.5L-91.5-67.5c0.3,0.3,0.4,0.5,0.4,0.8s-0.1,0.5-0.3,0.7c-0.2,0.3-0.6,0.4-0.9,0.3
											c-0.2,0-0.3-0.1-0.4-0.2l-0.1-0.1c-0.2-0.2-0.3-0.4-0.3-0.7c0-0.3,0.1-0.5,0.3-0.7C-92.6-67.8-91.9-67.9-91.5-67.5
											L-91.5-67.5z"/>
										<path class="st1" d="M-95-70.8L-95-70.8c0.3,0.3,0.4,0.5,0.4,0.8s-0.1,0.5-0.3,0.7c-0.2,0.2-0.6,0.3-0.9,0.3
											c-0.2,0-0.3-0.1-0.5-0.2l-0.1-0.1c-0.2-0.2-0.3-0.4-0.3-0.7c0-0.3,0.1-0.5,0.3-0.7C-96-71.1-95.4-71.2-95-70.8L-95-70.8z"
											/>
										<path class="st1" d="M-98.4-74.1L-98.4-74.1c0.3,0.3,0.4,0.5,0.4,0.8s-0.1,0.5-0.3,0.7c-0.2,0.2-0.6,0.3-0.9,0.3
											c-0.2,0-0.3-0.1-0.5-0.3l-0.1-0.1c-0.2-0.2-0.3-0.4-0.3-0.7s0.1-0.5,0.3-0.7C-99.4-74.5-98.8-74.5-98.4-74.1L-98.4-74.1z"
											/>
										<path class="st1" d="M-114.4-91.8L-114.4-91.8c0.3,0.3,0.3,0.6,0.3,0.8c0,0.3-0.2,0.5-0.4,0.7s-0.5,0.2-0.8,0.2
											c-0.2-0.1-0.4-0.2-0.5-0.4l-0.1-0.1c-0.2-0.2-0.2-0.5-0.2-0.7c0-0.3,0.2-0.5,0.4-0.7C-115.4-92.3-114.7-92.2-114.4-91.8
											L-114.4-91.8z"/>
										<path class="st1" d="M-117.3-95.6L-117.3-95.6c0.2,0.3,0.3,0.6,0.3,0.8c0,0.3-0.2,0.5-0.4,0.7c-0.2,0.2-0.5,0.2-0.8,0.2
											c-0.2-0.1-0.4-0.2-0.5-0.4l-0.1-0.1c-0.2-0.2-0.2-0.5-0.2-0.7c0-0.3,0.2-0.5,0.4-0.6C-118.2-96.1-117.6-96-117.3-95.6
											L-117.3-95.6z"/>
										<path class="st1" d="M-120.1-99.4L-120.1-99.4c0.2,0.3,0.3,0.6,0.2,0.8c-0.1,0.3-0.2,0.5-0.4,0.6
											c-0.2,0.1-0.5,0.2-0.8,0.1c-0.2-0.1-0.4-0.2-0.6-0.4l-0.1-0.1c-0.3-0.4-0.2-1.1,0.2-1.4C-121-100-120.4-99.8-120.1-99.4z"
											/>
										<path class="st1" d="M-122.7-103.4L-122.7-103.4c0.2,0.3,0.3,0.6,0.2,0.8c0,0.3-0.2,0.5-0.4,0.6c-0.2,0.1-0.5,0.2-0.8,0.1
											c-0.2-0.1-0.5-0.2-0.6-0.4l-0.1-0.1c-0.1-0.2-0.2-0.5-0.1-0.7s0.2-0.5,0.4-0.6C-123.6-103.9-123-103.8-122.7-103.4
											L-122.7-103.4z"/>
										<path class="st1" d="M-126.5-107.8c0.5-0.3,1.1-0.1,1.3,0.4l0.1,0.1c0.1,0.2,0.2,0.5,0.1,0.7s-0.2,0.5-0.4,0.6
											c-0.2,0.1-0.5,0.2-0.7,0.1c-0.3-0.1-0.5-0.2-0.6-0.5l-0.1-0.1c-0.1-0.2-0.2-0.5-0.1-0.7
											C-126.9-107.4-126.8-107.6-126.5-107.8L-126.5-107.8z"/>
									</g>
								</g>
							</g>
							<polygon class="st1" points="96,30.9 94.3,29.5 94.4,27.4 92.6,28.6 90.6,27.7 91.2,29.8 89.7,31.5 91.9,31.6 93.1,33.5 
								93.8,31.4 							"/>
							<polygon class="st1" points="-0.9,-8 -3,-7.7 -4.5,-9.2 -4.9,-7.1 -6.8,-6.1 -4.9,-5.2 -4.6,-3 -3,-4.6 -0.9,-4.2 -1.9,-6.1 
															"/>
							<polygon class="st1" points="-65.9,-49 -68,-48.7 -69.5,-50.2 -69.9,-48.1 -71.8,-47.1 -69.9,-46.2 -69.5,-44 -68,-45.5 
								-65.9,-45.2 -66.9,-47.1 							"/>
							<polygon class="st1" points="-101.4,-80.9 -103.6,-80.5 -105.1,-82.1 -105.4,-79.9 -107.4,-79 -105.4,-78 -105.1,-75.9 
								-103.6,-77.4 -101.4,-77 -102.4,-79 							"/>
							<polygon class="st1" points="30.4,8.7 28.8,7.3 28.9,5.1 27.1,6.3 25.1,5.4 25.6,7.5 24.2,9.2 26.4,9.3 27.5,11.2 28.3,9.2 
															"/>
							<polygon class="st1" points="64.5,19.8 62.3,19.5 61.3,17.6 60.4,19.6 58.3,20 59.9,21.5 59.6,23.6 61.5,22.5 63.4,23.5 
								63,21.4 							"/>
							<polygon class="st1" points="-37.9,-28 -39.8,-28.7 -40.3,-30.6 -41.5,-29.1 -43.5,-29.2 -42.4,-27.5 -43.1,-25.7 
								-41.2,-26.2 -39.6,-25 -39.6,-27 							"/>
						</g>
					</g>
				</g>
			</g>
		</g>
	</g>
</g>
</svg>
