<?xml version="1.0" encoding="UTF-8"?><svg id="_イヤー_2" xmlns="http://www.w3.org/2000/svg" viewBox="0 0 190 62.42"><defs><style>.cls-1{fill:#f20c90;}.cls-2{fill:#fff;}.cls-3{fill:#072199;}.cls-4{fill:#07219b;}</style></defs><g id="header_footer"><g><path class="cls-2" d="M188.85,24.16h-6.31c-.63,0-1.15-.52-1.15-1.15v-2.59c0-.63,.52-1.15,1.15-1.15h6.31c.63,0,1.15,.51,1.15,1.15v2.59c0,.63-.51,1.15-1.15,1.15"/><path class="cls-2" d="M119.07,5.07c-2.4-2.25-6.01-3.79-11.06-4.44C102.63-.06,95.67,0,95.67,0c-.47-.01-.94,.17-1.28,.51-.34,.34-.53,.79-.52,1.27l.37,25.57c-.56-2.69-2.3-4.8-5.02-6.12,1.88-1.62,3.84-4.22,3.84-7.98,0-7.54-6.05-12.45-15.4-12.51-.93,0-1.94,.03-3,.1-.53,.04-2.2,.21-2.68,.28l-9.87,1.34c-.47,.06-.9,.32-1.18,.71-.28,.39-.39,.88-.3,1.35l6.67,35.8c.15,.78,.79,1.36,1.58,1.43,0,0,7.45,.45,7.83,.45,.19,0,.37,0,.55,0,.16,0,.32,0,.47,0,4.57,0,8.77-1.3,11.85-3.66,2.61-2.01,4.25-4.61,4.72-7.47l.13,8.9c.01,.89,.69,1.63,1.57,1.72l4.87,.5c.06,0,.12,0,.18,0,.88,0,1.64-.67,1.74-1.56l.99-9.08,6.31,9.86c.33,.51,.89,.81,1.48,.81,.11,0,.22-.01,.33-.03l4.28-.83c.51-.1,.96-.42,1.21-.88,.25-.46,.28-1.01,.09-1.49l-4.48-11.16c2.15-.95,4.2-2.41,5.81-4.19,2.51-2.75,3.83-6.02,3.83-9.46,0-3.88-1.17-6.86-3.57-9.11"/><path class="cls-2" d="M60.23,18.41l-2.86-.04c-.96-.02-1.76,.75-1.78,1.71l-.02,.82-3.79-3.92c-.49-.5-1.22-.67-1.88-.42-.09,.03-.17,.07-.25,.12-.18-.57-.52-1.09-.99-1.5-.67-.58-1.54-.88-2.42-.85-.96,.03-1.84,.42-2.47,1.1-.48,.52-.78,1.17-.86,1.85l-.64-.56c-.7-.61-1.75-.57-2.41,.09l-1.65,1.68,.26-3.65c.03-.47-.12-.93-.43-1.28-.31-.35-.74-.57-1.21-.6l-2.85-.18c-.46-.03-.92,.13-1.27,.43-.35,.31-.56,.74-.59,1.21l-.11,1.87c-.34-.14-.73-.17-1.11-.07-.16,.04-.21,.05-.36,.09h-.03c-1.74,.43-3.18,1.25-4.14,2.34-.22-.11-.47-.18-.72-.19l-2.86-.14c-.49-.02-.94,.16-1.28,.46-.45-.11-.91-.17-1.38-.19-2.21-.11-4.25,.77-5.65,2.22-1.39-2.31-4.16-3.71-7.13-3.35-.27,.03-.54,.08-.8,.15l-.22-1.76c-.12-.96-1-1.64-1.96-1.52l-2.83,.35c-.46,.06-.89,.3-1.17,.67-.29,.37-.41,.84-.35,1.3l1.85,13.85c.12,.88,.87,1.52,1.74,1.52,.07,0,.15,0,.23-.01l2.83-.36c.45-.06,.85-.28,1.14-.63,.44,.02,.88,0,1.33-.05,1.69-.21,3.25-1,4.39-2.18,.22,.36,.47,.71,.76,1.04,1.26,1.41,3.11,2.28,5.07,2.37,.44,.02,.87,0,1.29-.05,.31,.32,.73,.52,1.19,.54l2.85,.13s.05,0,.08,0c.61,0,1.15-.31,1.46-.79,.33,.35,.79,.55,1.28,.55,.16,0,.32-.02,.48-.07,.09-.03,.14-.04,.21-.05l.14-.03c1.3-.32,2.43-.86,3.32-1.57,.15,.17,.33,.3,.54,.4,.24,.12,.5,.17,.76,.17,.43,0,.85-.16,1.18-.46l4.14-3.76,1.66,2.23c.56,.75,1.61,.93,2.39,.41l1.24-.84,.02,.46c.03,.95,.81,1.69,1.75,1.69l7.5-.03c.96,.02,1.76-.75,1.78-1.71l.02-.72,3.68,3.93c.34,.36,.8,.56,1.28,.56,.2,0,.4-.03,.6-.11,.66-.24,1.11-.85,1.15-1.55l.63-11.27c.03-.48-.14-.94-.47-1.29-.33-.35-.78-.55-1.26-.56"/><path class="cls-2" d="M182.95,21.85c1.11-.49,1.33-1.01,.79-2.21l-.76-1.91c-.32-.77-1.14-1.21-1.97-1.04l-.15,.03c-.07,.02-.13,.03-.24,.05h-.02c-1.44,.28-2.69,.86-3.62,1.67-.32-.29-.73-.46-1.16-.46l-2.56-.03c-.47,0-.92,.17-1.25,.5-.3,.3-.48,.69-.52,1.11l-3.32-3.81c-.48-.55-1.25-.75-1.93-.49-.08,.03-.16,.07-.24,.11-.54-.48-1.26-.8-2.05-.84h-.03c-1.83-.07-3.34,1.26-3.43,3.01-.03,.52,.07,1.03,.29,1.5-.06,.13-.11,.27-.14,.41-1.23-1.03-2.85-1.63-4.61-1.57-.18,0-.36,.02-.54,.04l-.05-1.45c-.03-.97-.85-1.73-1.81-1.69l-2.56,.08c-.47,.02-.91,.22-1.23,.56-.32,.34-.49,.8-.47,1.26l.17,4.62c-1.07-.73-2.36-1.14-3.7-1.17-.19,0-.37,0-.55,0l.03-1.46c.02-.97-.74-1.77-1.71-1.79l-2.57-.06h-.04c-.95,0-1.73,.75-1.75,1.7l-.06,2.21c-1.15-.9-2.62-1.44-4.21-1.44-.03,0-.05,0-.08,0h0c-.9,.01-1.77,.19-2.57,.53l-.1-1.14c-.08-.95-.91-1.66-1.86-1.6l-.32,.02h-.02c-.52,.04-1.03,.13-1.51,.26-.35-.37-.86-.58-1.4-.54l-3.17,.24c-.47,.04-.9,.26-1.2,.61-.3,.36-.45,.82-.41,1.28l1,11.79c.08,.91,.84,1.61,1.75,1.61,.04,0,.09,0,.13,0l3.17-.24c.46-.03,.9-.25,1.2-.61,.3-.35,.45-.81,.42-1.28l-.04-.58c.1,.11,.2,.22,.31,.32,1.25,1.22,2.92,1.89,4.7,1.89,.03,0,.07,0,.1,0,1.4-.02,2.76-.46,3.87-1.24v.43c-.03,.47,.15,.92,.47,1.26,.32,.34,.76,.53,1.23,.55l2.56,.06h.04c.4,0,.77-.13,1.06-.36,.4,.08,.81,.12,1.23,.13,.06,0,.11,0,.17,0,1.94,0,3.7-.81,4.92-2.09,.28,.19,.62,.31,.99,.31,.02,0,.04,0,.06,0l2.56-.09c.4-.01,.78-.16,1.08-.42,.39,.05,.79,.08,1.2,.06,1.44-.05,2.8-.54,3.91-1.38,.06,.09,.12,.18,.19,.26,.31,.35,.75,.55,1.22,.58l7.5-.14h.03c.46,0,.9-.18,1.23-.5,.33-.33,.52-.77,.53-1.24v-.06l3.15,3.4c.34,.37,.81,.56,1.29,.56,.09,0,.19,0,.28-.02l.09,.22c.28,.66,.92,1.07,1.61,1.07,.09,0,.18,0,.28-.02h.06c.16-.03,.25-.05,.44-.09,2.21-.43,3.98-1.58,4.84-3.18,.65-1.21,.72-2.57,.19-3.83l-.93-2.53s-.56-1.18,.55-1.67"/><path class="cls-4" d="M120.88,14.18c0-6.51-3.67-10.43-13.13-11.81l-1.26,9.04c1.78,.5,5.35,1.93,5.35,5.48,0,4.06-4.11,5.99-7.05,6.78l-.71,5.11,7.48,11.69,4.28-.83-5.15-12.83c4.59-1.35,10.19-6.03,10.19-12.63"/><polygon class="cls-1" points="95.63 1.75 96.18 39.94 101.04 40.44 105.25 1.99 95.63 1.75"/><path class="cls-1" d="M85.19,21.77s6.13-2.54,6.13-8.51c0-7.18-6.12-10.71-13.66-10.76-.92,0-1.88,.03-2.87,.1l.16,8.41c4.33-.38,8.13,1.05,8.13,5.11,0,3.59-3.68,5.07-6.94,5.11l.41,4.48c4.57-.11,7.67,2.15,7.81,5.26,.16,3.63-2.81,5.91-8.93,5.54l.08,3.93c.84,.02,1.57,0,2.22,0,8.81,0,14.96-5.09,14.96-11.12,0-4.05-2.8-6.66-7.5-7.56"/><polygon class="cls-4" points="62.35 4.2 69.02 40 73.91 40.41 72.22 2.86 62.35 4.2"/><path class="cls-3" d="M7.91,21.83c-1.37,.17-2.4,1.43-2.23,2.7,.17,1.28,1.49,2.23,2.86,2.05,1.36-.18,2.4-1.42,2.23-2.7-.16-1.27-1.5-2.22-2.86-2.05m-2.82-1.69c.7-.48,1.51-.82,2.47-.94,2.97-.37,5.68,1.55,6.05,4.32,.37,2.77-1.74,5.32-4.71,5.7-.95,.12-1.83,.01-2.63-.29l.16,.98-2.83,.36-1.85-13.85,2.83-.35,.52,4.07Z"/><path class="cls-4" d="M17.18,25.26c-.08,1.28,1.04,2.44,2.41,2.51,1.38,.07,2.63-.98,2.7-2.27,.09-1.28-1.02-2.45-2.41-2.51-1.36-.07-2.63,1-2.71,2.28m5.52-5.19l2.86,.14-.8,10.85-2.85-.13,.12-.99c-.77,.36-1.64,.55-2.6,.5-2.99-.14-5.26-2.52-5.08-5.31,.18-2.8,2.72-4.93,5.7-4.79,.96,.04,1.8,.31,2.52,.75l.13-1.02Z"/><path class="cls-4" d="M32.16,19.7c-.19,.05-.24,.06-.43,.11-1.37,.33-2.19,1.37-1.8,2.23l1.8,3.96c.86,1.88-.85,4-3.82,4.72-.18,.04-.23,.05-.41,.1l-.82-1.8c.19-.05,.24-.07,.43-.11,1.37-.33,2.2-1.37,1.8-2.24l-1.8-3.95c-.86-1.89,.85-3.99,3.82-4.71,.19-.04,.24-.06,.43-.11l.81,1.79Z"/><polygon class="cls-4" points="38.51 24.61 32.95 29.67 33.87 14.52 36.72 14.71 36.11 23.12 41.1 18.03 43.16 19.84 40.47 22.6 43.62 26.85 41.33 28.4 38.51 24.61"/><path class="cls-4" d="M47.84,20.01l.34,9.3-2.85,.09-.34-9.3,2.85-.09Zm.21-2.41c.03,.88-.71,1.62-1.65,1.66-.96,.03-1.74-.67-1.77-1.54-.04-.89,.69-1.62,1.66-1.65,.94-.04,1.73,.65,1.76,1.53"/><polygon class="cls-4" points="60.2 20.16 59.58 31.43 52.97 24.36 52.85 29.38 50 29.33 50.52 18.19 57.23 25.13 57.34 20.12 60.2 20.16"/><path class="cls-4" d="M124.09,18.8l3.17-.24,.14,1.19c.8-.51,1.72-.83,2.78-.91l.32-.02,.25,2.93-.33,.02c-1.53,.11-2.74,1.45-2.61,2.87l.44,5.71-3.17,.24-1-11.79Z"/><path class="cls-4" d="M135.02,27.71c1.25-.02,2.29-1.02,2.28-2.17,0-1.14-1.08-2.14-2.33-2.12-1.23,.02-2.29,1.04-2.28,2.17,.01,1.16,1.1,2.13,2.33,2.12m-.08-6.68c2.69-.03,4.89,1.97,4.92,4.47,.04,2.51-2.13,4.56-4.81,4.6-2.68,.04-4.87-1.97-4.9-4.48-.03-2.5,2.1-4.55,4.79-4.59"/><path class="cls-4" d="M145.76,24.23c-1.24-.02-2.33,.95-2.36,2.1-.03,1.16,1,2.17,2.24,2.2,1.23,.03,2.33-.93,2.36-2.09,.03-1.15-1.02-2.17-2.24-2.2m-2.25-1.86c.69-.35,1.46-.53,2.32-.51,2.68,.06,4.81,2.13,4.74,4.64-.07,2.5-2.31,4.48-4.99,4.42-.87-.02-1.61-.23-2.29-.6l-.04,.83-2.56-.06,.35-12.53,2.57,.06-.09,3.75Z"/><path class="cls-4" d="M156.2,21.99c-1.25,.05-2.27,1.08-2.23,2.22,.05,1.17,1.14,2.11,2.38,2.07,1.23-.04,2.26-1.06,2.22-2.23-.05-1.14-1.16-2.11-2.38-2.07m-2.37-1.74c.66-.38,1.42-.61,2.28-.64,2.68-.09,4.94,1.86,5.04,4.36,.09,2.5-2.01,4.61-4.7,4.7-.86,.03-1.63-.14-2.32-.48l.05,.84-2.56,.09-.47-12.53,2.56-.08,.13,3.74Z"/><path class="cls-4" d="M164.93,19.91l-.46,8.34-2.56-.12,.46-8.33,2.57,.12Zm.39-2.13c-.05,.79-.77,1.4-1.62,1.36-.86-.04-1.5-.71-1.45-1.5,.04-.81,.75-1.39,1.61-1.36,.84,.04,1.5,.7,1.45,1.5"/><polygon class="cls-4" points="175.8 19.73 175.53 30.15 169.38 23.49 169.35 27.98 166.79 27.95 166.85 16.89 173.21 24.19 173.24 19.69 175.8 19.73"/><path class="cls-4" d="M182.15,20.3c-.18,.03-.23,.04-.42,.08-1.35,.26-2.16,1.27-1.78,2.19l1.76,4.17c.83,1.99-.85,4.06-3.77,4.61-.19,.04-.24,.05-.42,.08l-.8-1.9c.19-.03,.23-.04,.42-.07,1.35-.26,2.17-1.26,1.78-2.18l-1.75-4.17c-.84-1.99,.86-4.04,3.77-4.6,.19-.03,.24-.05,.42-.08l.79,1.9Z"/><path class="cls-2" d="M125.91,51.98l-2-1.52c-.34-.26-.79-.37-1.21-.29-.43,.08-.8,.33-1.04,.69-.43,.68-.89,1.31-1.41,1.86,.1-.29,.16-.6,.18-.92v-.03c.09-1.9-1.35-3.47-3.27-3.58-.66-.04-1.27,.08-1.81,.34,0-.07,.02-.15,.02-.22,.04-.42-.1-.83-.37-1.15-.27-.32-.67-.51-1.09-.53l-11.06-.62c-.42-.02-.83,.12-1.14,.41-.31,.28-.49,.68-.5,1.1l-.12,3.83c-.14-.09-.3-.15-.47-.19-.44-.1-.89,0-1.26,.26-1.05,.77-2.18,1.44-3.4,2.02l-.06-2.21c-.01-.41-.19-.81-.49-1.09-.3-.28-.7-.43-1.12-.42h-.33l.07-2.32c.01-.41-.14-.81-.43-1.11-.28-.3-.68-.47-1.09-.48l-7.38-.17c-.85-.02-1.56,.65-1.59,1.5l-.1,2.77c0,.07,0,.13,0,.2h-.33c-.85,.04-1.51,.75-1.5,1.59l.02,.88-4.77-.05c.03-.13,.05-.27,.04-.41l-.09-2.73c-.01-.42-.19-.81-.5-1.09-.31-.28-.71-.43-1.13-.41l-.97,.05c0-.27,0-.52,0-.77-.01-.84-.7-1.52-1.54-1.53l-3.33-.02h-.01c-.41,0-.81,.16-1.1,.46-.2,.2-.34,.46-.41,.73-.08-.12-.17-.23-.28-.32-.31-.28-.73-.41-1.14-.38l-3.32,.26c-.42,.03-.81,.23-1.07,.56-.27,.32-.39,.74-.35,1.16l.05,.5-.56,.03c-.84,.04-1.5,.75-1.47,1.59l.08,2.75c.01,.42,.19,.81,.5,1.09,.31,.28,.71,.43,1.13,.41l.96-.05,.16,1.48c.09,.81,.79,1.42,1.61,1.38l.59-.03c-.11,.04-.22,.09-.34,.13-.45,.16-.81,.53-.95,.99-.15,.46-.07,.96,.21,1.36l1.25,1.78c.29,.42,.77,.66,1.27,.66,.12,0,.25-.02,.38-.05,2.44-.61,4.24-1.67,5.5-3.24,.3-.37,.56-.77,.8-1.21,.07,.13,.15,.25,.26,.36,.29,.3,.68,.47,1.1,.48l7.6,.09h.02c.39,0,.75-.15,1.02-.38-.1,.15-.18,.32-.23,.51-.1,.43-.01,.89,.25,1.26l1.17,1.64c.3,.42,.77,.65,1.26,.65,.13,0,.26-.02,.38-.05,3.39-.86,5.42-2.7,6.26-5.72,0,.03,.01,.06,.02,.09l.61,1.92c.24,.75,1,1.2,1.77,1.05,.27-.05,.53-.1,.79-.16l.08,1.56c.02,.42,.21,.81,.52,1.08,.28,.25,.65,.39,1.03,.39,.04,0,.08,0,.11,0l3-.22c.41-.03,.79-.22,1.06-.53,.27-.31,.4-.72,.37-1.13l-.14-1.91h1.71c.06,.12,.13,.24,.22,.35l1.56,1.89c.3,.36,.74,.56,1.2,.56,.17,0,.35-.03,.52-.09,1.97-.71,4.18-1.99,5.93-4.31h.77c0,.15,.03,.31,.08,.46l1.06,3.13c.22,.64,.81,1.05,1.47,1.05,.06,0,.11,0,.17,0,5-.55,8.54-3.18,10.52-7.84,.28-.65,.08-1.41-.49-1.84"/><path class="cls-4" d="M75.4,52.17l-2.68,.13c-.38,4.87-2.4,7.26-6.52,8.29l-1.25-1.78c3.31-1.2,4.21-3.17,4.39-6.33l-2.52,.13,.15,2.97-2.87,.12-.32-2.93-2.42,.12-.08-2.75,2.2-.11-.23-2.14,3.32-.26,.12,2.23,2.72-.15c0-.85-.01-1.57-.02-2.56l3.33,.02c.01,.72,0,1.55-.01,2.38l2.61-.13,.09,2.73Z"/><polygon class="cls-4" points="74.33 54.05 81.93 54.13 81.85 57.02 74.25 56.94 74.33 54.05"/><path class="cls-4" d="M94.44,54.09l-3.64,.11c-.33,3.53-1.9,5.59-5.49,6.5l-1.17-1.64c2.13-1.13,3.04-2.14,3.09-4.52v-.24l-3.97,.12-.06-2.76,11.16-.39,.07,2.82Zm-1.93-6.74l-.08,2.77-7.39-.17,.1-2.78,7.38,.17Z"/><path class="cls-4" d="M101.75,55.34c-.65,.45-1.4,.91-2.27,1.3l.3,4-3,.22-.17-3.43c-.84,.23-1.71,.43-2.53,.58l-.61-1.92c2.46-.79,4.77-1.92,6.83-3.43l1.46,2.68Z"/><path class="cls-4" d="M102.77,47.55l11.06,.62c-.59,6.62-3.79,10.2-7.96,11.7l-1.56-1.89c2.84-1.58,4.78-3.27,5.25-7.22l-3.75-.22-.09,3.2-3.14-.02,.19-6.17Z"/><path class="cls-4" d="M124.97,53.22c-1.84,4.33-5.08,6.45-9.27,6.9l-1.06-3.13c4.26-.54,6.52-2.45,8.33-5.29l2,1.52Zm-9.98-1.77c.09-1.08,.96-1.77,2.08-1.7,1.1,.06,1.87,.94,1.82,1.96-.07,1.1-.95,1.82-2.06,1.74-1.1-.08-1.88-.95-1.84-2"/><polygon class="cls-4" points="183.83 20.91 183 20.91 183 20.36 185.26 20.36 185.26 20.91 184.43 20.91 184.43 23.08 183.83 23.08 183.83 20.91"/><polygon class="cls-4" points="185.67 20.36 186.32 20.36 187.03 21.51 187.75 20.36 188.39 20.36 188.39 23.08 187.8 23.08 187.8 21.3 187.04 22.46 187.02 22.46 186.26 21.31 186.26 23.08 185.67 23.08 185.67 20.36"/></g></g></svg>