<?xml version="1.0" encoding="UTF-8"?><svg id="_イヤー_2" xmlns="http://www.w3.org/2000/svg" viewBox="0 0 620 170.51"><defs><style>.cls-1{fill:#ec6f00;}.cls-2{fill:#fff;}</style></defs><g id="design"><g><rect class="cls-1" y="0" width="620" height="60" rx="30" ry="30"/><g><path class="cls-1" d="M84.69,89.52v7.85h-5.1v13.81l-18.18,8.93-4.26-7.79,14.1-6.48v-8.46h-9.26v7.3h-8.3v-7.3h-4.84v-7.85h4.84v-5.16h8.3v5.16h9.26v-5.16h8.34v5.16h5.1Z"/><path class="cls-1" d="M124.2,95.51v9.2h-35.8v-9.2h35.8Z"/><path class="cls-1" d="M163.92,94.77v7.5h-11.76v9.49l-14.8,8.34-4.88-7.79,10.94-5.59v-4.45h-15.39v-7.5h35.9Zm-2.25-11.15v7.75h-30.96v-7.75h30.96Z"/><path class="cls-1" d="M197.98,88.87v8.24l-7.05,3.16v19.32h-8.24v-15.61l-10.61,4.79-3.65-7.95,21.31-8.65v-3.3h8.24Z"/><path class="cls-1" d="M238.41,85.38v21.35l-20.16,13.38-5.8-7.44,17.05-10.8v-8.14h-16.7v8.14h-8.46v-16.48h34.06Z"/><path class="cls-1" d="M259.78,91.76l-4.22,8.26-12.7-7.21,4.36-7.85,12.56,6.8Zm18.79,3.4l-10.61,23.63h-24.79v-9.22h18.54l8.4-18.16,8.46,3.75Z"/><path class="cls-1" d="M307.63,116.17c-4.96,.16-8.56,.24-12,.24h-1.2c-6.84,0-9.04-.44-10.56-2.12-1.36-1.52-1.72-3.44-1.72-9.48,0-7.44,.4-10,1.88-11.56,1.48-1.6,3.76-2.04,10.48-2.04h1.84c5.8,0,7.8,.4,9.36,1.84,1.44,1.36,2,3.24,2,6.88,0,.24,0,1.04-.04,1.92l-.04,4.16h-16.52v.92c.04,1.24,.2,1.4,1.52,1.4h15v7.84Zm-8.72-15.24c.04-.2,.04-.36,.04-.6,0-1.4-.52-1.68-3.28-1.68h-2.12c-2.12,0-2.4,.2-2.44,1.52v.76h7.8Z"/><path class="cls-1" d="M344.56,107.65c-.16,6.24-2.48,8.6-8.56,8.76h-14.56c-6.24-.16-8.6-2.44-8.76-8.48v-17.24c.2-6.72,2.2-8.68,9.12-8.88h22.88v8.76h-19.24c-2.6,.08-3.2,.76-3.2,3.6v9.88c0,2.96,.44,3.44,3.12,3.52h7.32c1.88,0,2.2-.28,2.24-1.96v-2.56h-7.52v-8.48h17.16v13.08Z"/><path class="cls-1" d="M351.61,82.77h9.12v6.32h-9.12v-6.32Zm0,8.44h9.12v25.2h-9.12v-25.2Z"/><path class="cls-1" d="M364.87,91.21h4.92v-.52c0-3.32,.76-5.44,2.44-6.68,1.44-1.08,3.4-1.4,8.28-1.4h2q.68,0,2.2,.04v5.88h-.36c-.72-.04-1.04-.04-1.88-.04-3.12,0-3.96,.44-3.96,2.12q0,.36,.04,.6h6.12v7.6h-6.12v17.6h-8.76v-17.6h-4.92v-7.6Z"/><path class="cls-1" d="M388.79,91.21h7.72v-8.44h8.72v8.44h8.68v7.84h-8.68v6.4c.04,2.6,.36,2.88,2.96,2.92h5.8v8.04h-10.96c-4.64-.12-6.4-1.88-6.52-6.6v-10.76h-7.72v-7.84Z"/><path class="cls-1" d="M437.16,90.71l4.96,4.55v19.71l-3.91,4.63h-9.1v-8.42h4.75v-12.5h-4.02l-3.61,20.43h-8.05l3.81-20.43h-3.67v-7.97h5.14l1.02-5.45h7.75l-.98,5.45h5.92Zm9.9-2.95l-3.75,3.75-3.75-3.75,3.75-3.75,3.75,3.75Zm4.45,5.96l3.2,16.95h-8.46l-2.99-16.95h8.24Zm3.14-5.96l-3.75,3.75-3.75-3.75,3.75-3.75,3.75,3.75Z"/><path class="cls-1" d="M470.36,90.47l-5.29,4.1h6.74v-11.76h7.81v11.76h7.42l-5.72-4,5.2-7.36,6.35,3.65-5.49,7.71h5.74v25.18h-35.2v-7.09h27.09v-2.29h-26.15v-6.66h26.15v-2.25h-27.19v-6.89h6.15l-5.76-6.6,5.74-4.41,6.41,6.91Z"/><path class="cls-1" d="M514.58,88.97v8.14h-4.65l-4.61,22.48h-8.2l4.71-22.48h-4.36v-8.14h6.05l.84-4h8.05l-.82,4h2.99Zm9.2,17.25l-4.51,5.45h13.46v7.93h-15.55l-5.9-7.73,6.84-9.04,5.66,3.4Zm7.95-16.19v8.05h-15.41v-8.05h15.41Z"/><path class="cls-1" d="M567.82,85.38v6.19l-9.55,4.04h5.96l6.6,4.77v13.44l-7.5,5.78h-17.36l-4.75-3.98v-7.25l4.65-3.14h10.76l2.54,2.66v4.59l2.91-2.6v-5.06l-2.71-1.99h-11.45l-10.39,5.16-3.07-7.27,16.25-7.79h-11.35v-7.54h28.46Zm-15.96,27.44v-1.95h-2.99v1.95h2.99Z"/><path class="cls-1" d="M156.1,138.03v7.95h-13.3l.37,5.66h13.48v8.5h-12.91l.62,9.38h-8.65l-.49-9.38h-14.51v-8.5h14.08l-.27-5.66h-13.36v-7.95h12.95l-.2-4.1h8.09l.27,4.1h13.83Z"/><path class="cls-1" d="M192.31,142.54v8.59l-5.1,10.74-7.95-3.18,4.61-8.52h-9.38l1.46,19.3h-7.95l-1.43-19.3h-5.53v-7.64h4.94l-.27-3.81h7.89l.29,3.81h18.4Z"/><path class="cls-1" d="M214.43,141.68l-4.22,8.26-12.7-7.21,4.36-7.85,12.56,6.8Zm18.79,3.4l-10.61,23.63h-24.79v-9.22h18.54l8.4-18.16,8.46,3.75Z"/><path class="cls-1" d="M257.23,135.69l15,27.25-7.99,4.84-12.7-23.69h-4.41l-4.75,13.4-7.66-3.24,6.5-18.55h16Zm14.77,2.34l-5.8,5.86-5.86-5.86,5.86-5.8,5.8,5.8Zm-7.75,0l1.95,1.95,1.89-1.95-1.89-1.93-1.95,1.93Z"/><path class="cls-1" d="M309.17,145.43v9.2h-35.8v-9.2h35.8Z"/><path class="cls-1" d="M328.87,141.68l-4.22,8.26-12.7-7.21,4.36-7.85,12.56,6.8Zm18.79,3.4l-10.61,23.63h-24.79v-9.22h18.54l8.4-18.16,8.46,3.75Z"/><path class="cls-1" d="M384.37,142.39v5h-12.85v1.15h14.04v5.39h-14.04v1.25h15.1v5.41h-9.28l9.69,3.4-3.71,6.52-15.1-6.43-14.9,6.39-3.75-6.68,9.24-3.2h-9.18v-5.41h14.79v-1.25h-13.85v-5.39h13.85v-1.15h-12.54v-5h12.54v-1.64h7.11v1.64h12.85Zm2.3-8.2v7.3h-7.21v-1.5h-22.66v1.5h-7.19v-7.3h14.59v-1.6h7.6v1.6h14.86Z"/><path class="cls-1" d="M400.29,132.99v2.89h3.91v2.46l3.79-6.05,7.4,1.09-.64,1.11h12.34v6.6h-7.21v2.25l7.11-.55v17.29h-6.31v-7.5h.76v-1.89l-1.56,.1v10.51h-5.8v-10.2l-1.29,.08v11.5h8.11v-1h5.9v8.28h-20.21v-18.46l-1.48,.08v-7.09l1.48-.14v-2.23h3.5l-5.88-2.58v3.44h-6.7l-.16,2.4h7.05v24.47h-7.21v-7.48h1.31v-10h-1.56l-1.04,17.38-6.31-1.09,1.88-25.68h-1.68v-7.11h3.61v-2.89h6.89Zm10.55,8.11l-.62,1.04h2.58v1.76l1.29-.1v-2.7h-3.24Z"/><path class="cls-1" d="M466.69,137.54v22.6h-14.41v9.69h-7.6v-9.69h-14.3v-22.6h14.3v-4.41h7.6v4.41h14.41Zm-22.01,6.99h-6.99v8.5h6.99v-8.5Zm14.51,8.5v-8.5h-6.91v8.5h6.91Z"/><path class="cls-1" d="M487.81,164.69l-6.5,4.57-6.54-4.57,6.54-4.61,6.5,4.61Zm-1.66-31.41l-1.95,25.8h-5.84l-1.89-25.8h9.69Z"/></g><g><path class="cls-2" d="M41.63,32.12l-4.73,9.64-5.21-2.9,4.58-9.18,5.36,2.45Zm10.46-10.77l3.94,3.94,2.77-2.78v4.88h-9.9v16.93h-6.25V27.39h-10.46v-6.04h10.46v-3.82h6.25v3.82h3.19Zm2.89,8.58l5.29,9.08-5.48,2.55-5.02-9.35,5.21-2.29Zm4.69-9.04l-3.63,3.63-3.63-3.63,3.63-3.63,3.63,3.63Zm-4.54,0l.91,.91,.89-.91-.89-.89-.91,.89Z"/><path class="cls-2" d="M73.93,17.29v3.08h16.88v6.2h-5.07v9.18l-10.46,9.32-4.64-4.75,8.8-7.98v-5.77h-5.62l-6.52,7.12-4.5-4.76,4.86-5.07v-6.56h6.27Z"/><path class="cls-2" d="M123.02,17.12v3.75h-11.66l-.06,.75h9.92v12.79h-10.37l-1.8,.67h11.54l1.2,3.27-3.69,1.39,5.19,.48-.97,4.82-12.82-2.11-12.91,2.18-1.66-4.26,8.54-1.19-2.4-.85-4.72,.98-1.46-3.52,9.1-1.88h-6.91v-12.79h8.7l.06-.75h-10.68v-3.75h27.86Zm-7.27,7.98v-.75h-13.51v.75h13.51Zm0,3.22v-.79h-13.51v.79h13.51Zm0,3.27v-.79h-13.51v.79h13.51Zm-6.15,7.24l3.52-1.01h-5.79l2.27,1.01Z"/><path class="cls-2" d="M143.88,16.88v1.27h11.03v4.42h-6.06l-.26,.91h5.42v21.14h-7.79v-2.21h-11.75v-8.92h12.83v5.74h1.32v-6.34h-6.61v-4.83h-1.39l-1.76,5-5.02-1.03,1.33-3.97h-1.93v16.57h-5.17V23.49h5.7l-.31-.91h-6.15v-4.42h10.81v-1.27h5.77Zm-.88,5.7h-3.98l.32,.91h3.4l.26-.91Zm-.88,15.72v-.98h-2.71v.98h2.71Zm6.49-9.38v-.86h-2.04v.86h2.04Z"/><path class="cls-2" d="M171.9,30.68v13.56h-13.2v-13.56h13.2Zm11.51-13.15v12h-22.12v-12h22.12Zm-17.21,21.04v-2.62h-2.17v2.62h2.17Zm10.99-13.99v-2.09h-9.9v2.09h9.9Zm9.16,6.11v13.56h-13.05v-13.56h13.05Zm-5.48,7.88v-2.62h-2.17v2.62h2.17Z"/><path class="cls-2" d="M207.55,24.58l-3.31,19.12h-8.51l-4.8-5.65v-13.08l5.36-6.27h15.34l6.11,6.2v15.18l-8.77,4.64-3.3-6.02,5.55-2.64v-9.14l-2.55-2.33h-1.11Zm-6.17,0h-2.09l-2.14,2.26v8.95l.82,.86h1.13l2.29-12.07Z"/><path class="cls-2" d="M249.87,17.56v7.35h-3.72v2.29h-12.6l-.07,1.01h11.7v5.02h5.02v5.19h-5.02v6.14h-16.17v-4.86h10.4v-1.27h-17.3v-5.19h17.3v-1.11h-11.63l.7-9.9h-.85v2.7h-5.19v-7.35h27.42Zm-5.41,5.67v-1.01h-10.58l-.07,1.01h10.65Z"/><path class="cls-2" d="M281.95,17.6v3.6h-10.99v.67h8.7v13.34h-23.1v-13.34h8.7v-.67h-10.91v-3.6h10.91v-.79h5.7v.79h10.99Zm.15,18.37v3.6h-8.33l8.64,1.61-2.71,3.88-10.27-2.96,2.65-2.53h-6.99l1.71,2.36-9.87,3.18-2.48-3.71,8.29-1.83h-8.32v-3.6h27.67Zm-7.91-10.39v-.79h-12.38v.79h12.38Zm0,3.34v-.75h-12.38v.75h12.38Zm0,3.37v-.78h-12.38v.78h12.38Z"/><path class="cls-2" d="M311,19.43v4.88h-11.91l-1.48,1.68h5.36l2.2,2.01,5.45-2.3,2.62,5.05-6.11,2.84v3.72h-5.96v-1.46l-4.47,2.15v.48h15.23v5.83h-16.44l-4.26-2.46v-6.9l8.29-3.82h-6.43l-3.82,4.35-4.23-3.97,6.42-7.21h-4.28v-4.88h8.63l2.14-2.4h7.53l-2.09,2.4h7.62Z"/><path class="cls-2" d="M325.61,20.68v5.39h-1.27v2.29l1.2-.21v-.64h19.95v3.44h-9.3v.6h8.94v5.17l-1.26,1.61,2.23,1.66-1.9,4.94-3.02-2.53-2.46,2.58-2.52-3.3v2.99h-4.35v-1.79l-5.92,.59v-4.26l.53-.03v-8.22h-.83v2.55l-1.27,.34v10.68h-6.3v-5.54h1.58v-3.93l-2.11,.56-.37-6.01,2.48-.42v-3.11h-2.11v-5.39h2.11v-3.75h4.72v3.75h1.27Zm19.2-3.75v9.83h-18.44v-9.83h18.44Zm-12.98,14.02h-1.42v.75h1.42v-.75Zm-1.42,3.53v.75h1.42v-.75h-1.42Zm0,3.44v1l1.42-.09v-.91h-1.42Zm9.16-17.39v-.69h-8.03v.69h8.03Zm0,3.37v-.75h-8.03v.75h8.03Zm-3.38,11.98v4.95l1.8-2.07-1.8-2.89Zm4.37,.7l1.11-1.58h-2.27l1.16,1.58Z"/><path class="cls-2" d="M367.15,23.26l6.67,5.41v8.92l-7.35,6.71h-12.86v-5.95h10.62l3.63-3.19v-3.63l-2.77-2.21h-14.18v-6.05h16.25Z"/><path class="cls-2" d="M404.63,18.61v6.83l-14.21,9.4v1.32l3.12,1.73h9.07v6.4h-9.16l-9.96-5.54v-6.34l11.62-7.62h-17.17v-6.18h26.69Z"/><path class="cls-2" d="M418.13,20.71v5.19h-1.63v2.5l1.7-.26v5.19l-1.7,.4v10.8h-6.52v-5.54h1.58v-4.1l-2.52,.57v-5.87l2.52-.4v-3.28h-2.52v-5.19h2.52v-3.71h4.94v3.71h1.63Zm18.59,8.14v4.88l-2.7,3.57,3.49,1.38-2.02,5.68-6.93-3.35-7.18,3.72-2.89-5.27,5.14-2.17-3.21-3.27h-1.11v-5.17h17.4Zm-3.85-11.92v5.99h1.35v-2.7h2.7v7.72h-9.3v-5.62h-2.09l-.98,6.01-5.39-.6,1.8-10.8h11.92Zm-4.51,18.66l1.58-1.57h-3.21l1.63,1.57Z"/><path class="cls-2" d="M449.83,17.46v4.79l-1.27,.09v1.57h1.27v5.24h-1.27v.16l1.39,2.62v5.89l-1.39-2.48v9.32h-4.5v-8.45l-2.21,3.59-.79-6.67,2.83-3.98h-2.67v-5.24h2.84v-1.25l-2.62,.19-.22-4.72,8.61-.67Zm12.3-.45v.97h6.68v3.75h-18.46v-3.75h6.46v-.97h5.32Zm6.23,13.42v14.24h-6.23v-1.88h-5.7v-7.71h6.23v4.95h.89v-5.77h-8.1v10.4h-4.64v-14.24h17.55Zm-1.42-7.94v7.19h-15.07v-7.19h15.07Zm-4.8,4.04v-.97h-5.24v.97h5.24Zm-1.88,12.91v-1.2h-1.2v1.2h1.2Z"/><path class="cls-2" d="M480.29,18.61v17.33l2.07,2.02h6.42l5.82-9.3,5.55,3.19-7.73,12.44h-13.05l-5.43-5.43V18.61h6.37Z"/><path class="cls-2" d="M528.18,20.71v6.05h-7.27v4.73l9.04,4.79-2.86,6.31-5.98-3.41-2.9,5.11h-10.09l-4.83-7.19,4.23-7.16h6.9v-12.07h6.49v2.84h7.27Zm-13.75,14.71h-3.71v2.4h3.71v-2.4Z"/><path class="cls-2" d="M554.9,25.92l4.35,2.96v8.89l-7.35,6.55h-14.33v-6.4h11.82l3.34-2.99v-3.12h-18.72v-5.89h20.89Zm1.17-7.43v5.67h-18.57v-5.67h18.57Z"/><path class="cls-2" d="M577.35,40.7l-4.88,3.43-4.91-3.43,4.91-3.46,4.88,3.46Zm-1.25-23.55l-1.46,19.35h-4.38l-1.42-19.35h7.27Z"/></g></g></g></svg>