<?xml version="1.0" encoding="UTF-8"?><svg id="_イヤー_2" xmlns="http://www.w3.org/2000/svg" xmlns:xlink="http://www.w3.org/1999/xlink" viewBox="0 0 620 176.51"><defs><style>.cls-1{fill:none;}.cls-2{clip-path:url(#clippath);}.cls-3{fill:#ec6f00;}.cls-4{fill:#fff;}.cls-5{clip-path:url(#clippath-1);}</style><clipPath id="clippath"><rect class="cls-1" width="620" height="176.51"/></clipPath><clipPath id="clippath-1"><rect class="cls-1" width="620" height="176.51"/></clipPath></defs><g id="design"><g id="_ートワーク_1"><g class="cls-2"><g class="cls-5"><path class="cls-3" d="M590,60H30C13.43,60,0,46.57,0,30S13.43,0,30,0H590c16.57,0,30,13.43,30,30s-13.43,30-30,30"/><polygon class="cls-4" points="89.69 94.52 89.69 102.37 84.59 102.37 84.59 116.18 66.4 125.1 62.15 117.31 76.25 110.83 76.25 102.37 66.99 102.37 66.99 109.67 58.69 109.67 58.69 102.37 53.85 102.37 53.85 94.52 58.69 94.52 58.69 89.36 66.99 89.36 66.99 94.52 76.25 94.52 76.25 89.36 84.59 89.36 84.59 94.52 89.69 94.52"/><rect class="cls-4" x="93.4" y="100.51" width="35.8" height="9.2"/><path class="cls-4" d="M168.92,99.77v7.5h-11.76v9.49l-14.8,8.34-4.88-7.79,10.94-5.59v-4.45h-15.39v-7.5h35.9Zm-2.25-3.4h-30.96v-7.75h30.96v7.75Z"/><polygon class="cls-4" points="202.98 93.87 202.98 102.11 195.93 105.28 195.93 124.6 187.69 124.6 187.69 108.99 177.08 113.77 173.43 105.83 194.74 97.17 194.74 93.87 202.98 93.87"/><polygon class="cls-4" points="243.41 90.38 243.41 111.72 223.26 125.1 217.46 117.66 234.51 106.86 234.51 98.72 217.81 98.72 217.81 106.86 209.35 106.86 209.35 90.38 243.41 90.38"/><path class="cls-4" d="M264.78,96.76l-4.22,8.26-12.7-7.21,4.36-7.85,12.56,6.8Zm18.79,3.4l-10.61,23.63h-24.79v-9.22h18.54l8.4-18.16,8.46,3.75Z"/><path class="cls-4" d="M312.63,121.17c-4.96,.16-8.56,.24-12,.24h-1.2c-6.84,0-9.04-.44-10.56-2.12-1.36-1.52-1.72-3.44-1.72-9.48,0-7.44,.4-10,1.88-11.56,1.48-1.6,3.76-2.04,10.48-2.04h1.84c5.8,0,7.8,.4,9.36,1.84,1.44,1.36,2,3.24,2,6.88,0,.24,0,1.04-.04,1.92l-.04,4.16h-16.52v.92c.04,1.24,.2,1.4,1.52,1.4h15v7.84Zm-8.72-15.24c.04-.2,.04-.36,.04-.6,0-1.4-.52-1.68-3.28-1.68h-2.12c-2.12,0-2.4,.2-2.44,1.52v.76h7.8Z"/><path class="cls-4" d="M349.56,112.65c-.16,6.24-2.48,8.6-8.56,8.76h-14.56c-6.24-.16-8.6-2.44-8.76-8.48v-17.24c.2-6.72,2.2-8.68,9.12-8.88h22.88v8.76h-19.24c-2.6,.08-3.2,.76-3.2,3.6v9.88c0,2.96,.44,3.44,3.12,3.52h7.32c1.88,0,2.2-.28,2.24-1.96v-2.56h-7.52v-8.48h17.16v13.08Z"/><path class="cls-4" d="M356.61,87.77h9.12v6.32h-9.12v-6.32Zm0,8.44h9.12v25.19h-9.12v-25.19Z"/><path class="cls-4" d="M369.87,96.21h4.92v-.52c0-3.32,.76-5.44,2.44-6.68,1.44-1.08,3.4-1.4,8.28-1.4h2q.68,0,2.2,.04v5.88h-.36c-.72-.04-1.04-.04-1.88-.04-3.12,0-3.96,.44-3.96,2.12q0,.36,.04,.6h6.12v7.6h-6.12v17.6h-8.76v-17.6h-4.92v-7.6Z"/><path class="cls-4" d="M393.79,96.21h7.72v-8.44h8.72v8.44h8.68v7.84h-8.68v6.4c.04,2.6,.36,2.88,2.96,2.92h5.8v8.04h-10.96c-4.64-.12-6.4-1.88-6.52-6.6v-10.76h-7.72v-7.84Z"/><path class="cls-4" d="M442.16,95.71l4.96,4.55v19.71l-3.91,4.63h-9.1v-8.42h4.75v-12.5h-4.02l-3.61,20.43h-8.05l3.81-20.43h-3.67v-7.97h5.14l1.02-5.45h7.75l-.98,5.45h5.92Zm9.9-2.95l-3.75,3.75-3.75-3.75,3.75-3.75,3.75,3.75Zm4.45,5.96l3.2,16.95h-8.46l-2.99-16.95h8.24Zm3.14-5.96l-3.75,3.75-3.75-3.75,3.75-3.75,3.75,3.75Z"/><polygon class="cls-4" points="475.36 95.47 470.07 99.58 476.8 99.58 476.8 87.82 484.62 87.82 484.62 99.58 492.04 99.58 486.32 95.57 491.51 88.21 497.86 91.86 492.37 99.58 498.11 99.58 498.11 124.75 462.92 124.75 462.92 117.66 490.01 117.66 490.01 115.38 463.85 115.38 463.85 108.72 490.01 108.72 490.01 106.47 462.82 106.47 462.82 99.58 468.97 99.58 463.21 92.97 468.95 88.56 475.36 95.47"/><path class="cls-4" d="M519.58,93.97v8.14h-4.65l-4.61,22.48h-8.2l4.71-22.48h-4.36v-8.14h6.05l.84-4h8.05l-.82,4h2.99Zm9.2,17.25l-4.51,5.45h13.46v7.93h-15.55l-5.9-7.73,6.84-9.04,5.66,3.4Zm7.95-8.14h-15.41v-8.05h15.41v8.05Z"/><path class="cls-4" d="M572.82,90.38v6.19l-9.55,4.04h5.96l6.6,4.76v13.44l-7.5,5.78h-17.36l-4.75-3.98v-7.25l4.65-3.15h10.76l2.54,2.66v4.59l2.91-2.6v-5.06l-2.71-1.99h-11.45l-10.39,5.16-3.07-7.27,16.25-7.79h-11.35v-7.54h28.46Zm-15.96,25.49h-2.99v1.95h2.99v-1.95Z"/><polygon class="cls-4" points="161.1 143.03 161.1 150.98 147.79 150.98 148.17 156.64 161.64 156.64 161.64 165.14 148.73 165.14 149.36 174.51 140.7 174.51 140.22 165.14 125.7 165.14 125.7 156.64 139.79 156.64 139.51 150.98 126.15 150.98 126.15 143.03 139.1 143.03 138.91 138.93 146.99 138.93 147.27 143.03 161.1 143.03"/><polygon class="cls-4" points="197.31 147.54 197.31 156.14 192.22 166.88 184.27 163.69 188.88 155.18 179.5 155.18 180.97 174.48 173.02 174.48 171.59 155.18 166.06 155.18 166.06 147.54 171.01 147.54 170.73 143.73 178.62 143.73 178.92 147.54 197.31 147.54"/><path class="cls-4" d="M219.43,146.68l-4.22,8.26-12.7-7.21,4.35-7.85,12.56,6.8Zm18.79,3.4l-10.6,23.63h-24.79v-9.22h18.54l8.4-18.16,8.46,3.75Z"/><path class="cls-4" d="M262.23,140.69l15,27.25-7.99,4.84-12.7-23.69h-4.41l-4.75,13.4-7.66-3.24,6.5-18.56h16Zm14.77,2.34l-5.8,5.86-5.86-5.86,5.86-5.8,5.8,5.8Zm-7.75,0l1.95,1.95,1.89-1.95-1.89-1.93-1.95,1.93Z"/><rect class="cls-4" x="278.37" y="150.43" width="35.8" height="9.2"/><path class="cls-4" d="M333.87,146.68l-4.22,8.26-12.7-7.21,4.36-7.85,12.56,6.8Zm18.79,3.4l-10.61,23.63h-24.79v-9.22h18.54l8.4-18.16,8.46,3.75Z"/><path class="cls-4" d="M389.37,147.39v5h-12.85v1.15h14.04v5.39h-14.04v1.25h15.1v5.41h-9.28l9.69,3.4-3.71,6.52-15.1-6.43-14.9,6.39-3.75-6.68,9.24-3.2h-9.18v-5.41h14.79v-1.25h-13.85v-5.39h13.85v-1.15h-12.54v-5h12.54v-1.64h7.11v1.64h12.85Zm2.3-8.2v7.31h-7.21v-1.5h-22.66v1.5h-7.19v-7.31h14.59v-1.6h7.6v1.6h14.86Z"/><path class="cls-4" d="M405.29,137.99v2.89h3.91v2.46l3.79-6.05,7.4,1.09-.64,1.11h12.34v6.6h-7.21v2.25l7.11-.55v17.28h-6.31v-7.5h.76v-1.89l-1.56,.1v10.51h-5.8v-10.19l-1.29,.08v11.5h8.11v-1h5.9v8.28h-20.21v-18.46l-1.48,.08v-7.09l1.48-.14v-2.23h3.5l-5.88-2.58v3.44h-6.7l-.16,2.4h7.05v24.47h-7.21v-7.48h1.31v-10h-1.56l-1.04,17.38-6.31-1.09,1.88-25.68h-1.68v-7.11h3.61v-2.89h6.89Zm10.55,8.1l-.62,1.03h2.58v1.76l1.29-.1v-2.69h-3.24Z"/><path class="cls-4" d="M471.69,142.54v22.6h-14.41v9.69h-7.6v-9.69h-14.3v-22.6h14.3v-4.41h7.6v4.41h14.41Zm-22.01,6.99h-6.99v8.5h6.99v-8.5Zm14.51,0h-6.91v8.5h6.91v-8.5Z"/><path class="cls-4" d="M492.81,169.69l-6.5,4.57-6.54-4.57,6.54-4.61,6.5,4.61Zm-1.66-31.41l-1.95,25.8h-5.84l-1.89-25.8h9.69Z"/><polygon class="cls-3" points="84.69 89.52 84.69 97.37 79.59 97.37 79.59 111.18 61.4 120.1 57.15 112.31 71.25 105.83 71.25 97.37 61.99 97.37 61.99 104.67 53.69 104.67 53.69 97.37 48.85 97.37 48.85 89.52 53.69 89.52 53.69 84.36 61.99 84.36 61.99 89.52 71.25 89.52 71.25 84.36 79.59 84.36 79.59 89.52 84.69 89.52"/><rect class="cls-3" x="88.4" y="95.51" width="35.8" height="9.2"/><path class="cls-3" d="M163.92,94.77v7.5h-11.76v9.49l-14.8,8.34-4.88-7.79,10.94-5.59v-4.45h-15.39v-7.5h35.9Zm-2.25-3.4h-30.96v-7.75h30.96v7.75Z"/><polygon class="cls-3" points="197.98 88.87 197.98 97.11 190.93 100.28 190.93 119.6 182.69 119.6 182.69 103.99 172.08 108.77 168.43 100.83 189.74 92.17 189.74 88.87 197.98 88.87"/><polygon class="cls-3" points="238.41 85.38 238.41 106.72 218.26 120.1 212.46 112.66 229.51 101.86 229.51 93.72 212.81 93.72 212.81 101.86 204.35 101.86 204.35 85.38 238.41 85.38"/><path class="cls-3" d="M259.78,91.76l-4.22,8.26-12.7-7.21,4.36-7.85,12.56,6.8Zm18.79,3.4l-10.61,23.63h-24.79v-9.22h18.54l8.4-18.16,8.46,3.75Z"/><path class="cls-3" d="M307.63,116.17c-4.96,.16-8.56,.24-12,.24h-1.2c-6.84,0-9.04-.44-10.56-2.12-1.36-1.52-1.72-3.44-1.72-9.48,0-7.44,.4-10,1.88-11.56,1.48-1.6,3.76-2.04,10.48-2.04h1.84c5.8,0,7.8,.4,9.36,1.84,1.44,1.36,2,3.24,2,6.88,0,.24,0,1.04-.04,1.92l-.04,4.16h-16.52v.92c.04,1.24,.2,1.4,1.52,1.4h15v7.84Zm-8.72-15.24c.04-.2,.04-.36,.04-.6,0-1.4-.52-1.68-3.28-1.68h-2.12c-2.12,0-2.4,.2-2.44,1.52v.76h7.8Z"/><path class="cls-3" d="M344.56,107.65c-.16,6.24-2.48,8.6-8.56,8.76h-14.56c-6.24-.16-8.6-2.44-8.76-8.48v-17.24c.2-6.72,2.2-8.68,9.12-8.88h22.88v8.76h-19.24c-2.6,.08-3.2,.76-3.2,3.6v9.88c0,2.96,.44,3.44,3.12,3.52h7.32c1.88,0,2.2-.28,2.24-1.96v-2.56h-7.52v-8.48h17.16v13.08Z"/><path class="cls-3" d="M351.61,82.77h9.12v6.32h-9.12v-6.32Zm0,8.44h9.12v25.19h-9.12v-25.19Z"/><path class="cls-3" d="M364.87,91.21h4.92v-.52c0-3.32,.76-5.44,2.44-6.68,1.44-1.08,3.4-1.4,8.28-1.4h2q.68,0,2.2,.04v5.88h-.36c-.72-.04-1.04-.04-1.88-.04-3.12,0-3.96,.44-3.96,2.12q0,.36,.04,.6h6.12v7.6h-6.12v17.6h-8.76v-17.6h-4.92v-7.6Z"/><path class="cls-3" d="M388.79,91.21h7.72v-8.44h8.72v8.44h8.68v7.84h-8.68v6.4c.04,2.6,.36,2.88,2.96,2.92h5.8v8.04h-10.96c-4.64-.12-6.4-1.88-6.52-6.6v-10.76h-7.72v-7.84Z"/><path class="cls-3" d="M437.16,90.71l4.96,4.55v19.71l-3.91,4.63h-9.1v-8.42h4.75v-12.5h-4.02l-3.61,20.43h-8.05l3.81-20.43h-3.67v-7.97h5.14l1.02-5.45h7.75l-.98,5.45h5.92Zm9.9-2.95l-3.75,3.75-3.75-3.75,3.75-3.75,3.75,3.75Zm4.45,5.96l3.2,16.95h-8.46l-2.99-16.95h8.24Zm3.14-5.96l-3.75,3.75-3.75-3.75,3.75-3.75,3.75,3.75Z"/><polygon class="cls-3" points="470.36 90.47 465.07 94.58 471.8 94.58 471.8 82.82 479.62 82.82 479.62 94.58 487.04 94.58 481.32 90.57 486.51 83.21 492.86 86.86 487.37 94.58 493.11 94.58 493.11 119.75 457.92 119.75 457.92 112.66 485.01 112.66 485.01 110.38 458.85 110.38 458.85 103.72 485.01 103.72 485.01 101.47 457.82 101.47 457.82 94.58 463.97 94.58 458.21 87.97 463.95 83.56 470.36 90.47"/><path class="cls-3" d="M514.58,88.97v8.14h-4.65l-4.61,22.48h-8.2l4.71-22.48h-4.36v-8.14h6.05l.84-4h8.05l-.82,4h2.99Zm9.2,17.25l-4.51,5.45h13.46v7.93h-15.55l-5.9-7.73,6.84-9.04,5.66,3.4Zm7.95-8.14h-15.41v-8.05h15.41v8.05Z"/><path class="cls-3" d="M567.82,85.38v6.19l-9.55,4.04h5.96l6.6,4.76v13.44l-7.5,5.78h-17.36l-4.75-3.98v-7.25l4.65-3.14h10.76l2.54,2.66v4.59l2.91-2.6v-5.06l-2.71-1.99h-11.45l-10.39,5.16-3.07-7.27,16.25-7.79h-11.35v-7.54h28.46Zm-15.96,25.49h-2.99v1.95h2.99v-1.95Z"/><polygon class="cls-3" points="156.1 138.03 156.1 145.98 142.79 145.98 143.17 151.64 156.64 151.64 156.64 160.14 143.73 160.14 144.36 169.51 135.7 169.51 135.22 160.14 120.7 160.14 120.7 151.64 134.79 151.64 134.51 145.98 121.15 145.98 121.15 138.03 134.1 138.03 133.91 133.93 141.99 133.93 142.27 138.03 156.1 138.03"/><polygon class="cls-3" points="192.31 142.54 192.31 151.14 187.22 161.88 179.27 158.69 183.88 150.18 174.5 150.18 175.97 169.48 168.02 169.48 166.59 150.18 161.06 150.18 161.06 142.54 166.01 142.54 165.73 138.73 173.62 138.73 173.92 142.54 192.31 142.54"/><path class="cls-3" d="M214.43,141.68l-4.22,8.26-12.7-7.21,4.35-7.85,12.56,6.8Zm18.79,3.4l-10.6,23.63h-24.79v-9.22h18.54l8.4-18.16,8.46,3.75Z"/><path class="cls-3" d="M257.23,135.69l15,27.25-7.99,4.84-12.7-23.69h-4.41l-4.75,13.4-7.66-3.24,6.5-18.56h16Zm14.77,2.34l-5.8,5.86-5.86-5.86,5.86-5.8,5.8,5.8Zm-7.75,0l1.95,1.95,1.89-1.95-1.89-1.93-1.95,1.93Z"/><rect class="cls-3" x="273.37" y="145.43" width="35.8" height="9.2"/><path class="cls-3" d="M328.87,141.68l-4.22,8.26-12.7-7.21,4.36-7.85,12.56,6.8Zm18.79,3.4l-10.61,23.63h-24.79v-9.22h18.54l8.4-18.16,8.46,3.75Z"/><path class="cls-3" d="M384.37,142.39v5h-12.85v1.15h14.04v5.39h-14.04v1.25h15.1v5.41h-9.28l9.69,3.4-3.71,6.52-15.1-6.43-14.9,6.39-3.75-6.68,9.24-3.2h-9.18v-5.41h14.79v-1.25h-13.85v-5.39h13.85v-1.15h-12.54v-5h12.54v-1.64h7.11v1.64h12.85Zm2.3-8.2v7.31h-7.21v-1.5h-22.66v1.5h-7.19v-7.31h14.59v-1.6h7.6v1.6h14.86Z"/><path class="cls-3" d="M400.29,132.99v2.89h3.91v2.46l3.79-6.05,7.4,1.09-.64,1.11h12.34v6.6h-7.21v2.25l7.11-.55v17.28h-6.31v-7.5h.76v-1.89l-1.56,.1v10.51h-5.8v-10.19l-1.29,.08v11.5h8.11v-1h5.9v8.28h-20.21v-18.46l-1.48,.08v-7.09l1.48-.14v-2.23h3.5l-5.88-2.58v3.44h-6.7l-.16,2.4h7.05v24.47h-7.21v-7.48h1.31v-10h-1.56l-1.04,17.38-6.31-1.09,1.88-25.68h-1.68v-7.11h3.61v-2.89h6.89Zm10.55,8.1l-.62,1.03h2.58v1.76l1.29-.1v-2.69h-3.24Z"/><path class="cls-3" d="M466.69,137.54v22.6h-14.41v9.69h-7.6v-9.69h-14.3v-22.6h14.3v-4.41h7.6v4.41h14.41Zm-22.01,6.99h-6.99v8.5h6.99v-8.5Zm14.51,0h-6.91v8.5h6.91v-8.5Z"/><path class="cls-3" d="M487.81,164.69l-6.5,4.57-6.54-4.57,6.54-4.61,6.5,4.61Zm-1.66-31.41l-1.95,25.8h-5.84l-1.89-25.8h9.69Z"/><path class="cls-4" d="M41.63,32.12l-4.73,9.64-5.21-2.9,4.58-9.18,5.36,2.45Zm10.46-10.77l3.94,3.94,2.77-2.78v4.88h-9.9v16.93h-6.25V27.39h-10.46v-6.04h10.46v-3.82h6.25v3.82h3.19Zm2.89,8.58l5.29,9.08-5.48,2.55-5.02-9.35,5.22-2.29Zm4.69-9.04l-3.63,3.63-3.63-3.63,3.63-3.63,3.63,3.63Zm-4.54,0l.91,.91,.89-.91-.89-.89-.91,.89Z"/><polygon class="cls-4" points="73.93 17.3 73.93 20.37 90.81 20.37 90.81 26.57 85.74 26.57 85.74 35.75 75.28 45.07 70.64 40.32 79.44 32.34 79.44 26.57 73.81 26.57 67.3 33.69 62.8 28.93 67.66 23.86 67.66 17.3 73.93 17.3"/><path class="cls-4" d="M123.02,17.12v3.75h-11.66l-.06,.75h9.92v12.79h-10.37l-1.8,.67h11.54l1.2,3.27-3.69,1.39,5.19,.48-.97,4.82-12.82-2.11-12.91,2.18-1.65-4.26,8.54-1.19-2.4-.85-4.72,.98-1.47-3.52,9.1-1.88h-6.91v-12.79h8.7l.06-.75h-10.68v-3.75h27.86Zm-7.27,7.24h-13.51v.75h13.51v-.75Zm0,3.18h-13.51v.79h13.51v-.79Zm0,3.27h-13.51v.79h13.51v-.79Zm-6.15,8.03l3.52-1.01h-5.79l2.27,1.01Z"/><path class="cls-4" d="M143.88,16.88v1.27h11.03v4.42h-6.06l-.26,.91h5.42v21.14h-7.79v-2.21h-11.75v-8.92h12.83v5.74h1.32v-6.34h-6.61v-4.83h-1.39l-1.76,5-5.03-1.03,1.33-3.97h-1.93v16.57h-5.17V23.49h5.7l-.31-.91h-6.15v-4.42h10.81v-1.27h5.77Zm-.88,5.7h-3.98l.32,.91h3.4l.26-.91Zm-.88,14.74h-2.71v.98h2.71v-.98Zm6.49-9.26h-2.04v.86h2.04v-.86Z"/><path class="cls-4" d="M171.9,44.25h-13.2v-13.56h13.2v13.56Zm11.51-14.72h-22.12v-12h22.12v12Zm-17.21,6.42h-2.17v2.62h2.17v-2.62Zm10.99-13.46h-9.9v2.1h9.9v-2.1Zm9.15,21.77h-13.05v-13.56h13.05v13.56Zm-5.48-8.3h-2.17v2.62h2.17v-2.62Z"/><path class="cls-4" d="M207.55,24.58l-3.31,19.12h-8.51l-4.8-5.65v-13.08l5.36-6.27h15.34l6.11,6.2v15.18l-8.77,4.64-3.3-6.02,5.55-2.64v-9.14l-2.55-2.33h-1.11Zm-6.17,0h-2.1l-2.14,2.26v8.95l.82,.86h1.13l2.29-12.07Z"/><path class="cls-4" d="M249.87,17.56v7.35h-3.72v2.29h-12.6l-.07,1.01h11.7v5.03h5.02v5.18h-5.02v6.14h-16.17v-4.86h10.4v-1.27h-17.3v-5.18h17.3v-1.11h-11.63l.7-9.9h-.85v2.7h-5.19v-7.35h27.42Zm-5.4,5.67v-1.01h-10.58l-.07,1.01h10.65Z"/><path class="cls-4" d="M281.95,17.6v3.6h-10.99v.67h8.7v13.35h-23.1v-13.35h8.7v-.67h-10.91v-3.6h10.91v-.79h5.7v.79h10.99Zm.15,18.37v3.6h-8.33l8.64,1.61-2.71,3.88-10.27-2.96,2.65-2.54h-6.99l1.71,2.36-9.87,3.18-2.48-3.71,8.29-1.83h-8.32v-3.6h27.67Zm-7.91-11.18h-12.38v.79h12.38v-.79Zm0,3.38h-12.38v.75h12.38v-.75Zm0,3.34h-12.38v.78h12.38v-.78Z"/><polygon class="cls-4" points="311 19.43 311 24.31 299.09 24.31 297.61 26 302.97 26 305.17 28 310.62 25.7 313.24 30.76 307.13 33.6 307.13 37.32 301.17 37.32 301.17 35.85 296.7 38.01 296.7 38.49 311.94 38.49 311.94 44.32 295.5 44.32 291.24 41.86 291.24 34.96 299.53 31.14 293.1 31.14 289.27 35.49 285.04 31.52 291.46 24.31 287.18 24.31 287.18 19.43 295.81 19.43 297.95 17.03 305.48 17.03 303.38 19.43 311 19.43"/><path class="cls-4" d="M325.61,20.68v5.39h-1.27v2.29l1.2-.21v-.64h19.95v3.44h-9.3v.6h8.93v5.17l-1.26,1.61,2.23,1.65-1.9,4.94-3.02-2.53-2.46,2.58-2.52-3.3v2.99h-4.35v-1.79l-5.92,.59v-4.26l.53-.03v-8.22h-.84v2.55l-1.27,.34v10.68h-6.3v-5.54h1.58v-3.93l-2.11,.56-.37-6.01,2.47-.43v-3.11h-2.11v-5.39h2.11v-3.75h4.72v3.75h1.27Zm19.2,6.08h-18.44v-9.83h18.44v9.83Zm-12.98,4.19h-1.42v.75h1.42v-.75Zm-1.42,4.28h1.42v-.75h-1.42v.75Zm0,2.69v1l1.42-.09v-.91h-1.42Zm9.16-18.08h-8.03v.69h8.03v-.69Zm0,3.31h-8.03v.75h8.03v-.75Zm-3.38,12.73v4.95l1.8-2.07-1.8-2.89Zm4.36,.7l1.11-1.58h-2.27l1.16,1.58Z"/><polygon class="cls-4" points="367.15 23.26 373.81 28.66 373.81 37.58 366.46 44.29 353.6 44.29 353.6 38.35 364.22 38.35 367.85 35.15 367.85 31.52 365.08 29.31 350.9 29.31 350.9 23.26 367.15 23.26"/><polygon class="cls-4" points="404.63 18.61 404.63 25.44 390.42 34.84 390.42 36.16 393.54 37.89 402.6 37.89 402.6 44.29 393.45 44.29 383.49 38.76 383.49 32.41 395.1 24.8 377.94 24.8 377.94 18.61 404.63 18.61"/><path class="cls-4" d="M418.13,20.71v5.19h-1.63v2.51l1.7-.26v5.18l-1.7,.4v10.8h-6.52v-5.54h1.58v-4.1l-2.52,.57v-5.88l2.52-.4v-3.28h-2.52v-5.19h2.52v-3.71h4.94v3.71h1.63Zm18.59,8.14v4.88l-2.7,3.57,3.49,1.38-2.02,5.68-6.93-3.35-7.18,3.72-2.89-5.27,5.14-2.17-3.21-3.27h-1.11v-5.17h17.4Zm-3.85-11.92v5.99h1.35v-2.69h2.7v7.72h-9.3v-5.62h-2.1l-.98,6-5.39-.6,1.8-10.8h11.92Zm-4.51,18.66l1.58-1.57h-3.21l1.63,1.57Z"/><path class="cls-4" d="M449.83,17.46v4.79l-1.27,.09v1.57h1.27v5.24h-1.27v.16l1.39,2.62v5.89l-1.39-2.48v9.32h-4.5v-8.45l-2.21,3.59-.79-6.66,2.83-3.98h-2.67v-5.24h2.84v-1.25l-2.62,.19-.22-4.72,8.61-.67Zm12.3-.45v.97h6.68v3.75h-18.46v-3.75h6.46v-.97h5.32Zm6.23,13.42v14.24h-6.23v-1.88h-5.7v-7.71h6.23v4.95h.89v-5.77h-8.1v10.4h-4.64v-14.24h17.55Zm-1.42-.75h-15.07v-7.19h15.07v7.19Zm-4.8-4.12h-5.24v.97h5.24v-.97Zm-1.88,12.67h-1.2v1.2h1.2v-1.2Z"/><polygon class="cls-4" points="480.29 18.61 480.29 35.94 482.36 37.96 488.77 37.96 494.59 28.66 500.14 31.86 492.41 44.29 479.36 44.29 473.92 38.86 473.92 18.61 480.29 18.61"/><path class="cls-4" d="M528.18,20.71v6.05h-7.27v4.73l9.04,4.79-2.86,6.31-5.98-3.41-2.9,5.11h-10.09l-4.83-7.19,4.23-7.16h6.9v-12.07h6.49v2.84h7.27Zm-13.76,14.71h-3.71v2.4h3.71v-2.4Z"/><path class="cls-4" d="M554.9,25.92l4.35,2.96v8.89l-7.35,6.55h-14.33v-6.4h11.82l3.34-2.99v-3.12h-18.72v-5.89h20.89Zm1.17-1.76h-18.57v-5.67h18.57v5.67Z"/><path class="cls-4" d="M577.35,40.7l-4.88,3.43-4.91-3.43,4.91-3.46,4.88,3.46Zm-1.24-23.55l-1.47,19.35h-4.38l-1.42-19.35h7.27Z"/></g></g></g></g></svg>